<svg width="318" height="319" viewBox="0 0 318 319" fill="none" xmlns="http://www.w3.org/2000/svg">
<rect width="318" height="319" rx="159" fill="black"/>
<path d="M20 192.283H18.7175V191V178.196V176.913H20H31.5218L31.5218 165.399L31.5218 152.601V151.319H32.8043H44.3189L44.3189 139.797V138.515H45.6014H57.116V127V125.718H58.3985H71.2029L84 125.718H96.8043H109.601H122.406H123.688V127L123.688 138.515H135.203H136.485V139.797V151.319H148.007H149.29V152.601V165.399V176.913H156.988H160.804H168.51V165.399V152.601V151.319H169.793H181.307V139.797V138.515H182.59H194.112V127V125.718H195.394H208.191H220.996H233.793H246.59H259.394H260.677V127V138.515H272.191H273.474V139.797V151.319H284.996H286.278V152.601V165.399V176.913H297.793H299.075V178.196V191V192.283H297.793H284.996H272.191H259.394H246.59H233.793H220.996H208.191H195.394H182.59H169.793H160.804H156.988H148.007L135.203 192.283H122.406H109.601H96.8043H84H71.2029H58.3985H45.6014H32.8043H20Z" fill="black" stroke="#33E6BF" stroke-width="2.56501"/>
<path d="M58.3977 178.195H45.6006V165.398H58.3977V178.195Z" fill="#33E6BF"/>
<path d="M109.602 152.6H96.8047V139.803H109.602V152.6Z" fill="#33E6BF"/>
<path d="M96.7981 165.397H84.001V152.6H96.7981V165.397Z" fill="#33E6BF"/>
<path d="M71.1936 165.397H58.3965V152.6H71.1936V165.397Z" fill="#33E6BF"/>
<path d="M83.9973 152.6H71.2002V139.803H83.9973V152.6Z" fill="#33E6BF"/>
<path d="M122.399 165.398H109.602V152.6H122.399V165.398Z" fill="#33E6BF"/>
<path d="M135.203 178.195H122.406V165.398H135.203V178.195Z" fill="#33E6BF"/>
<path d="M272.194 178.195H259.396V165.398H272.194V178.195Z" fill="#33E6BF"/>
<path d="M220.988 152.6H208.191V139.803H220.988V152.6Z" fill="#33E6BF"/>
<path d="M233.792 165.397H220.995V152.6H233.792V165.397Z" fill="#33E6BF"/>
<path d="M259.39 165.397H246.593V152.6H259.39V165.397Z" fill="#33E6BF"/>
<path d="M246.589 152.6H233.792V139.803H246.589V152.6Z" fill="#33E6BF"/>
<path d="M208.193 165.398H195.396V152.6H208.193V165.398Z" fill="#33E6BF"/>
<path d="M195.384 178.195H182.587V165.398H195.384V178.195Z" fill="#33E6BF"/>
</svg>
