<svg width="36" height="36" viewBox="0 0 36 36" fill="none" xmlns="http://www.w3.org/2000/svg">
<path d="M18 0.932617C13.8446 0.93279 9.82486 2.41157 6.65999 5.10435C3.49512 7.79713 1.39167 11.5282 0.726031 15.63C0.0603872 19.7317 0.875979 23.9365 3.02687 27.4919C5.17776 31.0474 8.5236 33.7215 12.4657 35.0357C13.3407 35.1889 13.6688 34.6639 13.6688 34.2045C13.6688 33.7889 13.6469 32.4107 13.6469 30.9451C9.25005 31.7545 8.11255 29.8733 7.76255 28.8889C7.37418 27.9315 6.75853 27.0831 5.9688 26.417C5.3563 26.0889 4.4813 25.2795 5.94691 25.2577C6.50653 25.3184 7.04327 25.5131 7.51165 25.8253C7.98003 26.1376 8.36624 26.5581 8.63755 27.0513C8.8769 27.4813 9.19874 27.8598 9.58463 28.1652C9.97052 28.4706 10.4129 28.6968 10.8864 28.8309C11.3598 28.9651 11.8551 29.0044 12.3438 28.9468C12.8326 28.8892 13.3051 28.7357 13.7344 28.4951C13.8101 27.6054 14.2066 26.7736 14.85 26.1545C10.9563 25.717 6.88755 24.2076 6.88755 17.5139C6.86296 15.7747 7.50475 14.0919 8.6813 12.8108C8.14629 11.2992 8.20889 9.64029 8.8563 8.1733C8.8563 8.1733 10.3219 7.7139 13.6688 9.96704C16.5323 9.1795 19.5553 9.1795 22.4188 9.96704C25.7656 7.69204 27.2313 8.1733 27.2313 8.1733C27.8788 9.64027 27.9414 11.2992 27.4063 12.8108C28.5864 14.0897 29.2287 15.774 29.2 17.5139C29.2 24.2295 25.1094 25.717 21.2157 26.1545C21.6333 26.5778 21.955 27.0861 22.1588 27.6447C22.3626 28.2033 22.4438 28.7993 22.3969 29.392C22.3969 31.7327 22.375 33.6139 22.375 34.2045C22.375 34.6639 22.7032 35.2108 23.5782 35.0358C27.5133 33.7108 30.8495 31.0305 32.9913 27.4732C35.133 23.9159 35.9408 19.7133 35.2706 15.6155C34.6003 11.5177 32.4956 7.79152 29.3321 5.10201C26.1686 2.41251 22.1523 0.934778 18 0.932617Z" fill="white"/>
</svg>
