<svg width="71" height="70" viewBox="0 0 71 70" fill="none" xmlns="http://www.w3.org/2000/svg">
<g clip-path="url(#clip0_2708_6984)">
<path d="M65.916 54.6875H68.1035V56.875H65.916V59.0625H63.7285V56.875H6.85352V54.6875H9.04102V26.25H11.2285V54.6875H22.166V26.25H24.3535V54.6875H26.541V35H28.7285V54.6875H39.666V35H41.8535V54.6875H44.041V43.75H46.2285V54.6875H57.166V43.75H59.3535V54.6875H63.7285V52.5H65.916V54.6875ZM61.541 61.25H63.7285V59.0625H61.541V61.25ZM61.541 50.3125V52.5H63.7285V50.3125H61.541ZM0.291016 15.3125H2.47852V13.125H0.291016V15.3125ZM9.04102 13.125V10.9375H6.85352V8.75H4.66602V10.9375H2.47852V13.125H4.66602V54.6875H6.85352V13.125H9.04102ZM11.2285 15.3125V13.125H9.04102V15.3125H11.2285ZM57.166 41.5625H46.2285V43.75H57.166V41.5625ZM39.666 32.8125H28.7285V35H39.666V32.8125ZM22.166 24.0625H11.2285V26.25H22.166V24.0625ZM15.6035 8.75V10.9375H17.791V8.75H15.6035ZM17.791 10.9375V13.125H19.9785V10.9375H17.791ZM19.9785 13.125V15.3125H22.166V13.125H19.9785ZM22.166 15.3125V17.5H24.3535V15.3125H22.166ZM24.3535 17.5V19.6875H26.541V17.5H24.3535ZM26.541 19.6875V21.875H28.7285V19.6875H26.541ZM28.7285 24.0625H30.916V21.875H28.7285V24.0625ZM30.916 21.875H33.1035V19.6875H30.916V21.875ZM33.1035 19.6875H35.291V17.5H33.1035V19.6875ZM35.291 15.3125V17.5H37.4785V15.3125H35.291ZM37.4785 17.5V19.6875H39.666V17.5H37.4785ZM39.666 19.6875V21.875H41.8535V19.6875H39.666ZM41.8535 21.875V24.0625H44.041V21.875H41.8535ZM44.041 24.0625V26.25H46.2285V24.0625H44.041ZM48.416 28.4375V26.25H46.2285V28.4375H48.416ZM50.6035 30.625V28.4375H48.416V30.625H50.6035ZM54.9785 28.4375H52.791V32.8125H48.416V35H54.9785V28.4375Z" fill="#FFD911"/>
</g>
<defs>
<clipPath id="clip0_2708_6984">
<rect width="70" height="70" fill="white" transform="translate(0.291016)"/>
</clipPath>
</defs>
</svg>
