<svg width="71" height="70" viewBox="0 0 71 70" fill="none" xmlns="http://www.w3.org/2000/svg">
<path d="M50.4805 13.125V15.3125H32.9805V13.125H35.168V10.9375H37.3555V13.125H41.7305V10.9375H43.918V13.125H48.293V10.9375H50.4805V13.125ZM43.918 8.75V10.9375H46.1055H48.293V8.75V6.5625H46.1055V8.75H43.918ZM32.9805 8.75V6.5625H30.793V8.75V10.9375H32.9805H35.168V8.75H32.9805ZM46.1055 4.375H32.9805V6.5625H46.1055V4.375ZM50.4805 15.3125V17.5H52.668V15.3125H50.4805ZM54.8555 17.5H52.668V24.0625H54.8555V17.5ZM52.668 24.0625H50.4805V28.4375H52.668V24.0625ZM50.4805 28.4375H48.293V32.8125H50.4805V28.4375ZM30.793 35V37.1875H32.9805V35H46.1055V37.1875H48.293V35V32.8125H28.6055V35H30.793ZM28.6055 13.125H30.793V10.9375H28.6055V13.125ZM6.73047 15.3125H28.6055V13.125H6.73047V15.3125ZM6.73047 28.4375V30.625H26.418V28.4375H6.73047ZM28.6055 32.8125V30.625H26.418V32.8125H28.6055ZM39.543 39.375V37.1875H37.3555V39.375H35.168V41.5625H37.3555V45.9375H35.168V48.125H37.3555V54.6875H35.168V56.875H37.3555V59.0625H39.543V56.875H41.7305V54.6875H39.543V50.3125H41.7305V48.125H39.543V41.5625H41.7305V39.375H39.543ZM41.7305 43.75H43.918V41.5625H41.7305V43.75ZM32.9805 41.5625V45.9375H35.168V41.5625H32.9805ZM32.9805 52.5V54.6875H35.168V52.5H32.9805ZM43.918 54.6875V50.3125H41.7305V54.6875H43.918ZM30.793 37.1875H28.6055V39.375H30.793V37.1875ZM28.6055 39.375H26.418V43.75H28.6055V39.375ZM26.418 43.75H24.2305V48.125H26.418V43.75ZM22.043 48.125V54.6875H24.2305V48.125H22.043ZM24.2305 54.6875V59.0625H26.418V54.6875H24.2305ZM26.418 59.0625V61.25H28.6055V59.0625H26.418ZM28.6055 61.25V63.4375H32.9805V61.25H28.6055ZM50.4805 39.375V37.1875H48.293V39.375H50.4805ZM52.668 43.75V39.375H50.4805V43.75H52.668ZM54.8555 48.125V43.75H52.668V48.125H54.8555ZM57.043 54.6875V48.125H54.8555V54.6875H57.043ZM52.668 59.0625H54.8555V54.6875H52.668V59.0625ZM50.4805 61.25H52.668V59.0625H50.4805V61.25ZM46.1055 63.4375H50.4805V61.25H46.1055V63.4375ZM32.9805 65.625H46.1055V63.4375H32.9805V65.625Z" fill="#F29DFF"/>
</svg>
