<svg width="71" height="70" viewBox="0 0 71 70" fill="none" xmlns="http://www.w3.org/2000/svg">
<g clip-path="url(#clip0_4001_328)">
<path d="M27.8484 44.1304H23.2832V48.6955H27.8484V44.1304Z" fill="#FFD911"/>
<path d="M47.6316 36.5215H43.0664V48.6953H47.6316V36.5215Z" fill="#FFD911"/>
<path d="M27.8484 21.3042H23.2832V31.9564H27.8484V21.3042Z" fill="#FFD911"/>
<path d="M43.065 31.9565H27.8477V36.5217H43.065V31.9565Z" fill="#FFD911"/>
<path d="M36.978 16.7393V10.6523H32.4128V16.7393H27.8477V21.3045H43.065V16.7393H36.978Z" fill="#FFD911"/>
<path d="M47.6316 21.3042H43.0664V25.8694H47.6316V21.3042Z" fill="#FFD911"/>
<path d="M27.8477 48.6958V53.261H32.4128V59.348H36.978V53.261H43.065V48.6958H27.8477Z" fill="#FFD911"/>
<path d="M14.1531 9.13037H9.58789V13.6955H14.1531V9.13037Z" fill="#FFD911"/>
<path d="M23.2828 4.56494H14.1523V9.13012H23.2828V4.56494Z" fill="#FFD911"/>
<path d="M47.631 0H23.2832V4.56518H47.631V0Z" fill="#FFD911"/>
<path d="M61.3269 9.13037H56.7617V13.6955H61.3269V9.13037Z" fill="#FFD911"/>
<path d="M56.7613 4.56494H47.6309V9.13012H56.7613V4.56494Z" fill="#FFD911"/>
<path d="M65.8913 13.6958H61.3262V22.8263H65.8913V13.6958Z" fill="#FFD911"/>
<path d="M70.4578 22.8262H65.8926V47.174H70.4578V22.8262Z" fill="#FFD911"/>
<path d="M65.8913 47.1738H61.3262V56.3043H65.8913V47.1738Z" fill="#FFD911"/>
<path d="M5.02221 22.8262H0.457031V47.174H5.02221V22.8262Z" fill="#FFD911"/>
<path d="M9.58666 13.6958H5.02148V22.8263H9.58666V13.6958Z" fill="#FFD911"/>
<path d="M9.58666 47.1738H5.02148V56.3043H9.58666V47.1738Z" fill="#FFD911"/>
<path d="M14.1531 56.3047H9.58789V60.8699H14.1531V56.3047Z" fill="#FFD911"/>
<path d="M47.631 65.4351H23.2832V70.0002H47.631V65.4351Z" fill="#FFD911"/>
<path d="M56.7613 60.8696H47.6309V65.4348H56.7613V60.8696Z" fill="#FFD911"/>
<path d="M23.2828 60.8696H14.1523V65.4348H23.2828V60.8696Z" fill="#FFD911"/>
<path d="M61.3269 56.3042H56.7617V60.8694H61.3269V56.3042Z" fill="#FFD911"/>
<rect x="14.166" y="11" width="4" height="4" fill="#FFD911"/>
<rect x="18.166" y="15" width="4" height="4" fill="#FFD911"/>
<rect x="22.166" y="19" width="4" height="4" fill="#FFD911"/>
<rect x="26.166" y="23" width="4" height="4" fill="#FFD911"/>
<rect x="30.166" y="27" width="4" height="4" fill="#FFD911"/>
<rect x="34.166" y="31" width="4" height="4" fill="#FFD911"/>
<rect x="38.166" y="35" width="4" height="4" fill="#FFD911"/>
<rect x="42.166" y="39" width="4" height="4" fill="#FFD911"/>
<rect x="46.166" y="43" width="4" height="4" fill="#FFD911"/>
<rect x="50.166" y="47" width="4" height="4" fill="#FFD911"/>
<rect x="54.166" y="51" width="4" height="4" fill="#FFD911"/>
<rect x="58.166" y="55" width="4" height="4" fill="#FFD911"/>
</g>
<defs>
<clipPath id="clip0_4001_328">
<rect width="70" height="70" fill="white" transform="translate(0.457031)"/>
</clipPath>
</defs>
</svg>
