<svg width="71" height="70" viewBox="0 0 71 70" fill="none" xmlns="http://www.w3.org/2000/svg">
<g clip-path="url(#clip0_4001_244)">
<path d="M48.049 47.1738H23.7012V51.739H48.049V47.1738Z" fill="#FFD911"/>
<path d="M22.179 4.56494H14.5703V9.13012H22.179V4.56494Z" fill="#FFD911"/>
<path d="M14.571 9.13037H10.0059V13.6955H14.571V9.13037Z" fill="#FFD911"/>
<path d="M10.0046 13.6958H5.43945V21.3045H10.0046V13.6958Z" fill="#FFD911"/>
<path d="M10.0046 48.6958H5.43945V56.3045H10.0046V48.6958Z" fill="#FFD911"/>
<path d="M14.571 56.3042H10.0059V60.8694H14.571V56.3042Z" fill="#FFD911"/>
<path d="M22.179 60.8696H14.5703V65.4348H22.179V60.8696Z" fill="#FFD911"/>
<path d="M49.571 0H22.1797V4.56518H49.571V0Z" fill="#FFD911"/>
<path d="M49.571 65.4351H22.1797V70.0002H49.571V65.4351Z" fill="#FFD911"/>
<path d="M5.44018 21.3042H0.875V48.6955H5.44018V21.3042Z" fill="#FFD911"/>
<path d="M57.179 4.56494H49.5703V9.13012H57.179V4.56494Z" fill="#FFD911"/>
<path d="M61.7449 9.13037H57.1797V13.6955H61.7449V9.13037Z" fill="#FFD911"/>
<path d="M66.3093 13.6958H61.7441V21.3045H66.3093V13.6958Z" fill="#FFD911"/>
<path d="M66.3093 48.6958H61.7441V56.3045H66.3093V48.6958Z" fill="#FFD911"/>
<path d="M61.7449 56.3042H57.1797V60.8694H61.7449V56.3042Z" fill="#FFD911"/>
<path d="M57.179 60.8696H49.5703V65.4348H57.179V60.8696Z" fill="#FFD911"/>
<path d="M70.8757 21.3042H66.3105V48.6955H70.8757V21.3042Z" fill="#FFD911"/>
<path d="M26.7449 31.9565H22.1797V36.5217H26.7449V31.9565Z" fill="#FFD911"/>
<path d="M22.1785 27.3911H17.6133V31.9563H22.1785V27.3911Z" fill="#FFD911"/>
<path d="M22.1785 36.5215H17.6133V41.0867H22.1785V36.5215Z" fill="#FFD911"/>
<path d="M17.614 22.8262H13.0488V27.3913H17.614V22.8262Z" fill="#FFD911"/>
<path d="M17.614 41.0869H13.0488V45.6521H17.614V41.0869Z" fill="#FFD911"/>
<path d="M48.0495 31.9565H43.4844V36.5217H48.0495V31.9565Z" fill="#FFD911"/>
<path d="M52.614 27.3911H48.0488V31.9563H52.614V27.3911Z" fill="#FFD911"/>
<path d="M52.614 36.5215H48.0488V41.0867H52.614V36.5215Z" fill="#FFD911"/>
<path d="M57.1785 22.8262H52.6133V27.3913H57.1785V22.8262Z" fill="#FFD911"/>
<path d="M57.1785 41.0869H52.6133V45.6521H57.1785V41.0869Z" fill="#FFD911"/>
</g>
<defs>
<clipPath id="clip0_4001_244">
<rect width="70" height="70" fill="white" transform="translate(0.875)"/>
</clipPath>
</defs>
</svg>
