<svg width="71" height="70" viewBox="0 0 71 70" fill="none" xmlns="http://www.w3.org/2000/svg">
<path d="M29.7396 20.022H26.2832V32.6956H29.7396V20.022Z" fill="#F29DFF"/>
<path d="M44.7181 20.022H41.2617V32.6956H44.7181V20.022Z" fill="#F29DFF"/>
<path d="M41.2617 16.5659H29.7402V20.0223H41.2617V16.5659Z" fill="#F29DFF"/>
<path d="M41.261 36.1519V39.6084H29.7396V36.1519H26.2832V43.0648H44.7174V36.1519H41.261Z" fill="#F29DFF"/>
<path d="M33.1966 32.6958H29.7402V36.1522H33.1966V32.6958Z" fill="#F29DFF"/>
<path d="M41.2591 32.6958H37.8027V36.1522H41.2591V32.6958Z" fill="#F29DFF"/>
<path d="M58.5428 8.50098H12.457V11.9574H58.5428V8.50098Z" fill="#F29DFF"/>
<path d="M47.0208 54.5869V58.0434H23.978V54.5869H20.5215V61.4998H50.4774V54.5869H47.0208Z" fill="#F29DFF"/>
<path d="M40.1094 47.6738V54.5866H47.0222V51.1302H58.5437V47.6738H40.1094Z" fill="#F29DFF"/>
<path d="M12.4584 11.9565H9.00195V47.673H12.4584V11.9565Z" fill="#F29DFF"/>
<path d="M62.0013 11.9565H58.5449V47.673H62.0013V11.9565Z" fill="#F29DFF"/>
<path d="M12.457 47.6738V51.1302H23.9786V54.5866H30.8914V47.6738H12.457Z" fill="#F29DFF"/>
</svg>
