<svg width="71" height="70" viewBox="0 0 71 70" fill="none" xmlns="http://www.w3.org/2000/svg">
<g clip-path="url(#clip0_4001_400)">
<path d="M50.7281 47.1685L58.0474 40.1052L59.8133 41.9351C57.5199 44.1482 54.7873 46.7852 52.4939 48.9983L50.7281 47.1685ZM47.0044 54.2958L45.2386 52.466C44.3237 53.3489 42.4938 55.1147 41.5789 55.9976L43.3447 57.8274L47.0044 54.2958ZM46.8123 65.0828C44.5992 62.7894 41.9622 60.0568 39.7491 57.7634L41.5789 55.9976L39.8131 54.1678C38.8982 55.0507 37.0683 56.8165 36.1534 57.6994L44.9825 66.8486L46.8123 65.0828ZM36.1534 57.6994L34.3876 55.8695L32.5577 57.6354L34.3236 59.4652L36.1534 57.6994ZM32.6858 50.4441L34.5156 48.6782L32.7498 46.8484L30.92 48.6142L32.6858 50.4441ZM32.7498 46.8484L36.4095 43.3168L34.6437 41.4869C33.7287 42.3698 30.984 45.0186 30.984 45.0186L32.7498 46.8484ZM32.9419 36.0614L31.112 37.8272L34.6437 41.4869L36.4735 39.7211L38.3033 37.9553L36.5375 36.1254L34.7077 37.8913C34.0426 37.202 33.3833 36.5189 32.9419 36.0614ZM23.7286 48.4862L21.8988 50.252L30.7279 59.4012L32.5577 57.6354C29.7265 54.7015 26.5598 51.42 23.7286 48.4862ZM23.7927 44.8905L21.9628 46.6563L23.7286 48.4862L25.5585 46.7204L23.7927 44.8905ZM9.85817 19.4649C9.85817 19.4649 7.11342 22.1136 6.1985 22.9965L7.96432 24.8263L11.624 21.2947L9.85817 19.4649ZM29.3462 35.9974L25.8146 32.3377L29.4742 28.8061L27.7084 26.9763L24.0487 30.5079L13.4538 19.5289L11.624 21.2947L27.5164 37.7632C26.6014 38.6461 24.7716 40.412 23.8567 41.2949C22.9738 40.3799 8.84723 25.7412 7.96432 24.8263L6.13448 26.5921L23.7927 44.8905L31.112 37.8272L29.3462 35.9974ZM38.6874 16.3813L35.0278 19.913L36.7936 21.7428L40.4533 18.2112L38.6874 16.3813ZM43.8569 29.0622C41.6496 26.7749 39.048 24.0789 36.7936 21.7428L34.9637 23.5086L42.027 30.828L43.8569 29.0622ZM38.3674 34.3596L31.3041 27.0403L29.4742 28.8061L36.5375 36.1254L38.3674 34.3596ZM33.1979 21.6788L29.5383 25.2104L31.3041 27.0403L34.9637 23.5086L33.1979 21.6788ZM40.1332 36.1895L43.7928 32.6578L42.027 30.828L38.3674 34.3596L40.1332 36.1895ZM43.8569 29.0622L45.6227 30.892L49.2824 27.3604L58.1115 36.5096L56.2816 38.2754L58.0474 40.1052L59.8773 38.3394L66.9405 45.6587L68.7704 43.8929C57.6516 32.3711 53.4078 27.9733 42.2831 16.4454L40.4533 18.2112L47.5165 25.5305L43.8569 29.0622Z" fill="#F29DFF"/>
</g>
<defs>
<clipPath id="clip0_4001_400">
<rect width="70" height="70" fill="white" transform="translate(0.833984)"/>
</clipPath>
</defs>
</svg>
