<svg width="567" height="400" viewBox="0 0 567 400" fill="none" xmlns="http://www.w3.org/2000/svg">
<rect x="51" y="120" width="452" height="54" stroke="white" stroke-width="4" stroke-linejoin="bevel"/>
<path d="M77 140H79V152H85V154H77V140ZM92.68 140H98.68V142H96.68V152H98.68V154H92.68V152H94.68V142H92.68V140ZM108.36 140H114.36V142H108.36V140ZM114.36 142H116.36V150H114.36V142ZM114.36 150V152H112.36V150H114.36ZM114.36 152H116.36V154H114.36V152ZM112.36 152V154H108.36V152H112.36ZM108.36 152H106.36V142H108.36V152ZM112.36 150H110.36V148H112.36V150ZM122.04 140H124.04V152H122.04V140ZM124.04 152H130.04V154H124.04V152ZM130.04 152V140H132.04V152H130.04ZM139.72 140H145.72V142H143.72V152H145.72V154H139.72V152H141.72V142H139.72V140ZM151.4 140H161.4V142H155.4V152H161.4V154H153.4V142H151.4V140ZM161.4 142H163.4V152H161.4V142ZM171.08 140H177.08V142H175.08V152H177.08V154H171.08V152H173.08V142H171.08V140ZM184.76 140H194.76V142H190.76V154H188.76V142H184.76V140ZM200.44 140H202.44V146H200.44V140ZM202.44 146H204.44V148H202.44V146ZM204.44 148H206.44V154H204.44V148ZM206.44 148V146H208.44V148H206.44ZM208.44 146V140H210.44V146H208.44ZM229.8 140H231.8V144H233.8V146H231.8V154H229.8V140ZM233.8 146H237.8V148H233.8V146ZM237.8 146V144H239.8V140H241.8V154H239.8V146H237.8ZM249.48 140H255.48V142H249.48V140ZM255.48 142H257.48V154H255.48V150H249.48V154H247.48V142H249.48V148H255.48V142ZM263.16 140H265.16V142H267.16V144H265.16V154H263.16V140ZM267.16 144H269.16V146H267.16V144ZM269.16 146H271.16V140H273.16V154H271.16V148H269.16V146ZM280.84 140H286.84V142H280.84V140ZM286.84 142H288.84V154H286.84V150H280.84V154H278.84V142H280.84V148H286.84V142ZM296.52 140H304.52V142H296.52V140ZM296.52 142V152H294.52V142H296.52ZM296.52 152H302.52V148H300.52V146H304.52V154H296.52V152ZM310.2 140H320.2V142H312.2V146H318.2V148H312.2V152H320.2V154H310.2V140ZM325.88 140H333.88V142H327.88V146H333.88V150H331.88V148H327.88V154H325.88V140ZM333.88 142H335.88V146H333.88V142ZM333.88 150H335.88V154H333.88V150ZM359.24 140H365.24V142H359.24V140ZM365.24 142H367.24V144H365.24V142ZM359.24 142V152H357.24V142H359.24ZM359.24 152H365.24V154H359.24V152ZM365.24 152V150H367.24V152H365.24ZM376.92 140H382.92V142H376.92V140ZM382.92 142H384.92V152H382.92V142ZM382.92 152V154H376.92V152H382.92ZM376.92 152H374.92V142H376.92V152ZM388.6 140H390.6V142H392.6V144H390.6V154H388.6V140ZM392.6 144H394.6V146H392.6V144ZM394.6 146H396.6V140H398.6V154H396.6V148H394.6V146ZM404.28 140H414.28V142H410.28V154H408.28V142H404.28V140ZM419.96 140H427.96V142H421.96V146H427.96V150H425.96V148H421.96V154H419.96V140ZM427.96 142H429.96V146H427.96V142ZM427.96 150H429.96V154H427.96V150ZM437.64 140H443.64V142H437.64V140ZM443.64 142H445.64V154H443.64V150H437.64V154H435.64V142H437.64V148H443.64V142ZM453.32 140H459.32V142H453.32V140ZM459.32 142H461.32V144H459.32V142ZM453.32 142V152H451.32V142H453.32ZM453.32 152H459.32V154H453.32V152ZM459.32 152V150H461.32V152H459.32ZM467 140H477V142H473V154H471V142H467V140Z" fill="white"/>
<rect x="242" y="220" width="70" height="39" stroke="#0439C7" stroke-width="4" stroke-linejoin="bevel"/>
<rect x="206" y="260" width="142" height="39" stroke="#0439C7" stroke-width="4" stroke-linejoin="bevel"/>
<rect x="157" y="300" width="240" height="39" stroke="#0439C7" stroke-width="4" stroke-linejoin="bevel"/>
<path d="M66.6 58.5H69.1V73.5H66.6V58.5ZM69.1 73.5H76.6V76H69.1V73.5ZM76.6 73.5V58.5H79.1V73.5H76.6ZM88.7 58.5H96.2V61H88.7V58.5ZM96.2 61H98.7V63.5H96.2V61ZM88.7 61V66H86.2V61H88.7ZM88.7 66H96.2V68.5H88.7V66ZM96.2 68.5H98.7V73.5H96.2V68.5ZM96.2 73.5V76H88.7V73.5H96.2ZM88.7 73.5H86.2V71H88.7V73.5ZM103.3 58.5H115.8V61H108.3V73.5H115.8V76H105.8V61H103.3V58.5ZM115.8 61H118.3V73.5H115.8V61ZM127.9 58.5H135.4V61H127.9V58.5ZM135.4 61H137.9V63.5H135.4V61ZM127.9 61V73.5H125.4V61H127.9ZM127.9 73.5H135.4V76H127.9V73.5ZM135.4 73.5V71H137.9V73.5H135.4Z" fill="white"/>
<path d="M2.5 0.5H5V15.5H2.5V0.5ZM5 15.5H12.5V18H5V15.5ZM12.5 15.5V0.5H15V15.5H12.5ZM24.6 0.5H32.1V3H24.6V0.5ZM32.1 3H34.6V5.5H32.1V3ZM24.6 3V8H22.1V3H24.6ZM24.6 8H32.1V10.5H24.6V8ZM32.1 10.5H34.6V15.5H32.1V10.5ZM32.1 15.5V18H24.6V15.5H32.1ZM24.6 15.5H22.1V13H24.6V15.5ZM41.7 0.5H54.2V3H44.2V8H51.7V10.5H44.2V15.5H54.2V18H41.7V0.5ZM61.3 0.5H71.3V3H63.8V8H71.3V13H68.8V10.5H63.8V18H61.3V0.5ZM71.3 3H73.8V8H71.3V3ZM71.3 13H73.8V18H71.3V13ZM103 3H110.5V5.5H103V3ZM110.5 5.5H113V8H110.5V5.5ZM103 5.5V15.5H100.5V5.5H103ZM103 15.5H113V18H103V15.5ZM122.6 3H125.1V15.5H122.6V3ZM125.1 15.5H130.1V18H125.1V15.5ZM142.2 3H149.7V5.5H142.2V3ZM149.7 5.5H152.2V18H142.2V15.5H149.7V10.5H142.2V8H149.7V5.5ZM142.2 15.5H139.7V10.5H142.2V15.5ZM164.3 0.5H166.8V3H164.3V0.5ZM161.8 5.5H166.8V15.5H169.3V18H161.8V15.5H164.3V8H161.8V5.5ZM178.9 3H183.9V5.5H178.9V3ZM183.9 5.5H186.4V18H183.9V5.5ZM186.4 5.5V3H191.4V5.5H186.4ZM191.4 5.5H193.9V18H191.4V5.5ZM178.9 5.5V18H176.4V5.5H178.9ZM201 0.5H208.5V3H201V0.5ZM208.5 3H211V5.5H208.5V3ZM201 3V8H198.5V3H201ZM201 8H208.5V10.5H201V8ZM208.5 10.5H211V15.5H208.5V10.5ZM208.5 15.5V18H201V15.5H208.5ZM201 15.5H198.5V13H201V15.5Z" fill="white"/>
<path d="M234.8 382.5H244.8V385H237.3V390H244.8V392.5H237.3V400H234.8V382.5ZM244.8 385H247.3V390H244.8V385ZM254.4 382.5H264.4V385H256.9V390H264.4V395H261.9V392.5H256.9V400H254.4V382.5ZM264.4 385H266.9V390H264.4V385ZM264.4 395H266.9V400H264.4V395ZM276.5 382.5H284V385H281.5V397.5H284V400H276.5V397.5H279V385H276.5V382.5ZM296.1 382.5H303.6V385H296.1V382.5ZM303.6 385H306.1V387.5H303.6V385ZM296.1 385V397.5H293.6V385H296.1ZM296.1 397.5H303.6V400H296.1V397.5ZM303.6 397.5V395H306.1V397.5H303.6ZM313.2 382.5H325.7V385H315.7V390H323.2V392.5H315.7V397.5H325.7V400H313.2V382.5Z" fill="white"/>
<path d="M372.8 243.5H375.3V251H372.8V243.5ZM375.3 251H377.8V253.5H375.3V251ZM377.8 253.5H380.3V261H377.8V253.5ZM380.3 253.5V251H382.8V253.5H380.3ZM382.8 251V243.5H385.3V251H382.8ZM394.9 243.5H402.4V246H399.9V258.5H402.4V261H394.9V258.5H397.4V246H394.9V243.5ZM412 243.5H424.5V246H414.5V251H422V253.5H414.5V258.5H424.5V261H412V243.5ZM434.1 243.5H436.6V258.5H444.1V261H434.1V243.5ZM448.7 243.5H461.2V246H453.7V258.5H461.2V261H451.2V246H448.7V243.5ZM461.2 246H463.7V258.5H461.2V246ZM475.8 248.5H478.3V251H475.8V248.5ZM475.8 256H478.3V258.5H475.8V256ZM490.4 243.5H492.9V258.5H490.4V243.5ZM492.9 258.5H500.4V261H492.9V258.5ZM500.4 258.5V243.5H502.9V258.5H500.4ZM512.5 243.5H520V246H512.5V243.5ZM520 246H522.5V248.5H520V246ZM512.5 246V251H510V246H512.5ZM512.5 251H520V253.5H512.5V251ZM520 253.5H522.5V258.5H520V253.5ZM520 258.5V261H512.5V258.5H520ZM512.5 258.5H510V256H512.5V258.5ZM527.1 243.5H539.6V246H532.1V258.5H539.6V261H529.6V246H527.1V243.5ZM539.6 246H542.1V258.5H539.6V246ZM551.7 243.5H559.2V246H551.7V243.5ZM559.2 246H561.7V248.5H559.2V246ZM551.7 246V258.5H549.2V246H551.7ZM551.7 258.5H559.2V261H551.7V258.5ZM559.2 258.5V256H561.7V258.5H559.2Z" fill="white"/>
<line x1="279" y1="199" x2="279" y2="376" stroke="white" stroke-width="4" stroke-dasharray="8 8"/>
<line x1="231.992" y1="10" x2="264.008" y2="10" stroke="white" stroke-width="3"/>
<path d="M169 70L184 78.6603L184 61.3397L169 70ZM182.5 71.5L217 71.5L217 68.5L182.5 68.5L182.5 71.5Z" fill="white"/>
<path d="M264 109L272.66 94L255.34 94L264 109ZM262.5 11L262.5 95.5L265.5 95.5L265.5 11L262.5 11Z" fill="white"/>
<path d="M216 71L216 109" stroke="white" stroke-width="3"/>
<path d="M466 274L466 319" stroke="white" stroke-width="3"/>
<line x1="434" y1="318.5" x2="466.016" y2="318.5" stroke="white" stroke-width="3"/>
<path d="M466 192L457.34 207L474.66 207L466 192ZM464.5 205.5L464.5 237L467.5 237L467.5 205.5L464.5 205.5Z" fill="white"/>
</svg>
