<svg width="658" height="373" viewBox="0 0 658 373" fill="none" xmlns="http://www.w3.org/2000/svg">
<rect x="96" y="80" width="452" height="54" stroke="white" stroke-width="4" stroke-linejoin="bevel"/>
<path d="M122 100H124V112H130V114H122V100ZM137.68 100H143.68V102H141.68V112H143.68V114H137.68V112H139.68V102H137.68V100ZM153.36 100H159.36V102H153.36V100ZM159.36 102H161.36V110H159.36V102ZM159.36 110V112H157.36V110H159.36ZM159.36 112H161.36V114H159.36V112ZM157.36 112V114H153.36V112H157.36ZM153.36 112H151.36V102H153.36V112ZM157.36 110H155.36V108H157.36V110ZM167.04 100H169.04V112H167.04V100ZM169.04 112H175.04V114H169.04V112ZM175.04 112V100H177.04V112H175.04ZM184.72 100H190.72V102H188.72V112H190.72V114H184.72V112H186.72V102H184.72V100ZM196.4 100H206.4V102H200.4V112H206.4V114H198.4V102H196.4V100ZM206.4 102H208.4V112H206.4V102ZM216.08 100H222.08V102H220.08V112H222.08V114H216.08V112H218.08V102H216.08V100ZM229.76 100H239.76V102H235.76V114H233.76V102H229.76V100ZM245.44 100H247.44V106H245.44V100ZM247.44 106H249.44V108H247.44V106ZM249.44 108H251.44V114H249.44V108ZM251.44 108V106H253.44V108H251.44ZM253.44 106V100H255.44V106H253.44ZM274.8 100H276.8V104H278.8V106H276.8V114H274.8V100ZM278.8 106H282.8V108H278.8V106ZM282.8 106V104H284.8V100H286.8V114H284.8V106H282.8ZM294.48 100H300.48V102H294.48V100ZM300.48 102H302.48V114H300.48V110H294.48V114H292.48V102H294.48V108H300.48V102ZM308.16 100H310.16V102H312.16V104H310.16V114H308.16V100ZM312.16 104H314.16V106H312.16V104ZM314.16 106H316.16V100H318.16V114H316.16V108H314.16V106ZM325.84 100H331.84V102H325.84V100ZM331.84 102H333.84V114H331.84V110H325.84V114H323.84V102H325.84V108H331.84V102ZM341.52 100H349.52V102H341.52V100ZM341.52 102V112H339.52V102H341.52ZM341.52 112H347.52V108H345.52V106H349.52V114H341.52V112ZM355.2 100H365.2V102H357.2V106H363.2V108H357.2V112H365.2V114H355.2V100ZM370.88 100H378.88V102H372.88V106H378.88V110H376.88V108H372.88V114H370.88V100ZM378.88 102H380.88V106H378.88V102ZM378.88 110H380.88V114H378.88V110ZM404.24 100H410.24V102H404.24V100ZM410.24 102H412.24V104H410.24V102ZM404.24 102V112H402.24V102H404.24ZM404.24 112H410.24V114H404.24V112ZM410.24 112V110H412.24V112H410.24ZM421.92 100H427.92V102H421.92V100ZM427.92 102H429.92V112H427.92V102ZM427.92 112V114H421.92V112H427.92ZM421.92 112H419.92V102H421.92V112ZM433.6 100H435.6V102H437.6V104H435.6V114H433.6V100ZM437.6 104H439.6V106H437.6V104ZM439.6 106H441.6V100H443.6V114H441.6V108H439.6V106ZM449.28 100H459.28V102H455.28V114H453.28V102H449.28V100ZM464.96 100H472.96V102H466.96V106H472.96V110H470.96V108H466.96V114H464.96V100ZM472.96 102H474.96V106H472.96V102ZM472.96 110H474.96V114H472.96V110ZM482.64 100H488.64V102H482.64V100ZM488.64 102H490.64V114H488.64V110H482.64V114H480.64V102H482.64V108H488.64V102ZM498.32 100H504.32V102H498.32V100ZM504.32 102H506.32V104H504.32V102ZM498.32 102V112H496.32V102H498.32ZM498.32 112H504.32V114H498.32V112ZM504.32 112V110H506.32V112H504.32ZM512 100H522V102H518V114H516V102H512V100Z" fill="white"/>
<rect x="287" y="180" width="70" height="39" stroke="#33E6BF" stroke-width="4" stroke-linejoin="bevel"/>
<rect x="251" y="220" width="142" height="39" stroke="#33E6BF" stroke-width="4" stroke-linejoin="bevel"/>
<rect x="202" y="260" width="240" height="39" stroke="#33E6BF" stroke-width="4" stroke-linejoin="bevel"/>
<path d="M55 190H57V192H59V194H57V204H55V190ZM59 194H61V196H59V194ZM61 196H63V190H65V204H63V198H61V196ZM72.68 192H78.68V194H72.68V192ZM78.68 194H80.68V204H72.68V202H78.68V198H72.68V196H78.68V194ZM72.68 202H70.68V198H72.68V202ZM88.36 192H90.36V194H92.36V196H90.36V204H88.36V192ZM92.36 194V192H96.36V194H92.36ZM104.04 192H106.04V194H108.04V196H106.04V204H104.04V192ZM108.04 194V192H112.04V194H108.04ZM119.72 192H125.72V194H119.72V192ZM125.72 194H127.72V202H125.72V194ZM125.72 202V204H119.72V202H125.72ZM119.72 202H117.72V194H119.72V202ZM143.4 192H145.4V202H143.4V192ZM143.4 202V204H139.4V202H143.4ZM139.4 202H137.4V194H139.4V202ZM137.4 202V204H135.4V202H137.4ZM135.4 202H133.4V194H135.4V202ZM164.76 190H172.76V192H166.76V196H172.76V198H166.76V202H172.76V204H164.76V190ZM172.76 192H174.76V196H172.76V192ZM172.76 198H174.76V202H172.76V198ZM182.44 192H188.44V194H182.44V192ZM188.44 194H190.44V204H182.44V202H188.44V198H182.44V196H188.44V194ZM182.44 202H180.44V198H182.44V202ZM200.12 192H204.12V194H200.12V192ZM204.12 194H206.12V204H204.12V194ZM200.12 194V196H198.12V204H196.12V194H200.12ZM219.8 190H221.8V204H213.8V202H219.8V196H213.8V194H219.8V190ZM213.8 202H211.8V196H213.8V202ZM245.16 190H247.16V202H253.16V204H245.16V190ZM258.84 190H266.84V192H260.84V196H266.84V198H260.84V204H258.84V190ZM266.84 192H268.84V196H266.84V192Z" fill="white"/>
<path d="M37.6 8H39.6V14H37.6V8ZM39.6 14H41.6V16H39.6V14ZM41.6 16H43.6V22H41.6V16ZM43.6 16V14H45.6V16H43.6ZM45.6 14V8H47.6V14H45.6ZM55.28 10H61.28V12H55.28V10ZM61.28 12H63.28V20H61.28V12ZM61.28 20V22H55.28V20H61.28ZM55.28 20H53.28V12H55.28V20ZM68.96 10H70.96V20H68.96V10ZM70.96 20H74.96V22H70.96V20ZM74.96 20V18H76.96V10H78.96V22H76.96V20H74.96ZM86.64 10H88.64V12H90.64V14H88.64V22H86.64V10ZM90.64 12V10H94.64V12H90.64ZM118 10H124V12H118V10ZM124 12H126V22H118V20H124V16H118V14H124V12ZM118 20H116V16H118V20ZM133.68 10H139.68V12H133.68V10ZM133.68 12V14H131.68V12H133.68ZM133.68 14H139.68V16H133.68V14ZM139.68 16H141.68V20H139.68V16ZM139.68 20V22H133.68V20H139.68ZM133.68 20H131.68V18H133.68V20ZM149.36 10H155.36V12H149.36V10ZM149.36 12V14H147.36V12H149.36ZM149.36 14H155.36V16H149.36V14ZM155.36 16H157.36V20H155.36V16ZM155.36 20V22H149.36V20H155.36ZM149.36 20H147.36V18H149.36V20ZM165.04 10H171.04V12H165.04V10ZM171.04 12H173.04V16H165.04V20H163.04V12H165.04V14H171.04V12ZM165.04 20H173.04V22H165.04V20ZM180.72 8H182.72V12H188.72V14H182.72V20H180.72V8ZM182.72 20H188.72V22H182.72V20ZM196.4 10H202.4V12H196.4V10ZM196.4 12V14H194.4V12H196.4ZM196.4 14H202.4V16H196.4V14ZM202.4 16H204.4V20H202.4V16ZM202.4 20V22H196.4V20H202.4ZM196.4 20H194.4V18H196.4V20ZM20.08 38H22.08V40H20.08V38ZM20.08 40V50H18.08V40H20.08ZM20.08 50H22.08V52H20.08V50ZM29.76 38H31.76V50H29.76V38ZM31.76 50H37.76V52H31.76V50ZM37.76 50V38H39.76V50H37.76ZM47.44 38H53.44V40H47.44V38ZM53.44 40H55.44V42H53.44V40ZM47.44 40V44H45.44V40H47.44ZM47.44 44H53.44V46H47.44V44ZM53.44 46H55.44V50H53.44V46ZM53.44 50V52H47.44V50H53.44ZM47.44 50H45.44V48H47.44V50ZM59.12 38H69.12V40H63.12V50H69.12V52H61.12V40H59.12V38ZM69.12 40H71.12V50H69.12V40ZM78.8 38H84.8V40H78.8V38ZM84.8 40H86.8V42H84.8V40ZM78.8 40V50H76.8V40H78.8ZM78.8 50H84.8V52H78.8V50ZM84.8 50V48H86.8V50H84.8ZM110.16 40H116.16V42H110.16V40ZM116.16 42H118.16V50H116.16V42ZM116.16 50V52H110.16V50H116.16ZM110.16 50H108.16V42H110.16V50ZM125.84 40H127.84V42H129.84V44H127.84V52H125.84V40ZM129.84 42V40H133.84V42H129.84ZM153.2 38H155.2V50H153.2V38ZM155.2 50H157.2V52H155.2V50ZM157.2 50V48H159.2V50H157.2ZM159.2 48V42H161.2V48H159.2ZM161.2 48H163.2V50H161.2V48ZM163.2 50H165.2V52H163.2V50ZM165.2 50V38H167.2V50H165.2ZM170.88 38H180.88V40H172.88V44H178.88V46H172.88V50H180.88V52H170.88V38ZM184.56 38H186.56V50H184.56V38ZM186.56 50H188.56V52H186.56V50ZM188.56 50V48H190.56V50H188.56ZM190.56 48V42H192.56V48H190.56ZM192.56 48H194.56V50H192.56V48ZM194.56 50H196.56V52H194.56V50ZM196.56 50V38H198.56V50H196.56ZM202.24 38H212.24V40H204.24V44H210.24V46H204.24V50H212.24V52H202.24V38ZM221.92 38H223.92V40H221.92V38ZM223.92 40H225.92V50H223.92V40ZM223.92 50V52H221.92V50H223.92Z" fill="white"/>
<path d="M405.24 8H411.24V10H405.24V8ZM411.24 10H413.24V20H411.24V10ZM411.24 20V22H405.24V20H411.24ZM405.24 20H403.24V10H405.24V20ZM426.92 10H428.92V20H426.92V10ZM426.92 20V22H422.92V20H426.92ZM422.92 20H420.92V12H422.92V20ZM420.92 20V22H418.92V20H420.92ZM418.92 20H416.92V12H418.92V20ZM436.6 10H440.6V12H436.6V10ZM440.6 12H442.6V22H440.6V12ZM436.6 12V14H434.6V22H432.6V12H436.6ZM450.28 10H456.28V12H450.28V10ZM456.28 12H458.28V16H450.28V20H448.28V12H450.28V14H456.28V12ZM450.28 20H458.28V22H450.28V20ZM465.96 10H467.96V12H469.96V14H467.96V22H465.96V10ZM469.96 12V10H473.96V12H469.96ZM481.64 10H487.64V12H481.64V10ZM481.64 12V14H479.64V12H481.64ZM481.64 14H487.64V16H481.64V14ZM487.64 16H489.64V20H487.64V16ZM487.64 20V22H481.64V20H487.64ZM481.64 20H479.64V18H481.64V20ZM495.32 8H497.32V14H499.32V16H497.32V22H495.32V8ZM499.32 14V12H503.32V14H499.32ZM503.32 14H505.32V22H503.32V14ZM515 8H517V10H515V8ZM513 12H517V20H519V22H513V20H515V14H513V12ZM528.68 10H536.68V12H530.68V18H536.68V20H530.68V24H528.68V10ZM536.68 12H538.68V18H536.68V12ZM558.04 8H560.04V20H558.04V8ZM560.04 20H566.04V22H560.04V20ZM566.04 20V8H568.04V20H566.04ZM577.72 10H581.72V12H577.72V10ZM581.72 12H583.72V22H581.72V12ZM577.72 12V14H575.72V22H573.72V12H577.72ZM593.4 8H595.4V10H593.4V8ZM591.4 12H595.4V20H597.4V22H591.4V20H593.4V14H591.4V12ZM607.08 8H609.08V12H615.08V14H609.08V20H607.08V8ZM609.08 20H615.08V22H609.08V20ZM622.76 10H628.76V12H622.76V10ZM622.76 12V14H620.76V12H622.76ZM622.76 14H628.76V16H622.76V14ZM628.76 16H630.76V20H628.76V16ZM628.76 20V22H622.76V20H628.76ZM622.76 20H620.76V18H622.76V20Z" fill="white"/>
<path d="M287.14 351H295.14V353H289.14V357H295.14V359H289.14V365H287.14V351ZM295.14 353H297.14V357H295.14V353ZM302.82 351H310.82V353H304.82V357H310.82V361H308.82V359H304.82V365H302.82V351ZM310.82 353H312.82V357H310.82V353ZM310.82 361H312.82V365H310.82V361ZM320.5 351H326.5V353H324.5V363H326.5V365H320.5V363H322.5V353H320.5V351ZM336.18 351H342.18V353H336.18V351ZM342.18 353H344.18V355H342.18V353ZM336.18 353V363H334.18V353H336.18ZM336.18 363H342.18V365H336.18V363ZM342.18 363V361H344.18V363H342.18ZM349.86 351H359.86V353H351.86V357H357.86V359H351.86V363H359.86V365H349.86V351Z" fill="white"/>
<path d="M504.44 219H510.44V221H504.44V219ZM510.44 221H512.44V223H510.44V221ZM504.44 221V225H502.44V221H504.44ZM504.44 225H510.44V227H504.44V225ZM510.44 227H512.44V231H510.44V227ZM510.44 231V233H504.44V231H510.44ZM504.44 231H502.44V229H504.44V231ZM520.12 221H528.12V223H522.12V229H528.12V231H522.12V235H520.12V221ZM528.12 223H530.12V229H528.12V223ZM535.8 221H537.8V231H535.8V221ZM537.8 231H541.8V233H537.8V231ZM553.48 219H555.48V221H553.48V219ZM551.48 223H555.48V231H557.48V233H551.48V231H553.48V225H551.48V223ZM567.16 219H569.16V223H575.16V225H569.16V231H567.16V219ZM569.16 231H575.16V233H569.16V231ZM586.84 229H588.84V233H586.84V229ZM586.84 233V235H584.84V233H586.84ZM614.2 221H620.2V223H614.2V221ZM620.2 223H622.2V233H614.2V231H620.2V227H614.2V225H620.2V223ZM614.2 231H612.2V227H614.2V231ZM631.88 221H635.88V223H631.88V221ZM635.88 223H637.88V233H635.88V223ZM631.88 223V225H629.88V233H627.88V223H631.88ZM651.56 219H653.56V233H645.56V231H651.56V225H645.56V223H651.56V219ZM645.56 231H643.56V225H645.56V231ZM559.32 249H565.32V251H559.32V249ZM565.32 251H567.32V263H565.32V259H559.32V263H557.32V251H559.32V257H565.32V251ZM571 249H581V251H575V261H581V263H573V251H571V249ZM581 251H583V261H581V251ZM586.68 249H596.68V251H590.68V261H596.68V263H588.68V251H586.68V249ZM596.68 251H598.68V261H596.68V251Z" fill="white"/>
<path d="M65 230H67V234H69V236H67V244H65V230ZM69 236H73V238H69V236ZM73 236V234H75V230H77V244H75V236H73ZM86.68 230H88.68V232H86.68V230ZM84.68 234H88.68V242H90.68V244H84.68V242H86.68V236H84.68V234ZM106.36 230H108.36V244H100.36V242H106.36V236H100.36V234H106.36V230ZM100.36 242H98.36V236H100.36V242ZM129.72 230H137.72V232H131.72V236H137.72V238H131.72V242H137.72V244H129.72V230ZM137.72 232H139.72V236H137.72V232ZM137.72 238H139.72V242H137.72V238ZM147.4 232H153.4V234H147.4V232ZM153.4 234H155.4V244H147.4V242H153.4V238H147.4V236H153.4V234ZM147.4 242H145.4V238H147.4V242ZM165.08 232H169.08V234H165.08V232ZM169.08 234H171.08V244H169.08V234ZM165.08 234V236H163.08V244H161.08V234H165.08ZM184.76 230H186.76V244H178.76V242H184.76V236H178.76V234H184.76V230ZM178.76 242H176.76V236H178.76V242ZM210.12 230H212.12V242H218.12V244H210.12V230ZM223.8 230H231.8V232H225.8V236H231.8V238H225.8V244H223.8V230ZM231.8 232H233.8V236H231.8V232Z" fill="white"/>
<path d="M0 273H2V285H0V273ZM2 285H4V287H2V285ZM4 285V283H6V285H4ZM6 283V277H8V283H6ZM8 283H10V285H8V283ZM10 285H12V287H10V285ZM12 285V273H14V285H12ZM21.68 273H23.68V275H21.68V273ZM19.68 277H23.68V285H25.68V287H19.68V285H21.68V279H19.68V277ZM41.36 273H43.36V287H35.36V285H41.36V279H35.36V277H41.36V273ZM35.36 285H33.36V279H35.36V285ZM51.04 275H57.04V277H51.04V275ZM57.04 277H59.04V281H51.04V285H49.04V277H51.04V279H57.04V277ZM51.04 285H59.04V287H51.04V285ZM80.4 273H88.4V275H82.4V279H88.4V281H82.4V285H88.4V287H80.4V273ZM88.4 275H90.4V279H88.4V275ZM88.4 281H90.4V285H88.4V281ZM98.08 275H104.08V277H98.08V275ZM104.08 277H106.08V287H98.08V285H104.08V281H98.08V279H104.08V277ZM98.08 285H96.08V281H98.08V285ZM115.76 275H119.76V277H115.76V275ZM119.76 277H121.76V287H119.76V277ZM115.76 277V279H113.76V287H111.76V277H115.76ZM135.44 273H137.44V287H129.44V285H135.44V279H129.44V277H135.44V273ZM129.44 285H127.44V279H129.44V285ZM160.8 273H162.8V285H168.8V287H160.8V273ZM174.48 273H182.48V275H176.48V279H182.48V281H176.48V287H174.48V273ZM182.48 275H184.48V279H182.48V275Z" fill="white"/>
<line x1="324" y1="159" x2="324" y2="336" stroke="white" stroke-width="4" stroke-dasharray="8 8"/>
<line x1="226" y1="29.5" x2="308" y2="29.5" stroke="white" stroke-width="3"/>
<path d="M374 30L359 21.3397V38.6603L374 30ZM360.5 28.5L338 28.5V31.5L360.5 31.5V28.5Z" fill="white"/>
<path d="M450 280L465 288.66V271.34L450 280ZM463.5 281.5H486V278.5H463.5V281.5Z" fill="white"/>
<path d="M398 240L413 248.66V231.34L398 240ZM411.5 241.5H486V238.5H411.5V241.5Z" fill="white"/>
<path d="M366 197L381 205.66V188.34L366 197ZM379.5 198.5H487V195.5H379.5V198.5Z" fill="white"/>
<path d="M309 69L317.66 54L300.34 54L309 69ZM307.5 31L307.5 55.5L310.5 55.5L310.5 31L307.5 31Z" fill="white"/>
<path d="M337 31L337 69" stroke="white" stroke-width="3"/>
<path d="M487 141L487 279" stroke="white" stroke-width="3"/>
</svg>
