<svg width="390" height="368" viewBox="0 0 390 368" fill="none" xmlns="http://www.w3.org/2000/svg">
<rect width="390" height="358" fill="#33E6BF"/>
<path d="M44.9863 282.177L44.9863 279.639L28.6985 279.639L28.6985 282.177L44.9863 282.177Z" fill="#176453"/>
<path d="M44.9863 285.236L44.9863 282.697L28.6985 282.697L28.6985 285.236L44.9863 285.236Z" fill="#176453"/>
<path d="M44.9863 288.291L44.9863 285.752L28.6985 285.752L28.6985 288.291L44.9863 288.291Z" fill="#176453"/>
<path d="M44.9863 294.401L44.9863 291.862L28.6985 291.862L28.6985 294.401L44.9863 294.401Z" fill="#176453"/>
<path d="M44.9863 297.456L44.9863 294.917L28.6985 294.917L28.6985 297.456L44.9863 297.456Z" fill="#176453"/>
<path d="M44.9863 303.569L44.9863 301.031L28.6985 301.031L28.6985 303.569L44.9863 303.569Z" fill="#176453"/>
<path d="M44.9863 306.624L44.9863 304.085L28.6985 304.085L28.6985 306.624L44.9863 306.624Z" fill="#176453"/>
<path d="M44.9863 309.679L44.9863 307.141L28.6985 307.141L28.6985 309.679L44.9863 309.679Z" fill="#176453"/>
<path d="M44.9863 312.734L44.9863 310.195L28.6985 310.195L28.6985 312.734L44.9863 312.734Z" fill="#176453"/>
<path d="M44.9863 315.789L44.9863 313.25L28.6985 313.25L28.6985 315.789L44.9863 315.789Z" fill="#176453"/>
<path d="M25.6396 282.177L25.6396 279.639L9.3522 279.639L9.3522 282.177L25.6396 282.177Z" fill="#176453"/>
<path d="M25.6396 285.236L25.6396 282.697L9.3522 282.697L9.3522 285.236L25.6396 285.236Z" fill="#176453"/>
<path d="M25.6396 288.291L25.6396 285.752L9.3522 285.752L9.3522 288.291L25.6396 288.291Z" fill="#176453"/>
<path d="M25.6396 291.346L25.6396 288.808L9.3522 288.808L9.3522 291.346L25.6396 291.346Z" fill="#176453"/>
<path d="M25.6396 297.456L25.6396 294.917L9.3522 294.917L9.3522 297.456L25.6396 297.456Z" fill="#176453"/>
<path d="M25.6396 300.514L25.6396 297.976L9.3522 297.976L9.3522 300.514L25.6396 300.514Z" fill="#176453"/>
<path d="M25.6396 303.569L25.6396 301.031L9.3522 301.031L9.3522 303.569L25.6396 303.569Z" fill="#176453"/>
<path d="M25.6396 306.624L25.6396 304.085L9.3522 304.085L9.3522 306.624L25.6396 306.624Z" fill="#176453"/>
<path d="M25.6396 312.734L25.6396 310.195L9.3522 310.195L9.3522 312.734L25.6396 312.734Z" fill="#176453"/>
<path d="M25.6396 315.789L25.6396 313.25L9.3522 313.25L9.3522 315.789L25.6396 315.789Z" fill="#176453"/>
<path d="M6.29492 282.177L6.29492 279.639L-9.99253 279.639L-9.99253 282.177L6.29492 282.177Z" fill="#176453"/>
<path d="M6.29492 285.236L6.29492 282.697L-9.99253 282.697L-9.99253 285.236L6.29492 285.236Z" fill="#176453"/>
<path d="M6.29492 288.291L6.29492 285.752L-9.99253 285.752L-9.99253 288.291L6.29492 288.291Z" fill="#176453"/>
<path d="M6.29492 291.346L6.29492 288.808L-9.99253 288.808L-9.99253 291.346L6.29492 291.346Z" fill="#176453"/>
<path d="M6.29492 294.401L6.29492 291.862L-9.99253 291.862L-9.99253 294.401L6.29492 294.401Z" fill="#176453"/>
<path d="M6.29492 297.456L6.29492 294.917L-9.99253 294.917L-9.99253 297.456L6.29492 297.456Z" fill="#176453"/>
<path d="M6.29492 300.514L6.29492 297.976L-9.99253 297.976L-9.99253 300.514L6.29492 300.514Z" fill="#176453"/>
<path d="M6.29492 303.569L6.29492 301.031L-9.99253 301.031L-9.99253 303.569L6.29492 303.569Z" fill="#176453"/>
<path d="M6.29492 306.624L6.29492 304.085L-9.99253 304.085L-9.99253 306.624L6.29492 306.624Z" fill="#176453"/>
<path d="M6.29492 309.679L6.29492 307.141L-9.99253 307.141L-9.99253 309.679L6.29492 309.679Z" fill="#176453"/>
<path d="M6.29492 312.734L6.29492 310.195L-9.99253 310.195L-9.99253 312.734L6.29492 312.734Z" fill="#176453"/>
<path d="M44.9863 318.978L44.9863 316.44L28.6985 316.44L28.6985 318.978L44.9863 318.978Z" fill="#176453"/>
<path d="M44.9863 325.089L44.9863 322.55L28.6985 322.55L28.6985 325.089L44.9863 325.089Z" fill="#176453"/>
<path d="M44.9863 328.143L44.9863 325.605L28.6985 325.605L28.6985 328.143L44.9863 328.143Z" fill="#176453"/>
<path d="M44.9863 334.257L44.9863 331.718L28.6985 331.718L28.6985 334.257L44.9863 334.257Z" fill="#176453"/>
<path d="M44.9863 346.48L44.9863 343.941L28.6985 343.941L28.6985 346.48L44.9863 346.48Z" fill="#176453"/>
<path d="M25.6396 318.978L25.6396 316.44L9.3522 316.44L9.3522 318.978L25.6396 318.978Z" fill="#176453"/>
<path d="M25.6396 322.034L25.6396 319.495L9.3522 319.495L9.3522 322.034L25.6396 322.034Z" fill="#176453"/>
<path d="M25.6396 328.143L25.6396 325.605L9.3522 325.605L9.3522 328.143L25.6396 328.143Z" fill="#176453"/>
<path d="M25.6396 331.202L25.6396 328.664L9.3522 328.664L9.3522 331.202L25.6396 331.202Z" fill="#176453"/>
<path d="M25.6396 334.257L25.6396 331.718L9.3522 331.718L9.3522 334.257L25.6396 334.257Z" fill="#176453"/>
<path d="M25.6396 337.312L25.6396 334.773L9.3522 334.773L9.3522 337.312L25.6396 337.312Z" fill="#176453"/>
<path d="M25.6396 343.422L25.6396 340.883L9.3522 340.883L9.3522 343.422L25.6396 343.422Z" fill="#176453"/>
<path d="M6.29492 318.978L6.29492 316.44L-9.99253 316.44L-9.99253 318.978L6.29492 318.978Z" fill="#176453"/>
<path d="M6.29492 325.089L6.29492 322.55L-9.99253 322.55L-9.99253 325.089L6.29492 325.089Z" fill="#176453"/>
<path d="M6.29492 328.143L6.29492 325.605L-9.99253 325.605L-9.99253 328.143L6.29492 328.143Z" fill="#176453"/>
<path d="M6.29492 331.202L6.29492 328.664L-9.99253 328.664L-9.99253 331.202L6.29492 331.202Z" fill="#176453"/>
<path d="M6.29492 337.312L6.29492 334.773L-9.99253 334.773L-9.99253 337.312L6.29492 337.312Z" fill="#176453"/>
<path d="M6.29492 340.367L6.29492 337.828L-9.99253 337.828L-9.99253 340.367L6.29492 340.367Z" fill="#176453"/>
<path d="M6.29492 346.48L6.29492 343.941L-9.99253 343.941L-9.99253 346.48L6.29492 346.48Z" fill="#176453"/>
<path d="M44.9863 352.722L44.9863 350.183L28.6985 350.183L28.6985 352.722L44.9863 352.722Z" fill="#176453"/>
<path d="M25.6396 349.667L25.6396 347.128L9.3522 347.128L9.3522 349.667L25.6396 349.667Z" fill="#176453"/>
<path d="M25.6396 358.835L25.6396 356.297L9.3522 356.297L9.3522 358.835L25.6396 358.835Z" fill="#176453"/>
<path d="M25.6396 368L25.6396 365.461L9.3522 365.461L9.3522 368L25.6396 368Z" fill="#176453"/>
<path d="M6.29492 355.776L6.29492 353.238L-9.99253 353.238L-9.99253 355.776L6.29492 355.776Z" fill="#176453"/>
<path d="M6.29492 364.945L6.29492 362.406L-9.99253 362.406L-9.99253 364.945L6.29492 364.945Z" fill="#176453"/>
<path d="M28.7119 276.824L28.7119 279.362L44.9997 279.362L44.9997 276.824L28.7119 276.824Z" fill="#176453"/>
<path d="M28.7119 273.768L28.7119 276.306L44.9997 276.306L44.9997 273.768L28.7119 273.768Z" fill="#176453"/>
<path d="M28.7119 270.711L28.7119 273.25L44.9997 273.25L44.9997 270.711L28.7119 270.711Z" fill="#176453"/>
<path d="M28.7119 264.599L28.7119 267.137L44.9997 267.137L44.9997 264.599L28.7119 264.599Z" fill="#176453"/>
<path d="M28.7119 261.546L28.7119 264.084L44.9997 264.084L44.9997 261.546L28.7119 261.546Z" fill="#176453"/>
<path d="M28.7119 255.434L28.7119 257.972L44.9997 257.972L44.9997 255.434L28.7119 255.434Z" fill="#176453"/>
<path d="M28.7119 252.377L28.7119 254.916L44.9997 254.916L44.9997 252.377L28.7119 252.377Z" fill="#176453"/>
<path d="M28.7119 249.321L28.7119 251.859L44.9997 251.859L44.9997 249.321L28.7119 249.321Z" fill="#176453"/>
<path d="M28.7119 246.265L28.7119 248.803L44.9997 248.803L44.9997 246.265L28.7119 246.265Z" fill="#176453"/>
<path d="M28.7119 243.212L28.7119 245.75L44.9997 245.75L44.9997 243.212L28.7119 243.212Z" fill="#176453"/>
<path d="M9.35645 276.824L9.35645 279.362L25.6439 279.362L25.6439 276.824L9.35645 276.824Z" fill="#176453"/>
<path d="M9.35645 273.768L9.35645 276.306L25.6439 276.306L25.6439 273.768L9.35645 273.768Z" fill="#176453"/>
<path d="M9.35645 270.711L9.35645 273.25L25.6439 273.25L25.6439 270.711L9.35645 270.711Z" fill="#176453"/>
<path d="M9.35645 267.655L9.35645 270.193L25.6439 270.193L25.6439 267.655L9.35645 267.655Z" fill="#176453"/>
<path d="M9.35645 261.546L9.35645 264.084L25.6439 264.084L25.6439 261.546L9.35645 261.546Z" fill="#176453"/>
<path d="M9.35645 258.49L9.35645 261.028L25.6439 261.028L25.6439 258.49L9.35645 258.49Z" fill="#176453"/>
<path d="M9.35645 255.434L9.35645 257.972L25.6439 257.972L25.6439 255.434L9.35645 255.434Z" fill="#176453"/>
<path d="M9.35645 252.377L9.35645 254.916L25.6439 254.916L25.6439 252.377L9.35645 252.377Z" fill="#176453"/>
<path d="M9.35645 246.265L9.35645 248.803L25.6439 248.803L25.6439 246.265L9.35645 246.265Z" fill="#176453"/>
<path d="M9.35645 243.212L9.35645 245.75L25.6439 245.75L25.6439 243.212L9.35645 243.212Z" fill="#176453"/>
<path d="M-10 276.824L-10 279.363L6.28745 279.363L6.28745 276.824L-10 276.824Z" fill="#176453"/>
<path d="M-10 273.768L-10 276.306L6.28745 276.306L6.28745 273.768L-10 273.768Z" fill="#176453"/>
<path d="M-10 270.711L-10 273.25L6.28745 273.25L6.28745 270.711L-10 270.711Z" fill="#176453"/>
<path d="M-10 267.655L-10 270.194L6.28745 270.194L6.28745 267.655L-10 267.655Z" fill="#176453"/>
<path d="M-10 264.599L-10 267.137L6.28745 267.137L6.28745 264.599L-10 264.599Z" fill="#176453"/>
<path d="M-10 261.546L-10 264.085L6.28745 264.085L6.28745 261.546L-10 261.546Z" fill="#176453"/>
<path d="M-10 258.49L-10 261.028L6.28745 261.028L6.28745 258.49L-10 258.49Z" fill="#176453"/>
<path d="M-10 255.434L-10 257.972L6.28745 257.972L6.28745 255.434L-10 255.434Z" fill="#176453"/>
<path d="M-10 252.377L-10 254.916L6.28745 254.916L6.28745 252.377L-10 252.377Z" fill="#176453"/>
<path d="M-10 249.321L-10 251.86L6.28745 251.86L6.28745 249.321L-10 249.321Z" fill="#176453"/>
<path d="M-10 246.265L-10 248.803L6.28745 248.803L6.28745 246.265L-10 246.265Z" fill="#176453"/>
<path d="M28.7119 240.023L28.7119 242.561L44.9997 242.561L44.9997 240.023L28.7119 240.023Z" fill="#176453"/>
<path d="M28.7119 233.914L28.7119 236.452L44.9997 236.452L44.9997 233.914L28.7119 233.914Z" fill="#176453"/>
<path d="M28.7119 230.857L28.7119 233.396L44.9997 233.396L44.9997 230.857L28.7119 230.857Z" fill="#176453"/>
<path d="M28.7119 224.745L28.7119 227.283L44.9997 227.283L44.9997 224.745L28.7119 224.745Z" fill="#176453"/>
<path d="M28.7119 212.523L28.7119 215.062L44.9997 215.062L44.9997 212.523L28.7119 212.523Z" fill="#176453"/>
<path d="M9.35645 240.023L9.35645 242.561L25.6439 242.561L25.6439 240.023L9.35645 240.023Z" fill="#176453"/>
<path d="M9.35645 236.966L9.35645 239.505L25.6439 239.505L25.6439 236.966L9.35645 236.966Z" fill="#176453"/>
<path d="M9.35645 230.857L9.35645 233.396L25.6439 233.396L25.6439 230.857L9.35645 230.857Z" fill="#176453"/>
<path d="M9.35645 227.801L9.35645 230.339L25.6439 230.339L25.6439 227.801L9.35645 227.801Z" fill="#176453"/>
<path d="M9.35645 224.745L9.35645 227.283L25.6439 227.283L25.6439 224.745L9.35645 224.745Z" fill="#176453"/>
<path d="M9.35645 221.689L9.35645 224.227L25.6439 224.227L25.6439 221.689L9.35645 221.689Z" fill="#176453"/>
<path d="M9.35645 215.58L9.35645 218.118L25.6439 218.118L25.6439 215.58L9.35645 215.58Z" fill="#176453"/>
<path d="M-10 240.023L-10 242.562L6.28745 242.562L6.28745 240.023L-10 240.023Z" fill="#176453"/>
<path d="M-10 233.914L-10 236.453L6.28745 236.453L6.28745 233.914L-10 233.914Z" fill="#176453"/>
<path d="M-10 230.857L-10 233.396L6.28745 233.396L6.28745 230.857L-10 230.857Z" fill="#176453"/>
<path d="M-10 227.801L-10 230.34L6.28745 230.34L6.28745 227.801L-10 227.801Z" fill="#176453"/>
<path d="M-10 221.689L-10 224.227L6.28745 224.227L6.28745 221.689L-10 221.689Z" fill="#176453"/>
<path d="M-10 218.636L-10 221.174L6.28745 221.174L6.28745 218.636L-10 218.636Z" fill="#176453"/>
<path d="M-10 212.523L-10 215.062L6.28745 215.062L6.28745 212.523L-10 212.523Z" fill="#176453"/>
<path d="M28.7119 206.277L28.7119 208.816L44.9997 208.816L44.9997 206.277L28.7119 206.277Z" fill="#176453"/>
<path d="M9.35645 209.334L9.35645 211.873L25.6439 211.873L25.6439 209.334L9.35645 209.334Z" fill="#176453"/>
<path d="M9.35645 200.169L9.35645 202.707L25.6439 202.707L25.6439 200.169L9.35645 200.169Z" fill="#176453"/>
<path d="M9.35645 191L9.35645 193.538L25.6439 193.538L25.6439 191L9.35645 191Z" fill="#176453"/>
<path d="M-10 203.225L-10 205.764L6.28745 205.764L6.28745 203.225L-10 203.225Z" fill="#176453"/>
<path d="M-10 194.056L-10 196.595L6.28745 196.595L6.28745 194.056L-10 194.056Z" fill="#176453"/>
<rect x="24.1178" y="118.08" width="333.56" height="39.8501" stroke="black" stroke-width="2.95186" stroke-linejoin="bevel"/>
<path d="M82.6191 143.285V133.195H84.0604V141.843H89.8258V143.285H82.6191ZM92.4133 143.285V141.843H93.8546V134.637H92.4133V133.195H96.7373V134.637H95.296V141.843H96.7373V143.285H92.4133ZM100.766 135.357V141.123H101.487V141.843H103.649V141.123H102.928V140.402H102.207V138.961H103.649V139.681H104.369V140.402H105.09V135.357H104.369V134.637H101.487V135.357H100.766ZM100.045 141.843H99.3248V134.637H100.045V133.916H100.766V133.195H105.09V133.916H105.811V134.637H106.531V141.123H105.811V141.843H106.531V143.285H105.09V142.564H103.649V143.285H100.766V142.564H100.045V141.843ZM108.398 141.843H107.678V133.195H109.119V141.123H109.84V141.843H112.722V141.123H113.443V133.195H114.884V141.843H114.164V142.564H113.443V143.285H109.119V142.564H108.398V141.843ZM117.472 143.285V141.843H118.913V134.637H117.472V133.195H121.796V134.637H120.355V141.843H121.796V143.285H117.472ZM125.825 134.637V141.843H129.428V141.123H130.149V135.357H129.428V134.637H125.825ZM124.383 143.285V133.195H130.149V133.916H130.869V134.637H131.59V141.843H130.869V142.564H130.149V143.285H124.383ZM134.178 143.285V141.843H135.619V134.637H134.178V133.195H138.502V134.637H137.06V141.843H138.502V143.285H134.178ZM143.972 134.637H141.089V133.195H148.296V134.637H145.413V143.285H143.972V134.637ZM153.766 143.285H152.325V139.681H151.604V138.961H150.883V138.24H150.163V137.519H149.442V133.195H150.883V136.799H151.604V137.519H152.325V138.24H153.766V137.519H154.487V136.799H155.207V133.195H156.649V137.519H155.928V138.24H155.207V138.961H154.487V139.681H153.766V143.285ZM167.589 143.285H166.148V133.195H167.589V134.637H168.31V135.357H169.03V136.078H170.472V135.357H171.192V134.637H171.913V133.195H173.354V143.285H171.913V136.799H171.192V137.519H170.472V138.961H169.03V137.519H168.31V136.799H167.589V143.285ZM175.942 138.961H180.266V136.799H179.545V136.078H178.824V135.357H177.383V136.078H176.662V136.799H175.942V138.961ZM175.942 143.285H174.5V136.078H175.221V135.357H175.942V134.637H176.662V133.916H177.383V133.195H178.824V133.916H179.545V134.637H180.266V135.357H180.986V136.078H181.707V143.285H180.266V140.402H175.942V143.285ZM184.295 137.519V143.285H182.853V133.195H184.295V135.357H185.015V136.078H185.736V136.799H186.457V137.519H187.177V138.24H187.898V138.961H188.619V133.195H190.06V143.285H188.619V141.123H187.898V140.402H187.177V139.681H186.457V138.961H185.736V138.24H185.015V137.519H184.295ZM192.647 138.961H196.971V136.799H196.251V136.078H195.53V135.357H194.089V136.078H193.368V136.799H192.647V138.961ZM192.647 143.285H191.206V136.078H191.927V135.357H192.647V134.637H193.368V133.916H194.089V133.195H195.53V133.916H196.251V134.637H196.971V135.357H197.692V136.078H198.413V143.285H196.971V140.402H192.647V143.285ZM206.045 134.637H206.766V136.078H205.324V135.357H204.604V134.637H201.721V135.357H201V141.123H201.721V141.843H204.604V141.123H205.324V138.961H203.162V137.519H206.766V141.843H206.045V142.564H205.324V143.285H201V142.564H200.28V141.843H199.559V134.637H200.28V133.916H201V133.195H205.324V133.916H206.045V134.637ZM215.118 133.195V134.637H209.353V137.519H213.677V138.961H209.353V141.843H215.118V143.285H207.912V133.195H215.118ZM217.706 134.637V137.519H221.309V136.799H222.03V135.357H221.309V134.637H217.706ZM218.427 138.961H217.706V143.285H216.265V133.195H222.03V133.916H222.751V134.637H223.471V137.519H222.751V138.24H222.03V138.961H220.589V139.681H221.309V140.402H222.03V141.123H222.751V141.843H223.471V143.285H222.03V142.564H221.309V141.843H220.589V141.123H219.868V140.402H219.147V139.681H218.427V138.961ZM235.132 141.843H238.015V141.123H238.736V140.402H240.177V141.843H239.456V142.564H238.736V143.285H234.412V142.564H233.691V141.843H232.97V134.637H233.691V133.916H234.412V133.195H238.736V133.916H239.456V134.637H240.177V136.078H238.736V135.357H238.015V134.637H235.132V135.357H234.412V141.123H235.132V141.843ZM246.368 134.637H243.485V135.357H242.765V141.123H243.485V141.843H246.368V141.123H247.089V135.357H246.368V134.637ZM242.765 133.916V133.195H247.089V133.916H247.809V134.637H248.53V141.843H247.809V142.564H247.089V143.285H242.765V142.564H242.044V141.843H241.323V134.637H242.044V133.916H242.765ZM251.117 137.519V143.285H249.676V133.195H251.117V135.357H251.838V136.078H252.559V136.799H253.279V137.519H254V138.24H254.721V138.961H255.441V133.195H256.883V143.285H255.441V141.123H254.721V140.402H254V139.681H253.279V138.961H252.559V138.24H251.838V137.519H251.117ZM260.912 134.637H258.029V133.195H265.236V134.637H262.353V143.285H260.912V134.637ZM267.823 134.637V137.519H271.426V136.799H272.147V135.357H271.426V134.637H267.823ZM268.544 138.961H267.823V143.285H266.382V133.195H272.147V133.916H272.868V134.637H273.588V137.519H272.868V138.24H272.147V138.961H270.706V139.681H271.426V140.402H272.147V141.123H272.868V141.843H273.588V143.285H272.147V142.564H271.426V141.843H270.706V141.123H269.985V140.402H269.264V139.681H268.544V138.961ZM276.176 138.961H280.5V136.799H279.779V136.078H279.059V135.357H277.617V136.078H276.897V136.799H276.176V138.961ZM276.176 143.285H274.735V136.078H275.455V135.357H276.176V134.637H276.897V133.916H277.617V133.195H279.059V133.916H279.779V134.637H280.5V135.357H281.221V136.078H281.941V143.285H280.5V140.402H276.176V143.285ZM285.249 141.843H288.132V141.123H288.853V140.402H290.294V141.843H289.573V142.564H288.853V143.285H284.529V142.564H283.808V141.843H283.087V134.637H283.808V133.916H284.529V133.195H288.853V133.916H289.573V134.637H290.294V136.078H288.853V135.357H288.132V134.637H285.249V135.357H284.529V141.123H285.249V141.843ZM294.323 134.637H291.44V133.195H298.647V134.637H295.764V143.285H294.323V134.637Z" fill="black"/>
<rect x="165.069" y="191.877" width="51.6576" height="28.7806" stroke="#0439C7" stroke-width="2.95186" stroke-linejoin="bevel"/>
<rect x="138.503" y="221.395" width="104.791" height="28.7806" stroke="#0439C7" stroke-width="2.95186" stroke-linejoin="bevel"/>
<rect x="102.341" y="250.914" width="177.112" height="28.7806" stroke="#0439C7" stroke-width="2.95186" stroke-linejoin="bevel"/>
<path d="M71.4591 83.902H70.7385V75.2539H72.1798V83.1813H72.9005V83.902H75.7832V83.1813H76.5038V75.2539H77.9452V83.902H77.2245V84.6226H76.5038V85.3433H72.1798V84.6226H71.4591V83.902ZM85.5773 76.6953H86.298V78.1366H84.8567V77.4159H84.136V76.6953H81.2533V77.4159H80.5327V78.8573H81.2533V79.5779H84.8567V80.2986H85.5773V81.0193H86.298V83.902H85.5773V84.6226H84.8567V85.3433H80.5327V84.6226H79.812V83.902H79.0913V82.4606H80.5327V83.1813H81.2533V83.902H84.136V83.1813H84.8567V81.7399H84.136V81.0193H80.5327V80.2986H79.812V79.5779H79.0913V76.6953H79.812V75.9746H80.5327V75.2539H84.8567V75.9746H85.5773V76.6953ZM88.8855 76.6953V83.902H92.4889V83.1813H93.2095V77.4159H92.4889V76.6953H88.8855ZM87.4442 85.3433V75.2539H93.2095V75.9746H93.9302V76.6953H94.6509V83.902H93.9302V84.6226H93.2095V85.3433H87.4442ZM97.959 83.902H100.842V83.1813H101.562V82.4606H103.004V83.902H102.283V84.6226H101.562V85.3433H97.2384V84.6226H96.5177V83.902H95.797V76.6953H96.5177V75.9746H97.2384V75.2539H101.562V75.9746H102.283V76.6953H103.004V78.1366H101.562V77.4159H100.842V76.6953H97.959V77.4159H97.2384V83.1813H97.959V83.902Z" fill="black"/>
<path d="M17.6767 41.838H16.956V33.19H18.3973V41.1173H19.118V41.838H22.0007V41.1173H22.7214V33.19H24.1627V41.838H23.442V42.5587H22.7214V43.2793H18.3973V42.5587H17.6767V41.838ZM31.7949 34.6313H32.5155V36.0726H31.0742V35.352H30.3535V34.6313H27.4709V35.352H26.7502V36.7933H27.4709V37.514H31.0742V38.2346H31.7949V38.9553H32.5155V41.838H31.7949V42.5587H31.0742V43.2793H26.7502V42.5587H26.0295V41.838H25.3088V40.3967H26.7502V41.1173H27.4709V41.838H30.3535V41.1173H31.0742V39.676H30.3535V38.9553H26.7502V38.2346H26.0295V37.514H25.3088V34.6313H26.0295V33.9106H26.7502V33.19H31.0742V33.9106H31.7949V34.6313ZM40.8684 33.19V34.6313H35.103V37.514H39.427V38.9553H35.103V41.838H40.8684V43.2793H33.6617V33.19H40.8684ZM43.4559 34.6313V37.514H47.0592V36.7933H47.7799V35.352H47.0592V34.6313H43.4559ZM44.1765 38.9553H43.4559V43.2793H42.0145V33.19H47.7799V33.9106H48.5006V34.6313H49.2212V37.514H48.5006V38.2346H47.7799V38.9553H46.3386V39.676H47.0592V40.3967H47.7799V41.1173H48.5006V41.838H49.2212V43.2793H47.7799V42.5587H47.0592V41.838H46.3386V41.1173H45.6179V40.3967H44.8972V39.676H44.1765V38.9553ZM64.4856 41.1173V40.3967H65.9269V41.838H65.2063V42.5587H64.4856V43.2793H60.1616V42.5587H59.4409V41.838H58.7202V36.7933H59.4409V36.0726H60.1616V35.352H64.4856V36.0726H65.2063V36.7933H65.9269V38.2346H64.4856V37.514H63.7649V36.7933H60.8822V37.514H60.1616V41.1173H60.8822V41.838H63.7649V41.1173H64.4856ZM71.3971 33.19V43.2793H69.9558V33.19H71.3971ZM77.5879 41.838H80.4706V41.1173H81.1913V39.676H80.4706V38.9553H77.5879V39.676H76.8673V41.1173H77.5879V41.838ZM76.8673 43.2793V42.5587H76.1466V41.838H75.4259V38.9553H76.1466V38.2346H76.8673V37.514H80.4706V38.2346H81.1913V36.7933H80.4706V36.0726H76.8673V34.6313H81.1913V35.352H81.9119V36.0726H82.6326V43.2793H81.1913V42.5587H80.4706V43.2793H76.8673ZM88.1028 33.9106V35.352H86.6615V33.9106H88.1028ZM88.8235 41.838H89.5441V43.2793H88.1028V42.5587H87.3821V41.838H86.6615V38.2346H85.2201V36.7933H88.1028V41.1173H88.8235V41.838ZM93.573 37.514V43.2793H92.1316V35.352H93.573V36.0726H94.2936V35.352H97.897V36.0726H98.6176V36.7933H99.3383V43.2793H97.897V37.514H97.1763V36.7933H96.4556V43.2793H95.0143V36.7933H94.2936V37.514H93.573ZM104.808 42.5587H105.529V43.2793H104.088V42.5587H103.367V41.838H102.646V41.1173H101.926V33.9106H102.646V33.19H103.367V32.4693H104.088V31.7486H105.529V32.4693H104.808V33.19H104.088V33.9106H103.367V41.1173H104.088V41.838H104.808V42.5587ZM112.441 42.5587V43.2793H110.999V42.5587H111.72V41.838H112.441V41.1173H113.161V33.9106H112.441V33.19H111.72V32.4693H110.999V31.7486H112.441V32.4693H113.161V33.19H113.882V33.9106H114.603V41.1173H113.882V41.838H113.161V42.5587H112.441Z" fill="black"/>
<path d="M243.202 70.6016H243.923V71.3223H242.482V70.6016H241.761V69.881H241.04V69.1603H240.32V61.9536H241.04V61.2329H241.761V60.5123H242.482V59.7916H243.923V60.5123H243.202V61.2329H242.482V61.9536H241.761V69.1603H242.482V69.881H243.202V70.6016ZM249.393 69.881H252.276V69.1603H252.996V65.5569H252.276V64.8363H249.393V65.5569H248.672V69.1603H249.393V69.881ZM248.672 71.3223V70.6016H247.952V69.881H247.231V64.8363H247.952V64.1156H248.672V63.3949H252.996V64.1156H253.717V64.8363H254.438V69.881H253.717V70.6016H252.996V71.3223H248.672ZM255.584 63.3949H257.025V69.1603H257.746V69.881H258.467V66.2776H259.908V69.881H260.629V69.1603H261.349V63.3949H262.791V69.881H262.07V70.6016H261.349V71.3223H259.908V70.6016H258.467V71.3223H257.025V70.6016H256.305V69.881H255.584V63.3949ZM265.378 65.5569V71.3223H263.937V63.3949H265.378V64.1156H266.099V63.3949H269.702V64.1156H270.423V64.8363H271.143V71.3223H269.702V65.5569H268.981V64.8363H266.099V65.5569H265.378ZM273.731 65.5569V66.2776H278.055V65.5569H277.334V64.8363H274.452V65.5569H273.731ZM279.496 69.1603V69.881H278.776V70.6016H278.055V71.3223H273.731V70.6016H273.01V69.881H272.29V64.8363H273.01V64.1156H273.731V63.3949H278.055V64.1156H278.776V64.8363H279.496V66.9983H278.776V67.719H273.731V69.1603H274.452V69.881H277.334V69.1603H279.496ZM282.084 66.9983V71.3223H280.642V63.3949H282.084V64.8363H282.804V64.1156H283.525V63.3949H286.408V64.1156H287.128V64.8363H287.849V66.2776H286.408V65.5569H285.687V64.8363H284.246V65.5569H283.525V66.2776H282.804V66.9983H282.084ZM289.716 69.881H288.995V68.4396H290.437V69.1603H291.157V69.881H294.04V68.4396H292.599V67.719H291.157V66.9983H289.716V66.2776H288.995V64.8363H289.716V64.1156H290.437V63.3949H294.761V64.1156H295.481V64.8363H296.202V66.2776H294.761V65.5569H294.04V64.8363H291.157V66.2776H293.319V66.9983H294.761V67.719H295.481V68.4396H296.202V69.881H295.481V70.6016H294.761V71.3223H290.437V70.6016H289.716V69.881ZM298.789 66.9983V71.3223H297.348V61.2329H298.789V64.8363H299.51V64.1156H300.231V63.3949H302.393V64.1156H303.114V64.8363H303.834V65.5569H304.555V71.3223H303.114V66.2776H302.393V65.5569H301.672V64.8363H300.952V65.5569H300.231V66.2776H299.51V66.9983H298.789ZM310.025 61.9536V63.3949H308.584V61.9536H310.025ZM310.746 69.881H311.466V71.3223H310.025V70.6016H309.304V69.881H308.584V66.2776H307.142V64.8363H310.025V69.1603H310.746V69.881ZM319.819 64.8363H319.099V64.1156H316.937V64.8363H316.216V66.9983H316.937V67.719H319.099V66.9983H319.819V64.8363ZM315.495 68.4396V71.3223H314.054V62.6743H315.495V63.3949H316.216V62.6743H319.819V63.3949H320.54V64.1156H321.261V67.719H320.54V68.4396H319.819V69.1603H316.216V68.4396H315.495ZM323.127 69.881H322.407V61.2329H323.848V69.1603H324.569V69.881H327.451V69.1603H328.172V61.2329H329.613V69.881H328.893V70.6016H328.172V71.3223H323.848V70.6016H323.127V69.881ZM332.201 65.5569V71.3223H330.76V63.3949H332.201V64.1156H332.922V63.3949H336.525V64.1156H337.246V64.8363H337.966V71.3223H336.525V65.5569H335.804V64.8363H332.922V65.5569H332.201ZM343.436 61.9536V63.3949H341.995V61.9536H343.436ZM344.157 69.881H344.878V71.3223H343.436V70.6016H342.716V69.881H341.995V66.2776H340.554V64.8363H343.436V69.1603H344.157V69.881ZM352.51 69.881H353.231V71.3223H351.789V70.6016H351.069V69.881H350.348V64.8363H348.907V63.3949H350.348V61.2329H351.789V63.3949H353.231V64.8363H351.789V69.1603H352.51V69.881ZM356.539 69.881H355.818V68.4396H357.259V69.1603H357.98V69.881H360.863V68.4396H359.421V67.719H357.98V66.9983H356.539V66.2776H355.818V64.8363H356.539V64.1156H357.259V63.3949H361.583V64.1156H362.304V64.8363H363.025V66.2776H361.583V65.5569H360.863V64.8363H357.98V66.2776H360.142V66.9983H361.583V67.719H362.304V68.4396H363.025V69.881H362.304V70.6016H361.583V71.3223H357.259V70.6016H356.539V69.881ZM367.774 70.6016V71.3223H366.333V70.6016H367.054V69.881H367.774V69.1603H368.495V61.9536H367.774V61.2329H367.054V60.5123H366.333V59.7916H367.774V60.5123H368.495V61.2329H369.216V61.9536H369.936V69.1603H369.216V69.881H368.495V70.6016H367.774ZM259.908 84.6016H260.629V85.3223H259.187V84.6016H258.467V83.881H257.746V83.1603H257.025V75.9536H257.746V75.2329H258.467V74.5123H259.187V73.7916H260.629V74.5123H259.908V75.2329H259.187V75.9536H258.467V83.1603H259.187V83.881H259.908V84.6016ZM268.981 83.881H269.702V85.3223H268.261V84.6016H267.54V83.881H266.819V78.8363H265.378V77.3949H266.819V75.2329H268.261V77.3949H269.702V78.8363H268.261V83.1603H268.981V83.881ZM274.452 83.881H277.334V83.1603H278.055V79.5569H277.334V78.8363H274.452V79.5569H273.731V83.1603H274.452V83.881ZM273.731 85.3223V84.6016H273.01V83.881H272.29V78.8363H273.01V78.1156H273.731V77.3949H278.055V78.1156H278.776V78.8363H279.496V83.881H278.776V84.6016H278.055V85.3223H273.731ZM285.687 83.881H286.408V85.3223H284.966V84.6016H284.246V83.881H283.525V78.8363H282.084V77.3949H283.525V75.2329H284.966V77.3949H286.408V78.8363H284.966V83.1603H285.687V83.881ZM291.157 83.881H294.04V83.1603H294.761V81.719H294.04V80.9983H291.157V81.719H290.437V83.1603H291.157V83.881ZM290.437 85.3223V84.6016H289.716V83.881H288.995V80.9983H289.716V80.2776H290.437V79.5569H294.04V80.2776H294.761V78.8363H294.04V78.1156H290.437V76.6743H294.761V77.3949H295.481V78.1156H296.202V85.3223H294.761V84.6016H294.04V85.3223H290.437ZM301.672 75.2329V85.3223H300.231V75.2329H301.672ZM306.422 83.881H305.701V75.2329H307.142V83.1603H307.863V83.881H310.746V83.1603H311.466V75.2329H312.908V83.881H312.187V84.6016H311.466V85.3223H307.142V84.6016H306.422V83.881ZM315.495 79.5569V85.3223H314.054V77.3949H315.495V78.1156H316.216V77.3949H319.819V78.1156H320.54V78.8363H321.261V85.3223H319.819V79.5569H319.099V78.8363H316.216V79.5569H315.495ZM326.731 75.9536V77.3949H325.289V75.9536H326.731ZM327.451 83.881H328.172V85.3223H326.731V84.6016H326.01V83.881H325.289V80.2776H323.848V78.8363H326.731V83.1603H327.451V83.881ZM335.804 83.881H336.525V85.3223H335.084V84.6016H334.363V83.881H333.642V78.8363H332.201V77.3949H333.642V75.2329H335.084V77.3949H336.525V78.8363H335.084V83.1603H335.804V83.881ZM339.833 83.881H339.112V82.4396H340.554V83.1603H341.274V83.881H344.157V82.4396H342.716V81.719H341.274V80.9983H339.833V80.2776H339.112V78.8363H339.833V78.1156H340.554V77.3949H344.878V78.1156H345.598V78.8363H346.319V80.2776H344.878V79.5569H344.157V78.8363H341.274V80.2776H343.436V80.9983H344.878V81.719H345.598V82.4396H346.319V83.881H345.598V84.6016H344.878V85.3223H340.554V84.6016H339.833V83.881ZM351.069 84.6016V85.3223H349.627V84.6016H350.348V83.881H351.069V83.1603H351.789V75.9536H351.069V75.2329H350.348V74.5123H349.627V73.7916H351.069V74.5123H351.789V75.2329H352.51V75.9536H353.231V83.1603H352.51V83.881H351.789V84.6016H351.069Z" fill="black"/>
<path d="M175.819 316.534V319.417H179.422V318.696H180.143V317.255H179.422V316.534H175.819ZM175.819 320.858V325.182H174.377V315.093H180.143V315.813H180.864V316.534H181.584V319.417H180.864V320.137H180.143V320.858H175.819ZM184.172 316.534V319.417H187.775V318.696H188.496V317.255H187.775V316.534H184.172ZM184.892 320.858H184.172V325.182H182.73V315.093H188.496V315.813H189.216V316.534H189.937V319.417H189.216V320.137H188.496V320.858H187.054V321.579H187.775V322.299H188.496V323.02H189.216V323.741H189.937V325.182H188.496V324.461H187.775V323.741H187.054V323.02H186.334V322.299H185.613V321.579H184.892V320.858ZM192.525 325.182V323.741H193.966V316.534H192.525V315.093H196.849V316.534H195.407V323.741H196.849V325.182H192.525ZM201.598 323.741H204.481V323.02H205.201V322.299H206.643V323.741H205.922V324.461H205.201V325.182H200.877V324.461H200.157V323.741H199.436V316.534H200.157V315.813H200.877V315.093H205.201V315.813H205.922V316.534H206.643V317.975H205.201V317.255H204.481V316.534H201.598V317.255H200.877V323.02H201.598V323.741ZM214.996 315.093V316.534H209.23V319.417H213.554V320.858H209.23V323.741H214.996V325.182H207.789V315.093H214.996Z" fill="black"/>
<path d="M294.918 222.605H293.477V219.002H292.756V218.281H292.035V217.56H291.315V216.84H290.594V212.516H292.035V216.119H292.756V216.84H293.477V217.56H294.918V216.84H295.639V216.119H296.359V212.516H297.801V216.84H297.08V217.56H296.359V218.281H295.639V219.002H294.918V222.605ZM300.388 222.605V221.164H301.83V213.957H300.388V212.516H304.712V213.957H303.271V221.164H304.712V222.605H300.388ZM314.506 212.516V213.957H308.741V216.84H313.065V218.281H308.741V221.164H314.506V222.605H307.3V212.516H314.506ZM315.653 222.605V212.516H317.094V221.164H322.859V222.605H315.653ZM325.447 213.957V221.164H329.05V220.443H329.771V214.678H329.05V213.957H325.447ZM324.005 222.605V212.516H329.771V213.236H330.491V213.957H331.212V221.164H330.491V221.884H329.771V222.605H324.005ZM335.962 219.722V221.164H334.52V219.722H335.962ZM335.962 213.957V215.398H334.52V213.957H335.962ZM341.432 221.164H340.711V212.516H342.152V220.443H342.873V221.164H345.756V220.443H346.476V212.516H347.918V221.164H347.197V221.884H346.476V222.605H342.152V221.884H341.432V221.164ZM355.55 213.957H356.271V215.398H354.829V214.678H354.109V213.957H351.226V214.678H350.505V216.119H351.226V216.84H354.829V217.56H355.55V218.281H356.271V221.164H355.55V221.884H354.829V222.605H350.505V221.884H349.785V221.164H349.064V219.722H350.505V220.443H351.226V221.164H354.109V220.443H354.829V219.002H354.109V218.281H350.505V217.56H349.785V216.84H349.064V213.957H349.785V213.236H350.505V212.516H354.829V213.236H355.55V213.957ZM358.858 213.957V221.164H362.461V220.443H363.182V214.678H362.461V213.957H358.858ZM357.417 222.605V212.516H363.182V213.236H363.903V213.957H364.623V221.164H363.903V221.884H363.182V222.605H357.417ZM367.932 221.164H370.814V220.443H371.535V219.722H372.976V221.164H372.256V221.884H371.535V222.605H367.211V221.884H366.49V221.164H365.77V213.957H366.49V213.236H367.211V212.516H371.535V213.236H372.256V213.957H372.976V215.398H371.535V214.678H370.814V213.957H367.932V214.678H367.211V220.443H367.932V221.164Z" fill="black"/>
<line x1="192.373" y1="176.379" x2="192.373" y2="306.999" stroke="black" stroke-width="2.95186" stroke-dasharray="5.9 5.9"/>
<line x1="120.791" y1="37.2729" x2="181.304" y2="37.2729" stroke="black" stroke-width="2.2139"/>
<path d="M229.271 81.1816L218.202 74.7907V87.5726L229.271 81.1816ZM219.309 80.0747H202.705V82.2886H219.309V80.0747Z" fill="black"/>
<path d="M111.197 81.1816L122.267 87.5726L122.267 74.7907L111.197 81.1816ZM121.16 82.2886L146.62 82.2886L146.62 80.0747L121.16 80.0747L121.16 82.2886Z" fill="black"/>
<path d="M181.304 109.962L187.695 98.8927L174.913 98.8927L181.304 109.962ZM180.197 37.6416L180.197 99.9997L182.411 99.9997L182.411 37.6416L180.197 37.6416Z" fill="black"/>
<path d="M201.967 81.9194L201.967 109.962" stroke="black" stroke-width="2.2139"/>
<path d="M145.882 81.9194L145.882 109.962" stroke="black" stroke-width="2.2139"/>
<path d="M330.373 231.727L330.373 264.935" stroke="black" stroke-width="2.2139"/>
<path d="M330.373 171.214L323.982 182.283L336.764 182.283L330.373 171.214ZM329.266 181.176L329.266 204.422L331.48 204.422L331.48 181.176L329.266 181.176Z" fill="black"/>
<path d="M358.892 274.891L358.892 273L357 273L357 274.891L358.892 274.891Z" fill="#176453"/>
<path d="M358.892 277.164L358.892 275.273L357 275.273L357 277.164L358.892 277.164Z" fill="#176453"/>
<path d="M358.892 279.44L358.892 277.549L357 277.549L357 279.44L358.892 279.44Z" fill="#176453"/>
<path d="M358.892 281.716L358.892 279.826L357 279.826L357 281.716L358.892 281.716Z" fill="#176453"/>
<path d="M361.138 274.891L361.138 273L359.246 273L359.246 274.891L361.138 274.891Z" fill="#176453"/>
<path d="M361.138 279.44L361.138 277.549L359.246 277.549L359.246 279.44L361.138 279.44Z" fill="#176453"/>
<path d="M361.138 281.716L361.138 279.826L359.246 279.826L359.246 281.716L361.138 281.716Z" fill="#176453"/>
<path d="M363.386 274.891L363.386 273L361.494 273L361.494 274.891L363.386 274.891Z" fill="#176453"/>
<path d="M363.386 277.164L363.386 275.273L361.494 275.273L361.494 277.164L363.386 277.164Z" fill="#176453"/>
<path d="M363.386 279.44L363.386 277.549L361.494 277.549L361.494 279.44L363.386 279.44Z" fill="#176453"/>
<path d="M358.892 284.091L358.892 282.201L357 282.201L357 284.091L358.892 284.091Z" fill="#176453"/>
<path d="M358.892 288.641L358.892 286.75L357 286.75L357 288.641L358.892 288.641Z" fill="#176453"/>
<path d="M358.892 290.917L358.892 289.026L357 289.026L357 290.917L358.892 290.917Z" fill="#176453"/>
<path d="M358.892 295.47L358.892 293.579L357 293.579L357 295.47L358.892 295.47Z" fill="#176453"/>
<path d="M358.892 304.571L358.892 302.681L357 302.681L357 304.571L358.892 304.571Z" fill="#176453"/>
<path d="M361.138 284.091L361.138 282.201L359.246 282.201L359.246 284.091L361.138 284.091Z" fill="#176453"/>
<path d="M361.138 286.365L361.138 284.474L359.246 284.474L359.246 286.365L361.138 286.365Z" fill="#176453"/>
<path d="M361.138 290.917L361.138 289.026L359.246 289.026L359.246 290.917L361.138 290.917Z" fill="#176453"/>
<path d="M361.138 293.193L361.138 291.303L359.246 291.303L359.246 293.193L361.138 293.193Z" fill="#176453"/>
<path d="M361.138 295.47L361.138 293.579L359.246 293.579L359.246 295.47L361.138 295.47Z" fill="#176453"/>
<path d="M361.138 297.743L361.138 295.853L359.246 295.853L359.246 297.743L361.138 297.743Z" fill="#176453"/>
<path d="M361.138 302.295L361.138 300.405L359.246 300.405L359.246 302.295L361.138 302.295Z" fill="#176453"/>
<path d="M363.386 284.091L363.386 282.201L361.494 282.201L361.494 284.091L363.386 284.091Z" fill="#176453"/>
<path d="M363.386 286.365L363.386 284.474L361.494 284.474L361.494 286.365L363.386 286.365Z" fill="#176453"/>
<path d="M363.386 288.641L363.386 286.75L361.494 286.75L361.494 288.641L363.386 288.641Z" fill="#176453"/>
<path d="M363.386 290.917L363.386 289.026L361.494 289.026L361.494 290.917L363.386 290.917Z" fill="#176453"/>
<path d="M363.386 293.193L363.386 291.303L361.494 291.303L361.494 293.193L363.386 293.193Z" fill="#176453"/>
<path d="M365.655 293.193L365.655 291.303L363.763 291.303L363.763 293.193L365.655 293.193Z" fill="#176453"/>
<path d="M363.386 297.743L363.386 295.853L361.494 295.853L361.494 297.743L363.386 297.743Z" fill="#176453"/>
<path d="M363.386 300.019L363.386 298.128L361.494 298.128L361.494 300.019L363.386 300.019Z" fill="#176453"/>
<path d="M363.386 304.571L363.386 302.681L361.494 302.681L361.494 304.571L363.386 304.571Z" fill="#176453"/>
<path d="M358.892 309.22L358.892 307.33L357 307.33L357 309.22L358.892 309.22Z" fill="#176453"/>
<path d="M361.138 306.944L361.138 305.053L359.246 305.053L359.246 306.944L361.138 306.944Z" fill="#176453"/>
<path d="M361.138 313.772L361.138 311.882L359.246 311.882L359.246 313.772L361.138 313.772Z" fill="#176453"/>
<path d="M361.138 320.598L361.138 318.708L359.246 318.708L359.246 320.598L361.138 320.598Z" fill="#176453"/>
<path d="M363.386 311.496L363.386 309.605L361.494 309.605L361.494 311.496L363.386 311.496Z" fill="#176453"/>
<path d="M363.386 318.322L363.386 316.431L361.494 316.431L361.494 318.322L363.386 318.322Z" fill="#176453"/>
<path d="M363.386 322.968L363.386 321.077L361.494 321.077L361.494 322.968L363.386 322.968Z" fill="#176453"/>
<path d="M365.655 274.891L365.655 273L363.763 273L363.763 274.891L365.655 274.891Z" fill="#176453"/>
<path d="M365.655 277.164L365.655 275.273L363.763 275.273L363.763 277.164L365.655 277.164Z" fill="#176453"/>
<path d="M365.655 279.44L365.655 277.549L363.763 277.549L363.763 279.44L365.655 279.44Z" fill="#176453"/>
<path d="M365.655 281.716L365.655 279.826L363.763 279.826L363.763 281.716L365.655 281.716Z" fill="#176453"/>
<path d="M367.904 274.891L367.904 273L366.012 273L366.012 274.891L367.904 274.891Z" fill="#176453"/>
<path d="M367.904 279.44L367.904 277.549L366.012 277.549L366.012 279.44L367.904 279.44Z" fill="#176453"/>
<path d="M367.904 281.716L367.904 279.826L366.012 279.826L366.012 281.716L367.904 281.716Z" fill="#176453"/>
<path d="M370.152 274.891L370.152 273L368.26 273L368.26 274.891L370.152 274.891Z" fill="#176453"/>
<path d="M370.152 277.164L370.152 275.273L368.26 275.273L368.26 277.164L370.152 277.164Z" fill="#176453"/>
<path d="M370.152 279.44L370.152 277.55L368.26 277.55L368.26 279.44L370.152 279.44Z" fill="#176453"/>
<path d="M365.655 284.091L365.655 282.201L363.763 282.201L363.763 284.091L365.655 284.091Z" fill="#176453"/>
<path d="M365.655 288.641L365.655 286.75L363.763 286.75L363.763 288.641L365.655 288.641Z" fill="#176453"/>
<path d="M365.655 290.917L365.655 289.026L363.763 289.026L363.763 290.917L365.655 290.917Z" fill="#176453"/>
<path d="M365.655 295.47L365.655 293.579L363.763 293.579L363.763 295.47L365.655 295.47Z" fill="#176453"/>
<path d="M365.655 304.571L365.655 302.681L363.763 302.681L363.763 304.571L365.655 304.571Z" fill="#176453"/>
<path d="M367.904 284.091L367.904 282.201L366.012 282.201L366.012 284.091L367.904 284.091Z" fill="#176453"/>
<path d="M367.904 286.365L367.904 284.474L366.012 284.474L366.012 286.365L367.904 286.365Z" fill="#176453"/>
<path d="M367.904 290.917L367.904 289.026L366.012 289.026L366.012 290.917L367.904 290.917Z" fill="#176453"/>
<path d="M367.904 293.193L367.904 291.303L366.012 291.303L366.012 293.193L367.904 293.193Z" fill="#176453"/>
<path d="M367.904 295.47L367.904 293.579L366.012 293.579L366.012 295.47L367.904 295.47Z" fill="#176453"/>
<path d="M367.904 297.743L367.904 295.853L366.012 295.853L366.012 297.743L367.904 297.743Z" fill="#176453"/>
<path d="M367.904 302.295L367.904 300.405L366.012 300.405L366.012 302.295L367.904 302.295Z" fill="#176453"/>
<path d="M370.152 284.092L370.152 282.201L368.26 282.201L368.26 284.092L370.152 284.092Z" fill="#176453"/>
<path d="M370.152 288.641L370.152 286.75L368.26 286.75L368.26 288.641L370.152 288.641Z" fill="#176453"/>
<path d="M370.152 290.917L370.152 289.026L368.26 289.026L368.26 290.917L370.152 290.917Z" fill="#176453"/>
<path d="M370.152 293.193L370.152 291.303L368.26 291.303L368.26 293.193L370.152 293.193Z" fill="#176453"/>
<path d="M370.152 295.47L370.152 293.579L368.26 293.579L368.26 295.47L370.152 295.47Z" fill="#176453"/>
<path d="M370.152 297.743L370.152 295.853L368.26 295.853L368.26 297.743L370.152 297.743Z" fill="#176453"/>
<path d="M370.152 300.019L370.152 298.128L368.26 298.128L368.26 300.019L370.152 300.019Z" fill="#176453"/>
<path d="M370.152 304.571L370.152 302.681L368.26 302.681L368.26 304.571L370.152 304.571Z" fill="#176453"/>
<path d="M365.655 309.22L365.655 307.33L363.763 307.33L363.763 309.22L365.655 309.22Z" fill="#176453"/>
<path d="M365.655 326.516L365.655 324.625L363.763 324.625L363.763 326.516L365.655 326.516Z" fill="#176453"/>
<path d="M367.904 306.944L367.904 305.053L366.012 305.053L366.012 306.944L367.904 306.944Z" fill="#176453"/>
<path d="M367.904 313.772L367.904 311.882L366.012 311.882L366.012 313.772L367.904 313.772Z" fill="#176453"/>
<path d="M367.904 320.598L367.904 318.708L366.012 318.708L366.012 320.598L367.904 320.598Z" fill="#176453"/>
<path d="M370.152 311.496L370.152 309.605L368.26 309.605L368.26 311.496L370.152 311.496Z" fill="#176453"/>
<path d="M370.152 318.322L370.152 316.431L368.26 316.431L368.26 318.322L370.152 318.322Z" fill="#176453"/>
</svg>
