<svg width="390" height="401" viewBox="0 0 390 401" fill="none" xmlns="http://www.w3.org/2000/svg">
<rect width="390" height="375" fill="#33E6BF"/>
<path d="M55.1549 127.959V133.395H52.4365V127.959H55.1549ZM74.1833 119.804H76.9017V125.24H74.1833V127.959H76.9017V133.395H74.1833V136.114H76.9017V141.55H74.1833V144.269H55.1549V141.55H57.8732V136.114H55.1549V133.395H57.8732V127.959H55.1549V125.24H57.8732V119.804H55.1549V117.085H74.1833V119.804ZM60.5916 125.24H66.0283V119.804H60.5916V125.24ZM60.5916 133.395H66.0283V127.959H60.5916V133.395ZM66.0283 141.55V136.114H60.5916V141.55H66.0283ZM52.4365 119.804V125.24H55.1549V119.804H52.4365ZM52.4365 136.114V141.55H55.1549V136.114H52.4365ZM79.62 127.959V133.395H82.3384V127.959H79.62ZM79.62 119.804V125.24H82.3384V119.804H79.62ZM79.62 111.649V117.085H82.3384V111.649H79.62ZM79.62 136.114V141.55H82.3384V136.114H79.62ZM128.55 133.395V136.114H131.269V141.55H128.55V144.269H109.522V141.55H106.804V136.114H109.522V133.395H106.804V127.959H109.522V125.24H128.55V127.959H131.269V133.395H128.55ZM120.395 127.959V133.395H123.114V127.959H120.395ZM112.24 133.395H117.677V127.959H112.24V133.395ZM117.677 141.55V136.114H112.24V141.55H117.677ZM123.114 141.55V136.114H120.395V141.55H123.114ZM98.6485 87.1834H101.367V84.4651H98.6485V87.1834ZM85.0567 68.155H82.3384V70.8733H85.0567V68.155ZM101.367 92.6201H95.9301V95.3385H101.367V92.6201ZM106.804 100.775H104.085V103.494H98.6485V106.212H93.2118V108.93H101.367V111.649H104.085V117.085H101.367V119.804H104.085V125.24H101.367V127.959H104.085V133.395H101.367V136.114H104.085V141.55H101.367V144.269H82.3384V141.55H87.7751V136.114H82.3384V133.395H87.7751V127.959H82.3384V125.24H87.7751V119.804H82.3384V117.085H87.7751V111.649H82.3384V108.93H90.4934V106.212H85.0567V103.494H79.62V100.775H76.9017V98.0568H74.1833V89.9018H76.9017H82.3384V92.6201H76.9017V95.3385H79.62V98.0568H85.0567V100.775H87.7751V103.494H90.4934V98.0568H87.7751V95.3385H90.4934V89.9018H85.0567V87.1834H82.3384V84.4651H79.62V70.8733H82.3384V76.31H85.0567V70.8733H87.7751V68.155H85.0567V65.4366H98.6485V68.155H101.367V70.8733H104.085V84.4651H101.367V81.7467H98.6485V84.4651H95.9301V87.1834H98.6485V89.9018H93.2118V95.3385H95.9301V98.0568H93.2118V103.494H95.9301V100.775H98.6485V98.0568H104.085V95.3385H106.804V92.6201H101.367V89.9018H106.804H109.522V98.0568H106.804V100.775ZM87.7751 81.7467H90.4934V84.4651H93.2118V81.7467H95.9301V79.0284H93.2118V81.7467H90.4934V73.5917H93.2118V76.31H95.9301V73.5917H93.2118V70.8733H90.4934V73.5917H87.7751V81.7467ZM90.4934 117.085H93.2118V111.649H90.4934V117.085ZM90.4934 125.24H93.2118V119.804H90.4934V125.24ZM90.4934 133.395H93.2118V127.959H90.4934V133.395ZM93.2118 141.55V136.114H90.4934V141.55H93.2118ZM87.7751 95.3385V92.6201H82.3384V95.3385H87.7751Z" fill="black"/>
<path d="M143.92 158.102H146.136V170.29H148.352V164.75H150.568V170.29H152.784V158.102H155V171.398H153.892V172.506H152.784V173.614H150.568V172.506H148.352V173.614H146.136V172.506H145.028V171.398H143.92V158.102Z" fill="black"/>
<path d="M167.843 158.102V160.318H158.978V164.75H165.627V166.966H158.978V171.398H167.843V173.614H156.762V158.102H167.843Z" fill="black"/>
<path d="M169.605 158.102H171.821V170.29H174.037V164.75H176.253V170.29H178.469V158.102H180.685V171.398H179.577V172.506H178.469V173.614H176.253V172.506H174.037V173.614H171.821V172.506H170.713V171.398H169.605V158.102Z" fill="black"/>
<path d="M193.527 158.102V160.318H184.663V164.75H191.311V166.966H184.663V171.398H193.527V173.614H182.447V158.102H193.527Z" fill="black"/>
<path d="M205.262 160.318H206.37V162.534H204.154V161.426H203.046V160.318H198.614V161.426H197.506V163.642H198.614V164.75H204.154V165.858H205.262V166.966H206.37V171.398H205.262V172.506H204.154V173.614H197.506V172.506H196.398V171.398H195.29V169.182H197.506V170.29H198.614V171.398H203.046V170.29H204.154V168.074H203.046V166.966H197.506V165.858H196.398V164.75H195.29V160.318H196.398V159.21H197.506V158.102H204.154V159.21H205.262V160.318Z" fill="black"/>
<path d="M208.132 158.102H210.348V170.29H212.564V164.75H214.78V170.29H216.996V158.102H219.212V171.398H218.104V172.506H216.996V173.614H214.78V172.506H212.564V173.614H210.348V172.506H209.24V171.398H208.132V158.102Z" fill="black"/>
<path d="M223.191 166.966H229.839V163.642H228.731V162.534H227.623V161.426H225.407V162.534H224.299V163.642H223.191V166.966ZM223.191 173.614H220.974V162.534H222.083V161.426H223.191V160.318H224.299V159.21H225.407V158.102H227.623V159.21H228.731V160.318H229.839V161.426H230.947V162.534H232.055V173.614H229.839V169.182H223.191V173.614Z" fill="black"/>
<path d="M236.033 160.318V164.75H241.573V163.642H242.681V161.426H241.573V160.318H236.033ZM236.033 166.966V173.614H233.817V158.102H242.681V159.21H243.789V160.318H244.897V164.75H243.789V165.858H242.681V166.966H236.033Z" fill="black"/>
<path d="M143.92 186.467H146.136V198.656H148.352V193.115H150.568V198.656H152.784V186.467H155V199.764H153.892V200.872H152.784V201.98H150.568V200.872H148.352V201.98H146.136V200.872H145.028V199.764H143.92V186.467Z" fill="black"/>
<path d="M167.843 186.467V188.683H158.978V193.115H165.627V195.331H158.978V199.764H167.843V201.98H156.762V186.467H167.843Z" fill="black"/>
<path d="M169.605 186.467H171.821V198.656H174.037V193.115H176.253V198.656H178.469V186.467H180.685V199.764H179.577V200.872H178.469V201.98H176.253V200.872H174.037V201.98H171.821V200.872H170.713V199.764H169.605V186.467Z" fill="black"/>
<path d="M193.527 186.467V188.683H184.663V193.115H191.311V195.331H184.663V199.764H193.527V201.98H182.447V186.467H193.527Z" fill="black"/>
<path d="M205.262 188.683H206.37V190.899H204.154V189.791H203.046V188.683H198.614V189.791H197.506V192.007H198.614V193.115H204.154V194.223H205.262V195.331H206.37V199.764H205.262V200.872H204.154V201.98H197.506V200.872H196.398V199.764H195.29V197.548H197.506V198.656H198.614V199.764H203.046V198.656H204.154V196.44H203.046V195.331H197.506V194.223H196.398V193.115H195.29V188.683H196.398V187.575H197.506V186.467H204.154V187.575H205.262V188.683Z" fill="black"/>
<path d="M208.132 186.467H210.348V198.656H212.564V193.115H214.78V198.656H216.996V186.467H219.212V199.764H218.104V200.872H216.996V201.98H214.78V200.872H212.564V201.98H210.348V200.872H209.24V199.764H208.132V186.467Z" fill="black"/>
<path d="M223.191 195.331H229.839V192.007H228.731V190.899H227.623V189.791H225.407V190.899H224.299V192.007H223.191V195.331ZM223.191 201.98H220.974V190.899H222.083V189.791H223.191V188.683H224.299V187.575H225.407V186.467H227.623V187.575H228.731V188.683H229.839V189.791H230.947V190.899H232.055V201.98H229.839V197.548H223.191V201.98Z" fill="black"/>
<path d="M236.033 188.683V193.115H241.573V192.007H242.681V189.791H241.573V188.683H236.033ZM236.033 195.331V201.98H233.817V186.467H242.681V187.575H243.789V188.683H244.897V193.115H243.789V194.223H242.681V195.331H236.033Z" fill="black"/>
<path d="M143.92 214.833H146.136V227.021H148.352V221.481H150.568V227.021H152.784V214.833H155V228.129H153.892V229.237H152.784V230.345H150.568V229.237H148.352V230.345H146.136V229.237H145.028V228.129H143.92V214.833Z" fill="black"/>
<path d="M167.843 214.833V217.049H158.978V221.481H165.627V223.697H158.978V228.129H167.843V230.345H156.762V214.833H167.843Z" fill="black"/>
<path d="M169.605 214.833H171.821V227.021H174.037V221.481H176.253V227.021H178.469V214.833H180.685V228.129H179.577V229.237H178.469V230.345H176.253V229.237H174.037V230.345H171.821V229.237H170.713V228.129H169.605V214.833Z" fill="black"/>
<path d="M193.527 214.833V217.049H184.663V221.481H191.311V223.697H184.663V228.129H193.527V230.345H182.447V214.833H193.527Z" fill="black"/>
<path d="M205.262 217.049H206.37V219.265H204.154V218.157H203.046V217.049H198.614V218.157H197.506V220.373H198.614V221.481H204.154V222.589H205.262V223.697H206.37V228.129H205.262V229.237H204.154V230.345H197.506V229.237H196.398V228.129H195.29V225.913H197.506V227.021H198.614V228.129H203.046V227.021H204.154V224.805H203.046V223.697H197.506V222.589H196.398V221.481H195.29V217.049H196.398V215.941H197.506V214.833H204.154V215.941H205.262V217.049Z" fill="black"/>
<path d="M208.132 214.833H210.348V227.021H212.564V221.481H214.78V227.021H216.996V214.833H219.212V228.129H218.104V229.237H216.996V230.345H214.78V229.237H212.564V230.345H210.348V229.237H209.24V228.129H208.132V214.833Z" fill="black"/>
<path d="M223.191 223.697H229.839V220.373H228.731V219.265H227.623V218.157H225.407V219.265H224.299V220.373H223.191V223.697ZM223.191 230.345H220.974V219.265H222.083V218.157H223.191V217.049H224.299V215.941H225.407V214.833H227.623V215.941H228.731V217.049H229.839V218.157H230.947V219.265H232.055V230.345H229.839V225.913H223.191V230.345Z" fill="black"/>
<path d="M236.033 217.049V221.481H241.573V220.373H242.681V218.157H241.573V217.049H236.033ZM236.033 223.697V230.345H233.817V214.833H242.681V215.941H243.789V217.049H244.897V221.481H243.789V222.589H242.681V223.697H236.033Z" fill="black"/>
<path d="M159.162 127.959V133.395H156.443V127.959H159.162ZM178.19 119.804H180.909V125.24H178.19V127.959H180.909V133.395H178.19V136.114H180.909V141.55H178.19V144.269H159.162V141.55H161.88V136.114H159.162V133.395H161.88V127.959H159.162V125.24H161.88V119.804H159.162V117.085H178.19V119.804ZM164.598 125.24H170.035V119.804H164.598V125.24ZM164.598 133.395H170.035V127.959H164.598V133.395ZM170.035 141.55V136.114H164.598V141.55H170.035ZM156.443 119.804V125.24H159.162V119.804H156.443ZM156.443 136.114V141.55H159.162V136.114H156.443ZM183.627 127.959V133.395H186.345V127.959H183.627ZM183.627 119.804V125.24H186.345V119.804H183.627ZM183.627 111.649V117.085H186.345V111.649H183.627ZM183.627 136.114V141.55H186.345V136.114H183.627ZM232.557 133.395V136.114H235.275V141.55H232.557V144.269H213.529V141.55H210.81V136.114H213.529V133.395H210.81V127.959H213.529V125.24H232.557V127.959H235.275V133.395H232.557ZM224.402 127.959V133.395H227.12V127.959H224.402ZM216.247 133.395H221.684V127.959H216.247V133.395ZM221.684 141.55V136.114H216.247V141.55H221.684ZM227.12 141.55V136.114H224.402V141.55H227.12ZM202.655 87.1834H205.374V84.4651H202.655V87.1834ZM189.064 68.155H186.345V70.8733H189.064V68.155ZM205.374 92.6201H199.937V95.3385H205.374V92.6201ZM210.81 100.775H208.092V103.494H202.655V106.212H197.219V108.93H205.374V111.649H208.092V117.085H205.374V119.804H208.092V125.24H205.374V127.959H208.092V133.395H205.374V136.114H208.092V141.55H205.374V144.269H186.345V141.55H191.782V136.114H186.345V133.395H191.782V127.959H186.345V125.24H191.782V119.804H186.345V117.085H191.782V111.649H186.345V108.93H194.5V106.212H189.064V103.494H183.627V100.775H180.909V98.0568H178.19V89.9018H180.909H186.345V92.6201H180.909V95.3385H183.627V98.0568H189.064V100.775H191.782V103.494H194.5V98.0568H191.782V95.3385H194.5V89.9018H189.064V87.1834H186.345V84.4651H183.627V70.8733H186.345V76.31H189.064V70.8733H191.782V68.155H189.064V65.4366H202.655V68.155H205.374V70.8733H208.092V84.4651H205.374V81.7467H202.655V84.4651H199.937V87.1834H202.655V89.9018H197.219V95.3385H199.937V98.0568H197.219V103.494H199.937V100.775H202.655V98.0568H208.092V95.3385H210.81V92.6201H205.374V89.9018H210.81H213.529V98.0568H210.81V100.775ZM191.782 81.7467H194.5V84.4651H197.219V81.7467H199.937V79.0284H197.219V81.7467H194.5V73.5917H197.219V76.31H199.937V73.5917H197.219V70.8733H194.5V73.5917H191.782V81.7467ZM194.5 117.085H197.219V111.649H194.5V117.085ZM194.5 125.24H197.219V119.804H194.5V125.24ZM194.5 133.395H197.219V127.959H194.5V133.395ZM197.219 141.55V136.114H194.5V141.55H197.219ZM191.782 95.3385V92.6201H186.345V95.3385H191.782Z" fill="black"/>
<path d="M263.168 127.959V133.395H260.449V127.959H263.168ZM282.196 119.804H284.914V125.24H282.196V127.959H284.914V133.395H282.196V136.114H284.914V141.55H282.196V144.269H263.168V141.55H265.886V136.114H263.168V133.395H265.886V127.959H263.168V125.24H265.886V119.804H263.168V117.085H282.196V119.804ZM268.604 125.24H274.041V119.804H268.604V125.24ZM268.604 133.395H274.041V127.959H268.604V133.395ZM274.041 141.55V136.114H268.604V141.55H274.041ZM260.449 119.804V125.24H263.168V119.804H260.449ZM260.449 136.114V141.55H263.168V136.114H260.449ZM287.633 127.959V133.395H290.351V127.959H287.633ZM287.633 119.804V125.24H290.351V119.804H287.633ZM287.633 111.649V117.085H290.351V111.649H287.633ZM287.633 136.114V141.55H290.351V136.114H287.633ZM336.563 133.395V136.114H339.281V141.55H336.563V144.269H317.535V141.55H314.816V136.114H317.535V133.395H314.816V127.959H317.535V125.24H336.563V127.959H339.281V133.395H336.563ZM328.408 127.959V133.395H331.126V127.959H328.408ZM320.253 133.395H325.69V127.959H320.253V133.395ZM325.69 141.55V136.114H320.253V141.55H325.69ZM331.126 141.55V136.114H328.408V141.55H331.126ZM306.661 87.1834H309.38V84.4651H306.661V87.1834ZM293.069 68.155H290.351V70.8733H293.069V68.155ZM309.38 92.6201H303.943V95.3385H309.38V92.6201ZM314.816 100.775H312.098V103.494H306.661V106.212H301.224V108.93H309.38V111.649H312.098V117.085H309.38V119.804H312.098V125.24H309.38V127.959H312.098V133.395H309.38V136.114H312.098V141.55H309.38V144.269H290.351V141.55H295.788V136.114H290.351V133.395H295.788V127.959H290.351V125.24H295.788V119.804H290.351V117.085H295.788V111.649H290.351V108.93H298.506V106.212H293.069V103.494H287.633V100.775H284.914V98.0568H282.196V89.9018H284.914H290.351V92.6201H284.914V95.3385H287.633V98.0568H293.069V100.775H295.788V103.494H298.506V98.0568H295.788V95.3385H298.506V89.9018H293.069V87.1834H290.351V84.4651H287.633V70.8733H290.351V76.31H293.069V70.8733H295.788V68.155H293.069V65.4366H306.661V68.155H309.38V70.8733H312.098V84.4651H309.38V81.7467H306.661V84.4651H303.943V87.1834H306.661V89.9018H301.224V95.3385H303.943V98.0568H301.224V103.494H303.943V100.775H306.661V98.0568H312.098V95.3385H314.816V92.6201H309.38V89.9018H314.816H317.535V98.0568H314.816V100.775ZM295.788 81.7467H298.506V84.4651H301.224V81.7467H303.943V79.0284H301.224V81.7467H298.506V73.5917H301.224V76.31H303.943V73.5917H301.224V70.8733H298.506V73.5917H295.788V81.7467ZM298.506 117.085H301.224V111.649H298.506V117.085ZM298.506 125.24H301.224V119.804H298.506V125.24ZM298.506 133.395H301.224V127.959H298.506V133.395ZM301.224 141.55V136.114H298.506V141.55H301.224ZM295.788 95.3385V92.6201H290.351V95.3385H295.788Z" fill="black"/>
<path d="M55.1549 218.728V224.165H52.4365V218.728H55.1549ZM74.1833 210.573H76.9017V216.01H74.1833V218.728H76.9017V224.165H74.1833V226.883H76.9017V232.32H74.1833V235.038H55.1549V232.32H57.8732V226.883H55.1549V224.165H57.8732V218.728H55.1549V216.01H57.8732V210.573H55.1549V207.855H74.1833V210.573ZM60.5916 216.01H66.0283V210.573H60.5916V216.01ZM60.5916 224.165H66.0283V218.728H60.5916V224.165ZM66.0283 232.32V226.883H60.5916V232.32H66.0283ZM52.4365 210.573V216.01H55.1549V210.573H52.4365ZM52.4365 226.883V232.32H55.1549V226.883H52.4365ZM79.62 218.728V224.165H82.3384V218.728H79.62ZM79.62 210.573V216.01H82.3384V210.573H79.62ZM79.62 202.418V207.855H82.3384V202.418H79.62ZM79.62 226.883V232.32H82.3384V226.883H79.62ZM128.55 224.165V226.883H131.269V232.32H128.55V235.038H109.522V232.32H106.804V226.883H109.522V224.165H106.804V218.728H109.522V216.01H128.55V218.728H131.269V224.165H128.55ZM120.395 218.728V224.165H123.114V218.728H120.395ZM112.24 224.165H117.677V218.728H112.24V224.165ZM117.677 232.32V226.883H112.24V232.32H117.677ZM123.114 232.32V226.883H120.395V232.32H123.114ZM98.6485 177.953H101.367V175.234H98.6485V177.953ZM85.0567 158.924H82.3384V161.643H85.0567V158.924ZM101.367 183.389H95.9301V186.108H101.367V183.389ZM106.804 191.544H104.085V194.263H98.6485V196.981H93.2118V199.7H101.367V202.418H104.085V207.855H101.367V210.573H104.085V216.01H101.367V218.728H104.085V224.165H101.367V226.883H104.085V232.32H101.367V235.038H82.3384V232.32H87.7751V226.883H82.3384V224.165H87.7751V218.728H82.3384V216.01H87.7751V210.573H82.3384V207.855H87.7751V202.418H82.3384V199.7H90.4934V196.981H85.0567V194.263H79.62V191.544H76.9017V188.826H74.1833V180.671H76.9017H82.3384V183.389H76.9017V186.108H79.62V188.826H85.0567V191.544H87.7751V194.263H90.4934V188.826H87.7751V186.108H90.4934V180.671H85.0567V177.953H82.3384V175.234H79.62V161.643H82.3384V167.079H85.0567V161.643H87.7751V158.924H85.0567V156.206H98.6485V158.924H101.367V161.643H104.085V175.234H101.367V172.516H98.6485V175.234H95.9301V177.953H98.6485V180.671H93.2118V186.108H95.9301V188.826H93.2118V194.263H95.9301V191.544H98.6485V188.826H104.085V186.108H106.804V183.389H101.367V180.671H106.804H109.522V188.826H106.804V191.544ZM87.7751 172.516H90.4934V175.234H93.2118V172.516H95.9301V169.798H93.2118V172.516H90.4934V164.361H93.2118V167.079H95.9301V164.361H93.2118V161.643H90.4934V164.361H87.7751V172.516ZM90.4934 207.855H93.2118V202.418H90.4934V207.855ZM90.4934 216.01H93.2118V210.573H90.4934V216.01ZM90.4934 224.165H93.2118V218.728H90.4934V224.165ZM93.2118 232.32V226.883H90.4934V232.32H93.2118ZM87.7751 186.108V183.389H82.3384V186.108H87.7751Z" fill="black"/>
<path d="M263.168 218.728V224.165H260.449V218.728H263.168ZM282.196 210.573H284.914V216.01H282.196V218.728H284.914V224.165H282.196V226.883H284.914V232.32H282.196V235.038H263.168V232.32H265.886V226.883H263.168V224.165H265.886V218.728H263.168V216.01H265.886V210.573H263.168V207.855H282.196V210.573ZM268.604 216.01H274.041V210.573H268.604V216.01ZM268.604 224.165H274.041V218.728H268.604V224.165ZM274.041 232.32V226.883H268.604V232.32H274.041ZM260.449 210.573V216.01H263.168V210.573H260.449ZM260.449 226.883V232.32H263.168V226.883H260.449ZM287.633 218.728V224.165H290.351V218.728H287.633ZM287.633 210.573V216.01H290.351V210.573H287.633ZM287.633 202.418V207.855H290.351V202.418H287.633ZM287.633 226.883V232.32H290.351V226.883H287.633ZM336.563 224.165V226.883H339.281V232.32H336.563V235.038H317.535V232.32H314.816V226.883H317.535V224.165H314.816V218.728H317.535V216.01H336.563V218.728H339.281V224.165H336.563ZM328.408 218.728V224.165H331.126V218.728H328.408ZM320.253 224.165H325.69V218.728H320.253V224.165ZM325.69 232.32V226.883H320.253V232.32H325.69ZM331.126 232.32V226.883H328.408V232.32H331.126ZM306.661 177.953H309.38V175.234H306.661V177.953ZM293.069 158.924H290.351V161.643H293.069V158.924ZM309.38 183.389H303.943V186.108H309.38V183.389ZM314.816 191.544H312.098V194.263H306.661V196.981H301.224V199.7H309.38V202.418H312.098V207.855H309.38V210.573H312.098V216.01H309.38V218.728H312.098V224.165H309.38V226.883H312.098V232.32H309.38V235.038H290.351V232.32H295.788V226.883H290.351V224.165H295.788V218.728H290.351V216.01H295.788V210.573H290.351V207.855H295.788V202.418H290.351V199.7H298.506V196.981H293.069V194.263H287.633V191.544H284.914V188.826H282.196V180.671H284.914H290.351V183.389H284.914V186.108H287.633V188.826H293.069V191.544H295.788V194.263H298.506V188.826H295.788V186.108H298.506V180.671H293.069V177.953H290.351V175.234H287.633V161.643H290.351V167.079H293.069V161.643H295.788V158.924H293.069V156.206H306.661V158.924H309.38V161.643H312.098V175.234H309.38V172.516H306.661V175.234H303.943V177.953H306.661V180.671H301.224V186.108H303.943V188.826H301.224V194.263H303.943V191.544H306.661V188.826H312.098V186.108H314.816V183.389H309.38V180.671H314.816H317.535V188.826H314.816V191.544ZM295.788 172.516H298.506V175.234H301.224V172.516H303.943V169.798H301.224V172.516H298.506V164.361H301.224V167.079H303.943V164.361H301.224V161.643H298.506V164.361H295.788V172.516ZM298.506 207.855H301.224V202.418H298.506V207.855ZM298.506 216.01H301.224V210.573H298.506V216.01ZM298.506 224.165H301.224V218.728H298.506V224.165ZM301.224 232.32V226.883H298.506V232.32H301.224ZM295.788 186.108V183.389H290.351V186.108H295.788Z" fill="black"/>
<path d="M55.1549 309.497V314.934H52.4365V309.497H55.1549ZM74.1833 301.342H76.9017V306.779H74.1833V309.497H76.9017V314.934H74.1833V317.652H76.9017V323.089H74.1833V325.807H55.1549V323.089H57.8732V317.652H55.1549V314.934H57.8732V309.497H55.1549V306.779H57.8732V301.342H55.1549V298.624H74.1833V301.342ZM60.5916 306.779H66.0283V301.342H60.5916V306.779ZM60.5916 314.934H66.0283V309.497H60.5916V314.934ZM66.0283 323.089V317.652H60.5916V323.089H66.0283ZM52.4365 301.342V306.779H55.1549V301.342H52.4365ZM52.4365 317.652V323.089H55.1549V317.652H52.4365ZM79.62 309.497V314.934H82.3384V309.497H79.62ZM79.62 301.342V306.779H82.3384V301.342H79.62ZM79.62 293.187V298.624H82.3384V293.187H79.62ZM79.62 317.652V323.089H82.3384V317.652H79.62ZM128.55 314.934V317.652H131.269V323.089H128.55V325.807H109.522V323.089H106.804V317.652H109.522V314.934H106.804V309.497H109.522V306.779H128.55V309.497H131.269V314.934H128.55ZM120.395 309.497V314.934H123.114V309.497H120.395ZM112.24 314.934H117.677V309.497H112.24V314.934ZM117.677 323.089V317.652H112.24V323.089H117.677ZM123.114 323.089V317.652H120.395V323.089H123.114ZM98.6485 268.722H101.367V266.004H98.6485V268.722ZM85.0567 249.693H82.3384V252.412H85.0567V249.693ZM101.367 274.159H95.9301V276.877H101.367V274.159ZM106.804 282.314H104.085V285.032H98.6485V287.75H93.2118V290.469H101.367V293.187H104.085V298.624H101.367V301.342H104.085V306.779H101.367V309.497H104.085V314.934H101.367V317.652H104.085V323.089H101.367V325.807H82.3384V323.089H87.7751V317.652H82.3384V314.934H87.7751V309.497H82.3384V306.779H87.7751V301.342H82.3384V298.624H87.7751V293.187H82.3384V290.469H90.4934V287.75H85.0567V285.032H79.62V282.314H76.9017V279.595H74.1833V271.44H76.9017H82.3384V274.159H76.9017V276.877H79.62V279.595H85.0567V282.314H87.7751V285.032H90.4934V279.595H87.7751V276.877H90.4934V271.44H85.0567V268.722H82.3384V266.004H79.62V252.412H82.3384V257.848H85.0567V252.412H87.7751V249.693H85.0567V246.975H98.6485V249.693H101.367V252.412H104.085V266.004H101.367V263.285H98.6485V266.004H95.9301V268.722H98.6485V271.44H93.2118V276.877H95.9301V279.595H93.2118V285.032H95.9301V282.314H98.6485V279.595H104.085V276.877H106.804V274.159H101.367V271.44H106.804H109.522V279.595H106.804V282.314ZM87.7751 263.285H90.4934V266.004H93.2118V263.285H95.9301V260.567H93.2118V263.285H90.4934V255.13H93.2118V257.848H95.9301V255.13H93.2118V252.412H90.4934V255.13H87.7751V263.285ZM90.4934 298.624H93.2118V293.187H90.4934V298.624ZM90.4934 306.779H93.2118V301.342H90.4934V306.779ZM90.4934 314.934H93.2118V309.497H90.4934V314.934ZM93.2118 323.089V317.652H90.4934V323.089H93.2118ZM87.7751 276.877V274.159H82.3384V276.877H87.7751Z" fill="black"/>
<path d="M159.162 309.497V314.934H156.443V309.497H159.162ZM178.19 301.342H180.909V306.779H178.19V309.497H180.909V314.934H178.19V317.652H180.909V323.089H178.19V325.807H159.162V323.089H161.88V317.652H159.162V314.934H161.88V309.497H159.162V306.779H161.88V301.342H159.162V298.624H178.19V301.342ZM164.598 306.779H170.035V301.342H164.598V306.779ZM164.598 314.934H170.035V309.497H164.598V314.934ZM170.035 323.089V317.652H164.598V323.089H170.035ZM156.443 301.342V306.779H159.162V301.342H156.443ZM156.443 317.652V323.089H159.162V317.652H156.443ZM183.627 309.497V314.934H186.345V309.497H183.627ZM183.627 301.342V306.779H186.345V301.342H183.627ZM183.627 293.187V298.624H186.345V293.187H183.627ZM183.627 317.652V323.089H186.345V317.652H183.627ZM232.557 314.934V317.652H235.275V323.089H232.557V325.807H213.529V323.089H210.81V317.652H213.529V314.934H210.81V309.497H213.529V306.779H232.557V309.497H235.275V314.934H232.557ZM224.402 309.497V314.934H227.12V309.497H224.402ZM216.247 314.934H221.684V309.497H216.247V314.934ZM221.684 323.089V317.652H216.247V323.089H221.684ZM227.12 323.089V317.652H224.402V323.089H227.12ZM202.655 268.722H205.374V266.004H202.655V268.722ZM189.064 249.693H186.345V252.412H189.064V249.693ZM205.374 274.159H199.937V276.877H205.374V274.159ZM210.81 282.314H208.092V285.032H202.655V287.75H197.219V290.469H205.374V293.187H208.092V298.624H205.374V301.342H208.092V306.779H205.374V309.497H208.092V314.934H205.374V317.652H208.092V323.089H205.374V325.807H186.345V323.089H191.782V317.652H186.345V314.934H191.782V309.497H186.345V306.779H191.782V301.342H186.345V298.624H191.782V293.187H186.345V290.469H194.5V287.75H189.064V285.032H183.627V282.314H180.909V279.595H178.19V271.44H180.909H186.345V274.159H180.909V276.877H183.627V279.595H189.064V282.314H191.782V285.032H194.5V279.595H191.782V276.877H194.5V271.44H189.064V268.722H186.345V266.004H183.627V252.412H186.345V257.848H189.064V252.412H191.782V249.693H189.064V246.975H202.655V249.693H205.374V252.412H208.092V266.004H205.374V263.285H202.655V266.004H199.937V268.722H202.655V271.44H197.219V276.877H199.937V279.595H197.219V285.032H199.937V282.314H202.655V279.595H208.092V276.877H210.81V274.159H205.374V271.44H210.81H213.529V279.595H210.81V282.314ZM191.782 263.285H194.5V266.004H197.219V263.285H199.937V260.567H197.219V263.285H194.5V255.13H197.219V257.848H199.937V255.13H197.219V252.412H194.5V255.13H191.782V263.285ZM194.5 298.624H197.219V293.187H194.5V298.624ZM194.5 306.779H197.219V301.342H194.5V306.779ZM194.5 314.934H197.219V309.497H194.5V314.934ZM197.219 323.089V317.652H194.5V323.089H197.219ZM191.782 276.877V274.159H186.345V276.877H191.782Z" fill="black"/>
<path d="M263.168 309.497V314.934H260.449V309.497H263.168ZM282.196 301.342H284.914V306.779H282.196V309.497H284.914V314.934H282.196V317.652H284.914V323.089H282.196V325.807H263.168V323.089H265.886V317.652H263.168V314.934H265.886V309.497H263.168V306.779H265.886V301.342H263.168V298.624H282.196V301.342ZM268.604 306.779H274.041V301.342H268.604V306.779ZM268.604 314.934H274.041V309.497H268.604V314.934ZM274.041 323.089V317.652H268.604V323.089H274.041ZM260.449 301.342V306.779H263.168V301.342H260.449ZM260.449 317.652V323.089H263.168V317.652H260.449ZM287.633 309.497V314.934H290.351V309.497H287.633ZM287.633 301.342V306.779H290.351V301.342H287.633ZM287.633 293.187V298.624H290.351V293.187H287.633ZM287.633 317.652V323.089H290.351V317.652H287.633ZM336.563 314.934V317.652H339.281V323.089H336.563V325.807H317.535V323.089H314.816V317.652H317.535V314.934H314.816V309.497H317.535V306.779H336.563V309.497H339.281V314.934H336.563ZM328.408 309.497V314.934H331.126V309.497H328.408ZM320.253 314.934H325.69V309.497H320.253V314.934ZM325.69 323.089V317.652H320.253V323.089H325.69ZM331.126 323.089V317.652H328.408V323.089H331.126ZM306.661 268.722H309.38V266.004H306.661V268.722ZM293.069 249.693H290.351V252.412H293.069V249.693ZM309.38 274.159H303.943V276.877H309.38V274.159ZM314.816 282.314H312.098V285.032H306.661V287.75H301.224V290.469H309.38V293.187H312.098V298.624H309.38V301.342H312.098V306.779H309.38V309.497H312.098V314.934H309.38V317.652H312.098V323.089H309.38V325.807H290.351V323.089H295.788V317.652H290.351V314.934H295.788V309.497H290.351V306.779H295.788V301.342H290.351V298.624H295.788V293.187H290.351V290.469H298.506V287.75H293.069V285.032H287.633V282.314H284.914V279.595H282.196V271.44H284.914H290.351V274.159H284.914V276.877H287.633V279.595H293.069V282.314H295.788V285.032H298.506V279.595H295.788V276.877H298.506V271.44H293.069V268.722H290.351V266.004H287.633V252.412H290.351V257.848H293.069V252.412H295.788V249.693H293.069V246.975H306.661V249.693H309.38V252.412H312.098V266.004H309.38V263.285H306.661V266.004H303.943V268.722H306.661V271.44H301.224V276.877H303.943V279.595H301.224V285.032H303.943V282.314H306.661V279.595H312.098V276.877H314.816V274.159H309.38V271.44H314.816H317.535V279.595H314.816V282.314ZM295.788 263.285H298.506V266.004H301.224V263.285H303.943V260.567H301.224V263.285H298.506V255.13H301.224V257.848H303.943V255.13H301.224V252.412H298.506V255.13H295.788V263.285ZM298.506 298.624H301.224V293.187H298.506V298.624ZM298.506 306.779H301.224V301.342H298.506V306.779ZM298.506 314.934H301.224V309.497H298.506V314.934ZM301.224 323.089V317.652H298.506V323.089H301.224ZM295.788 276.877V274.159H290.351V276.877H295.788Z" fill="black"/>
<rect y="45" width="2.23704" height="2.23704" fill="black"/>
<rect y="45" width="2.23704" height="2.23704" fill="black"/>
<rect y="52.4568" width="2.23704" height="2.23704" fill="black"/>
<rect y="52.4568" width="2.23704" height="2.23704" fill="black"/>
<rect y="59.9136" width="2.23704" height="2.23704" fill="black"/>
<rect y="59.9136" width="2.23704" height="2.23704" fill="black"/>
<rect y="67.3704" width="2.23704" height="2.23704" fill="black"/>
<rect y="67.3704" width="2.23704" height="2.23704" fill="black"/>
<rect y="74.8271" width="2.23704" height="2.23704" fill="black"/>
<rect y="74.8271" width="2.23704" height="2.23704" fill="black"/>
<rect y="82.2839" width="2.23704" height="2.23704" fill="black"/>
<rect y="82.2839" width="2.23704" height="2.23704" fill="black"/>
<rect y="89.7407" width="2.23704" height="2.23704" fill="black"/>
<rect y="89.7407" width="2.23704" height="2.23704" fill="black"/>
<rect y="97.1975" width="2.23704" height="2.23704" fill="black"/>
<rect y="97.1975" width="2.23704" height="2.23704" fill="black"/>
<rect y="112.111" width="2.23704" height="2.23704" fill="black"/>
<rect y="112.111" width="2.23704" height="2.23704" fill="black"/>
<rect y="119.568" width="2.23704" height="2.23704" fill="black"/>
<rect y="119.568" width="2.23704" height="2.23704" fill="black"/>
<rect y="127.025" width="2.23704" height="2.23704" fill="black"/>
<rect y="127.025" width="2.23704" height="2.23704" fill="black"/>
<rect y="134.481" width="2.23704" height="2.23704" fill="black"/>
<rect y="134.481" width="2.23704" height="2.23704" fill="black"/>
<rect y="141.938" width="2.23704" height="2.23704" fill="black"/>
<rect y="141.938" width="2.23704" height="2.23704" fill="black"/>
<rect y="146.412" width="2.23704" height="2.23704" fill="black"/>
<rect y="146.412" width="2.23704" height="2.23704" fill="black"/>
<rect y="161.326" width="2.23704" height="2.23704" fill="black"/>
<rect y="161.326" width="2.23704" height="2.23704" fill="black"/>
<rect y="176.24" width="2.23704" height="2.23704" fill="black"/>
<rect y="176.24" width="2.23704" height="2.23704" fill="black"/>
<rect y="183.696" width="2.23704" height="2.23704" fill="black"/>
<rect y="183.696" width="2.23704" height="2.23704" fill="black"/>
<rect y="191.153" width="2.23704" height="2.23704" fill="black"/>
<rect y="191.153" width="2.23704" height="2.23704" fill="black"/>
<rect y="198.61" width="2.23704" height="2.23704" fill="black"/>
<rect y="198.61" width="2.23704" height="2.23704" fill="black"/>
<rect y="206.067" width="2.23704" height="2.23704" fill="black"/>
<rect y="206.067" width="2.23704" height="2.23704" fill="black"/>
<rect y="213.523" width="2.23704" height="2.23704" fill="black"/>
<rect y="213.523" width="2.23704" height="2.23704" fill="black"/>
<rect y="220.98" width="2.23704" height="2.23704" fill="black"/>
<rect y="220.98" width="2.23704" height="2.23704" fill="black"/>
<rect y="228.437" width="2.23704" height="2.23704" fill="black"/>
<rect y="228.437" width="2.23704" height="2.23704" fill="black"/>
<rect y="235.894" width="2.23704" height="2.23704" fill="black"/>
<rect y="235.894" width="2.23704" height="2.23704" fill="black"/>
<rect y="243.351" width="2.23704" height="2.23704" fill="black"/>
<rect y="243.351" width="2.23704" height="2.23704" fill="black"/>
<rect y="247.825" width="2.23704" height="2.23704" fill="black"/>
<rect y="247.825" width="2.23704" height="2.23704" fill="black"/>
<rect y="255.281" width="2.23704" height="2.23704" fill="black"/>
<rect y="255.281" width="2.23704" height="2.23704" fill="black"/>
<rect y="262.738" width="2.23704" height="2.23704" fill="black"/>
<rect y="262.738" width="2.23704" height="2.23704" fill="black"/>
<rect y="270.195" width="2.23704" height="2.23704" fill="black"/>
<rect y="270.195" width="2.23704" height="2.23704" fill="black"/>
<rect y="277.652" width="2.23704" height="2.23704" fill="black"/>
<rect y="277.652" width="2.23704" height="2.23704" fill="black"/>
<rect y="285.109" width="2.23704" height="2.23704" fill="black"/>
<rect y="285.109" width="2.23704" height="2.23704" fill="black"/>
<rect y="292.565" width="2.23704" height="2.23704" fill="black"/>
<rect y="292.565" width="2.23704" height="2.23704" fill="black"/>
<rect y="300.022" width="2.23704" height="2.23704" fill="black"/>
<rect y="300.022" width="2.23704" height="2.23704" fill="black"/>
<rect y="307.479" width="2.23704" height="2.23704" fill="black"/>
<rect y="307.479" width="2.23704" height="2.23704" fill="black"/>
<rect y="322.393" width="2.23704" height="2.23704" fill="black"/>
<rect y="322.393" width="2.23704" height="2.23704" fill="black"/>
<rect y="329.849" width="2.23704" height="2.23704" fill="black"/>
<rect y="329.849" width="2.23704" height="2.23704" fill="black"/>
<rect y="337.306" width="2.23704" height="2.23704" fill="black"/>
<rect y="337.306" width="2.23704" height="2.23704" fill="black"/>
<rect y="344.763" width="2.23704" height="2.23704" fill="black"/>
<rect y="344.763" width="2.23704" height="2.23704" fill="black"/>
<rect x="2.98242" y="67.3704" width="2.23704" height="2.23704" fill="black"/>
<rect x="2.98242" y="67.3704" width="2.23704" height="2.23704" fill="black"/>
<rect x="2.98242" y="74.8271" width="2.23704" height="2.23704" fill="black"/>
<rect x="2.98242" y="74.8271" width="2.23704" height="2.23704" fill="black"/>
<rect x="2.98242" y="89.7407" width="2.23704" height="2.23704" fill="black"/>
<rect x="2.98242" y="89.7407" width="2.23704" height="2.23704" fill="black"/>
<rect x="2.98242" y="97.1975" width="2.23704" height="2.23704" fill="black"/>
<rect x="2.98242" y="97.1975" width="2.23704" height="2.23704" fill="black"/>
<rect x="2.98242" y="104.654" width="2.23704" height="2.23704" fill="black"/>
<rect x="2.98242" y="104.654" width="2.23704" height="2.23704" fill="black"/>
<rect x="2.98242" y="112.111" width="2.23704" height="2.23704" fill="black"/>
<rect x="2.98242" y="112.111" width="2.23704" height="2.23704" fill="black"/>
<rect x="2.98242" y="119.568" width="2.23704" height="2.23704" fill="black"/>
<rect x="2.98242" y="119.568" width="2.23704" height="2.23704" fill="black"/>
<rect x="2.98242" y="127.025" width="2.23704" height="2.23704" fill="black"/>
<rect x="2.98242" y="127.025" width="2.23704" height="2.23704" fill="black"/>
<rect x="2.98242" y="134.481" width="2.23704" height="2.23704" fill="black"/>
<rect x="2.98242" y="134.481" width="2.23704" height="2.23704" fill="black"/>
<rect x="2.98242" y="146.412" width="2.23704" height="2.23704" fill="black"/>
<rect x="2.98242" y="146.412" width="2.23704" height="2.23704" fill="black"/>
<rect x="2.98242" y="153.869" width="2.23704" height="2.23704" fill="black"/>
<rect x="2.98242" y="153.869" width="2.23704" height="2.23704" fill="black"/>
<rect x="2.98242" y="161.326" width="2.23704" height="2.23704" fill="black"/>
<rect x="2.98242" y="161.326" width="2.23704" height="2.23704" fill="black"/>
<rect x="2.98242" y="168.783" width="2.23704" height="2.23704" fill="black"/>
<rect x="2.98242" y="168.783" width="2.23704" height="2.23704" fill="black"/>
<rect x="2.98242" y="176.24" width="2.23704" height="2.23704" fill="black"/>
<rect x="2.98242" y="176.24" width="2.23704" height="2.23704" fill="black"/>
<rect x="2.98242" y="183.696" width="2.23704" height="2.23704" fill="black"/>
<rect x="2.98242" y="183.696" width="2.23704" height="2.23704" fill="black"/>
<rect x="2.98242" y="198.61" width="2.23704" height="2.23704" fill="black"/>
<rect x="2.98242" y="198.61" width="2.23704" height="2.23704" fill="black"/>
<rect x="2.98242" y="206.067" width="2.23704" height="2.23704" fill="black"/>
<rect x="2.98242" y="206.067" width="2.23704" height="2.23704" fill="black"/>
<rect x="2.98242" y="213.523" width="2.23704" height="2.23704" fill="black"/>
<rect x="2.98242" y="213.523" width="2.23704" height="2.23704" fill="black"/>
<rect x="2.98242" y="220.98" width="2.23704" height="2.23704" fill="black"/>
<rect x="2.98242" y="220.98" width="2.23704" height="2.23704" fill="black"/>
<rect x="2.98242" y="228.437" width="2.23704" height="2.23704" fill="black"/>
<rect x="2.98242" y="228.437" width="2.23704" height="2.23704" fill="black"/>
<rect x="2.98242" y="243.351" width="2.23704" height="2.23704" fill="black"/>
<rect x="2.98242" y="243.351" width="2.23704" height="2.23704" fill="black"/>
<rect x="2.98242" y="247.825" width="2.23704" height="2.23704" fill="black"/>
<rect x="2.98242" y="247.825" width="2.23704" height="2.23704" fill="black"/>
<rect x="2.98242" y="255.281" width="2.23704" height="2.23704" fill="black"/>
<rect x="2.98242" y="255.281" width="2.23704" height="2.23704" fill="black"/>
<rect x="2.98242" y="262.738" width="2.23704" height="2.23704" fill="black"/>
<rect x="2.98242" y="262.738" width="2.23704" height="2.23704" fill="black"/>
<rect x="2.98242" y="270.195" width="2.23704" height="2.23704" fill="black"/>
<rect x="2.98242" y="270.195" width="2.23704" height="2.23704" fill="black"/>
<rect x="2.98242" y="277.652" width="2.23704" height="2.23704" fill="black"/>
<rect x="2.98242" y="277.652" width="2.23704" height="2.23704" fill="black"/>
<rect x="2.98242" y="285.109" width="2.23704" height="2.23704" fill="black"/>
<rect x="2.98242" y="285.109" width="2.23704" height="2.23704" fill="black"/>
<rect x="2.98242" y="292.565" width="2.23704" height="2.23704" fill="black"/>
<rect x="2.98242" y="292.565" width="2.23704" height="2.23704" fill="black"/>
<rect x="2.98242" y="300.022" width="2.23704" height="2.23704" fill="black"/>
<rect x="2.98242" y="300.022" width="2.23704" height="2.23704" fill="black"/>
<rect x="2.98242" y="307.479" width="2.23704" height="2.23704" fill="black"/>
<rect x="2.98242" y="307.479" width="2.23704" height="2.23704" fill="black"/>
<rect x="2.98242" y="314.936" width="2.23704" height="2.23704" fill="black"/>
<rect x="2.98242" y="314.936" width="2.23704" height="2.23704" fill="black"/>
<rect x="2.98242" y="322.393" width="2.23704" height="2.23704" fill="black"/>
<rect x="2.98242" y="322.393" width="2.23704" height="2.23704" fill="black"/>
<rect x="2.98242" y="329.849" width="2.23704" height="2.23704" fill="black"/>
<rect x="2.98242" y="329.849" width="2.23704" height="2.23704" fill="black"/>
<rect x="2.98242" y="337.306" width="2.23704" height="2.23704" fill="black"/>
<rect x="2.98242" y="337.306" width="2.23704" height="2.23704" fill="black"/>
<rect x="2.98242" y="344.763" width="2.23704" height="2.23704" fill="black"/>
<rect x="2.98242" y="344.763" width="2.23704" height="2.23704" fill="black"/>
<rect x="5.96582" y="67.3704" width="2.23704" height="2.23704" fill="black"/>
<rect x="5.96582" y="67.3704" width="2.23704" height="2.23704" fill="black"/>
<rect x="5.96582" y="82.2839" width="2.23704" height="2.23704" fill="black"/>
<rect x="5.96582" y="82.2839" width="2.23704" height="2.23704" fill="black"/>
<rect x="5.96582" y="97.1975" width="2.23704" height="2.23704" fill="black"/>
<rect x="5.96582" y="97.1975" width="2.23704" height="2.23704" fill="black"/>
<rect x="5.96582" y="104.654" width="2.23704" height="2.23704" fill="black"/>
<rect x="5.96582" y="104.654" width="2.23704" height="2.23704" fill="black"/>
<rect x="5.96582" y="119.568" width="2.23704" height="2.23704" fill="black"/>
<rect x="5.96582" y="119.568" width="2.23704" height="2.23704" fill="black"/>
<rect x="5.96582" y="127.025" width="2.23704" height="2.23704" fill="black"/>
<rect x="5.96582" y="127.025" width="2.23704" height="2.23704" fill="black"/>
<rect x="5.96582" y="141.938" width="2.23704" height="2.23704" fill="black"/>
<rect x="5.96582" y="141.938" width="2.23704" height="2.23704" fill="black"/>
<rect x="5.96582" y="146.412" width="2.23704" height="2.23704" fill="black"/>
<rect x="5.96582" y="146.412" width="2.23704" height="2.23704" fill="black"/>
<rect x="5.96582" y="161.326" width="2.23704" height="2.23704" fill="black"/>
<rect x="5.96582" y="161.326" width="2.23704" height="2.23704" fill="black"/>
<rect x="5.96582" y="168.783" width="2.23704" height="2.23704" fill="black"/>
<rect x="5.96582" y="168.783" width="2.23704" height="2.23704" fill="black"/>
<rect x="5.96582" y="176.24" width="2.23704" height="2.23704" fill="black"/>
<rect x="5.96582" y="176.24" width="2.23704" height="2.23704" fill="black"/>
<rect x="5.96582" y="191.153" width="2.23704" height="2.23704" fill="black"/>
<rect x="5.96582" y="191.153" width="2.23704" height="2.23704" fill="black"/>
<rect x="5.96582" y="198.61" width="2.23704" height="2.23704" fill="black"/>
<rect x="5.96582" y="198.61" width="2.23704" height="2.23704" fill="black"/>
<rect x="5.96582" y="206.067" width="2.23704" height="2.23704" fill="black"/>
<rect x="5.96582" y="206.067" width="2.23704" height="2.23704" fill="black"/>
<rect x="5.96582" y="213.523" width="2.23704" height="2.23704" fill="black"/>
<rect x="5.96582" y="213.523" width="2.23704" height="2.23704" fill="black"/>
<rect x="5.96582" y="220.98" width="2.23704" height="2.23704" fill="black"/>
<rect x="5.96582" y="220.98" width="2.23704" height="2.23704" fill="black"/>
<rect x="5.96582" y="228.437" width="2.23704" height="2.23704" fill="black"/>
<rect x="5.96582" y="228.437" width="2.23704" height="2.23704" fill="black"/>
<rect x="5.96582" y="235.894" width="2.23704" height="2.23704" fill="black"/>
<rect x="5.96582" y="235.894" width="2.23704" height="2.23704" fill="black"/>
<rect x="5.96582" y="243.351" width="2.23704" height="2.23704" fill="black"/>
<rect x="5.96582" y="243.351" width="2.23704" height="2.23704" fill="black"/>
<rect x="5.96582" y="247.825" width="2.23704" height="2.23704" fill="black"/>
<rect x="5.96582" y="247.825" width="2.23704" height="2.23704" fill="black"/>
<rect x="5.96582" y="255.281" width="2.23704" height="2.23704" fill="black"/>
<rect x="5.96582" y="255.281" width="2.23704" height="2.23704" fill="black"/>
<rect x="5.96582" y="270.195" width="2.23704" height="2.23704" fill="black"/>
<rect x="5.96582" y="270.195" width="2.23704" height="2.23704" fill="black"/>
<rect x="5.96582" y="277.652" width="2.23704" height="2.23704" fill="black"/>
<rect x="5.96582" y="277.652" width="2.23704" height="2.23704" fill="black"/>
<rect x="5.96582" y="285.109" width="2.23704" height="2.23704" fill="black"/>
<rect x="5.96582" y="285.109" width="2.23704" height="2.23704" fill="black"/>
<rect x="5.96582" y="292.565" width="2.23704" height="2.23704" fill="black"/>
<rect x="5.96582" y="292.565" width="2.23704" height="2.23704" fill="black"/>
<rect x="5.96582" y="300.022" width="2.23704" height="2.23704" fill="black"/>
<rect x="5.96582" y="300.022" width="2.23704" height="2.23704" fill="black"/>
<rect x="5.96582" y="307.479" width="2.23704" height="2.23704" fill="black"/>
<rect x="5.96582" y="307.479" width="2.23704" height="2.23704" fill="black"/>
<rect x="5.96582" y="314.936" width="2.23704" height="2.23704" fill="black"/>
<rect x="5.96582" y="314.936" width="2.23704" height="2.23704" fill="black"/>
<rect x="5.96582" y="322.393" width="2.23704" height="2.23704" fill="black"/>
<rect x="5.96582" y="322.393" width="2.23704" height="2.23704" fill="black"/>
<rect x="5.96582" y="329.849" width="2.23704" height="2.23704" fill="black"/>
<rect x="5.96582" y="329.849" width="2.23704" height="2.23704" fill="black"/>
<rect x="5.96582" y="337.306" width="2.23704" height="2.23704" fill="black"/>
<rect x="5.96582" y="337.306" width="2.23704" height="2.23704" fill="black"/>
<rect x="5.96582" y="344.763" width="2.23704" height="2.23704" fill="black"/>
<rect x="5.96582" y="344.763" width="2.23704" height="2.23704" fill="black"/>
<rect x="8.94824" y="52.4568" width="2.23704" height="2.23704" fill="black"/>
<rect x="8.94824" y="52.4568" width="2.23704" height="2.23704" fill="black"/>
<rect x="8.94824" y="59.9136" width="2.23704" height="2.23704" fill="black"/>
<rect x="8.94824" y="59.9136" width="2.23704" height="2.23704" fill="black"/>
<rect x="8.94824" y="74.8271" width="2.23704" height="2.23704" fill="black"/>
<rect x="8.94824" y="74.8271" width="2.23704" height="2.23704" fill="black"/>
<rect x="8.94824" y="82.2839" width="2.23704" height="2.23704" fill="black"/>
<rect x="8.94824" y="82.2839" width="2.23704" height="2.23704" fill="black"/>
<rect x="8.94824" y="89.7407" width="2.23704" height="2.23704" fill="black"/>
<rect x="8.94824" y="89.7407" width="2.23704" height="2.23704" fill="black"/>
<rect x="8.94824" y="104.654" width="2.23704" height="2.23704" fill="black"/>
<rect x="8.94824" y="104.654" width="2.23704" height="2.23704" fill="black"/>
<rect x="8.94824" y="112.111" width="2.23704" height="2.23704" fill="black"/>
<rect x="8.94824" y="112.111" width="2.23704" height="2.23704" fill="black"/>
<rect x="8.94824" y="127.025" width="2.23704" height="2.23704" fill="black"/>
<rect x="8.94824" y="127.025" width="2.23704" height="2.23704" fill="black"/>
<rect x="8.94824" y="134.481" width="2.23704" height="2.23704" fill="black"/>
<rect x="8.94824" y="134.481" width="2.23704" height="2.23704" fill="black"/>
<rect x="8.94824" y="141.938" width="2.23704" height="2.23704" fill="black"/>
<rect x="8.94824" y="141.938" width="2.23704" height="2.23704" fill="black"/>
<rect x="8.94824" y="146.412" width="2.23704" height="2.23704" fill="black"/>
<rect x="8.94824" y="146.412" width="2.23704" height="2.23704" fill="black"/>
<rect x="8.94824" y="153.869" width="2.23704" height="2.23704" fill="black"/>
<rect x="8.94824" y="153.869" width="2.23704" height="2.23704" fill="black"/>
<rect x="8.94824" y="161.326" width="2.23704" height="2.23704" fill="black"/>
<rect x="8.94824" y="161.326" width="2.23704" height="2.23704" fill="black"/>
<rect x="8.94824" y="168.783" width="2.23704" height="2.23704" fill="black"/>
<rect x="8.94824" y="168.783" width="2.23704" height="2.23704" fill="black"/>
<rect x="8.94824" y="176.24" width="2.23704" height="2.23704" fill="black"/>
<rect x="8.94824" y="176.24" width="2.23704" height="2.23704" fill="black"/>
<rect x="8.94824" y="183.696" width="2.23704" height="2.23704" fill="black"/>
<rect x="8.94824" y="183.696" width="2.23704" height="2.23704" fill="black"/>
<rect x="8.94824" y="191.153" width="2.23704" height="2.23704" fill="black"/>
<rect x="8.94824" y="191.153" width="2.23704" height="2.23704" fill="black"/>
<rect x="8.94824" y="198.61" width="2.23704" height="2.23704" fill="black"/>
<rect x="8.94824" y="198.61" width="2.23704" height="2.23704" fill="black"/>
<rect x="8.94824" y="213.523" width="2.23704" height="2.23704" fill="black"/>
<rect x="8.94824" y="213.523" width="2.23704" height="2.23704" fill="black"/>
<rect x="8.94824" y="220.98" width="2.23704" height="2.23704" fill="black"/>
<rect x="8.94824" y="220.98" width="2.23704" height="2.23704" fill="black"/>
<rect x="8.94824" y="228.437" width="2.23704" height="2.23704" fill="black"/>
<rect x="8.94824" y="228.437" width="2.23704" height="2.23704" fill="black"/>
<rect x="8.94824" y="235.894" width="2.23704" height="2.23704" fill="black"/>
<rect x="8.94824" y="235.894" width="2.23704" height="2.23704" fill="black"/>
<rect x="8.94824" y="243.351" width="2.23704" height="2.23704" fill="black"/>
<rect x="8.94824" y="243.351" width="2.23704" height="2.23704" fill="black"/>
<rect x="8.94824" y="247.825" width="2.23704" height="2.23704" fill="black"/>
<rect x="8.94824" y="247.825" width="2.23704" height="2.23704" fill="black"/>
<rect x="8.94824" y="255.281" width="2.23704" height="2.23704" fill="black"/>
<rect x="8.94824" y="255.281" width="2.23704" height="2.23704" fill="black"/>
<rect x="8.94824" y="262.738" width="2.23704" height="2.23704" fill="black"/>
<rect x="8.94824" y="262.738" width="2.23704" height="2.23704" fill="black"/>
<rect x="8.94824" y="270.195" width="2.23704" height="2.23704" fill="black"/>
<rect x="8.94824" y="270.195" width="2.23704" height="2.23704" fill="black"/>
<rect x="8.94824" y="277.652" width="2.23704" height="2.23704" fill="black"/>
<rect x="8.94824" y="277.652" width="2.23704" height="2.23704" fill="black"/>
<rect x="8.94824" y="285.109" width="2.23704" height="2.23704" fill="black"/>
<rect x="8.94824" y="285.109" width="2.23704" height="2.23704" fill="black"/>
<rect x="8.94824" y="292.565" width="2.23704" height="2.23704" fill="black"/>
<rect x="8.94824" y="292.565" width="2.23704" height="2.23704" fill="black"/>
<rect x="8.94824" y="300.022" width="2.23704" height="2.23704" fill="black"/>
<rect x="8.94824" y="300.022" width="2.23704" height="2.23704" fill="black"/>
<rect x="8.94824" y="307.479" width="2.23704" height="2.23704" fill="black"/>
<rect x="8.94824" y="307.479" width="2.23704" height="2.23704" fill="black"/>
<rect x="8.94824" y="314.936" width="2.23704" height="2.23704" fill="black"/>
<rect x="8.94824" y="314.936" width="2.23704" height="2.23704" fill="black"/>
<rect x="8.94824" y="322.393" width="2.23704" height="2.23704" fill="black"/>
<rect x="8.94824" y="322.393" width="2.23704" height="2.23704" fill="black"/>
<rect x="8.94824" y="329.849" width="2.23704" height="2.23704" fill="black"/>
<rect x="8.94824" y="329.849" width="2.23704" height="2.23704" fill="black"/>
<rect x="8.94824" y="337.306" width="2.23704" height="2.23704" fill="black"/>
<rect x="8.94824" y="337.306" width="2.23704" height="2.23704" fill="black"/>
<rect x="8.94824" y="344.763" width="2.23704" height="2.23704" fill="black"/>
<rect x="8.94824" y="344.763" width="2.23704" height="2.23704" fill="black"/>
<path d="M160.338 0.011475L155.874 0.0114746L155.874 13.3633L160.338 13.3633L160.338 0.011475Z" fill="#176453"/>
<path d="M165.716 0.011475L161.252 0.0114746L161.252 13.3633L165.716 13.3633L165.716 0.011475Z" fill="#176453"/>
<path d="M171.089 0.011475L166.625 0.0114746L166.625 13.3633L171.089 13.3633L171.089 0.011475Z" fill="#176453"/>
<path d="M181.833 0.011475L177.369 0.0114746L177.369 13.3633L181.833 13.3633L181.833 0.011475Z" fill="#176453"/>
<path d="M187.205 0.011475L182.741 0.0114746L182.741 13.3633L187.205 13.3633L187.205 0.011475Z" fill="#176453"/>
<path d="M197.956 0.011475L193.492 0.0114746L193.492 13.3633L197.956 13.3633L197.956 0.011475Z" fill="#176453"/>
<path d="M203.327 0.011475L198.863 0.0114746L198.863 13.3633L203.327 13.3633L203.327 0.011475Z" fill="#176453"/>
<path d="M208.7 0.011475L204.236 0.0114746L204.236 13.3633L208.7 13.3633L208.7 0.011475Z" fill="#176453"/>
<path d="M214.072 0.011475L209.608 0.0114746L209.608 13.3633L214.072 13.3633L214.072 0.011475Z" fill="#176453"/>
<path d="M219.444 0.011475L214.98 0.0114746L214.98 13.3633L219.444 13.3633L219.444 0.011475Z" fill="#176453"/>
<path d="M160.338 15.8707L155.874 15.8707L155.874 29.2222L160.338 29.2222L160.338 15.8707Z" fill="#176453"/>
<path d="M165.716 15.8707L161.252 15.8707L161.252 29.2222L165.716 29.2222L165.716 15.8707Z" fill="#176453"/>
<path d="M171.089 15.8707L166.625 15.8707L166.625 29.2222L171.089 29.2222L171.089 15.8707Z" fill="#176453"/>
<path d="M176.461 15.8707L171.997 15.8707L171.997 29.2222L176.461 29.2222L176.461 15.8707Z" fill="#176453"/>
<path d="M187.205 15.8707L182.741 15.8707L182.741 29.2222L187.205 29.2222L187.205 15.8707Z" fill="#176453"/>
<path d="M192.584 15.8707L188.12 15.8707L188.12 29.2222L192.584 29.2222L192.584 15.8707Z" fill="#176453"/>
<path d="M197.956 15.8707L193.492 15.8707L193.492 29.2222L197.956 29.2222L197.956 15.8707Z" fill="#176453"/>
<path d="M203.327 15.8707L198.863 15.8707L198.863 29.2222L203.327 29.2222L203.327 15.8707Z" fill="#176453"/>
<path d="M214.072 15.8707L209.608 15.8707L209.608 29.2222L214.072 29.2222L214.072 15.8707Z" fill="#176453"/>
<path d="M219.444 15.8707L214.98 15.8707L214.98 29.2222L219.444 29.2222L219.444 15.8707Z" fill="#176453"/>
<path d="M160.338 31.7281L155.874 31.7281L155.874 45.0797L160.338 45.0797L160.338 31.7281Z" fill="#176453"/>
<path d="M165.716 31.7281L161.252 31.7281L161.252 45.0797L165.716 45.0797L165.716 31.7281Z" fill="#176453"/>
<path d="M171.089 31.7281L166.625 31.7281L166.625 45.0797L171.089 45.0797L171.089 31.7281Z" fill="#176453"/>
<path d="M176.461 31.7281L171.997 31.7281L171.997 45.0797L176.461 45.0797L176.461 31.7281Z" fill="#176453"/>
<path d="M181.833 31.7281L177.369 31.7281L177.369 45.0797L181.833 45.0797L181.833 31.7281Z" fill="#176453"/>
<path d="M187.205 31.7281L182.741 31.7281L182.741 45.0797L187.205 45.0797L187.205 31.7281Z" fill="#176453"/>
<path d="M192.584 31.7281L188.12 31.7281L188.12 45.0797L192.584 45.0797L192.584 31.7281Z" fill="#176453"/>
<path d="M197.956 31.7281L193.492 31.7281L193.492 45.0797L197.956 45.0797L197.956 31.7281Z" fill="#176453"/>
<path d="M203.327 31.7281L198.863 31.7281L198.863 45.0797L203.327 45.0797L203.327 31.7281Z" fill="#176453"/>
<path d="M208.7 31.7281L204.236 31.7281L204.236 45.0797L208.7 45.0797L208.7 31.7281Z" fill="#176453"/>
<path d="M214.072 31.7281L209.608 31.7281L209.608 45.0797L214.072 45.0797L214.072 31.7281Z" fill="#176453"/>
<path d="M225.054 0.011475L220.59 0.0114746L220.59 13.3633L225.054 13.3633L225.054 0.011475Z" fill="#176453"/>
<path d="M235.798 0.011475L231.334 0.0114746L231.334 13.3633L235.798 13.3633L235.798 0.011475Z" fill="#176453"/>
<path d="M241.17 0.011475L236.706 0.0114746L236.706 13.3633L241.17 13.3633L241.17 0.011475Z" fill="#176453"/>
<path d="M251.921 0.011475L247.457 0.0114746L247.457 13.3633L251.921 13.3633L251.921 0.011475Z" fill="#176453"/>
<path d="M273.415 0.011475L268.951 0.0114746L268.951 13.3633L273.415 13.3633L273.415 0.011475Z" fill="#176453"/>
<path d="M225.054 15.8707L220.59 15.8707L220.59 29.2222L225.054 29.2222L225.054 15.8707Z" fill="#176453"/>
<path d="M230.426 15.8707L225.962 15.8707L225.962 29.2222L230.426 29.2222L230.426 15.8707Z" fill="#176453"/>
<path d="M241.17 15.8707L236.706 15.8707L236.706 29.2222L241.17 29.2222L241.17 15.8707Z" fill="#176453"/>
<path d="M246.549 15.8707L242.085 15.8707L242.085 29.2222L246.549 29.2222L246.549 15.8707Z" fill="#176453"/>
<path d="M251.921 15.8707L247.457 15.8707L247.457 29.2222L251.921 29.2222L251.921 15.8707Z" fill="#176453"/>
<path d="M257.293 15.8707L252.829 15.8707L252.829 29.2222L257.293 29.2222L257.293 15.8707Z" fill="#176453"/>
<path d="M268.037 15.8707L263.573 15.8707L263.573 29.2222L268.037 29.2222L268.037 15.8707Z" fill="#176453"/>
<path d="M225.054 31.7281L220.59 31.7281L220.59 45.0797L225.054 45.0797L225.054 31.7281Z" fill="#176453"/>
<path d="M235.798 31.7281L231.334 31.7281L231.334 45.0797L235.798 45.0797L235.798 31.7281Z" fill="#176453"/>
<path d="M241.17 31.7281L236.706 31.7281L236.706 45.0797L241.17 45.0797L241.17 31.7281Z" fill="#176453"/>
<path d="M246.549 31.7281L242.085 31.7281L242.085 45.0797L246.549 45.0797L246.549 31.7281Z" fill="#176453"/>
<path d="M257.293 31.7281L252.829 31.7281L252.829 45.0797L257.293 45.0797L257.293 31.7281Z" fill="#176453"/>
<path d="M262.665 31.7281L258.201 31.7281L258.201 45.0797L262.665 45.0797L262.665 31.7281Z" fill="#176453"/>
<path d="M273.415 31.7281L268.951 31.7281L268.951 45.0797L273.415 45.0797L273.415 31.7281Z" fill="#176453"/>
<path d="M284.392 0.011475L279.928 0.0114746L279.928 13.3633L284.392 13.3633L284.392 0.011475Z" fill="#176453"/>
<path d="M279.02 15.8707L274.556 15.8707L274.556 29.2222L279.02 29.2222L279.02 15.8707Z" fill="#176453"/>
<path d="M295.143 15.8707L290.679 15.8707L290.679 29.2222L295.143 29.2222L295.143 15.8707Z" fill="#176453"/>
<path d="M311.259 15.8707L306.795 15.8707L306.795 29.2222L311.259 29.2222L311.259 15.8707Z" fill="#176453"/>
<path d="M289.764 31.7281L285.3 31.7281L285.3 45.0797L289.764 45.0797L289.764 31.7281Z" fill="#176453"/>
<path d="M305.887 31.7281L301.423 31.7281L301.423 45.0797L305.887 45.0797L305.887 31.7281Z" fill="#176453"/>
<path d="M150.924 13.3518L155.388 13.3518L155.388 1.23978e-05L150.924 1.20075e-05L150.924 13.3518Z" fill="#176453"/>
<path d="M145.549 13.3518L150.013 13.3518L150.013 1.23978e-05L145.549 1.20075e-05L145.549 13.3518Z" fill="#176453"/>
<path d="M140.175 13.3518L144.639 13.3518L144.639 1.23978e-05L140.175 1.20075e-05L140.175 13.3518Z" fill="#176453"/>
<path d="M129.426 13.3518L133.89 13.3518L133.89 1.23978e-05L129.426 1.20075e-05L129.426 13.3518Z" fill="#176453"/>
<path d="M124.057 13.3518L128.521 13.3518L128.521 1.23978e-05L124.057 1.20075e-05L124.057 13.3518Z" fill="#176453"/>
<path d="M113.308 13.3518L117.772 13.3518L117.772 1.23978e-05L113.308 1.20075e-05L113.308 13.3518Z" fill="#176453"/>
<path d="M107.933 13.3518L112.397 13.3518L112.397 1.23978e-05L107.933 1.20075e-05L107.933 13.3518Z" fill="#176453"/>
<path d="M102.559 13.3518L107.023 13.3518L107.023 1.23978e-05L102.559 1.20075e-05L102.559 13.3518Z" fill="#176453"/>
<path d="M97.1844 13.3518L101.648 13.3518L101.648 1.23978e-05L97.1844 1.20075e-05L97.1844 13.3518Z" fill="#176453"/>
<path d="M91.8162 13.3518L96.2803 13.3518L96.2803 1.23978e-05L91.8162 1.20075e-05L91.8162 13.3518Z" fill="#176453"/>
<path d="M150.924 29.2187L155.388 29.2188L155.388 15.8672L150.924 15.8672L150.924 29.2187Z" fill="#176453"/>
<path d="M145.549 29.2187L150.013 29.2188L150.013 15.8672L145.549 15.8672L145.549 29.2187Z" fill="#176453"/>
<path d="M140.175 29.2187L144.639 29.2188L144.639 15.8672L140.175 15.8672L140.175 29.2187Z" fill="#176453"/>
<path d="M134.8 29.2187L139.264 29.2188L139.264 15.8672L134.8 15.8672L134.8 29.2187Z" fill="#176453"/>
<path d="M124.057 29.2187L128.521 29.2188L128.521 15.8672L124.057 15.8672L124.057 29.2187Z" fill="#176453"/>
<path d="M118.682 29.2187L123.146 29.2188L123.146 15.8672L118.682 15.8672L118.682 29.2187Z" fill="#176453"/>
<path d="M113.308 29.2187L117.772 29.2188L117.772 15.8672L113.308 15.8672L113.308 29.2187Z" fill="#176453"/>
<path d="M107.933 29.2187L112.397 29.2188L112.397 15.8672L107.933 15.8672L107.933 29.2187Z" fill="#176453"/>
<path d="M97.1844 29.2187L101.648 29.2188L101.648 15.8672L97.1844 15.8672L97.1844 29.2187Z" fill="#176453"/>
<path d="M91.8162 29.2189L96.2803 29.2189L96.2803 15.8674L91.8162 15.8674L91.8162 29.2189Z" fill="#176453"/>
<path d="M150.924 45.0858L155.388 45.0858L155.388 31.7343L150.924 31.7343L150.924 45.0858Z" fill="#176453"/>
<path d="M145.549 45.0858L150.013 45.0858L150.013 31.7343L145.549 31.7343L145.549 45.0858Z" fill="#176453"/>
<path d="M140.175 45.0858L144.639 45.0858L144.639 31.7343L140.175 31.7343L140.175 45.0858Z" fill="#176453"/>
<path d="M134.8 45.0858L139.264 45.0858L139.264 31.7343L134.8 31.7343L134.8 45.0858Z" fill="#176453"/>
<path d="M129.426 45.0858L133.89 45.0858L133.89 31.7343L129.426 31.7343L129.426 45.0858Z" fill="#176453"/>
<path d="M124.057 45.0858L128.521 45.0858L128.521 31.7343L124.057 31.7343L124.057 45.0858Z" fill="#176453"/>
<path d="M118.682 45.0858L123.146 45.0858L123.146 31.7343L118.682 31.7343L118.682 45.0858Z" fill="#176453"/>
<path d="M113.308 45.0858L117.772 45.0858L117.772 31.7343L113.308 31.7343L113.308 45.0858Z" fill="#176453"/>
<path d="M107.933 45.0858L112.397 45.0858L112.397 31.7343L107.933 31.7343L107.933 45.0858Z" fill="#176453"/>
<path d="M102.559 45.0858L107.023 45.0858L107.023 31.7343L102.559 31.7343L102.559 45.0858Z" fill="#176453"/>
<path d="M97.1844 45.0858L101.648 45.0858L101.648 31.7343L97.1844 31.7343L97.1844 45.0858Z" fill="#176453"/>
<path d="M86.2079 13.3518L90.6719 13.3518L90.6719 1.23978e-05L86.2079 1.20075e-05L86.2079 13.3518Z" fill="#176453"/>
<path d="M75.4647 13.3518L79.9287 13.3518L79.9287 1.23978e-05L75.4647 1.20075e-05L75.4647 13.3518Z" fill="#176453"/>
<path d="M70.0907 13.3518L74.5547 13.3518L74.5547 1.23978e-05L70.0907 1.20075e-05L70.0907 13.3518Z" fill="#176453"/>
<path d="M59.3407 13.3518L63.8047 13.3518L63.8047 1.23978e-05L59.3407 1.20075e-05L59.3407 13.3518Z" fill="#176453"/>
<path d="M37.8494 13.3518L42.3135 13.3518L42.3135 1.23978e-05L37.8494 1.20075e-05L37.8494 13.3518Z" fill="#176453"/>
<path d="M86.2079 29.2189L90.6719 29.2189L90.6719 15.8674L86.2079 15.8674L86.2079 29.2189Z" fill="#176453"/>
<path d="M80.8328 29.2189L85.2969 29.2189L85.2969 15.8674L80.8328 15.8674L80.8328 29.2189Z" fill="#176453"/>
<path d="M70.0907 29.2189L74.5547 29.2189L74.5547 15.8674L70.0907 15.8674L70.0907 29.2189Z" fill="#176453"/>
<path d="M64.7156 29.2189L69.1797 29.2189L69.1797 15.8674L64.7156 15.8674L64.7156 29.2189Z" fill="#176453"/>
<path d="M59.3407 29.2189L63.8047 29.2189L63.8047 15.8674L59.3407 15.8674L59.3407 29.2189Z" fill="#176453"/>
<path d="M53.9666 29.2189L58.4307 29.2189L58.4307 15.8674L53.9666 15.8674L53.9666 29.2189Z" fill="#176453"/>
<path d="M43.2235 29.2189L47.6875 29.2189L47.6875 15.8674L43.2235 15.8674L43.2235 29.2189Z" fill="#176453"/>
<path d="M86.2079 45.0858L90.6719 45.0858L90.6719 31.7343L86.2079 31.7343L86.2079 45.0858Z" fill="#176453"/>
<path d="M75.4647 45.0857L79.9287 45.0857L79.9287 31.7342L75.4647 31.7342L75.4647 45.0857Z" fill="#176453"/>
<path d="M70.0907 45.0857L74.5547 45.0857L74.5547 31.7342L70.0907 31.7342L70.0907 45.0857Z" fill="#176453"/>
<path d="M64.7156 45.0857L69.1797 45.0857L69.1797 31.7342L64.7156 31.7342L64.7156 45.0857Z" fill="#176453"/>
<path d="M53.9666 45.0858L58.4307 45.0858L58.4307 31.7343L53.9666 31.7343L53.9666 45.0858Z" fill="#176453"/>
<path d="M48.5985 45.0858L53.0625 45.0858L53.0625 31.7343L48.5985 31.7343L48.5985 45.0858Z" fill="#176453"/>
<path d="M37.8494 45.0858L42.3135 45.0858L42.3135 31.7343L37.8494 31.7343L37.8494 45.0858Z" fill="#176453"/>
<path d="M26.866 13.3518L31.3301 13.3518L31.3301 1.23978e-05L26.866 1.20075e-05L26.866 13.3518Z" fill="#176453"/>
<path d="M32.2411 29.2189L36.7051 29.2189L36.7051 15.8674L32.2411 15.8674L32.2411 29.2189Z" fill="#176453"/>
<path d="M16.1238 29.2189L20.5879 29.2189L20.5879 15.8674L16.1238 15.8674L16.1238 29.2189Z" fill="#176453"/>
<path d="M-0.000175476 29.2189L4.46387 29.2189L4.46387 15.8674L-0.000174309 15.8674L-0.000175476 29.2189Z" fill="#176453"/>
<path d="M21.4979 45.0858L25.9619 45.0858L25.9619 31.7343L21.4979 31.7343L21.4979 45.0858Z" fill="#176453"/>
<path d="M5.37485 45.0858L9.83887 45.0858L9.83887 31.7343L5.37485 31.7343L5.37485 45.0858Z" fill="#176453"/>
<path d="M308.177 346.014L305.639 346.014L305.639 362.302L308.177 362.302L308.177 346.014Z" fill="#176453"/>
<path d="M311.236 346.014L308.697 346.014L308.697 362.302L311.236 362.302L311.236 346.014Z" fill="#176453"/>
<path d="M314.29 346.014L311.752 346.014L311.752 362.302L314.29 362.302L314.29 346.014Z" fill="#176453"/>
<path d="M320.401 346.014L317.862 346.014L317.862 362.302L320.401 362.302L320.401 346.014Z" fill="#176453"/>
<path d="M323.456 346.014L320.917 346.014L320.917 362.302L323.456 362.302L323.456 346.014Z" fill="#176453"/>
<path d="M329.569 346.014L327.03 346.014L327.03 362.302L329.569 362.302L329.569 346.014Z" fill="#176453"/>
<path d="M332.624 346.014L330.086 346.014L330.086 362.302L332.624 362.302L332.624 346.014Z" fill="#176453"/>
<path d="M335.679 346.014L333.141 346.014L333.141 362.302L335.679 362.302L335.679 346.014Z" fill="#176453"/>
<path d="M338.734 346.014L336.195 346.014L336.195 362.302L338.734 362.302L338.734 346.014Z" fill="#176453"/>
<path d="M341.789 346.014L339.251 346.014L339.251 362.302L341.789 362.302L341.789 346.014Z" fill="#176453"/>
<path d="M308.177 365.361L305.639 365.361L305.639 381.648L308.177 381.648L308.177 365.361Z" fill="#176453"/>
<path d="M311.236 365.361L308.697 365.361L308.697 381.648L311.236 381.648L311.236 365.361Z" fill="#176453"/>
<path d="M314.29 365.361L311.752 365.361L311.752 381.648L314.29 381.648L314.29 365.361Z" fill="#176453"/>
<path d="M317.346 365.361L314.808 365.361L314.808 381.648L317.346 381.648L317.346 365.361Z" fill="#176453"/>
<path d="M323.456 365.361L320.917 365.361L320.917 381.648L323.456 381.648L323.456 365.361Z" fill="#176453"/>
<path d="M326.514 365.361L323.976 365.361L323.976 381.648L326.514 381.648L326.514 365.361Z" fill="#176453"/>
<path d="M329.569 365.361L327.03 365.361L327.03 381.648L329.569 381.648L329.569 365.361Z" fill="#176453"/>
<path d="M332.623 365.361L330.085 365.361L330.085 381.648L332.623 381.648L332.623 365.361Z" fill="#176453"/>
<path d="M338.734 365.361L336.195 365.361L336.195 381.648L338.734 381.648L338.734 365.361Z" fill="#176453"/>
<path d="M341.789 365.361L339.25 365.361L339.25 381.648L341.789 381.648L341.789 365.361Z" fill="#176453"/>
<path d="M308.177 384.705L305.639 384.705L305.639 400.993L308.177 400.993L308.177 384.705Z" fill="#176453"/>
<path d="M311.236 384.705L308.697 384.705L308.697 400.993L311.236 400.993L311.236 384.705Z" fill="#176453"/>
<path d="M314.29 384.705L311.752 384.705L311.752 400.993L314.29 400.993L314.29 384.705Z" fill="#176453"/>
<path d="M317.346 384.705L314.808 384.705L314.808 400.993L317.346 400.993L317.346 384.705Z" fill="#176453"/>
<path d="M320.401 384.705L317.862 384.705L317.862 400.993L320.401 400.993L320.401 384.705Z" fill="#176453"/>
<path d="M323.456 384.705L320.917 384.705L320.917 400.993L323.456 400.993L323.456 384.705Z" fill="#176453"/>
<path d="M326.514 384.705L323.976 384.705L323.976 400.993L326.514 400.993L326.514 384.705Z" fill="#176453"/>
<path d="M329.569 384.705L327.03 384.705L327.03 400.993L329.569 400.993L329.569 384.705Z" fill="#176453"/>
<path d="M332.623 384.705L330.085 384.705L330.085 400.993L332.623 400.993L332.623 384.705Z" fill="#176453"/>
<path d="M335.679 384.705L333.141 384.705L333.141 400.993L335.679 400.993L335.679 384.705Z" fill="#176453"/>
<path d="M338.734 384.705L336.195 384.705L336.195 400.993L338.734 400.993L338.734 384.705Z" fill="#176453"/>
<path d="M344.979 346.014L342.44 346.014L342.44 362.302L344.979 362.302L344.979 346.014Z" fill="#176453"/>
<path d="M351.089 346.014L348.551 346.014L348.551 362.302L351.089 362.302L351.089 346.014Z" fill="#176453"/>
<path d="M354.144 346.014L351.605 346.014L351.605 362.302L354.144 362.302L354.144 346.014Z" fill="#176453"/>
<path d="M360.257 346.014L357.719 346.014L357.719 362.302L360.257 362.302L360.257 346.014Z" fill="#176453"/>
<path d="M372.48 346.014L369.941 346.014L369.941 362.302L372.48 362.302L372.48 346.014Z" fill="#176453"/>
<path d="M344.979 365.361L342.44 365.361L342.44 381.648L344.979 381.648L344.979 365.361Z" fill="#176453"/>
<path d="M348.034 365.361L345.495 365.361L345.495 381.648L348.034 381.648L348.034 365.361Z" fill="#176453"/>
<path d="M354.143 365.361L351.604 365.361L351.604 381.648L354.143 381.648L354.143 365.361Z" fill="#176453"/>
<path d="M357.203 365.361L354.664 365.361L354.664 381.648L357.203 381.648L357.203 365.361Z" fill="#176453"/>
<path d="M360.257 365.361L357.719 365.361L357.719 381.648L360.257 381.648L360.257 365.361Z" fill="#176453"/>
<path d="M363.312 365.361L360.773 365.361L360.773 381.648L363.312 381.648L363.312 365.361Z" fill="#176453"/>
<path d="M369.421 365.361L366.883 365.361L366.883 381.648L369.421 381.648L369.421 365.361Z" fill="#176453"/>
<path d="M344.979 384.705L342.44 384.705L342.44 400.993L344.979 400.993L344.979 384.705Z" fill="#176453"/>
<path d="M351.088 384.705L348.55 384.705L348.55 400.993L351.088 400.993L351.088 384.705Z" fill="#176453"/>
<path d="M354.143 384.705L351.604 384.705L351.604 400.993L354.143 400.993L354.143 384.705Z" fill="#176453"/>
<path d="M357.203 384.705L354.664 384.705L354.664 400.993L357.203 400.993L357.203 384.705Z" fill="#176453"/>
<path d="M363.312 384.705L360.773 384.705L360.773 400.993L363.312 400.993L363.312 384.705Z" fill="#176453"/>
<path d="M366.367 384.705L363.828 384.705L363.828 400.993L366.367 400.993L366.367 384.705Z" fill="#176453"/>
<path d="M372.48 384.705L369.941 384.705L369.941 400.993L372.48 400.993L372.48 384.705Z" fill="#176453"/>
<path d="M378.722 346.014L376.184 346.014L376.184 362.302L378.722 362.302L378.722 346.014Z" fill="#176453"/>
<path d="M375.666 365.361L373.128 365.361L373.128 381.648L375.666 381.648L375.666 365.361Z" fill="#176453"/>
<path d="M384.835 365.361L382.297 365.361L382.297 381.648L384.835 381.648L384.835 365.361Z" fill="#176453"/>
<path d="M381.777 384.705L379.238 384.705L379.238 400.993L381.777 400.993L381.777 384.705Z" fill="#176453"/>
<path d="M390.945 384.705L388.406 384.705L388.406 400.993L390.945 400.993L390.945 384.705Z" fill="#176453"/>
<path d="M302.824 362.288L305.362 362.288L305.362 346L302.824 346L302.824 362.288Z" fill="#176453"/>
<path d="M299.767 362.288L302.306 362.288L302.306 346L299.767 346L299.767 362.288Z" fill="#176453"/>
<path d="M296.711 362.288L299.25 362.288L299.25 346L296.711 346L296.711 362.288Z" fill="#176453"/>
<path d="M290.598 362.288L293.137 362.288L293.137 346L290.598 346L290.598 362.288Z" fill="#176453"/>
<path d="M287.546 362.288L290.085 362.288L290.085 346L287.546 346L287.546 362.288Z" fill="#176453"/>
<path d="M281.433 362.288L283.972 362.288L283.972 346L281.433 346L281.433 362.288Z" fill="#176453"/>
<path d="M278.377 362.288L280.916 362.288L280.916 346L278.378 346L278.377 362.288Z" fill="#176453"/>
<path d="M275.321 362.288L277.859 362.288L277.859 346L275.321 346L275.321 362.288Z" fill="#176453"/>
<path d="M272.264 362.288L274.803 362.288L274.803 346L272.264 346L272.264 362.288Z" fill="#176453"/>
<path d="M269.212 362.288L271.751 362.288L271.751 346L269.212 346L269.212 362.288Z" fill="#176453"/>
<path d="M302.824 381.644L305.362 381.644L305.362 365.356L302.824 365.356L302.824 381.644Z" fill="#176453"/>
<path d="M299.767 381.644L302.306 381.644L302.306 365.356L299.767 365.356L299.767 381.644Z" fill="#176453"/>
<path d="M296.711 381.644L299.25 381.644L299.25 365.356L296.711 365.356L296.711 381.644Z" fill="#176453"/>
<path d="M293.655 381.644L296.193 381.644L296.193 365.356L293.655 365.356L293.655 381.644Z" fill="#176453"/>
<path d="M287.546 381.644L290.085 381.644L290.085 365.356L287.546 365.356L287.546 381.644Z" fill="#176453"/>
<path d="M284.49 381.644L287.028 381.644L287.028 365.356L284.49 365.356L284.49 381.644Z" fill="#176453"/>
<path d="M281.433 381.644L283.972 381.644L283.972 365.356L281.433 365.356L281.433 381.644Z" fill="#176453"/>
<path d="M278.377 381.644L280.916 381.644L280.916 365.356L278.378 365.356L278.377 381.644Z" fill="#176453"/>
<path d="M272.264 381.644L274.803 381.644L274.803 365.356L272.264 365.356L272.264 381.644Z" fill="#176453"/>
<path d="M269.212 381.644L271.751 381.644L271.751 365.356L269.212 365.356L269.212 381.644Z" fill="#176453"/>
<path d="M302.824 401L305.362 401L305.362 384.713L302.824 384.713L302.824 401Z" fill="#176453"/>
<path d="M299.768 401L302.307 401L302.307 384.713L299.768 384.713L299.768 401Z" fill="#176453"/>
<path d="M296.711 401L299.25 401L299.25 384.713L296.711 384.713L296.711 401Z" fill="#176453"/>
<path d="M293.655 401L296.193 401L296.193 384.713L293.655 384.713L293.655 401Z" fill="#176453"/>
<path d="M290.599 401L293.138 401L293.138 384.713L290.599 384.713L290.599 401Z" fill="#176453"/>
<path d="M287.546 401L290.085 401L290.085 384.713L287.546 384.713L287.546 401Z" fill="#176453"/>
<path d="M284.49 401L287.028 401L287.028 384.713L284.49 384.713L284.49 401Z" fill="#176453"/>
<path d="M281.434 401L283.973 401L283.973 384.713L281.434 384.713L281.434 401Z" fill="#176453"/>
<path d="M278.377 401L280.916 401L280.916 384.713L278.378 384.713L278.377 401Z" fill="#176453"/>
<path d="M275.321 401L277.859 401L277.859 384.713L275.321 384.713L275.321 401Z" fill="#176453"/>
<path d="M272.265 401L274.804 401L274.804 384.713L272.265 384.713L272.265 401Z" fill="#176453"/>
<path d="M266.023 362.288L268.562 362.288L268.562 346L266.023 346L266.023 362.288Z" fill="#176453"/>
<path d="M259.914 362.288L262.452 362.288L262.452 346L259.914 346L259.914 362.288Z" fill="#176453"/>
<path d="M256.858 362.288L259.396 362.288L259.396 346L256.858 346L256.858 362.288Z" fill="#176453"/>
<path d="M250.745 362.288L253.283 362.288L253.283 346L250.745 346L250.745 362.288Z" fill="#176453"/>
<path d="M238.523 362.288L241.062 362.288L241.062 346L238.523 346L238.523 362.288Z" fill="#176453"/>
<path d="M266.023 381.644L268.562 381.644L268.562 365.356L266.023 365.356L266.023 381.644Z" fill="#176453"/>
<path d="M262.966 381.644L265.505 381.644L265.505 365.356L262.966 365.356L262.966 381.644Z" fill="#176453"/>
<path d="M256.858 381.644L259.396 381.644L259.396 365.356L256.858 365.356L256.858 381.644Z" fill="#176453"/>
<path d="M253.801 381.644L256.34 381.644L256.34 365.356L253.801 365.356L253.801 381.644Z" fill="#176453"/>
<path d="M250.745 381.644L253.283 381.644L253.283 365.356L250.745 365.356L250.745 381.644Z" fill="#176453"/>
<path d="M247.689 381.644L250.228 381.644L250.228 365.356L247.689 365.356L247.689 381.644Z" fill="#176453"/>
<path d="M241.58 381.644L244.118 381.644L244.118 365.357L241.58 365.357L241.58 381.644Z" fill="#176453"/>
<path d="M266.023 401L268.562 401L268.562 384.713L266.023 384.713L266.023 401Z" fill="#176453"/>
<path d="M259.914 401L262.452 401L262.452 384.713L259.914 384.713L259.914 401Z" fill="#176453"/>
<path d="M256.858 401L259.396 401L259.396 384.713L256.858 384.713L256.858 401Z" fill="#176453"/>
<path d="M253.801 401L256.34 401L256.34 384.713L253.801 384.713L253.801 401Z" fill="#176453"/>
<path d="M247.689 401L250.228 401L250.228 384.713L247.689 384.713L247.689 401Z" fill="#176453"/>
<path d="M244.636 401L247.175 401L247.175 384.713L244.636 384.713L244.636 401Z" fill="#176453"/>
<path d="M238.523 401L241.062 401L241.062 384.713L238.523 384.713L238.523 401Z" fill="#176453"/>
<path d="M232.278 362.288L234.816 362.288L234.816 346L232.278 346L232.278 362.288Z" fill="#176453"/>
<path d="M235.335 381.644L237.873 381.644L237.873 365.357L235.335 365.357L235.335 381.644Z" fill="#176453"/>
<path d="M226.169 381.644L228.707 381.644L228.707 365.357L226.169 365.357L226.169 381.644Z" fill="#176453"/>
<path d="M217 381.644L219.538 381.644L219.538 365.357L217 365.357L217 381.644Z" fill="#176453"/>
<path d="M229.225 401L231.764 401L231.764 384.713L229.225 384.713L229.225 401Z" fill="#176453"/>
<path d="M220.056 401L222.595 401L222.595 384.713L220.056 384.713L220.056 401Z" fill="#176453"/>
</svg>
