<svg width="390" height="524" viewBox="0 0 390 524" fill="none" xmlns="http://www.w3.org/2000/svg">
<rect width="390" height="524" fill="#33E6BF"/>
<path d="M388.824 485.288L391.362 485.288L391.362 469L388.824 469L388.824 485.288Z" fill="#176453"/>
<path d="M385.767 485.288L388.306 485.288L388.306 469L385.767 469L385.767 485.288Z" fill="#176453"/>
<path d="M382.711 485.288L385.25 485.288L385.25 469L382.711 469L382.711 485.288Z" fill="#176453"/>
<path d="M376.598 485.288L379.137 485.288L379.137 469L376.598 469L376.598 485.288Z" fill="#176453"/>
<path d="M373.546 485.288L376.085 485.288L376.085 469L373.546 469L373.546 485.288Z" fill="#176453"/>
<path d="M367.433 485.288L369.972 485.288L369.972 469L367.433 469L367.433 485.288Z" fill="#176453"/>
<path d="M364.377 485.288L366.916 485.288L366.916 469L364.378 469L364.377 485.288Z" fill="#176453"/>
<path d="M361.321 485.288L363.859 485.288L363.859 469L361.321 469L361.321 485.288Z" fill="#176453"/>
<path d="M358.264 485.288L360.803 485.288L360.803 469L358.264 469L358.264 485.288Z" fill="#176453"/>
<path d="M355.212 485.288L357.751 485.288L357.751 469L355.212 469L355.212 485.288Z" fill="#176453"/>
<path d="M388.824 504.644L391.362 504.644L391.362 488.357L388.824 488.357L388.824 504.644Z" fill="#176453"/>
<path d="M385.767 504.644L388.306 504.644L388.306 488.357L385.767 488.357L385.767 504.644Z" fill="#176453"/>
<path d="M382.711 504.644L385.25 504.644L385.25 488.357L382.711 488.357L382.711 504.644Z" fill="#176453"/>
<path d="M379.655 504.644L382.193 504.644L382.193 488.357L379.655 488.357L379.655 504.644Z" fill="#176453"/>
<path d="M373.546 504.644L376.085 504.644L376.085 488.357L373.546 488.357L373.546 504.644Z" fill="#176453"/>
<path d="M370.49 504.644L373.028 504.644L373.028 488.357L370.49 488.357L370.49 504.644Z" fill="#176453"/>
<path d="M367.433 504.644L369.972 504.644L369.972 488.357L367.433 488.357L367.433 504.644Z" fill="#176453"/>
<path d="M364.377 504.644L366.916 504.644L366.916 488.357L364.378 488.357L364.377 504.644Z" fill="#176453"/>
<path d="M358.264 504.644L360.803 504.644L360.803 488.357L358.264 488.357L358.264 504.644Z" fill="#176453"/>
<path d="M355.212 504.644L357.751 504.644L357.751 488.357L355.212 488.357L355.212 504.644Z" fill="#176453"/>
<path d="M388.824 524L391.362 524L391.362 507.713L388.824 507.713L388.824 524Z" fill="#176453"/>
<path d="M385.768 524L388.307 524L388.307 507.713L385.768 507.713L385.768 524Z" fill="#176453"/>
<path d="M382.711 524L385.25 524L385.25 507.713L382.711 507.713L382.711 524Z" fill="#176453"/>
<path d="M379.655 524L382.193 524L382.193 507.713L379.655 507.713L379.655 524Z" fill="#176453"/>
<path d="M376.599 524L379.138 524L379.138 507.713L376.599 507.713L376.599 524Z" fill="#176453"/>
<path d="M373.546 524L376.085 524L376.085 507.713L373.546 507.713L373.546 524Z" fill="#176453"/>
<path d="M370.49 524L373.028 524L373.028 507.713L370.49 507.713L370.49 524Z" fill="#176453"/>
<path d="M367.434 524L369.973 524L369.973 507.713L367.434 507.713L367.434 524Z" fill="#176453"/>
<path d="M364.377 524L366.916 524L366.916 507.713L364.378 507.713L364.377 524Z" fill="#176453"/>
<path d="M361.321 524L363.859 524L363.859 507.713L361.321 507.713L361.321 524Z" fill="#176453"/>
<path d="M358.265 524L360.804 524L360.804 507.713L358.265 507.713L358.265 524Z" fill="#176453"/>
<path d="M352.023 485.288L354.562 485.288L354.562 469L352.023 469L352.023 485.288Z" fill="#176453"/>
<path d="M345.914 485.288L348.452 485.288L348.452 469L345.914 469L345.914 485.288Z" fill="#176453"/>
<path d="M342.858 485.288L345.396 485.288L345.396 469L342.858 469L342.858 485.288Z" fill="#176453"/>
<path d="M336.745 485.288L339.283 485.288L339.283 469L336.745 469L336.745 485.288Z" fill="#176453"/>
<path d="M324.523 485.288L327.062 485.288L327.062 469L324.523 469L324.523 485.288Z" fill="#176453"/>
<path d="M352.023 504.644L354.562 504.644L354.562 488.357L352.023 488.357L352.023 504.644Z" fill="#176453"/>
<path d="M348.966 504.644L351.505 504.644L351.505 488.357L348.966 488.357L348.966 504.644Z" fill="#176453"/>
<path d="M342.858 504.644L345.396 504.644L345.396 488.357L342.858 488.357L342.858 504.644Z" fill="#176453"/>
<path d="M339.801 504.644L342.34 504.644L342.34 488.357L339.801 488.357L339.801 504.644Z" fill="#176453"/>
<path d="M336.745 504.644L339.283 504.644L339.283 488.357L336.745 488.357L336.745 504.644Z" fill="#176453"/>
<path d="M333.689 504.644L336.228 504.644L336.228 488.357L333.689 488.357L333.689 504.644Z" fill="#176453"/>
<path d="M327.58 504.644L330.118 504.644L330.118 488.357L327.58 488.357L327.58 504.644Z" fill="#176453"/>
<path d="M352.023 524L354.562 524L354.562 507.713L352.023 507.713L352.023 524Z" fill="#176453"/>
<path d="M345.914 524L348.452 524L348.452 507.713L345.914 507.713L345.914 524Z" fill="#176453"/>
<path d="M342.858 524L345.396 524L345.396 507.713L342.858 507.713L342.858 524Z" fill="#176453"/>
<path d="M339.801 524L342.34 524L342.34 507.713L339.801 507.713L339.801 524Z" fill="#176453"/>
<path d="M333.689 524L336.228 524L336.228 507.713L333.689 507.713L333.689 524Z" fill="#176453"/>
<path d="M330.636 524L333.175 524L333.175 507.713L330.636 507.713L330.636 524Z" fill="#176453"/>
<path d="M324.523 524L327.062 524L327.062 507.713L324.523 507.713L324.523 524Z" fill="#176453"/>
<path d="M318.278 485.288L320.816 485.288L320.816 469L318.278 469L318.278 485.288Z" fill="#176453"/>
<path d="M321.335 504.644L323.873 504.644L323.873 488.357L321.335 488.357L321.335 504.644Z" fill="#176453"/>
<path d="M312.169 504.644L314.707 504.644L314.707 488.357L312.169 488.357L312.169 504.644Z" fill="#176453"/>
<path d="M303 504.644L305.538 504.644L305.538 488.357L303 488.357L303 504.644Z" fill="#176453"/>
<path d="M315.225 524L317.764 524L317.764 507.713L315.225 507.713L315.225 524Z" fill="#176453"/>
<path d="M306.056 524L308.595 524L308.595 507.713L306.056 507.713L306.056 524Z" fill="#176453"/>
<rect x="41.2716" y="90.5433" width="285.569" height="34.1167" stroke="black" stroke-width="2.52716" stroke-linejoin="bevel"/>
<path d="M91.1736 112.985V104.347H92.4076V111.751H97.3435V112.985H91.1736ZM99.5587 112.985V111.751H100.793V105.581H99.5587V104.347H103.261V105.581H102.027V111.751H103.261V112.985H99.5587ZM106.71 106.198V111.134H107.327V111.751H109.178V111.134H108.561V110.517H107.944V109.283H109.178V109.9H109.795V110.517H110.412V106.198H109.795V105.581H107.327V106.198H106.71ZM106.093 111.751H105.476V105.581H106.093V104.964H106.71V104.347H110.412V104.964H111.029V105.581H111.646V111.134H111.029V111.751H111.646V112.985H110.412V112.368H109.178V112.985H106.71V112.368H106.093V111.751ZM113.244 111.751H112.627V104.347H113.861V111.134H114.478V111.751H116.946V111.134H117.563V104.347H118.797V111.751H118.18V112.368H117.563V112.985H113.861V112.368H113.244V111.751ZM121.012 112.985V111.751H122.246V105.581H121.012V104.347H124.714V105.581H123.48V111.751H124.714V112.985H121.012ZM128.163 105.581V111.751H131.248V111.134H131.865V106.198H131.248V105.581H128.163ZM126.929 112.985V104.347H131.865V104.964H132.482V105.581H133.099V111.751H132.482V112.368H131.865V112.985H126.929ZM135.314 112.985V111.751H136.548V105.581H135.314V104.347H139.016V105.581H137.782V111.751H139.016V112.985H135.314ZM143.699 105.581H141.231V104.347H147.401V105.581H144.933V112.985H143.699V105.581ZM152.084 112.985H150.85V109.9H150.233V109.283H149.616V108.666H148.999V108.049H148.382V104.347H149.616V107.432H150.233V108.049H150.85V108.666H152.084V108.049H152.701V107.432H153.318V104.347H154.552V108.049H153.935V108.666H153.318V109.283H152.701V109.9H152.084V112.985ZM163.918 112.985H162.684V104.347H163.918V105.581H164.535V106.198H165.152V106.815H166.386V106.198H167.003V105.581H167.62V104.347H168.854V112.985H167.62V107.432H167.003V108.049H166.386V109.283H165.152V108.049H164.535V107.432H163.918V112.985ZM171.069 109.283H174.771V107.432H174.154V106.815H173.537V106.198H172.303V106.815H171.686V107.432H171.069V109.283ZM171.069 112.985H169.835V106.815H170.452V106.198H171.069V105.581H171.686V104.964H172.303V104.347H173.537V104.964H174.154V105.581H174.771V106.198H175.388V106.815H176.005V112.985H174.771V110.517H171.069V112.985ZM178.221 108.049V112.985H176.987V104.347H178.221V106.198H178.837V106.815H179.454V107.432H180.071V108.049H180.688V108.666H181.305V109.283H181.922V104.347H183.156V112.985H181.922V111.134H181.305V110.517H180.688V109.9H180.071V109.283H179.454V108.666H178.837V108.049H178.221ZM185.372 109.283H189.073V107.432H188.457V106.815H187.84V106.198H186.606V106.815H185.989V107.432H185.372V109.283ZM185.372 112.985H184.138V106.815H184.755V106.198H185.372V105.581H185.989V104.964H186.606V104.347H187.84V104.964H188.457V105.581H189.073V106.198H189.69V106.815H190.307V112.985H189.073V110.517H185.372V112.985ZM196.842 105.581H197.459V106.815H196.225V106.198H195.608V105.581H193.14V106.198H192.523V111.134H193.14V111.751H195.608V111.134H196.225V109.283H194.374V108.049H197.459V111.751H196.842V112.368H196.225V112.985H192.523V112.368H191.906V111.751H191.289V105.581H191.906V104.964H192.523V104.347H196.225V104.964H196.842V105.581ZM204.61 104.347V105.581H199.674V108.049H203.376V109.283H199.674V111.751H204.61V112.985H198.44V104.347H204.61ZM206.825 105.581V108.049H209.91V107.432H210.527V106.198H209.91V105.581H206.825ZM207.442 109.283H206.825V112.985H205.591V104.347H210.527V104.964H211.144V105.581H211.761V108.049H211.144V108.666H210.527V109.283H209.293V109.9H209.91V110.517H210.527V111.134H211.144V111.751H211.761V112.985H210.527V112.368H209.91V111.751H209.293V111.134H208.676V110.517H208.059V109.9H207.442V109.283ZM221.744 111.751H224.212V111.134H224.829V110.517H226.063V111.751H225.446V112.368H224.829V112.985H221.127V112.368H220.51V111.751H219.893V105.581H220.51V104.964H221.127V104.347H224.829V104.964H225.446V105.581H226.063V106.815H224.829V106.198H224.212V105.581H221.744V106.198H221.127V111.134H221.744V111.751ZM231.363 105.581H228.895V106.198H228.278V111.134H228.895V111.751H231.363V111.134H231.98V106.198H231.363V105.581ZM228.278 104.964V104.347H231.98V104.964H232.597V105.581H233.214V111.751H232.597V112.368H231.98V112.985H228.278V112.368H227.661V111.751H227.044V105.581H227.661V104.964H228.278ZM235.429 108.049V112.985H234.195V104.347H235.429V106.198H236.046V106.815H236.663V107.432H237.28V108.049H237.897V108.666H238.514V109.283H239.131V104.347H240.365V112.985H239.131V111.134H238.514V110.517H237.897V109.9H237.28V109.283H236.663V108.666H236.046V108.049H235.429ZM243.814 105.581H241.346V104.347H247.516V105.581H245.048V112.985H243.814V105.581ZM249.731 105.581V108.049H252.816V107.432H253.433V106.198H252.816V105.581H249.731ZM250.348 109.283H249.731V112.985H248.497V104.347H253.433V104.964H254.05V105.581H254.667V108.049H254.05V108.666H253.433V109.283H252.199V109.9H252.816V110.517H253.433V111.134H254.05V111.751H254.667V112.985H253.433V112.368H252.816V111.751H252.199V111.134H251.582V110.517H250.965V109.9H250.348V109.283ZM256.882 109.283H260.584V107.432H259.967V106.815H259.35V106.198H258.116V106.815H257.499V107.432H256.882V109.283ZM256.882 112.985H255.648V106.815H256.265V106.198H256.882V105.581H257.499V104.964H258.116V104.347H259.35V104.964H259.967V105.581H260.584V106.198H261.201V106.815H261.818V112.985H260.584V110.517H256.882V112.985ZM264.65 111.751H267.118V111.134H267.735V110.517H268.969V111.751H268.352V112.368H267.735V112.985H264.033V112.368H263.416V111.751H262.799V105.581H263.416V104.964H264.033V104.347H267.735V104.964H268.352V105.581H268.969V106.815H267.735V106.198H267.118V105.581H264.65V106.198H264.033V111.134H264.65V111.751ZM272.418 105.581H269.951V104.347H276.12V105.581H273.652V112.985H272.418V105.581Z" fill="black"/>
<rect x="161.943" y="153.722" width="44.2253" height="24.6398" stroke="#0439C7" stroke-width="2.52716" stroke-linejoin="bevel"/>
<rect x="139.199" y="178.994" width="89.7142" height="24.6398" stroke="#0439C7" stroke-width="2.52716" stroke-linejoin="bevel"/>
<rect x="108.241" y="204.266" width="151.63" height="24.6398" stroke="#0439C7" stroke-width="2.52716" stroke-linejoin="bevel"/>
<path d="M53.8627 163.329V168.264H52.6287V159.627H53.8627V161.478H54.4796V162.095H55.0966V162.712H55.7136V163.329H56.3306V163.945H56.9476V164.562H57.5646V159.627H58.7985V168.264H57.5646V166.413H56.9476V165.796H56.3306V165.179H55.7136V164.562H55.0966V163.945H54.4796V163.329H53.8627ZM61.6307 167.03H64.0987V166.413H64.7156V165.179H64.0987V164.562H61.6307V165.179H61.0137V166.413H61.6307V167.03ZM61.0137 168.264V167.647H60.3968V167.03H59.7798V164.562H60.3968V163.945H61.0137V163.329H64.0987V163.945H64.7156V162.712H64.0987V162.095H61.0137V160.861H64.7156V161.478H65.3326V162.095H65.9496V168.264H64.7156V167.647H64.0987V168.264H61.0137ZM68.1648 164.562V168.264H66.9309V161.478H68.1648V162.712H68.7818V162.095H69.3988V161.478H71.8667V162.095H72.4837V162.712H73.1007V163.945H71.8667V163.329H71.2497V162.712H70.0158V163.329H69.3988V163.945H68.7818V164.562H68.1648ZM75.3159 164.562V168.264H74.0819V161.478H75.3159V162.712H75.9329V162.095H76.5499V161.478H79.0178V162.095H79.6348V162.712H80.2518V163.945H79.0178V163.329H78.4008V162.712H77.1668V163.329H76.5499V163.945H75.9329V164.562H75.3159ZM83.084 167.03H85.5519V166.413H86.1689V163.329H85.5519V162.712H83.084V163.329H82.467V166.413H83.084V167.03ZM82.467 168.264V167.647H81.85V167.03H81.233V162.712H81.85V162.095H82.467V161.478H86.1689V162.095H86.7859V162.712H87.4028V167.03H86.7859V167.647H86.1689V168.264H82.467ZM88.3841 161.478H89.6181V166.413H90.235V167.03H90.852V163.945H92.086V167.03H92.703V166.413H93.3199V161.478H94.5539V167.03H93.9369V167.647H93.3199V168.264H92.086V167.647H90.852V168.264H89.6181V167.647H89.0011V167.03H88.3841V161.478ZM103.92 163.329H107.005V162.712H107.622V161.478H107.005V160.861H103.92V163.329ZM102.686 168.264V159.627H107.622V160.244H108.239V160.861H108.856V163.329H108.239V164.562H108.856V167.03H108.239V167.647H107.622V168.264H102.686ZM103.92 167.03H107.005V166.413H107.622V165.179H107.005V164.562H103.92V167.03ZM111.688 167.03H114.156V166.413H114.773V165.179H114.156V164.562H111.688V165.179H111.071V166.413H111.688V167.03ZM111.071 168.264V167.647H110.454V167.03H109.837V164.562H110.454V163.945H111.071V163.329H114.156V163.945H114.773V162.712H114.156V162.095H111.071V160.861H114.773V161.478H115.39V162.095H116.007V168.264H114.773V167.647H114.156V168.264H111.071ZM118.222 163.329V168.264H116.988V161.478H118.222V162.095H118.839V161.478H121.924V162.095H122.541V162.712H123.158V168.264H121.924V163.329H121.307V162.712H118.839V163.329H118.222ZM129.075 162.712V159.627H130.309V168.264H129.075V167.03H128.458V167.647H127.841V168.264H125.99V167.647H125.373V167.03H124.756V166.413H124.139V163.329H124.756V162.712H125.373V162.095H125.99V161.478H127.841V162.095H128.458V162.712H129.075ZM125.99 166.413H126.607V167.03H127.224V166.413H127.841V165.796H128.458V163.945H127.841V163.329H127.224V162.712H126.607V163.329H125.99V163.945H125.373V165.796H125.99V166.413ZM138.442 168.264V159.627H139.676V167.03H144.611V168.264H138.442ZM146.827 160.861V163.329H149.912V162.712H150.529V161.478H149.912V160.861H146.827ZM146.827 164.562V168.264H145.593V159.627H150.529V160.244H151.146V160.861H151.763V163.329H151.146V163.945H150.529V164.562H146.827Z" fill="black"/>
<path d="M38.1105 52.0149V50.7809H41.1954V50.1639H41.8124V48.313H41.1954V48.9299H40.5784V49.5469H38.1105V48.9299H37.4935V48.313H36.8765V44.6111H38.1105V47.696H38.7274V48.313H39.9614V47.696H40.5784V47.079H41.1954V45.845H41.8124V44.6111H43.0463V50.7809H42.4293V51.3979H41.8124V52.0149H38.1105ZM45.8785 50.7809H48.3465V50.1639H48.9634V47.079H48.3465V46.462H45.8785V47.079H45.2615V50.1639H45.8785V50.7809ZM45.2615 52.0149V51.3979H44.6446V50.7809H44.0276V46.462H44.6446V45.845H45.2615V45.228H48.9634V45.845H49.5804V46.462H50.1974V50.7809H49.5804V51.3979H48.9634V52.0149H45.2615ZM51.1787 45.228H52.4126V50.1639H53.0296V50.7809H55.4975V50.1639H56.1145V45.228H57.3485V50.7809H56.7315V51.3979H56.1145V52.0149H52.4126V51.3979H51.7956V50.7809H51.1787V45.228ZM59.5637 48.313V52.0149H58.3297V45.228H59.5637V46.462H60.1807V45.845H60.7977V45.228H63.2656V45.845H63.8826V46.462H64.4996V47.696H63.2656V47.079H62.6486V46.462H61.4146V47.079H60.7977V47.696H60.1807V48.313H59.5637ZM74.4828 50.7809H76.9508V50.1639H77.5677V48.9299H76.9508V48.313H74.4828V48.9299H73.8658V50.1639H74.4828V50.7809ZM73.8658 52.0149V51.3979H73.2489V50.7809H72.6319V48.313H73.2489V47.696H73.8658V47.079H76.9508V47.696H77.5677V46.462H76.9508V45.845H73.8658V44.6111H77.5677V45.228H78.1847V45.845H78.8017V52.0149H77.5677V51.3979H76.9508V52.0149H73.8658ZM80.3999 50.7809H79.783V49.5469H81.0169V50.1639H81.6339V50.7809H84.1018V49.5469H82.8679V48.9299H81.6339V48.313H80.3999V47.696H79.783V46.462H80.3999V45.845H81.0169V45.228H84.7188V45.845H85.3358V46.462H85.9528V47.696H84.7188V47.079H84.1018V46.462H81.6339V47.696H83.4849V48.313H84.7188V48.9299H85.3358V49.5469H85.9528V50.7809H85.3358V51.3979H84.7188V52.0149H81.0169V51.3979H80.3999V50.7809ZM87.551 50.7809H86.934V49.5469H88.168V50.1639H88.785V50.7809H91.2529V49.5469H90.019V48.9299H88.785V48.313H87.551V47.696H86.934V46.462H87.551V45.845H88.168V45.228H91.8699V45.845H92.4869V46.462H93.1039V47.696H91.8699V47.079H91.2529V46.462H88.785V47.696H90.6359V48.313H91.8699V48.9299H92.4869V49.5469H93.1039V50.7809H92.4869V51.3979H91.8699V52.0149H88.168V51.3979H87.551V50.7809ZM95.3191 47.079V47.696H99.021V47.079H98.404V46.462H95.9361V47.079H95.3191ZM100.255 50.1639V50.7809H99.638V51.3979H99.021V52.0149H95.3191V51.3979H94.7021V50.7809H94.0851V46.462H94.7021V45.845H95.3191V45.228H99.021V45.845H99.638V46.462H100.255V48.313H99.638V48.9299H95.3191V50.1639H95.9361V50.7809H98.404V50.1639H100.255ZM105.555 50.7809H106.172V52.0149H104.938V51.3979H104.321V50.7809H103.704V46.462H102.47V45.228H103.704V43.3771H104.938V45.228H106.172V46.462H104.938V50.1639H105.555V50.7809ZM109.004 50.7809H108.387V49.5469H109.621V50.1639H110.238V50.7809H112.706V49.5469H111.472V48.9299H110.238V48.313H109.004V47.696H108.387V46.462H109.004V45.845H109.621V45.228H113.323V45.845H113.94V46.462H114.557V47.696H113.323V47.079H112.706V46.462H110.238V47.696H112.089V48.313H113.323V48.9299H113.94V49.5469H114.557V50.7809H113.94V51.3979H113.323V52.0149H109.621V51.3979H109.004V50.7809ZM40.5784 63.3979H41.1954V64.0149H39.9614V63.3979H39.3444V62.7809H38.7274V62.1639H38.1105V55.9941H38.7274V55.3771H39.3444V54.7601H39.9614V54.1431H41.1954V54.7601H40.5784V55.3771H39.9614V55.9941H39.3444V62.1639H39.9614V62.7809H40.5784V63.3979ZM44.6446 62.7809H44.0276V55.3771H45.2615V62.1639H45.8785V62.7809H48.3465V62.1639H48.9634V55.3771H50.1974V62.7809H49.5804V63.3979H48.9634V64.0149H45.2615V63.3979H44.6446V62.7809ZM56.7315 56.6111H57.3485V57.845H56.1145V57.228H55.4975V56.6111H53.0296V57.228H52.4126V58.462H53.0296V59.079H56.1145V59.696H56.7315V60.313H57.3485V62.7809H56.7315V63.3979H56.1145V64.0149H52.4126V63.3979H51.7956V62.7809H51.1787V61.5469H52.4126V62.1639H53.0296V62.7809H55.4975V62.1639H56.1145V60.9299H55.4975V60.313H52.4126V59.696H51.7956V59.079H51.1787V56.6111H51.7956V55.9941H52.4126V55.3771H56.1145V55.9941H56.7315V56.6111ZM59.5637 56.6111V62.7809H62.6486V62.1639H63.2656V57.228H62.6486V56.6111H59.5637ZM58.3297 64.0149V55.3771H63.2656V55.9941H63.8826V56.6111H64.4996V62.7809H63.8826V63.3979H63.2656V64.0149H58.3297ZM67.3318 62.7809H69.7997V62.1639H70.4167V61.5469H71.6506V62.7809H71.0337V63.3979H70.4167V64.0149H66.7148V63.3979H66.0978V62.7809H65.4808V56.6111H66.0978V55.9941H66.7148V55.3771H70.4167V55.9941H71.0337V56.6111H71.6506V57.845H70.4167V57.228H69.7997V56.6111H67.3318V57.228H66.7148V62.1639H67.3318V62.7809ZM75.0998 59.079V56.6111H76.3338V59.079H78.8017V60.313H76.3338V62.7809H75.0998V60.313H72.6319V59.079H75.0998ZM79.783 55.3771H81.0169V62.1639H82.2509V59.079H83.4849V62.1639H84.7188V55.3771H85.9528V62.7809H85.3358V63.3979H84.7188V64.0149H83.4849V63.3979H82.2509V64.0149H81.0169V63.3979H80.3999V62.7809H79.783V55.3771ZM93.1039 55.3771V56.6111H88.168V59.079H91.8699V60.313H88.168V62.7809H93.1039V64.0149H86.934V55.3771H93.1039ZM94.0851 55.3771H95.3191V62.1639H96.553V59.079H97.787V62.1639H99.021V55.3771H100.255V62.7809H99.638V63.3979H99.021V64.0149H97.787V63.3979H96.553V64.0149H95.3191V63.3979H94.7021V62.7809H94.0851V55.3771ZM107.406 55.3771V56.6111H102.47V59.079H106.172V60.313H102.47V62.7809H107.406V64.0149H101.236V55.3771H107.406ZM111.472 63.3979V64.0149H110.238V63.3979H110.855V62.7809H111.472V62.1639H112.089V55.9941H111.472V55.3771H110.855V54.7601H110.238V54.1431H111.472V54.7601H112.089V55.3771H112.706V55.9941H113.323V62.1639H112.706V62.7809H112.089V63.3979H111.472Z" fill="black"/>
<path d="M228.975 50.7663H229.592V51.3833H228.358V50.7663H227.741V50.1493H227.124V49.5323H226.507V43.3625H227.124V42.7455H227.741V42.1285H228.358V41.5115H229.592V42.1285H228.975V42.7455H228.358V43.3625H227.741V49.5323H228.358V50.1493H228.975V50.7663ZM234.275 50.1493H236.743V49.5323H237.36V46.4474H236.743V45.8304H234.275V46.4474H233.658V49.5323H234.275V50.1493ZM233.658 51.3833V50.7663H233.041V50.1493H232.424V45.8304H233.041V45.2134H233.658V44.5965H237.36V45.2134H237.977V45.8304H238.594V50.1493H237.977V50.7663H237.36V51.3833H233.658ZM239.575 44.5965H240.809V49.5323H241.426V50.1493H242.043V47.0644H243.277V50.1493H243.894V49.5323H244.511V44.5965H245.745V50.1493H245.128V50.7663H244.511V51.3833H243.277V50.7663H242.043V51.3833H240.809V50.7663H240.192V50.1493H239.575V44.5965ZM247.96 46.4474V51.3833H246.726V44.5965H247.96V45.2134H248.577V44.5965H251.662V45.2134H252.279V45.8304H252.896V51.3833H251.662V46.4474H251.045V45.8304H248.577V46.4474H247.96ZM255.111 46.4474V47.0644H258.813V46.4474H258.196V45.8304H255.728V46.4474H255.111ZM260.047 49.5323V50.1493H259.43V50.7663H258.813V51.3833H255.111V50.7663H254.495V50.1493H253.878V45.8304H254.495V45.2134H255.111V44.5965H258.813V45.2134H259.43V45.8304H260.047V47.6814H259.43V48.2983H255.111V49.5323H255.728V50.1493H258.196V49.5323H260.047ZM262.263 47.6814V51.3833H261.029V44.5965H262.263V45.8304H262.88V45.2134H263.497V44.5965H265.964V45.2134H266.581V45.8304H267.198V47.0644H265.964V46.4474H265.347V45.8304H264.114V46.4474H263.497V47.0644H262.88V47.6814H262.263ZM268.797 50.1493H268.18V48.9153H269.414V49.5323H270.031V50.1493H272.499V48.9153H271.265V48.2983H270.031V47.6814H268.797V47.0644H268.18V45.8304H268.797V45.2134H269.414V44.5965H273.116V45.2134H273.733V45.8304H274.35V47.0644H273.116V46.4474H272.499V45.8304H270.031V47.0644H271.882V47.6814H273.116V48.2983H273.733V48.9153H274.35V50.1493H273.733V50.7663H273.116V51.3833H269.414V50.7663H268.797V50.1493ZM276.565 47.6814V51.3833H275.331V42.7455H276.565V45.8304H277.182V45.2134H277.799V44.5965H279.65V45.2134H280.267V45.8304H280.884V46.4474H281.501V51.3833H280.267V47.0644H279.65V46.4474H279.033V45.8304H278.416V46.4474H277.799V47.0644H277.182V47.6814H276.565ZM286.184 43.3625V44.5965H284.95V43.3625H286.184ZM286.801 50.1493H287.418V51.3833H286.184V50.7663H285.567V50.1493H284.95V47.0644H283.716V45.8304H286.184V49.5323H286.801V50.1493ZM294.569 45.8304H293.952V45.2134H292.101V45.8304H291.484V47.6814H292.101V48.2983H293.952V47.6814H294.569V45.8304ZM290.867 48.9153V51.3833H289.633V43.9795H290.867V44.5965H291.484V43.9795H294.569V44.5965H295.186V45.2134H295.803V48.2983H295.186V48.9153H294.569V49.5323H291.484V48.9153H290.867ZM297.401 50.1493H296.784V42.7455H298.018V49.5323H298.635V50.1493H301.103V49.5323H301.72V42.7455H302.954V50.1493H302.337V50.7663H301.72V51.3833H298.018V50.7663H297.401V50.1493ZM305.169 46.4474V51.3833H303.935V44.5965H305.169V45.2134H305.786V44.5965H308.871V45.2134H309.488V45.8304H310.105V51.3833H308.871V46.4474H308.254V45.8304H305.786V46.4474H305.169ZM314.788 43.3625V44.5965H313.554V43.3625H314.788ZM315.405 50.1493H316.022V51.3833H314.788V50.7663H314.171V50.1493H313.554V47.0644H312.32V45.8304H314.788V49.5323H315.405V50.1493ZM322.556 50.1493H323.173V51.3833H321.939V50.7663H321.322V50.1493H320.705V45.8304H319.471V44.5965H320.705V42.7455H321.939V44.5965H323.173V45.8304H321.939V49.5323H322.556V50.1493ZM326.005 50.1493H325.388V48.9153H326.622V49.5323H327.239V50.1493H329.707V48.9153H328.473V48.2983H327.239V47.6814H326.005V47.0644H325.388V45.8304H326.005V45.2134H326.622V44.5965H330.324V45.2134H330.941V45.8304H331.558V47.0644H330.324V46.4474H329.707V45.8304H327.239V47.0644H329.09V47.6814H330.324V48.2983H330.941V48.9153H331.558V50.1493H330.941V50.7663H330.324V51.3833H326.622V50.7663H326.005V50.1493ZM335.624 50.7663V51.3833H334.39V50.7663H335.007V50.1493H335.624V49.5323H336.241V43.3625H335.624V42.7455H335.007V42.1285H334.39V41.5115H335.624V42.1285H336.241V42.7455H336.858V43.3625H337.475V49.5323H336.858V50.1493H336.241V50.7663H335.624ZM243.277 62.7663H243.894V63.3833H242.66V62.7663H242.043V62.1493H241.426V61.5323H240.809V55.3625H241.426V54.7455H242.043V54.1285H242.66V53.5115H243.894V54.1285H243.277V54.7455H242.66V55.3625H242.043V61.5323H242.66V62.1493H243.277V62.7663ZM251.045 62.1493H251.662V63.3833H250.428V62.7663H249.811V62.1493H249.194V57.8304H247.96V56.5965H249.194V54.7455H250.428V56.5965H251.662V57.8304H250.428V61.5323H251.045V62.1493ZM255.728 62.1493H258.196V61.5323H258.813V58.4474H258.196V57.8304H255.728V58.4474H255.111V61.5323H255.728V62.1493ZM255.111 63.3833V62.7663H254.495V62.1493H253.878V57.8304H254.495V57.2134H255.111V56.5965H258.813V57.2134H259.43V57.8304H260.047V62.1493H259.43V62.7663H258.813V63.3833H255.111ZM265.347 62.1493H265.964V63.3833H264.731V62.7663H264.114V62.1493H263.497V57.8304H262.263V56.5965H263.497V54.7455H264.731V56.5965H265.964V57.8304H264.731V61.5323H265.347V62.1493ZM270.031 62.1493H272.499V61.5323H273.116V60.2983H272.499V59.6814H270.031V60.2983H269.414V61.5323H270.031V62.1493ZM269.414 63.3833V62.7663H268.797V62.1493H268.18V59.6814H268.797V59.0644H269.414V58.4474H272.499V59.0644H273.116V57.8304H272.499V57.2134H269.414V55.9795H273.116V56.5965H273.733V57.2134H274.35V63.3833H273.116V62.7663H272.499V63.3833H269.414ZM279.033 54.7455V63.3833H277.799V54.7455H279.033ZM283.099 62.1493H282.482V54.7455H283.716V61.5323H284.333V62.1493H286.801V61.5323H287.418V54.7455H288.652V62.1493H288.035V62.7663H287.418V63.3833H283.716V62.7663H283.099V62.1493ZM290.867 58.4474V63.3833H289.633V56.5965H290.867V57.2134H291.484V56.5965H294.569V57.2134H295.186V57.8304H295.803V63.3833H294.569V58.4474H293.952V57.8304H291.484V58.4474H290.867ZM300.486 55.3625V56.5965H299.252V55.3625H300.486ZM301.103 62.1493H301.72V63.3833H300.486V62.7663H299.869V62.1493H299.252V59.0644H298.018V57.8304H300.486V61.5323H301.103V62.1493ZM308.254 62.1493H308.871V63.3833H307.637V62.7663H307.02V62.1493H306.403V57.8304H305.169V56.5965H306.403V54.7455H307.637V56.5965H308.871V57.8304H307.637V61.5323H308.254V62.1493ZM311.703 62.1493H311.086V60.9153H312.32V61.5323H312.937V62.1493H315.405V60.9153H314.171V60.2983H312.937V59.6814H311.703V59.0644H311.086V57.8304H311.703V57.2134H312.32V56.5965H316.022V57.2134H316.639V57.8304H317.256V59.0644H316.022V58.4474H315.405V57.8304H312.937V59.0644H314.788V59.6814H316.022V60.2983H316.639V60.9153H317.256V62.1493H316.639V62.7663H316.022V63.3833H312.32V62.7663H311.703V62.1493ZM321.322 62.7663V63.3833H320.088V62.7663H320.705V62.1493H321.322V61.5323H321.939V55.3625H321.322V54.7455H320.705V54.1285H320.088V53.5115H321.322V54.1285H321.939V54.7455H322.556V55.3625H323.173V61.5323H322.556V62.1493H321.939V62.7663H321.322Z" fill="black"/>
<path d="M171.24 261.315V263.783H174.325V263.166H174.942V261.932H174.325V261.315H171.24ZM171.24 265.017V268.719H170.006V260.081H174.942V260.698H175.559V261.315H176.176V263.783H175.559V264.4H174.942V265.017H171.24ZM178.392 261.315V263.783H181.476V263.166H182.093V261.932H181.476V261.315H178.392ZM179.009 265.017H178.392V268.719H177.158V260.081H182.093V260.698H182.71V261.315H183.327V263.783H182.71V264.4H182.093V265.017H180.859V265.634H181.476V266.251H182.093V266.868H182.71V267.485H183.327V268.719H182.093V268.102H181.476V267.485H180.859V266.868H180.242V266.251H179.625V265.634H179.009V265.017ZM185.543 268.719V267.485H186.777V261.315H185.543V260.081H189.245V261.315H188.011V267.485H189.245V268.719H185.543ZM193.311 267.485H195.779V266.868H196.396V266.251H197.63V267.485H197.013V268.102H196.396V268.719H192.694V268.102H192.077V267.485H191.46V261.315H192.077V260.698H192.694V260.081H196.396V260.698H197.013V261.315H197.63V262.549H196.396V261.932H195.779V261.315H193.311V261.932H192.694V266.868H193.311V267.485ZM204.781 260.081V261.315H199.845V263.783H203.547V265.017H199.845V267.485H204.781V268.719H198.611V260.081H204.781Z" fill="black"/>
<path d="M309.753 173.496H310.37V174.73H309.136V174.113H308.519V173.496H306.051V174.113H305.434V175.347H306.051V175.964H309.136V176.581H309.753V177.198H310.37V179.666H309.753V180.283H309.136V180.9H305.434V180.283H304.817V179.666H304.2V178.432H305.434V179.049H306.051V179.666H308.519V179.049H309.136V177.815H308.519V177.198H305.434V176.581H304.817V175.964H304.2V173.496H304.817V172.879H305.434V172.262H309.136V172.879H309.753V173.496ZM316.287 175.347H315.67V174.73H313.819V175.347H313.202V177.198H313.819V177.815H315.67V177.198H316.287V175.347ZM312.585 178.432V180.9H311.351V173.496H312.585V174.113H313.202V173.496H316.287V174.113H316.904V174.73H317.521V177.815H316.904V178.432H316.287V179.049H313.202V178.432H312.585ZM322.204 172.262V180.9H320.97V172.262H322.204ZM329.355 172.879V174.113H328.121V172.879H329.355ZM329.972 179.666H330.589V180.9H329.355V180.283H328.738V179.666H328.121V176.581H326.887V175.347H329.355V179.049H329.972V179.666ZM337.123 179.666H337.74V180.9H336.506V180.283H335.889V179.666H335.272V175.347H334.038V174.113H335.272V172.262H336.506V174.113H337.74V175.347H336.506V179.049H337.123V179.666ZM342.423 179.666V178.432H343.657V179.666H343.04V180.283H342.423V180.9H341.189V180.283H341.806V179.666H342.423ZM356.109 179.666H358.577V179.049H359.193V177.815H358.577V177.198H356.109V177.815H355.492V179.049H356.109V179.666ZM355.492 180.9V180.283H354.875V179.666H354.258V177.198H354.875V176.581H355.492V175.964H358.577V176.581H359.193V175.347H358.577V174.73H355.492V173.496H359.193V174.113H359.81V174.73H360.427V180.9H359.193V180.283H358.577V180.9H355.492ZM362.643 175.964V180.9H361.409V174.113H362.643V174.73H363.26V174.113H366.345V174.73H366.962V175.347H367.579V180.9H366.345V175.964H365.728V175.347H363.26V175.964H362.643ZM373.496 175.347V172.262H374.73V180.9H373.496V179.666H372.879V180.283H372.262V180.9H370.411V180.283H369.794V179.666H369.177V179.049H368.56V175.964H369.177V175.347H369.794V174.73H370.411V174.113H372.262V174.73H372.879V175.347H373.496ZM370.411 179.049H371.028V179.666H371.645V179.049H372.262V178.432H372.879V176.581H372.262V175.964H371.645V175.347H371.028V175.964H370.411V176.581H369.794V178.432H370.411V179.049ZM330.463 189.198H334.165V187.347H333.548V186.73H332.931V186.113H331.697V186.73H331.08V187.347H330.463V189.198ZM330.463 192.9H329.229V186.73H329.846V186.113H330.463V185.496H331.08V184.879H331.697V184.262H332.931V184.879H333.548V185.496H334.165V186.113H334.782V186.73H335.399V192.9H334.165V190.432H330.463V192.9ZM337.614 185.496V191.666H340.699V191.049H341.316V186.113H340.699V185.496H337.614ZM336.38 192.9V184.262H341.316V184.879H341.933V185.496H342.55V191.666H341.933V192.283H341.316V192.9H336.38ZM344.765 185.496V191.666H347.85V191.049H348.467V186.113H347.85V185.496H344.765ZM343.531 192.9V184.262H348.467V184.879H349.084V185.496H349.701V191.666H349.084V192.283H348.467V192.9H343.531Z" fill="black"/>
<path d="M48.809 196.695H47.575V188.057H48.809V189.291H49.4259V189.908H50.0429V190.525H51.2769V189.908H51.8939V189.291H52.5109V188.057H53.7448V196.695H52.5109V191.142H51.8939V191.759H51.2769V192.993H50.0429V191.759H49.4259V191.142H48.809V196.695ZM58.428 188.674V189.908H57.194V188.674H58.428ZM59.0449 195.461H59.6619V196.695H58.428V196.078H57.811V195.461H57.194V192.376H55.96V191.142H58.428V194.844H59.0449V195.461ZM66.813 191.142V188.057H68.047V196.695H66.813V195.461H66.196V196.078H65.579V196.695H63.7281V196.078H63.1111V195.461H62.4941V194.844H61.8771V191.759H62.4941V191.142H63.1111V190.525H63.7281V189.908H65.579V190.525H66.196V191.142H66.813ZM63.7281 194.844H64.3451V195.461H64.9621V194.844H65.579V194.227H66.196V192.376H65.579V191.759H64.9621V191.142H64.3451V191.759H63.7281V192.376H63.1111V194.227H63.7281V194.844ZM77.4133 191.759H80.4982V191.142H81.1152V189.908H80.4982V189.291H77.4133V191.759ZM76.1793 196.695V188.057H81.1152V188.674H81.7321V189.291H82.3491V191.759H81.7321V192.993H82.3491V195.461H81.7321V196.078H81.1152V196.695H76.1793ZM77.4133 195.461H80.4982V194.844H81.1152V193.61H80.4982V192.993H77.4133V195.461ZM85.1813 195.461H87.6493V194.844H88.2662V193.61H87.6493V192.993H85.1813V193.61H84.5643V194.844H85.1813V195.461ZM84.5643 196.695V196.078H83.9474V195.461H83.3304V192.993H83.9474V192.376H84.5643V191.759H87.6493V192.376H88.2662V191.142H87.6493V190.525H84.5643V189.291H88.2662V189.908H88.8832V190.525H89.5002V196.695H88.2662V196.078H87.6493V196.695H84.5643ZM91.7154 191.759V196.695H90.4815V189.908H91.7154V190.525H92.3324V189.908H95.4173V190.525H96.0343V191.142H96.6513V196.695H95.4173V191.759H94.8003V191.142H92.3324V191.759H91.7154ZM102.568 191.142V188.057H103.802V196.695H102.568V195.461H101.951V196.078H101.334V196.695H99.4835V196.078H98.8665V195.461H98.2495V194.844H97.6325V191.759H98.2495V191.142H98.8665V190.525H99.4835V189.908H101.334V190.525H101.951V191.142H102.568ZM99.4835 194.844H100.1V195.461H100.717V194.844H101.334V194.227H101.951V192.376H101.334V191.759H100.717V191.142H100.1V191.759H99.4835V192.376H98.8665V194.227H99.4835V194.844ZM111.935 196.695V188.057H113.169V195.461H118.105V196.695H111.935ZM120.32 189.291V191.759H123.405V191.142H124.022V189.908H123.405V189.291H120.32ZM120.32 192.993V196.695H119.086V188.057H124.022V188.674H124.639V189.291H125.256V191.759H124.639V192.376H124.022V192.993H120.32Z" fill="black"/>
<path d="M16.617 213.329H17.8509V220.116H19.0849V217.031H20.3189V220.116H21.5528V213.329H22.7868V220.733H22.1698V221.35H21.5528V221.967H20.3189V221.35H19.0849V221.967H17.8509V221.35H17.234V220.733H16.617V213.329ZM27.47 213.946V215.18H26.236V213.946H27.47ZM28.0869 220.733H28.7039V221.967H27.47V221.35H26.853V220.733H26.236V217.648H25.002V216.414H27.47V220.116H28.0869V220.733ZM35.855 216.414V213.329H37.089V221.967H35.855V220.733H35.238V221.35H34.621V221.967H32.7701V221.35H32.1531V220.733H31.5361V220.116H30.9191V217.031H31.5361V216.414H32.1531V215.797H32.7701V215.18H34.621V215.797H35.238V216.414H35.855ZM32.7701 220.116H33.3871V220.733H34.0041V220.116H34.621V219.499H35.238V217.648H34.621V217.031H34.0041V216.414H33.3871V217.031H32.7701V217.648H32.1531V219.499H32.7701V220.116ZM39.3042 217.031V217.648H43.0061V217.031H42.3891V216.414H39.9212V217.031H39.3042ZM44.24 220.116V220.733H43.6231V221.35H43.0061V221.967H39.3042V221.35H38.6872V220.733H38.0702V216.414H38.6872V215.797H39.3042V215.18H43.0061V215.797H43.6231V216.414H44.24V218.265H43.6231V218.882H39.3042V220.116H39.9212V220.733H42.3891V220.116H44.24ZM53.6063 217.031H56.6912V216.414H57.3082V215.18H56.6912V214.563H53.6063V217.031ZM52.3724 221.967V213.329H57.3082V213.946H57.9252V214.563H58.5422V217.031H57.9252V218.265H58.5422V220.733H57.9252V221.35H57.3082V221.967H52.3724ZM53.6063 220.733H56.6912V220.116H57.3082V218.882H56.6912V218.265H53.6063V220.733ZM61.3744 220.733H63.8423V220.116H64.4593V218.882H63.8423V218.265H61.3744V218.882H60.7574V220.116H61.3744V220.733ZM60.7574 221.967V221.35H60.1404V220.733H59.5234V218.265H60.1404V217.648H60.7574V217.031H63.8423V217.648H64.4593V216.414H63.8423V215.797H60.7574V214.563H64.4593V215.18H65.0763V215.797H65.6933V221.967H64.4593V221.35H63.8423V221.967H60.7574ZM67.9085 217.031V221.967H66.6745V215.18H67.9085V215.797H68.5255V215.18H71.6104V215.797H72.2274V216.414H72.8444V221.967H71.6104V217.031H70.9934V216.414H68.5255V217.031H67.9085ZM78.7615 216.414V213.329H79.9954V221.967H78.7615V220.733H78.1445V221.35H77.5275V221.967H75.6765V221.35H75.0596V220.733H74.4426V220.116H73.8256V217.031H74.4426V216.414H75.0596V215.797H75.6765V215.18H77.5275V215.797H78.1445V216.414H78.7615ZM75.6765 220.116H76.2935V220.733H76.9105V220.116H77.5275V219.499H78.1445V217.648H77.5275V217.031H76.9105V216.414H76.2935V217.031H75.6765V217.648H75.0596V219.499H75.6765V220.116ZM88.1278 221.967V213.329H89.3617V220.733H94.2976V221.967H88.1278ZM96.5128 214.563V217.031H99.5977V216.414H100.215V215.18H99.5977V214.563H96.5128ZM96.5128 218.265V221.967H95.2788V213.329H100.215V213.946H100.832V214.563H101.449V217.031H100.832V217.648H100.215V218.265H96.5128Z" fill="black"/>
<line x1="185.319" y1="140.455" x2="185.319" y2="252.282" stroke="black" stroke-width="2.52716" stroke-dasharray="5.05 5.05"/>
<line x1="123.404" y1="58.6378" x2="175.211" y2="58.6378" stroke="black" stroke-width="1.89537"/>
<path d="M216.909 58.9536L207.432 53.4821V64.4251L216.909 58.9536ZM208.38 58.0059H194.165V59.9013H208.38V58.0059Z" fill="black"/>
<path d="M264.926 216.901L274.403 222.373V211.43L264.926 216.901ZM273.455 217.849H287.67V215.954H273.455V217.849Z" fill="black"/>
<path d="M232.072 191.63L241.549 197.101V186.158L232.072 191.63ZM240.601 192.578H287.67V190.682H240.601V192.578Z" fill="black"/>
<path d="M211.854 164.463L221.331 169.934V158.991L211.854 164.463ZM220.384 165.411H288.301V163.515H220.384V165.411Z" fill="black"/>
<path d="M175.843 83.5935L181.314 74.1166L170.371 74.1166L175.843 83.5935ZM174.895 59.5854L174.895 75.0643L176.79 75.0643L176.79 59.5854L174.895 59.5854Z" fill="black"/>
<path d="M193.533 59.5854L193.533 83.5935" stroke="black" stroke-width="1.89537"/>
<path d="M288.302 129.083L288.302 216.27" stroke="black" stroke-width="1.89537"/>
<rect x="41.5516" y="317.917" width="288.727" height="34.4939" stroke="black" stroke-width="2.5551" stroke-linejoin="bevel"/>
<path d="M92.0388 340.541V331.807H93.2865V339.293H98.2769V340.541H92.0388ZM100.517 340.541V339.293H101.764V333.055H100.517V331.807H104.259V333.055H103.012V339.293H104.259V340.541H100.517ZM107.747 333.679V338.669H108.371V339.293H110.242V338.669H109.618V338.045H108.994V336.798H110.242V337.421H110.866V338.045H111.49V333.679H110.866V333.055H108.371V333.679H107.747ZM107.123 339.293H106.499V333.055H107.123V332.431H107.747V331.807H111.49V332.431H112.113V333.055H112.737V338.669H112.113V339.293H112.737V340.541H111.49V339.917H110.242V340.541H107.747V339.917H107.123V339.293ZM114.353 339.293H113.729V331.807H114.977V338.669H115.601V339.293H118.096V338.669H118.72V331.807H119.967V339.293H119.344V339.917H118.72V340.541H114.977V339.917H114.353V339.293ZM122.207 340.541V339.293H123.455V333.055H122.207V331.807H125.95V333.055H124.702V339.293H125.95V340.541H122.207ZM129.437 333.055V339.293H132.556V338.669H133.18V333.679H132.556V333.055H129.437ZM128.19 340.541V331.807H133.18V332.431H133.804V333.055H134.428V339.293H133.804V339.917H133.18V340.541H128.19ZM136.667 340.541V339.293H137.915V333.055H136.667V331.807H140.41V333.055H139.163V339.293H140.41V340.541H136.667ZM145.145 333.055H142.65V331.807H148.888V333.055H146.393V340.541H145.145V333.055ZM153.623 340.541H152.375V337.421H151.751V336.798H151.128V336.174H150.504V335.55H149.88V331.807H151.128V334.926H151.751V335.55H152.375V336.174H153.623V335.55H154.247V334.926H154.87V331.807H156.118V335.55H155.494V336.174H154.87V336.798H154.247V337.421H153.623V340.541ZM165.588 340.541H164.34V331.807H165.588V333.055H166.212V333.679H166.835V334.302H168.083V333.679H168.707V333.055H169.331V331.807H170.578V340.541H169.331V334.926H168.707V335.55H168.083V336.798H166.835V335.55H166.212V334.926H165.588V340.541ZM172.818 336.798H176.561V334.926H175.937V334.302H175.313V333.679H174.066V334.302H173.442V334.926H172.818V336.798ZM172.818 340.541H171.57V334.302H172.194V333.679H172.818V333.055H173.442V332.431H174.066V331.807H175.313V332.431H175.937V333.055H176.561V333.679H177.185V334.302H177.808V340.541H176.561V338.045H172.818V340.541ZM180.048 335.55V340.541H178.801V331.807H180.048V333.679H180.672V334.302H181.296V334.926H181.92V335.55H182.543V336.174H183.167V336.798H183.791V331.807H185.039V340.541H183.791V338.669H183.167V338.045H182.543V337.421H181.92V336.798H181.296V336.174H180.672V335.55H180.048ZM187.278 336.798H191.021V334.926H190.397V334.302H189.773V333.679H188.526V334.302H187.902V334.926H187.278V336.798ZM187.278 340.541H186.031V334.302H186.654V333.679H187.278V333.055H187.902V332.431H188.526V331.807H189.773V332.431H190.397V333.055H191.021V333.679H191.645V334.302H192.269V340.541H191.021V338.045H187.278V340.541ZM198.875 333.055H199.499V334.302H198.251V333.679H197.627V333.055H195.132V333.679H194.508V338.669H195.132V339.293H197.627V338.669H198.251V336.798H196.38V335.55H199.499V339.293H198.875V339.917H198.251V340.541H194.508V339.917H193.885V339.293H193.261V333.055H193.885V332.431H194.508V331.807H198.251V332.431H198.875V333.055ZM206.729 331.807V333.055H201.739V335.55H205.481V336.798H201.739V339.293H206.729V340.541H200.491V331.807H206.729ZM208.969 333.055V335.55H212.088V334.926H212.712V333.679H212.088V333.055H208.969ZM209.593 336.798H208.969V340.541H207.721V331.807H212.712V332.431H213.335V333.055H213.959V335.55H213.335V336.174H212.712V336.798H211.464V337.421H212.088V338.045H212.712V338.669H213.335V339.293H213.959V340.541H212.712V339.917H212.088V339.293H211.464V338.669H210.84V338.045H210.216V337.421H209.593V336.798ZM224.053 339.293H226.548V338.669H227.172V338.045H228.419V339.293H227.796V339.917H227.172V340.541H223.429V339.917H222.805V339.293H222.181V333.055H222.805V332.431H223.429V331.807H227.172V332.431H227.796V333.055H228.419V334.302H227.172V333.679H226.548V333.055H224.053V333.679H223.429V338.669H224.053V339.293ZM233.778 333.055H231.283V333.679H230.659V338.669H231.283V339.293H233.778V338.669H234.402V333.679H233.778V333.055ZM230.659 332.431V331.807H234.402V332.431H235.026V333.055H235.65V339.293H235.026V339.917H234.402V340.541H230.659V339.917H230.035V339.293H229.412V333.055H230.035V332.431H230.659ZM237.889 335.55V340.541H236.642V331.807H237.889V333.679H238.513V334.302H239.137V334.926H239.761V335.55H240.384V336.174H241.008V336.798H241.632V331.807H242.88V340.541H241.632V338.669H241.008V338.045H240.384V337.421H239.761V336.798H239.137V336.174H238.513V335.55H237.889ZM246.367 333.055H243.872V331.807H250.11V333.055H247.615V340.541H246.367V333.055ZM252.35 333.055V335.55H255.469V334.926H256.092V333.679H255.469V333.055H252.35ZM252.973 336.798H252.35V340.541H251.102V331.807H256.092V332.431H256.716V333.055H257.34V335.55H256.716V336.174H256.092V336.798H254.845V337.421H255.469V338.045H256.092V338.669H256.716V339.293H257.34V340.541H256.092V339.917H255.469V339.293H254.845V338.669H254.221V338.045H253.597V337.421H252.973V336.798ZM259.58 336.798H263.323V334.926H262.699V334.302H262.075V333.679H260.827V334.302H260.203V334.926H259.58V336.798ZM259.58 340.541H258.332V334.302H258.956V333.679H259.58V333.055H260.203V332.431H260.827V331.807H262.075V332.431H262.699V333.055H263.323V333.679H263.946V334.302H264.57V340.541H263.323V338.045H259.58V340.541ZM267.434 339.293H269.929V338.669H270.553V338.045H271.8V339.293H271.176V339.917H270.553V340.541H266.81V339.917H266.186V339.293H265.562V333.055H266.186V332.431H266.81V331.807H270.553V332.431H271.176V333.055H271.8V334.302H270.553V333.679H269.929V333.055H267.434V333.679H266.81V338.669H267.434V339.293ZM275.288 333.055H272.792V331.807H279.03V333.055H276.535V340.541H275.288V333.055Z" fill="black"/>
<rect x="140.561" y="407.346" width="90.7061" height="24.9122" stroke="#0439C7" stroke-width="2.5551" stroke-linejoin="bevel"/>
<rect x="109.262" y="432.897" width="153.306" height="24.9122" stroke="#0439C7" stroke-width="2.5551" stroke-linejoin="bevel"/>
<path d="M54.2816 391.375V396.365H53.034V387.632H54.2816V389.503H54.9054V390.127H55.5292V390.751H56.153V391.375H56.7768V391.998H57.4006V392.622H58.0244V387.632H59.272V396.365H58.0244V394.494H57.4006V393.87H56.7768V393.246H56.153V392.622H55.5292V391.998H54.9054V391.375H54.2816ZM62.1355 395.117H64.6307V394.494H65.2545V393.246H64.6307V392.622H62.1355V393.246H61.5117V394.494H62.1355V395.117ZM61.5117 396.365V395.741H60.8879V395.117H60.2641V392.622H60.8879V391.998H61.5117V391.375H64.6307V391.998H65.2545V390.751H64.6307V390.127H61.5117V388.879H65.2545V389.503H65.8783V390.127H66.5021V396.365H65.2545V395.741H64.6307V396.365H61.5117ZM68.7419 392.622V396.365H67.4942V389.503H68.7419V390.751H69.3657V390.127H69.9895V389.503H72.4847V390.127H73.1085V390.751H73.7323V391.998H72.4847V391.375H71.8609V390.751H70.6133V391.375H69.9895V391.998H69.3657V392.622H68.7419ZM75.972 392.622V396.365H74.7244V389.503H75.972V390.751H76.5958V390.127H77.2196V389.503H79.7148V390.127H80.3386V390.751H80.9624V391.998H79.7148V391.375H79.091V390.751H77.8434V391.375H77.2196V391.998H76.5958V392.622H75.972ZM83.8259 395.117H86.3212V394.494H86.945V391.375H86.3212V390.751H83.8259V391.375H83.2021V394.494H83.8259V395.117ZM83.2021 396.365V395.741H82.5783V395.117H81.9545V390.751H82.5783V390.127H83.2021V389.503H86.945V390.127H87.5688V390.751H88.1926V395.117H87.5688V395.741H86.945V396.365H83.2021ZM89.1847 389.503H90.4323V394.494H91.0561V395.117H91.6799V391.998H92.9275V395.117H93.5513V394.494H94.1751V389.503H95.4227V395.117H94.7989V395.741H94.1751V396.365H92.9275V395.741H91.6799V396.365H90.4323V395.741H89.8085V395.117H89.1847V389.503ZM104.893 391.375H108.012V390.751H108.635V389.503H108.012V388.879H104.893V391.375ZM103.645 396.365V387.632H108.635V388.256H109.259V388.879H109.883V391.375H109.259V392.622H109.883V395.117H109.259V395.741H108.635V396.365H103.645ZM104.893 395.117H108.012V394.494H108.635V393.246H108.012V392.622H104.893V395.117ZM112.746 395.117H115.242V394.494H115.866V393.246H115.242V392.622H112.746V393.246H112.123V394.494H112.746V395.117ZM112.123 396.365V395.741H111.499V395.117H110.875V392.622H111.499V391.998H112.123V391.375H115.242V391.998H115.866V390.751H115.242V390.127H112.123V388.879H115.866V389.503H116.489V390.127H117.113V396.365H115.866V395.741H115.242V396.365H112.123ZM119.353 391.375V396.365H118.105V389.503H119.353V390.127H119.977V389.503H123.096V390.127H123.719V390.751H124.343V396.365H123.096V391.375H122.472V390.751H119.977V391.375H119.353ZM130.326 390.751V387.632H131.573V396.365H130.326V395.117H129.702V395.741H129.078V396.365H127.207V395.741H126.583V395.117H125.959V394.494H125.335V391.375H125.959V390.751H126.583V390.127H127.207V389.503H129.078V390.127H129.702V390.751H130.326ZM127.207 394.494H127.831V395.117H128.454V394.494H129.078V393.87H129.702V391.998H129.078V391.375H128.454V390.751H127.831V391.375H127.207V391.998H126.583V393.87H127.207V394.494ZM139.796 396.365V387.632H141.043V395.117H146.034V396.365H139.796ZM148.273 388.879V391.375H151.392V390.751H152.016V389.503H151.392V388.879H148.273ZM148.273 392.622V396.365H147.026V387.632H152.016V388.256H152.64V388.879H153.264V391.375H152.64V391.998H152.016V392.622H148.273Z" fill="black"/>
<path d="M204.691 490.444V492.94H207.81V492.316H208.434V491.068H207.81V490.444H204.691ZM204.691 494.187V497.93H203.443V489.197H208.434V489.821H209.057V490.444H209.681V492.94H209.057V493.564H208.434V494.187H204.691ZM211.921 490.444V492.94H215.04V492.316H215.664V491.068H215.04V490.444H211.921ZM212.545 494.187H211.921V497.93H210.673V489.197H215.664V489.821H216.288V490.444H216.911V492.94H216.288V493.564H215.664V494.187H214.416V494.811H215.04V495.435H215.664V496.059H216.288V496.683H216.911V497.93H215.664V497.306H215.04V496.683H214.416V496.059H213.792V495.435H213.169V494.811H212.545V494.187ZM219.151 497.93V496.683H220.399V490.444H219.151V489.197H222.894V490.444H221.646V496.683H222.894V497.93H219.151ZM227.005 496.683H229.5V496.059H230.124V495.435H231.372V496.683H230.748V497.306H230.124V497.93H226.381V497.306H225.757V496.683H225.134V490.444H225.757V489.821H226.381V489.197H230.124V489.821H230.748V490.444H231.372V491.692H230.124V491.068H229.5V490.444H227.005V491.068H226.381V496.059H227.005V496.683ZM238.602 489.197V490.444H233.611V492.94H237.354V494.187H233.611V496.683H238.602V497.93H232.364V489.197H238.602Z" fill="black"/>
<path d="M254.326 399.1H251.83V399.724H251.207V404.714H251.83V405.338H254.326V404.714H254.949V399.724H254.326V399.1ZM251.207 398.476V397.852H254.949V398.476H255.573V399.1H256.197V405.338H255.573V405.962H254.949V406.586H251.207V405.962H250.583V405.338H249.959V399.1H250.583V398.476H251.207ZM257.813 405.338H257.189V397.852H258.437V404.714H259.06V405.338H261.556V404.714H262.18V397.852H263.427V405.338H262.803V405.962H262.18V406.586H258.437V405.962H257.813V405.338ZM266.914 399.1H264.419V397.852H270.657V399.1H268.162V406.586H266.914V399.1ZM283.246 399.1H280.751V399.724H280.127V404.714H280.751V405.338H283.246V404.714H283.87V399.724H283.246V399.1ZM280.127 398.476V397.852H283.87V398.476H284.494V399.1H285.118V405.338H284.494V405.962H283.87V406.586H280.127V405.962H279.503V405.338H278.88V399.1H279.503V398.476H280.127ZM292.348 397.852V399.1H287.357V401.595H291.1V402.843H287.357V406.586H286.11V397.852H292.348ZM254.822 411.1V413.595H257.941V412.971H258.564V411.724H257.941V411.1H254.822ZM255.445 414.843H254.822V418.586H253.574V409.852H258.564V410.476H259.188V411.1H259.812V413.595H259.188V414.219H258.564V414.843H257.317V415.467H257.941V416.09H258.564V416.714H259.188V417.338H259.812V418.586H258.564V417.962H257.941V417.338H257.317V416.714H256.693V416.09H256.069V415.467H255.445V414.843ZM262.052 414.843H265.795V412.971H265.171V412.348H264.547V411.724H263.299V412.348H262.676V412.971H262.052V414.843ZM262.052 418.586H260.804V412.348H261.428V411.724H262.052V411.1H262.676V410.476H263.299V409.852H264.547V410.476H265.171V411.1H265.795V411.724H266.418V412.348H267.042V418.586H265.795V416.09H262.052V418.586ZM269.282 413.595V418.586H268.034V409.852H269.282V411.724H269.906V412.348H270.53V412.971H271.153V413.595H271.777V414.219H272.401V414.843H273.025V409.852H274.272V418.586H273.025V416.714H272.401V416.09H271.777V415.467H271.153V414.843H270.53V414.219H269.906V413.595H269.282ZM280.879 411.1H281.502V412.348H280.255V411.724H279.631V411.1H277.136V411.724H276.512V416.714H277.136V417.338H279.631V416.714H280.255V414.843H278.383V413.595H281.502V417.338H280.879V417.962H280.255V418.586H276.512V417.962H275.888V417.338H275.264V411.1H275.888V410.476H276.512V409.852H280.255V410.476H280.879V411.1ZM288.733 409.852V411.1H283.742V413.595H287.485V414.843H283.742V417.338H288.733V418.586H282.495V409.852H288.733Z" fill="black"/>
<path d="M49.1712 425.11H47.9236V416.376H49.1712V417.624H49.795V418.248H50.4188V418.872H51.6664V418.248H52.2902V417.624H52.914V416.376H54.1617V425.11H52.914V419.495H52.2902V420.119H51.6664V421.367H50.4188V420.119H49.795V419.495H49.1712V425.11ZM58.8966 417V418.248H57.649V417H58.8966ZM59.5204 423.862H60.1442V425.11H58.8966V424.486H58.2728V423.862H57.649V420.743H56.4014V419.495H58.8966V423.238H59.5204V423.862ZM67.3743 419.495V416.376H68.6219V425.11H67.3743V423.862H66.7505V424.486H66.1267V425.11H64.2553V424.486H63.6315V423.862H63.0077V423.238H62.3839V420.119H63.0077V419.495H63.6315V418.872H64.2553V418.248H66.1267V418.872H66.7505V419.495H67.3743ZM64.2553 423.238H64.8791V423.862H65.5029V423.238H66.1267V422.614H66.7505V420.743H66.1267V420.119H65.5029V419.495H64.8791V420.119H64.2553V420.743H63.6315V422.614H64.2553V423.238ZM78.0918 420.119H81.2108V419.495H81.8346V418.248H81.2108V417.624H78.0918V420.119ZM76.8442 425.11V416.376H81.8346V417H82.4584V417.624H83.0822V420.119H82.4584V421.367H83.0822V423.862H82.4584V424.486H81.8346V425.11H76.8442ZM78.0918 423.862H81.2108V423.238H81.8346V421.991H81.2108V421.367H78.0918V423.862ZM85.9457 423.862H88.4409V423.238H89.0647V421.991H88.4409V421.367H85.9457V421.991H85.3219V423.238H85.9457V423.862ZM85.3219 425.11V424.486H84.6981V423.862H84.0743V421.367H84.6981V420.743H85.3219V420.119H88.4409V420.743H89.0647V419.495H88.4409V418.872H85.3219V417.624H89.0647V418.248H89.6886V418.872H90.3124V425.11H89.0647V424.486H88.4409V425.11H85.3219ZM92.5521 420.119V425.11H91.3045V418.248H92.5521V418.872H93.1759V418.248H96.2949V418.872H96.9187V419.495H97.5425V425.11H96.2949V420.119H95.6711V419.495H93.1759V420.119H92.5521ZM103.525 419.495V416.376H104.773V425.11H103.525V423.862H102.901V424.486H102.277V425.11H100.406V424.486H99.7822V423.862H99.1584V423.238H98.5346V420.119H99.1584V419.495H99.7822V418.872H100.406V418.248H102.277V418.872H102.901V419.495H103.525ZM100.406 423.238H101.03V423.862H101.654V423.238H102.277V422.614H102.901V420.743H102.277V420.119H101.654V419.495H101.03V420.119H100.406V420.743H99.7822V422.614H100.406V423.238ZM112.995 425.11V416.376H114.242V423.862H119.233V425.11H112.995ZM121.473 417.624V420.119H124.592V419.495H125.215V418.248H124.592V417.624H121.473ZM121.473 421.367V425.11H120.225V416.376H125.215V417H125.839V417.624H126.463V420.119H125.839V420.743H125.215V421.367H121.473Z" fill="black"/>
<path d="M16.6238 441.928H17.8714V448.789H19.119V445.67H20.3666V448.789H21.6142V441.928H22.8618V449.413H22.238V450.037H21.6142V450.661H20.3666V450.037H19.119V450.661H17.8714V450.037H17.2476V449.413H16.6238V441.928ZM27.5968 442.551V443.799H26.3492V442.551H27.5968ZM28.2206 449.413H28.8444V450.661H27.5968V450.037H26.973V449.413H26.3492V446.294H25.1016V445.047H27.5968V448.789H28.2206V449.413ZM36.0745 445.047V441.928H37.3221V450.661H36.0745V449.413H35.4507V450.037H34.8269V450.661H32.9555V450.037H32.3317V449.413H31.7079V448.789H31.0841V445.67H31.7079V445.047H32.3317V444.423H32.9555V443.799H34.8269V444.423H35.4507V445.047H36.0745ZM32.9555 448.789H33.5793V449.413H34.2031V448.789H34.8269V448.166H35.4507V446.294H34.8269V445.67H34.2031V445.047H33.5793V445.67H32.9555V446.294H32.3317V448.166H32.9555V448.789ZM39.5618 445.67V446.294H43.3047V445.67H42.6809V445.047H40.1856V445.67H39.5618ZM44.5523 448.789V449.413H43.9285V450.037H43.3047V450.661H39.5618V450.037H38.938V449.413H38.3142V445.047H38.938V444.423H39.5618V443.799H43.3047V444.423H43.9285V445.047H44.5523V446.918H43.9285V447.542H39.5618V448.789H40.1856V449.413H42.6809V448.789H44.5523ZM54.0221 445.67H57.1411V445.047H57.7649V443.799H57.1411V443.175H54.0221V445.67ZM52.7745 450.661V441.928H57.7649V442.551H58.3887V443.175H59.0126V445.67H58.3887V446.918H59.0126V449.413H58.3887V450.037H57.7649V450.661H52.7745ZM54.0221 449.413H57.1411V448.789H57.7649V447.542H57.1411V446.918H54.0221V449.413ZM61.8761 449.413H64.3713V448.789H64.9951V447.542H64.3713V446.918H61.8761V447.542H61.2523V448.789H61.8761V449.413ZM61.2523 450.661V450.037H60.6285V449.413H60.0046V446.918H60.6285V446.294H61.2523V445.67H64.3713V446.294H64.9951V445.047H64.3713V444.423H61.2523V443.175H64.9951V443.799H65.6189V444.423H66.2427V450.661H64.9951V450.037H64.3713V450.661H61.2523ZM68.4824 445.67V450.661H67.2348V443.799H68.4824V444.423H69.1062V443.799H72.2252V444.423H72.849V445.047H73.4728V450.661H72.2252V445.67H71.6014V445.047H69.1062V445.67H68.4824ZM79.4554 445.047V441.928H80.703V450.661H79.4554V449.413H78.8316V450.037H78.2078V450.661H76.3363V450.037H75.7125V449.413H75.0887V448.789H74.4649V445.67H75.0887V445.047H75.7125V444.423H76.3363V443.799H78.2078V444.423H78.8316V445.047H79.4554ZM76.3363 448.789H76.9601V449.413H77.584V448.789H78.2078V448.166H78.8316V446.294H78.2078V445.67H77.584V445.047H76.9601V445.67H76.3363V446.294H75.7125V448.166H76.3363V448.789ZM88.9252 450.661V441.928H90.1728V449.413H95.1633V450.661H88.9252ZM97.403 443.175V445.67H100.522V445.047H101.146V443.799H100.522V443.175H97.403ZM97.403 446.918V450.661H96.1554V441.928H101.146V442.551H101.77V443.175H102.393V445.67H101.77V446.294H101.146V446.918H97.403Z" fill="black"/>
<line x1="219.13" y1="368.381" x2="219.13" y2="481.444" stroke="black" stroke-width="2.5551" stroke-dasharray="5.11 5.11"/>
<rect x="163.557" y="381.795" width="44.7143" height="24.9122" stroke="#FF0000" stroke-width="2.5551" stroke-linejoin="bevel"/>
</svg>
