<svg width="390" height="365" viewBox="0 0 390 365" fill="none" xmlns="http://www.w3.org/2000/svg">
<rect width="390" height="358" fill="#33E6BF"/>
<path d="M372.177 310.014L369.639 310.014L369.639 326.302L372.177 326.302L372.177 310.014Z" fill="#176453"/>
<path d="M375.236 310.014L372.697 310.014L372.697 326.302L375.236 326.302L375.236 310.014Z" fill="#176453"/>
<path d="M378.29 310.014L375.752 310.014L375.752 326.302L378.29 326.302L378.29 310.014Z" fill="#176453"/>
<path d="M384.401 310.014L381.862 310.014L381.862 326.302L384.401 326.302L384.401 310.014Z" fill="#176453"/>
<path d="M387.456 310.014L384.917 310.014L384.917 326.302L387.456 326.302L387.456 310.014Z" fill="#176453"/>
<path d="M372.177 329.361L369.639 329.361L369.639 345.648L372.177 345.648L372.177 329.361Z" fill="#176453"/>
<path d="M375.236 329.361L372.697 329.361L372.697 345.648L375.236 345.648L375.236 329.361Z" fill="#176453"/>
<path d="M378.29 329.361L375.752 329.361L375.752 345.648L378.29 345.648L378.29 329.361Z" fill="#176453"/>
<path d="M381.346 329.361L378.808 329.361L378.808 345.648L381.346 345.648L381.346 329.361Z" fill="#176453"/>
<path d="M387.456 329.361L384.917 329.361L384.917 345.648L387.456 345.648L387.456 329.361Z" fill="#176453"/>
<path d="M390.514 329.36L387.976 329.36L387.976 345.648L390.514 345.648L390.514 329.36Z" fill="#176453"/>
<path d="M372.177 348.705L369.639 348.705L369.639 364.993L372.177 364.993L372.177 348.705Z" fill="#176453"/>
<path d="M375.236 348.705L372.697 348.705L372.697 364.993L375.236 364.993L375.236 348.705Z" fill="#176453"/>
<path d="M378.29 348.705L375.752 348.705L375.752 364.993L378.29 364.993L378.29 348.705Z" fill="#176453"/>
<path d="M381.346 348.705L378.808 348.705L378.808 364.993L381.346 364.993L381.346 348.705Z" fill="#176453"/>
<path d="M384.401 348.705L381.862 348.705L381.862 364.993L384.401 364.993L384.401 348.705Z" fill="#176453"/>
<path d="M387.456 348.705L384.917 348.705L384.917 364.993L387.456 364.993L387.456 348.705Z" fill="#176453"/>
<path d="M390.514 348.705L387.976 348.705L387.976 364.993L390.514 364.993L390.514 348.705Z" fill="#176453"/>
<path d="M366.824 326.288L369.362 326.288L369.362 310L366.824 310L366.824 326.288Z" fill="#176453"/>
<path d="M363.767 326.288L366.306 326.288L366.306 310L363.767 310L363.767 326.288Z" fill="#176453"/>
<path d="M360.711 326.288L363.25 326.288L363.25 310L360.711 310L360.711 326.288Z" fill="#176453"/>
<path d="M354.598 326.288L357.137 326.288L357.137 310L354.598 310L354.598 326.288Z" fill="#176453"/>
<path d="M351.546 326.288L354.085 326.288L354.085 310L351.546 310L351.546 326.288Z" fill="#176453"/>
<path d="M345.433 326.288L347.972 326.288L347.972 310L345.433 310L345.433 326.288Z" fill="#176453"/>
<path d="M342.377 326.288L344.916 326.288L344.916 310L342.377 310L342.377 326.288Z" fill="#176453"/>
<path d="M339.321 326.288L341.859 326.288L341.859 310L339.321 310L339.321 326.288Z" fill="#176453"/>
<path d="M336.264 326.288L338.803 326.288L338.803 310L336.264 310L336.264 326.288Z" fill="#176453"/>
<path d="M333.212 326.288L335.751 326.288L335.751 310L333.212 310L333.212 326.288Z" fill="#176453"/>
<path d="M366.824 345.644L369.362 345.644L369.362 329.357L366.824 329.357L366.824 345.644Z" fill="#176453"/>
<path d="M363.767 345.644L366.306 345.644L366.306 329.357L363.767 329.357L363.767 345.644Z" fill="#176453"/>
<path d="M360.711 345.644L363.25 345.644L363.25 329.357L360.711 329.357L360.711 345.644Z" fill="#176453"/>
<path d="M357.655 345.644L360.193 345.644L360.193 329.357L357.655 329.357L357.655 345.644Z" fill="#176453"/>
<path d="M351.546 345.644L354.085 345.644L354.085 329.357L351.546 329.357L351.546 345.644Z" fill="#176453"/>
<path d="M348.49 345.644L351.028 345.644L351.028 329.357L348.49 329.357L348.49 345.644Z" fill="#176453"/>
<path d="M345.433 345.644L347.972 345.644L347.972 329.357L345.433 329.357L345.433 345.644Z" fill="#176453"/>
<path d="M342.377 345.644L344.916 345.644L344.916 329.357L342.377 329.357L342.377 345.644Z" fill="#176453"/>
<path d="M336.264 345.644L338.803 345.644L338.803 329.357L336.264 329.357L336.264 345.644Z" fill="#176453"/>
<path d="M333.212 345.644L335.751 345.644L335.751 329.357L333.212 329.357L333.212 345.644Z" fill="#176453"/>
<path d="M366.824 365L369.362 365L369.362 348.713L366.824 348.713L366.824 365Z" fill="#176453"/>
<path d="M363.768 365L366.307 365L366.307 348.713L363.768 348.713L363.768 365Z" fill="#176453"/>
<path d="M360.711 365L363.25 365L363.25 348.713L360.711 348.713L360.711 365Z" fill="#176453"/>
<path d="M357.655 365L360.193 365L360.193 348.713L357.655 348.713L357.655 365Z" fill="#176453"/>
<path d="M354.599 365L357.138 365L357.138 348.713L354.599 348.713L354.599 365Z" fill="#176453"/>
<path d="M351.546 365L354.085 365L354.085 348.713L351.546 348.713L351.546 365Z" fill="#176453"/>
<path d="M348.49 365L351.028 365L351.028 348.713L348.49 348.713L348.49 365Z" fill="#176453"/>
<path d="M345.434 365L347.973 365L347.973 348.713L345.434 348.713L345.434 365Z" fill="#176453"/>
<path d="M342.377 365L344.916 365L344.916 348.713L342.377 348.713L342.377 365Z" fill="#176453"/>
<path d="M339.321 365L341.859 365L341.859 348.713L339.321 348.713L339.321 365Z" fill="#176453"/>
<path d="M336.265 365L338.804 365L338.804 348.713L336.265 348.713L336.265 365Z" fill="#176453"/>
<path d="M330.023 326.288L332.562 326.288L332.562 310L330.023 310L330.023 326.288Z" fill="#176453"/>
<path d="M323.914 326.288L326.452 326.288L326.452 310L323.914 310L323.914 326.288Z" fill="#176453"/>
<path d="M320.857 326.288L323.396 326.288L323.396 310L320.857 310L320.857 326.288Z" fill="#176453"/>
<path d="M314.745 326.288L317.283 326.288L317.283 310L314.745 310L314.745 326.288Z" fill="#176453"/>
<path d="M302.523 326.288L305.062 326.288L305.062 310L302.523 310L302.523 326.288Z" fill="#176453"/>
<path d="M330.023 345.644L332.562 345.644L332.562 329.357L330.023 329.357L330.023 345.644Z" fill="#176453"/>
<path d="M326.966 345.644L329.505 345.644L329.505 329.357L326.966 329.357L326.966 345.644Z" fill="#176453"/>
<path d="M320.857 345.644L323.396 345.644L323.396 329.357L320.857 329.357L320.857 345.644Z" fill="#176453"/>
<path d="M317.801 345.644L320.34 345.644L320.34 329.357L317.801 329.357L317.801 345.644Z" fill="#176453"/>
<path d="M314.745 345.644L317.283 345.644L317.283 329.357L314.745 329.357L314.745 345.644Z" fill="#176453"/>
<path d="M311.688 345.644L314.227 345.644L314.227 329.357L311.688 329.357L311.688 345.644Z" fill="#176453"/>
<path d="M305.58 345.644L308.118 345.644L308.118 329.357L305.58 329.357L305.58 345.644Z" fill="#176453"/>
<path d="M330.023 365L332.562 365L332.562 348.713L330.023 348.713L330.023 365Z" fill="#176453"/>
<path d="M323.914 365L326.452 365L326.452 348.713L323.914 348.713L323.914 365Z" fill="#176453"/>
<path d="M320.858 365L323.396 365L323.396 348.713L320.858 348.713L320.858 365Z" fill="#176453"/>
<path d="M317.801 365L320.34 365L320.34 348.713L317.801 348.713L317.801 365Z" fill="#176453"/>
<path d="M311.689 365L314.228 365L314.228 348.713L311.689 348.713L311.689 365Z" fill="#176453"/>
<path d="M308.636 365L311.175 365L311.175 348.713L308.636 348.713L308.636 365Z" fill="#176453"/>
<path d="M302.523 365L305.062 365L305.062 348.713L302.523 348.713L302.523 365Z" fill="#176453"/>
<path d="M296.278 326.288L298.816 326.288L298.816 310L296.278 310L296.278 326.288Z" fill="#176453"/>
<path d="M299.334 345.644L301.872 345.644L301.872 329.357L299.334 329.357L299.334 345.644Z" fill="#176453"/>
<path d="M290.169 345.644L292.707 345.644L292.707 329.357L290.169 329.357L290.169 345.644Z" fill="#176453"/>
<path d="M281 345.644L283.538 345.644L283.538 329.357L281 329.357L281 345.644Z" fill="#176453"/>
<path d="M293.225 365L295.764 365L295.764 348.713L293.225 348.713L293.225 365Z" fill="#176453"/>
<path d="M284.056 365L286.595 365L286.595 348.713L284.056 348.713L284.056 365Z" fill="#176453"/>
<rect x="14.4958" y="76.4148" width="339.943" height="40.6127" stroke="black" stroke-width="3.00835" stroke-linejoin="bevel"/>
<path d="M74.2022 102.487V92.2043H75.6712V101.018H81.5468V102.487H74.2022ZM84.1838 102.487V101.018H85.6528V93.6732H84.1838V92.2043H88.5906V93.6732H87.1217V101.018H88.5906V102.487H84.1838ZM92.6965 94.4077V100.283H93.431V101.018H95.6344V100.283H94.8999V99.5489H94.1654V98.08H95.6344V98.8144H96.3688V99.5489H97.1033V94.4077H96.3688V93.6732H93.431V94.4077H92.6965ZM91.9621 101.018H91.2276V93.6732H91.9621V92.9388H92.6965V92.2043H97.1033V92.9388H97.8377V93.6732H98.5722V100.283H97.8377V101.018H98.5722V102.487H97.1033V101.752H95.6344V102.487H92.6965V101.752H91.9621V101.018ZM100.475 101.018H99.7403V92.2043H101.209V100.283H101.944V101.018H104.882V100.283H105.616V92.2043H107.085V101.018H106.35V101.752H105.616V102.487H101.209V101.752H100.475V101.018ZM109.722 102.487V101.018H111.191V93.6732H109.722V92.2043H114.129V93.6732H112.66V101.018H114.129V102.487H109.722ZM118.235 93.6732V101.018H121.907V100.283H122.641V94.4077H121.907V93.6732H118.235ZM116.766 102.487V92.2043H122.641V92.9388H123.376V93.6732H124.11V101.018H123.376V101.752H122.641V102.487H116.766ZM126.747 102.487V101.018H128.216V93.6732H126.747V92.2043H131.154V93.6732H129.685V101.018H131.154V102.487H126.747ZM136.729 93.6732H133.791V92.2043H141.136V93.6732H138.198V102.487H136.729V93.6732ZM146.71 102.487H145.242V98.8144H144.507V98.08H143.773V97.3455H143.038V96.6111H142.304V92.2043H143.773V95.8766H144.507V96.6111H145.242V97.3455H146.71V96.6111H147.445V95.8766H148.179V92.2043H149.648V96.6111H148.914V97.3455H148.179V98.08H147.445V98.8144H146.71V102.487ZM160.798 102.487H159.329V92.2043H160.798V93.6732H161.532V94.4077H162.267V95.1421H163.736V94.4077H164.47V93.6732H165.205V92.2043H166.674V102.487H165.205V95.8766H164.47V96.6111H163.736V98.08H162.267V96.6111H161.532V95.8766H160.798V102.487ZM169.311 98.08H173.717V95.8766H172.983V95.1421H172.249V94.4077H170.78V95.1421H170.045V95.8766H169.311V98.08ZM169.311 102.487H167.842V95.1421H168.576V94.4077H169.311V93.6732H170.045V92.9388H170.78V92.2043H172.249V92.9388H172.983V93.6732H173.717V94.4077H174.452V95.1421H175.186V102.487H173.717V99.5489H169.311V102.487ZM177.823 96.6111V102.487H176.354V92.2043H177.823V94.4077H178.558V95.1421H179.292V95.8766H180.027V96.6111H180.761V97.3455H181.496V98.08H182.23V92.2043H183.699V102.487H182.23V100.283H181.496V99.5489H180.761V98.8144H180.027V98.08H179.292V97.3455H178.558V96.6111H177.823ZM186.336 98.08H190.743V95.8766H190.008V95.1421H189.274V94.4077H187.805V95.1421H187.071V95.8766H186.336V98.08ZM186.336 102.487H184.867V95.1421H185.602V94.4077H186.336V93.6732H187.071V92.9388H187.805V92.2043H189.274V92.9388H190.008V93.6732H190.743V94.4077H191.477V95.1421H192.212V102.487H190.743V99.5489H186.336V102.487ZM199.99 93.6732H200.724V95.1421H199.256V94.4077H198.521V93.6732H195.583V94.4077H194.849V100.283H195.583V101.018H198.521V100.283H199.256V98.08H197.052V96.6111H200.724V101.018H199.99V101.752H199.256V102.487H194.849V101.752H194.114V101.018H193.38V93.6732H194.114V92.9388H194.849V92.2043H199.256V92.9388H199.99V93.6732ZM209.237 92.2043V93.6732H203.361V96.6111H207.768V98.08H203.361V101.018H209.237V102.487H201.893V92.2043H209.237ZM211.874 93.6732V96.6111H215.546V95.8766H216.281V94.4077H215.546V93.6732H211.874ZM212.609 98.08H211.874V102.487H210.405V92.2043H216.281V92.9388H217.015V93.6732H217.75V96.6111H217.015V97.3455H216.281V98.08H214.812V98.8144H215.546V99.5489H216.281V100.283H217.015V101.018H217.75V102.487H216.281V101.752H215.546V101.018H214.812V100.283H214.078V99.5489H213.343V98.8144H212.609V98.08ZM229.634 101.018H232.572V100.283H233.306V99.5489H234.775V101.018H234.041V101.752H233.306V102.487H228.9V101.752H228.165V101.018H227.431V93.6732H228.165V92.9388H228.9V92.2043H233.306V92.9388H234.041V93.6732H234.775V95.1421H233.306V94.4077H232.572V93.6732H229.634V94.4077H228.9V100.283H229.634V101.018ZM241.084 93.6732H238.147V94.4077H237.412V100.283H238.147V101.018H241.084V100.283H241.819V94.4077H241.084V93.6732ZM237.412 92.9388V92.2043H241.819V92.9388H242.553V93.6732H243.288V101.018H242.553V101.752H241.819V102.487H237.412V101.752H236.678V101.018H235.943V93.6732H236.678V92.9388H237.412ZM245.925 96.6111V102.487H244.456V92.2043H245.925V94.4077H246.659V95.1421H247.394V95.8766H248.128V96.6111H248.863V97.3455H249.597V98.08H250.332V92.2043H251.801V102.487H250.332V100.283H249.597V99.5489H248.863V98.8144H248.128V98.08H247.394V97.3455H246.659V96.6111H245.925ZM255.906 93.6732H252.969V92.2043H260.313V93.6732H257.375V102.487H255.906V93.6732ZM262.95 93.6732V96.6111H266.623V95.8766H267.357V94.4077H266.623V93.6732H262.95ZM263.685 98.08H262.95V102.487H261.481V92.2043H267.357V92.9388H268.091V93.6732H268.826V96.6111H268.091V97.3455H267.357V98.08H265.888V98.8144H266.623V99.5489H267.357V100.283H268.091V101.018H268.826V102.487H267.357V101.752H266.623V101.018H265.888V100.283H265.154V99.5489H264.419V98.8144H263.685V98.08ZM271.463 98.08H275.87V95.8766H275.135V95.1421H274.401V94.4077H272.932V95.1421H272.197V95.8766H271.463V98.08ZM271.463 102.487H269.994V95.1421H270.728V94.4077H271.463V93.6732H272.197V92.9388H272.932V92.2043H274.401V92.9388H275.135V93.6732H275.87V94.4077H276.604V95.1421H277.339V102.487H275.87V99.5489H271.463V102.487ZM280.71 101.018H283.648V100.283H284.382V99.5489H285.851V101.018H285.117V101.752H284.382V102.487H279.976V101.752H279.241V101.018H278.507V93.6732H279.241V92.9388H279.976V92.2043H284.382V92.9388H285.117V93.6732H285.851V95.1421H284.382V94.4077H283.648V93.6732H280.71V94.4077H279.976V100.283H280.71V101.018ZM289.957 93.6732H287.019V92.2043H294.364V93.6732H291.426V102.487H289.957V93.6732Z" fill="black"/>
<mask id="path-78-outside-1_6001_21" maskUnits="userSpaceOnUse" x="155.648" y="197.273" width="57" height="37" fill="black">
<rect fill="white" x="155.648" y="197.273" width="57" height="37"/>
<path d="M159.648 204.273H209.286V230.596H159.648V204.273Z"/>
</mask>
<path d="M159.648 204.273V198.256L156.64 204.273H159.648ZM209.286 204.273H212.295L209.286 198.256V204.273ZM209.286 230.596V233.604L212.295 230.596H209.286ZM159.648 230.596H156.64L159.648 233.604V230.596ZM159.648 210.29H209.286V198.256H159.648V210.29ZM206.278 204.273V230.596H212.295V204.273H206.278ZM209.286 227.588H159.648V233.604H209.286V227.588ZM162.657 230.596V204.273H156.64V230.596H162.657Z" fill="#0439C7" mask="url(#path-78-outside-1_6001_21)"/>
<mask id="path-80-outside-2_6001_21" maskUnits="userSpaceOnUse" x="128.573" y="227.356" width="111" height="37" fill="black">
<rect fill="white" x="128.573" y="227.356" width="111" height="37"/>
<path d="M132.573 234.356H236.361V260.679H132.573V234.356Z"/>
</mask>
<path d="M132.573 234.356V228.339L129.565 234.356H132.573ZM236.361 234.356H239.37L236.361 228.339V234.356ZM236.361 260.679V263.687L239.37 260.679H236.361ZM132.573 260.679H129.565L132.573 263.687V260.679ZM132.573 240.373H236.361V228.339H132.573V240.373ZM233.353 234.356V260.679H239.37V234.356H233.353ZM236.361 257.671H132.573V263.687H236.361V257.671ZM135.582 260.679V234.356H129.565V260.679H135.582Z" fill="#0439C7" mask="url(#path-80-outside-2_6001_21)"/>
<mask id="path-82-outside-3_6001_21" maskUnits="userSpaceOnUse" x="91.7217" y="257.44" width="185" height="37" fill="black">
<rect fill="white" x="91.7217" y="257.44" width="185" height="37"/>
<path d="M95.7217 264.44H273.214V290.763H95.7217V264.44Z"/>
</mask>
<path d="M95.7217 264.44V258.423L92.7133 264.44H95.7217ZM273.214 264.44H276.223L273.214 258.423V264.44ZM273.214 290.763V293.771L276.223 290.763H273.214ZM95.7217 290.763H92.7133L95.7217 293.771V290.763ZM95.7217 270.457H273.214V258.423H95.7217V270.457ZM270.206 264.44V290.763H276.223V264.44H270.206ZM273.214 287.755H95.7217V293.771H273.214V287.755ZM98.73 290.763V264.44H92.7133V290.763H98.73Z" fill="#0439C7" mask="url(#path-82-outside-3_6001_21)"/>
<path d="M28.78 28.7966H28.0455V19.9831H29.5144V28.0622H30.2489V28.7966H33.1867V28.0622H33.9212V19.9831H35.3901V28.7966H34.6557V29.5311H33.9212V30.2655H29.5144V29.5311H28.78V28.7966ZM43.1683 21.452H43.9028V22.9209H42.4339V22.1865H41.6994V21.452H38.7616V22.1865H38.0271V23.6554H38.7616V24.3899H42.4339V25.1243H43.1683V25.8588H43.9028V28.7966H43.1683V29.5311H42.4339V30.2655H38.0271V29.5311H37.2927V28.7966H36.5582V27.3277H38.0271V28.0622H38.7616V28.7966H41.6994V28.0622H42.4339V26.5932H41.6994V25.8588H38.0271V25.1243H37.2927V24.3899H36.5582V21.452H37.2927V20.7176H38.0271V19.9831H42.4339V20.7176H43.1683V21.452ZM52.4155 19.9831V21.452H46.5398V24.3899H50.9466V25.8588H46.5398V28.7966H52.4155V30.2655H45.0709V19.9831H52.4155ZM55.0525 21.452V24.3899H58.7248V23.6554H59.4593V22.1865H58.7248V21.452H55.0525ZM55.787 25.8588H55.0525V30.2655H53.5836V19.9831H59.4593V20.7176H60.1937V21.452H60.9282V24.3899H60.1937V25.1243H59.4593V25.8588H57.9903V26.5932H58.7248V27.3277H59.4593V28.0622H60.1937V28.7966H60.9282V30.2655H59.4593V29.5311H58.7248V28.7966H57.9903V28.0622H57.2559V27.3277H56.5214V26.5932H55.787V25.8588ZM72.0779 25.8588H76.4846V23.6554H75.7502V22.9209H75.0157V22.1865H73.5468V22.9209H72.8123V23.6554H72.0779V25.8588ZM72.0779 30.2655H70.6089V22.9209H71.3434V22.1865H72.0779V21.452H72.8123V20.7176H73.5468V19.9831H75.0157V20.7176H75.7502V21.452H76.4846V22.1865H77.2191V22.9209H77.9535V30.2655H76.4846V27.3277H72.0779V30.2655ZM85.7318 21.452H86.4662V22.9209H84.9973V22.1865H84.2629V21.452H81.325V22.1865H80.5906V23.6554H81.325V24.3899H84.9973V25.1243H85.7318V25.8588H86.4662V28.7966H85.7318V29.5311H84.9973V30.2655H80.5906V29.5311H79.8561V28.7966H79.1216V27.3277H80.5906V28.0622H81.325V28.7966H84.2629V28.0622H84.9973V26.5932H84.2629V25.8588H80.5906V25.1243H79.8561V24.3899H79.1216V21.452H79.8561V20.7176H80.5906V19.9831H84.9973V20.7176H85.7318V21.452ZM94.2445 21.452H94.9789V22.9209H93.51V22.1865H92.7755V21.452H89.8377V22.1865H89.1032V23.6554H89.8377V24.3899H93.51V25.1243H94.2445V25.8588H94.9789V28.7966H94.2445V29.5311H93.51V30.2655H89.1032V29.5311H88.3688V28.7966H87.6343V27.3277H89.1032V28.0622H89.8377V28.7966H92.7755V28.0622H93.51V26.5932H92.7755V25.8588H89.1032V25.1243H88.3688V24.3899H87.6343V21.452H88.3688V20.7176H89.1032V19.9831H93.51V20.7176H94.2445V21.452ZM103.492 19.9831V21.452H97.6159V24.3899H102.023V25.8588H97.6159V28.7966H103.492V30.2655H96.147V19.9831H103.492ZM107.598 21.452H104.66V19.9831H112.004V21.452H109.066V30.2655H107.598V21.452ZM119.783 21.452H120.517V22.9209H119.048V22.1865H118.314V21.452H115.376V22.1865H114.641V23.6554H115.376V24.3899H119.048V25.1243H119.783V25.8588H120.517V28.7966H119.783V29.5311H119.048V30.2655H114.641V29.5311H113.907V28.7966H113.172V27.3277H114.641V28.0622H115.376V28.7966H118.314V28.0622H119.048V26.5932H118.314V25.8588H114.641V25.1243H113.907V24.3899H113.172V21.452H113.907V20.7176H114.641V19.9831H119.048V20.7176H119.783V21.452ZM53.734 44.5311H54.4685V45.2655H52.9995V44.5311H52.2651V43.7966H51.5306V43.0622H50.7962V35.7176H51.5306V34.9831H52.2651V34.2486H52.9995V33.5142H54.4685V34.2486H53.734V34.9831H52.9995V35.7176H52.2651V43.0622H52.9995V43.7966H53.734V44.5311ZM57.8399 34.9831H59.3088V43.0622H60.7778V39.3899H62.2467V43.0622H63.7156V34.9831H65.1845V43.7966H64.4501V44.5311H63.7156V45.2655H62.2467V44.5311H60.7778V45.2655H59.3088V44.5311H58.5744V43.7966H57.8399V34.9831ZM73.6972 34.9831V36.452H67.8215V39.3899H72.2283V40.8588H67.8215V43.7966H73.6972V45.2655H66.3526V34.9831H73.6972ZM74.8653 34.9831H76.3342V43.0622H77.8031V39.3899H79.2721V43.0622H80.741V34.9831H82.2099V43.7966H81.4754V44.5311H80.741V45.2655H79.2721V44.5311H77.8031V45.2655H76.3342V44.5311H75.5998V43.7966H74.8653V34.9831ZM90.7226 34.9831V36.452H84.8469V39.3899H89.2537V40.8588H84.8469V43.7966H90.7226V45.2655H83.378V34.9831H90.7226ZM95.563 44.5311V45.2655H94.094V44.5311H94.8285V43.7966H95.563V43.0622H96.2974V35.7176H95.563V34.9831H94.8285V34.2486H94.094V33.5142H95.563V34.2486H96.2974V34.9831H97.0319V35.7176H97.7663V43.0622H97.0319V43.7966H96.2974V44.5311H95.563Z" fill="black"/>
<path d="M288.991 22.1865H290.46V28.0622H291.195V28.7966H291.929V25.1243H293.398V28.7966H294.133V28.0622H294.867V22.1865H296.336V28.7966H295.601V29.5311H294.867V30.2655H293.398V29.5311H291.929V30.2655H290.46V29.5311H289.726V28.7966H288.991V22.1865ZM301.911 20.7176V22.1865H300.442V20.7176H301.911ZM302.645 28.7966H303.38V30.2655H301.911V29.5311H301.176V28.7966H300.442V25.1243H298.973V23.6554H301.911V28.0622H302.645V28.7966ZM311.158 28.7966H311.892V30.2655H310.423V29.5311H309.689V28.7966H308.955V23.6554H307.486V22.1865H308.955V19.9831H310.423V22.1865H311.892V23.6554H310.423V28.0622H311.158V28.7966ZM315.998 25.8588V30.2655H314.529V19.9831H315.998V23.6554H316.733V22.9209H317.467V22.1865H319.671V22.9209H320.405V23.6554H321.14V24.3899H321.874V30.2655H320.405V25.1243H319.671V24.3899H318.936V23.6554H318.202V24.3899H317.467V25.1243H316.733V25.8588H315.998ZM328.918 23.6554V19.9831H330.387V30.2655H328.918V28.7966H328.183V29.5311H327.449V30.2655H325.245V29.5311H324.511V28.7966H323.777V28.0622H323.042V24.3899H323.777V23.6554H324.511V22.9209H325.245V22.1865H327.449V22.9209H328.183V23.6554H328.918ZM325.245 28.0622H325.98V28.7966H326.714V28.0622H327.449V27.3277H328.183V25.1243H327.449V24.3899H326.714V23.6554H325.98V24.3899H325.245V25.1243H324.511V27.3277H325.245V28.0622ZM333.024 25.8588V30.2655H331.555V22.1865H333.024V23.6554H333.758V22.9209H334.493V22.1865H337.43V22.9209H338.165V23.6554H338.899V25.1243H337.43V24.3899H336.696V23.6554H335.227V24.3899H334.493V25.1243H333.758V25.8588H333.024ZM342.271 28.7966H345.209V28.0622H345.943V26.5932H345.209V25.8588H342.271V26.5932H341.536V28.0622H342.271V28.7966ZM341.536 30.2655V29.5311H340.802V28.7966H340.067V25.8588H340.802V25.1243H341.536V24.3899H345.209V25.1243H345.943V23.6554H345.209V22.9209H341.536V21.452H345.943V22.1865H346.678V22.9209H347.412V30.2655H345.943V29.5311H345.209V30.2655H341.536ZM348.58 22.1865H350.049V28.0622H350.783V28.7966H351.518V25.1243H352.987V28.7966H353.721V28.0622H354.456V22.1865H355.925V28.7966H355.19V29.5311H354.456V30.2655H352.987V29.5311H351.518V30.2655H350.049V29.5311H349.315V28.7966H348.58V22.1865ZM276.373 44.5311H277.107V45.2655H275.638V44.5311H274.904V43.7966H274.169V43.0622H273.435V35.7176H274.169V34.9831H274.904V34.2486H275.638V33.5142H277.107V34.2486H276.373V34.9831H275.638V35.7176H274.904V43.0622H275.638V43.7966H276.373V44.5311ZM280.479 34.9831H281.948V43.0622H283.416V39.3899H284.885V43.0622H286.354V34.9831H287.823V43.7966H287.089V44.5311H286.354V45.2655H284.885V44.5311H283.416V45.2655H281.948V44.5311H281.213V43.7966H280.479V34.9831ZM296.336 34.9831V36.452H290.46V39.3899H294.867V40.8588H290.46V43.7966H296.336V45.2655H288.991V34.9831H296.336ZM297.504 34.9831H298.973V43.0622H300.442V39.3899H301.911V43.0622H303.38V34.9831H304.849V43.7966H304.114V44.5311H303.38V45.2655H301.911V44.5311H300.442V45.2655H298.973V44.5311H298.238V43.7966H297.504V34.9831ZM313.361 34.9831V36.452H307.486V39.3899H311.892V40.8588H307.486V43.7966H313.361V45.2655H306.017V34.9831H313.361ZM317.467 43.7966V42.3277H318.936V43.7966H318.202V44.5311H317.467V45.2655H315.998V44.5311H316.733V43.7966H317.467ZM335.961 43.7966H337.43V45.2655H333.024V43.7966H334.493V37.9209H333.024V36.452H333.758V35.7176H334.493V34.9831H335.961V43.7966ZM342.271 40.8588V40.1243H343.005V39.3899H343.74V38.6554H344.474V37.9209H345.943V37.1865H345.209V36.452H342.271V37.1865H341.536V40.8588H342.271ZM341.536 42.3277V43.0622H342.271V43.7966H345.209V43.0622H345.943V39.3899H345.209V40.1243H344.474V40.8588H343.74V41.5932H343.005V42.3277H341.536ZM341.536 35.7176V34.9831H345.943V35.7176H346.678V36.452H347.412V43.7966H346.678V44.5311H345.943V45.2655H341.536V44.5311H340.802V43.7966H340.067V36.452H340.802V35.7176H341.536ZM350.783 40.8588V40.1243H351.518V39.3899H352.252V38.6554H352.987V37.9209H354.456V37.1865H353.721V36.452H350.783V37.1865H350.049V40.8588H350.783ZM350.049 42.3277V43.0622H350.783V43.7966H353.721V43.0622H354.456V39.3899H353.721V40.1243H352.987V40.8588H352.252V41.5932H351.518V42.3277H350.049ZM350.049 35.7176V34.9831H354.456V35.7176H355.19V36.452H355.925V43.7966H355.19V44.5311H354.456V45.2655H350.049V44.5311H349.315V43.7966H348.58V36.452H349.315V35.7176H350.049ZM358.562 37.9209H359.296V36.452H358.562V37.9209ZM363.703 44.5311V45.2655H361.5V44.5311H360.765V41.5932H361.5V40.8588H363.703V41.5932H364.437V44.5311H363.703ZM362.234 43.7966H362.968V42.3277H362.234V43.7966ZM360.765 38.6554H361.5V37.9209H362.234V37.1865H362.968V34.9831H364.437V37.9209H363.703V38.6554H362.968V39.3899H362.234V40.1243H361.5V40.8588H360.765V41.5932H360.031V42.3277H359.296V43.0622H358.562V45.2655H357.093V42.3277H357.827V41.5932H358.562V40.8588H359.296V40.1243H360.031V39.3899H357.827V38.6554H357.093V35.7176H357.827V34.9831H360.031V35.7176H360.765V38.6554ZM360.031 39.3899H360.765V38.6554H360.031V39.3899ZM369.278 44.5311V45.2655H367.809V44.5311H368.543V43.7966H369.278V43.0622H370.012V35.7176H369.278V34.9831H368.543V34.2486H367.809V33.5142H369.278V34.2486H370.012V34.9831H370.747V35.7176H371.481V43.0622H370.747V43.7966H370.012V44.5311H369.278Z" fill="black"/>
<path d="M168.688 330.563V333.501H172.361V332.766H173.095V331.297H172.361V330.563H168.688ZM168.688 334.97V339.376H167.219V329.094H173.095V329.828H173.829V330.563H174.564V333.501H173.829V334.235H173.095V334.97H168.688ZM177.201 330.563V333.501H180.873V332.766H181.608V331.297H180.873V330.563H177.201ZM177.935 334.97H177.201V339.376H175.732V329.094H181.608V329.828H182.342V330.563H183.077V333.501H182.342V334.235H181.608V334.97H180.139V335.704H180.873V336.439H181.608V337.173H182.342V337.907H183.077V339.376H181.608V338.642H180.873V337.907H180.139V337.173H179.404V336.439H178.67V335.704H177.935V334.97ZM185.714 339.376V337.907H187.183V330.563H185.714V329.094H190.12V330.563H188.651V337.907H190.12V339.376H185.714ZM194.961 337.907H197.899V337.173H198.633V336.439H200.102V337.907H199.368V338.642H198.633V339.376H194.226V338.642H193.492V337.907H192.757V330.563H193.492V329.828H194.226V329.094H198.633V329.828H199.368V330.563H200.102V332.032H198.633V331.297H197.899V330.563H194.961V331.297H194.226V337.173H194.961V337.907ZM208.615 329.094V330.563H202.739V333.501H207.146V334.97H202.739V337.907H208.615V339.376H201.27V329.094H208.615Z" fill="black"/>
<line x1="185.972" y1="186.975" x2="185.972" y2="320.094" stroke="black" stroke-width="3.00835" stroke-dasharray="6.02 6.02"/>
<path d="M261.933 38.8101H234.857" stroke="black" stroke-width="2.25626"/>
<path d="M160.4 38.8101L171.682 45.3233L171.682 32.2968L160.4 38.8101ZM170.554 39.9382L196.501 39.9382L196.501 37.6819L170.554 37.6819L170.554 39.9382Z" fill="black"/>
<path d="M234.105 68.1413L240.619 56.86L227.592 56.86L234.105 68.1413ZM232.977 39.562L232.977 57.9881L235.234 57.9881L235.234 39.562L232.977 39.562Z" fill="black"/>
<path d="M195.749 39.562L195.749 68.1413" stroke="black" stroke-width="2.25626"/>
<path d="M185.972 119.287L179.458 130.568L192.485 130.568L185.972 119.287ZM187.1 144.106L187.1 129.44L184.844 129.44L184.844 144.106L187.1 144.106Z" fill="black"/>
<rect x="138.591" y="150.123" width="91.7546" height="29.3314" stroke="white" stroke-width="3.00835" stroke-linejoin="bevel"/>
<path d="M341.892 178.891L341.892 177L340 177L340 178.891L341.892 178.891Z" fill="#176453"/>
<path d="M341.892 181.164L341.892 179.273L340 179.273L340 181.164L341.892 181.164Z" fill="#176453"/>
<path d="M341.892 183.44L341.892 181.549L340 181.549L340 183.44L341.892 183.44Z" fill="#176453"/>
<path d="M341.892 185.716L341.892 183.826L340 183.826L340 185.716L341.892 185.716Z" fill="#176453"/>
<path d="M344.138 178.891L344.138 177L342.246 177L342.246 178.891L344.138 178.891Z" fill="#176453"/>
<path d="M344.138 183.44L344.138 181.549L342.246 181.549L342.246 183.44L344.138 183.44Z" fill="#176453"/>
<path d="M344.138 185.716L344.138 183.826L342.246 183.826L342.246 185.716L344.138 185.716Z" fill="#176453"/>
<path d="M346.386 178.891L346.386 177L344.494 177L344.494 178.891L346.386 178.891Z" fill="#176453"/>
<path d="M346.386 181.164L346.386 179.273L344.494 179.273L344.494 181.164L346.386 181.164Z" fill="#176453"/>
<path d="M346.386 183.44L346.386 181.549L344.494 181.549L344.494 183.44L346.386 183.44Z" fill="#176453"/>
<path d="M341.892 188.091L341.892 186.201L340 186.201L340 188.091L341.892 188.091Z" fill="#176453"/>
<path d="M341.892 192.641L341.892 190.75L340 190.75L340 192.641L341.892 192.641Z" fill="#176453"/>
<path d="M341.892 194.917L341.892 193.026L340 193.026L340 194.917L341.892 194.917Z" fill="#176453"/>
<path d="M341.892 199.47L341.892 197.579L340 197.579L340 199.47L341.892 199.47Z" fill="#176453"/>
<path d="M341.892 208.571L341.892 206.681L340 206.681L340 208.571L341.892 208.571Z" fill="#176453"/>
<path d="M344.138 188.091L344.138 186.201L342.246 186.201L342.246 188.091L344.138 188.091Z" fill="#176453"/>
<path d="M344.138 190.365L344.138 188.474L342.246 188.474L342.246 190.365L344.138 190.365Z" fill="#176453"/>
<path d="M344.138 194.917L344.138 193.026L342.246 193.026L342.246 194.917L344.138 194.917Z" fill="#176453"/>
<path d="M344.138 197.193L344.138 195.303L342.246 195.303L342.246 197.193L344.138 197.193Z" fill="#176453"/>
<path d="M344.138 199.47L344.138 197.579L342.246 197.579L342.246 199.47L344.138 199.47Z" fill="#176453"/>
<path d="M344.138 201.743L344.138 199.853L342.246 199.853L342.246 201.743L344.138 201.743Z" fill="#176453"/>
<path d="M344.138 206.295L344.138 204.405L342.246 204.405L342.246 206.295L344.138 206.295Z" fill="#176453"/>
<path d="M346.386 188.091L346.386 186.201L344.494 186.201L344.494 188.091L346.386 188.091Z" fill="#176453"/>
<path d="M346.386 190.365L346.386 188.474L344.494 188.474L344.494 190.365L346.386 190.365Z" fill="#176453"/>
<path d="M346.386 192.641L346.386 190.75L344.494 190.75L344.494 192.641L346.386 192.641Z" fill="#176453"/>
<path d="M346.386 194.917L346.386 193.026L344.494 193.026L344.494 194.917L346.386 194.917Z" fill="#176453"/>
<path d="M346.386 197.193L346.386 195.303L344.494 195.303L344.494 197.193L346.386 197.193Z" fill="#176453"/>
<path d="M348.655 197.193L348.655 195.303L346.763 195.303L346.763 197.193L348.655 197.193Z" fill="#176453"/>
<path d="M346.386 201.743L346.386 199.853L344.494 199.853L344.494 201.743L346.386 201.743Z" fill="#176453"/>
<path d="M346.386 204.019L346.386 202.128L344.494 202.128L344.494 204.019L346.386 204.019Z" fill="#176453"/>
<path d="M346.386 208.571L346.386 206.681L344.494 206.681L344.494 208.571L346.386 208.571Z" fill="#176453"/>
<path d="M341.892 213.22L341.892 211.33L340 211.33L340 213.22L341.892 213.22Z" fill="#176453"/>
<path d="M344.138 210.944L344.138 209.053L342.246 209.053L342.246 210.944L344.138 210.944Z" fill="#176453"/>
<path d="M344.138 217.772L344.138 215.882L342.246 215.882L342.246 217.772L344.138 217.772Z" fill="#176453"/>
<path d="M344.138 224.598L344.138 222.708L342.246 222.708L342.246 224.598L344.138 224.598Z" fill="#176453"/>
<path d="M346.386 215.496L346.386 213.605L344.494 213.605L344.494 215.496L346.386 215.496Z" fill="#176453"/>
<path d="M346.386 222.322L346.386 220.431L344.494 220.431L344.494 222.322L346.386 222.322Z" fill="#176453"/>
<path d="M346.386 226.968L346.386 225.077L344.494 225.077L344.494 226.968L346.386 226.968Z" fill="#176453"/>
<path d="M348.655 178.891L348.655 177L346.763 177L346.763 178.891L348.655 178.891Z" fill="#176453"/>
<path d="M348.655 181.164L348.655 179.273L346.763 179.273L346.763 181.164L348.655 181.164Z" fill="#176453"/>
<path d="M348.655 183.44L348.655 181.549L346.763 181.549L346.763 183.44L348.655 183.44Z" fill="#176453"/>
<path d="M348.655 185.716L348.655 183.826L346.763 183.826L346.763 185.716L348.655 185.716Z" fill="#176453"/>
<path d="M350.904 178.891L350.904 177L349.012 177L349.012 178.891L350.904 178.891Z" fill="#176453"/>
<path d="M350.904 183.44L350.904 181.549L349.012 181.549L349.012 183.44L350.904 183.44Z" fill="#176453"/>
<path d="M350.904 185.716L350.904 183.826L349.012 183.826L349.012 185.716L350.904 185.716Z" fill="#176453"/>
<path d="M353.152 178.891L353.152 177L351.26 177L351.26 178.891L353.152 178.891Z" fill="#176453"/>
<path d="M353.152 181.164L353.152 179.273L351.26 179.273L351.26 181.164L353.152 181.164Z" fill="#176453"/>
<path d="M353.152 183.44L353.152 181.55L351.26 181.55L351.26 183.44L353.152 183.44Z" fill="#176453"/>
<path d="M348.655 188.091L348.655 186.201L346.763 186.201L346.763 188.091L348.655 188.091Z" fill="#176453"/>
<path d="M348.655 192.641L348.655 190.75L346.763 190.75L346.763 192.641L348.655 192.641Z" fill="#176453"/>
<path d="M348.655 194.917L348.655 193.026L346.763 193.026L346.763 194.917L348.655 194.917Z" fill="#176453"/>
<path d="M348.655 199.47L348.655 197.579L346.763 197.579L346.763 199.47L348.655 199.47Z" fill="#176453"/>
<path d="M348.655 208.571L348.655 206.681L346.763 206.681L346.763 208.571L348.655 208.571Z" fill="#176453"/>
<path d="M350.904 188.091L350.904 186.201L349.012 186.201L349.012 188.091L350.904 188.091Z" fill="#176453"/>
<path d="M350.904 190.365L350.904 188.474L349.012 188.474L349.012 190.365L350.904 190.365Z" fill="#176453"/>
<path d="M350.904 194.917L350.904 193.026L349.012 193.026L349.012 194.917L350.904 194.917Z" fill="#176453"/>
<path d="M350.904 197.193L350.904 195.303L349.012 195.303L349.012 197.193L350.904 197.193Z" fill="#176453"/>
<path d="M350.904 199.47L350.904 197.579L349.012 197.579L349.012 199.47L350.904 199.47Z" fill="#176453"/>
<path d="M350.904 201.743L350.904 199.853L349.012 199.853L349.012 201.743L350.904 201.743Z" fill="#176453"/>
<path d="M350.904 206.295L350.904 204.405L349.012 204.405L349.012 206.295L350.904 206.295Z" fill="#176453"/>
<path d="M353.152 188.092L353.152 186.201L351.26 186.201L351.26 188.092L353.152 188.092Z" fill="#176453"/>
<path d="M353.152 192.641L353.152 190.75L351.26 190.75L351.26 192.641L353.152 192.641Z" fill="#176453"/>
<path d="M353.152 194.917L353.152 193.026L351.26 193.026L351.26 194.917L353.152 194.917Z" fill="#176453"/>
<path d="M353.152 197.193L353.152 195.303L351.26 195.303L351.26 197.193L353.152 197.193Z" fill="#176453"/>
<path d="M353.152 199.47L353.152 197.579L351.26 197.579L351.26 199.47L353.152 199.47Z" fill="#176453"/>
<path d="M353.152 201.743L353.152 199.853L351.26 199.853L351.26 201.743L353.152 201.743Z" fill="#176453"/>
<path d="M353.152 204.019L353.152 202.128L351.26 202.128L351.26 204.019L353.152 204.019Z" fill="#176453"/>
<path d="M353.152 208.571L353.152 206.681L351.26 206.681L351.26 208.571L353.152 208.571Z" fill="#176453"/>
<path d="M348.655 213.22L348.655 211.33L346.763 211.33L346.763 213.22L348.655 213.22Z" fill="#176453"/>
<path d="M348.655 230.516L348.655 228.625L346.763 228.625L346.763 230.516L348.655 230.516Z" fill="#176453"/>
<path d="M350.904 210.944L350.904 209.053L349.012 209.053L349.012 210.944L350.904 210.944Z" fill="#176453"/>
<path d="M350.904 217.772L350.904 215.882L349.012 215.882L349.012 217.772L350.904 217.772Z" fill="#176453"/>
<path d="M350.904 224.598L350.904 222.708L349.012 222.708L349.012 224.598L350.904 224.598Z" fill="#176453"/>
<path d="M353.152 215.496L353.152 213.605L351.26 213.605L351.26 215.496L353.152 215.496Z" fill="#176453"/>
<path d="M353.152 222.322L353.152 220.431L351.26 220.431L351.26 222.322L353.152 222.322Z" fill="#176453"/>
<path d="M16.8916 292.891L16.8916 291L14.9996 291L14.9996 292.891L16.8916 292.891Z" fill="#176453"/>
<path d="M16.8916 295.164L16.8916 293.273L14.9996 293.273L14.9996 295.164L16.8916 295.164Z" fill="#176453"/>
<path d="M16.8916 297.44L16.8916 295.549L14.9996 295.549L14.9996 297.44L16.8916 297.44Z" fill="#176453"/>
<path d="M16.8916 299.716L16.8916 297.826L14.9996 297.826L14.9996 299.716L16.8916 299.716Z" fill="#176453"/>
<path d="M19.1377 292.891L19.1377 291L17.2457 291L17.2457 292.891L19.1377 292.891Z" fill="#176453"/>
<path d="M19.1377 297.44L19.1377 295.549L17.2457 295.549L17.2457 297.44L19.1377 297.44Z" fill="#176453"/>
<path d="M19.1377 299.716L19.1377 297.826L17.2457 297.826L17.2457 299.716L19.1377 299.716Z" fill="#176453"/>
<path d="M21.3857 292.891L21.3857 291L19.4937 291L19.4937 292.891L21.3857 292.891Z" fill="#176453"/>
<path d="M21.3857 295.164L21.3857 293.273L19.4937 293.273L19.4937 295.164L21.3857 295.164Z" fill="#176453"/>
<path d="M21.3857 297.44L21.3857 295.549L19.4937 295.549L19.4937 297.44L21.3857 297.44Z" fill="#176453"/>
<path d="M16.8916 302.091L16.8916 300.201L14.9996 300.201L14.9996 302.091L16.8916 302.091Z" fill="#176453"/>
<path d="M16.8916 306.641L16.8916 304.75L14.9996 304.75L14.9996 306.641L16.8916 306.641Z" fill="#176453"/>
<path d="M16.8916 308.917L16.8916 307.026L14.9996 307.026L14.9996 308.917L16.8916 308.917Z" fill="#176453"/>
<path d="M16.8916 313.47L16.8916 311.579L14.9996 311.579L14.9996 313.47L16.8916 313.47Z" fill="#176453"/>
<path d="M16.8916 322.571L16.8916 320.681L14.9996 320.681L14.9996 322.571L16.8916 322.571Z" fill="#176453"/>
<path d="M19.1377 302.091L19.1377 300.201L17.2457 300.201L17.2457 302.091L19.1377 302.091Z" fill="#176453"/>
<path d="M19.1377 304.365L19.1377 302.474L17.2457 302.474L17.2457 304.365L19.1377 304.365Z" fill="#176453"/>
<path d="M19.1377 308.917L19.1377 307.026L17.2457 307.026L17.2457 308.917L19.1377 308.917Z" fill="#176453"/>
<path d="M19.1377 311.193L19.1377 309.303L17.2457 309.303L17.2457 311.193L19.1377 311.193Z" fill="#176453"/>
<path d="M19.1377 313.47L19.1377 311.579L17.2457 311.579L17.2457 313.47L19.1377 313.47Z" fill="#176453"/>
<path d="M19.1377 315.743L19.1377 313.853L17.2457 313.853L17.2457 315.743L19.1377 315.743Z" fill="#176453"/>
<path d="M19.1377 320.295L19.1377 318.405L17.2457 318.405L17.2457 320.295L19.1377 320.295Z" fill="#176453"/>
<path d="M21.3857 302.091L21.3857 300.201L19.4937 300.201L19.4937 302.091L21.3857 302.091Z" fill="#176453"/>
<path d="M21.3857 304.365L21.3857 302.474L19.4937 302.474L19.4937 304.365L21.3857 304.365Z" fill="#176453"/>
<path d="M21.3857 306.641L21.3857 304.75L19.4937 304.75L19.4937 306.641L21.3857 306.641Z" fill="#176453"/>
<path d="M21.3857 308.917L21.3857 307.026L19.4937 307.026L19.4937 308.917L21.3857 308.917Z" fill="#176453"/>
<path d="M21.3857 311.193L21.3857 309.303L19.4937 309.303L19.4937 311.193L21.3857 311.193Z" fill="#176453"/>
<path d="M23.6553 311.193L23.6553 309.303L21.7633 309.303L21.7633 311.193L23.6553 311.193Z" fill="#176453"/>
<path d="M21.3857 315.743L21.3857 313.853L19.4937 313.853L19.4937 315.743L21.3857 315.743Z" fill="#176453"/>
<path d="M21.3857 318.019L21.3857 316.128L19.4937 316.128L19.4937 318.019L21.3857 318.019Z" fill="#176453"/>
<path d="M21.3857 322.571L21.3857 320.681L19.4937 320.681L19.4937 322.571L21.3857 322.571Z" fill="#176453"/>
<path d="M16.8916 327.22L16.8916 325.33L14.9996 325.33L14.9996 327.22L16.8916 327.22Z" fill="#176453"/>
<path d="M19.1377 324.944L19.1377 323.053L17.2457 323.053L17.2457 324.944L19.1377 324.944Z" fill="#176453"/>
<path d="M19.1377 331.772L19.1377 329.882L17.2457 329.882L17.2457 331.772L19.1377 331.772Z" fill="#176453"/>
<path d="M19.1377 338.598L19.1377 336.708L17.2457 336.708L17.2457 338.598L19.1377 338.598Z" fill="#176453"/>
<path d="M21.3857 329.496L21.3857 327.605L19.4937 327.605L19.4937 329.496L21.3857 329.496Z" fill="#176453"/>
<path d="M21.3857 336.322L21.3857 334.431L19.4937 334.431L19.4937 336.322L21.3857 336.322Z" fill="#176453"/>
<path d="M21.3857 340.968L21.3857 339.077L19.4937 339.077L19.4937 340.968L21.3857 340.968Z" fill="#176453"/>
<path d="M23.6553 292.891L23.6553 291L21.7633 291L21.7633 292.891L23.6553 292.891Z" fill="#176453"/>
<path d="M23.6553 295.164L23.6553 293.273L21.7633 293.273L21.7633 295.164L23.6553 295.164Z" fill="#176453"/>
<path d="M23.6553 297.44L23.6553 295.549L21.7633 295.549L21.7633 297.44L23.6553 297.44Z" fill="#176453"/>
<path d="M23.6553 299.716L23.6553 297.826L21.7633 297.826L21.7633 299.716L23.6553 299.716Z" fill="#176453"/>
<path d="M25.9043 292.891L25.9043 291L24.0123 291L24.0123 292.891L25.9043 292.891Z" fill="#176453"/>
<path d="M25.9043 297.44L25.9043 295.549L24.0123 295.549L24.0123 297.44L25.9043 297.44Z" fill="#176453"/>
<path d="M25.9043 299.716L25.9043 297.826L24.0123 297.826L24.0123 299.716L25.9043 299.716Z" fill="#176453"/>
<path d="M28.1523 292.891L28.1523 291L26.2604 291L26.2604 292.891L28.1523 292.891Z" fill="#176453"/>
<path d="M28.1523 295.164L28.1523 293.273L26.2604 293.273L26.2604 295.164L28.1523 295.164Z" fill="#176453"/>
<path d="M28.1523 297.44L28.1523 295.55L26.2604 295.55L26.2604 297.44L28.1523 297.44Z" fill="#176453"/>
<path d="M23.6553 302.091L23.6553 300.201L21.7633 300.201L21.7633 302.091L23.6553 302.091Z" fill="#176453"/>
<path d="M23.6553 306.641L23.6553 304.75L21.7633 304.75L21.7633 306.641L23.6553 306.641Z" fill="#176453"/>
<path d="M23.6553 308.917L23.6553 307.026L21.7633 307.026L21.7633 308.917L23.6553 308.917Z" fill="#176453"/>
<path d="M23.6553 313.47L23.6553 311.579L21.7633 311.579L21.7633 313.47L23.6553 313.47Z" fill="#176453"/>
<path d="M23.6553 322.571L23.6553 320.681L21.7633 320.681L21.7633 322.571L23.6553 322.571Z" fill="#176453"/>
<path d="M25.9043 302.091L25.9043 300.201L24.0123 300.201L24.0123 302.091L25.9043 302.091Z" fill="#176453"/>
<path d="M25.9043 304.365L25.9043 302.474L24.0123 302.474L24.0123 304.365L25.9043 304.365Z" fill="#176453"/>
<path d="M25.9043 308.917L25.9043 307.026L24.0123 307.026L24.0123 308.917L25.9043 308.917Z" fill="#176453"/>
<path d="M25.9043 311.193L25.9043 309.303L24.0123 309.303L24.0123 311.193L25.9043 311.193Z" fill="#176453"/>
<path d="M25.9043 313.47L25.9043 311.579L24.0123 311.579L24.0123 313.47L25.9043 313.47Z" fill="#176453"/>
<path d="M25.9043 315.743L25.9043 313.853L24.0123 313.853L24.0123 315.743L25.9043 315.743Z" fill="#176453"/>
<path d="M25.9043 320.295L25.9043 318.405L24.0123 318.405L24.0123 320.295L25.9043 320.295Z" fill="#176453"/>
<path d="M28.1523 302.092L28.1523 300.201L26.2604 300.201L26.2604 302.092L28.1523 302.092Z" fill="#176453"/>
<path d="M28.1523 306.641L28.1523 304.75L26.2604 304.75L26.2604 306.641L28.1523 306.641Z" fill="#176453"/>
<path d="M28.1523 308.917L28.1523 307.026L26.2604 307.026L26.2604 308.917L28.1523 308.917Z" fill="#176453"/>
<path d="M28.1523 311.193L28.1523 309.303L26.2604 309.303L26.2604 311.193L28.1523 311.193Z" fill="#176453"/>
<path d="M28.1523 313.47L28.1523 311.579L26.2604 311.579L26.2604 313.47L28.1523 313.47Z" fill="#176453"/>
<path d="M28.1523 315.743L28.1523 313.853L26.2604 313.853L26.2604 315.743L28.1523 315.743Z" fill="#176453"/>
<path d="M28.1523 318.019L28.1523 316.128L26.2604 316.128L26.2604 318.019L28.1523 318.019Z" fill="#176453"/>
<path d="M28.1523 322.571L28.1523 320.681L26.2604 320.681L26.2604 322.571L28.1523 322.571Z" fill="#176453"/>
<path d="M23.6553 327.22L23.6553 325.33L21.7633 325.33L21.7633 327.22L23.6553 327.22Z" fill="#176453"/>
<path d="M23.6553 344.516L23.6553 342.625L21.7633 342.625L21.7633 344.516L23.6553 344.516Z" fill="#176453"/>
<path d="M25.9043 324.944L25.9043 323.053L24.0123 323.053L24.0123 324.944L25.9043 324.944Z" fill="#176453"/>
<path d="M25.9043 331.772L25.9043 329.882L24.0123 329.882L24.0123 331.772L25.9043 331.772Z" fill="#176453"/>
<path d="M25.9043 338.598L25.9043 336.708L24.0123 336.708L24.0123 338.598L25.9043 338.598Z" fill="#176453"/>
<path d="M28.1523 329.496L28.1523 327.605L26.2604 327.605L26.2604 329.496L28.1523 329.496Z" fill="#176453"/>
<path d="M28.1523 336.322L28.1523 334.431L26.2604 334.431L26.2604 336.322L28.1523 336.322Z" fill="#176453"/>
</svg>
