<svg width="390" height="406" viewBox="0 0 390 406" fill="none" xmlns="http://www.w3.org/2000/svg">
<rect y="8" width="390" height="375" fill="#33E6BF"/>
<path d="M336.177 0.0140993L333.639 0.0140991L333.639 16.3019L336.177 16.3019L336.177 0.0140993Z" fill="#176453"/>
<path d="M339.236 0.0140993L336.697 0.0140991L336.697 16.3019L339.236 16.3019L339.236 0.0140993Z" fill="#176453"/>
<path d="M342.29 0.0140993L339.752 0.0140991L339.752 16.3019L342.29 16.3019L342.29 0.0140993Z" fill="#176453"/>
<path d="M348.401 0.0140993L345.862 0.0140991L345.862 16.3019L348.401 16.3019L348.401 0.0140993Z" fill="#176453"/>
<path d="M351.456 0.0140993L348.917 0.0140991L348.917 16.3019L351.456 16.3019L351.456 0.0140993Z" fill="#176453"/>
<path d="M357.569 0.0140993L355.03 0.0140991L355.03 16.3019L357.569 16.3019L357.569 0.0140993Z" fill="#176453"/>
<path d="M360.624 0.0140993L358.086 0.0140991L358.086 16.3019L360.624 16.3019L360.624 0.0140993Z" fill="#176453"/>
<path d="M363.679 0.0140993L361.141 0.0140991L361.141 16.3019L363.679 16.3019L363.679 0.0140993Z" fill="#176453"/>
<path d="M366.734 0.0140993L364.195 0.0140991L364.195 16.3019L366.734 16.3019L366.734 0.0140993Z" fill="#176453"/>
<path d="M369.789 0.0140993L367.251 0.0140991L367.251 16.3019L369.789 16.3019L369.789 0.0140993Z" fill="#176453"/>
<path d="M336.177 19.3606L333.639 19.3606L333.639 35.648L336.177 35.648L336.177 19.3606Z" fill="#176453"/>
<path d="M339.236 19.3606L336.697 19.3606L336.697 35.648L339.236 35.648L339.236 19.3606Z" fill="#176453"/>
<path d="M342.29 19.3606L339.752 19.3606L339.752 35.648L342.29 35.648L342.29 19.3606Z" fill="#176453"/>
<path d="M345.346 19.3606L342.808 19.3606L342.808 35.648L345.346 35.648L345.346 19.3606Z" fill="#176453"/>
<path d="M351.456 19.3606L348.917 19.3606L348.917 35.648L351.456 35.648L351.456 19.3606Z" fill="#176453"/>
<path d="M354.514 19.3606L351.976 19.3606L351.976 35.648L354.514 35.648L354.514 19.3606Z" fill="#176453"/>
<path d="M357.569 19.3606L355.03 19.3606L355.03 35.648L357.569 35.648L357.569 19.3606Z" fill="#176453"/>
<path d="M360.623 19.3606L358.085 19.3606L358.085 35.648L360.623 35.648L360.623 19.3606Z" fill="#176453"/>
<path d="M366.734 19.3606L364.195 19.3606L364.195 35.648L366.734 35.648L366.734 19.3606Z" fill="#176453"/>
<path d="M369.789 19.3606L367.25 19.3606L367.25 35.648L369.789 35.648L369.789 19.3606Z" fill="#176453"/>
<path d="M336.177 38.7052L333.639 38.7052L333.639 54.9927L336.177 54.9927L336.177 38.7052Z" fill="#176453"/>
<path d="M339.236 38.7052L336.697 38.7052L336.697 54.9927L339.236 54.9927L339.236 38.7052Z" fill="#176453"/>
<path d="M342.29 38.7052L339.752 38.7052L339.752 54.9927L342.29 54.9927L342.29 38.7052Z" fill="#176453"/>
<path d="M345.346 38.7052L342.808 38.7052L342.808 54.9927L345.346 54.9927L345.346 38.7052Z" fill="#176453"/>
<path d="M348.401 38.7052L345.862 38.7052L345.862 54.9927L348.401 54.9927L348.401 38.7052Z" fill="#176453"/>
<path d="M351.456 38.7052L348.917 38.7052L348.917 54.9927L351.456 54.9927L351.456 38.7052Z" fill="#176453"/>
<path d="M354.514 38.7052L351.976 38.7052L351.976 54.9927L354.514 54.9927L354.514 38.7052Z" fill="#176453"/>
<path d="M357.569 38.7052L355.03 38.7052L355.03 54.9927L357.569 54.9927L357.569 38.7052Z" fill="#176453"/>
<path d="M360.623 38.7052L358.085 38.7052L358.085 54.9927L360.623 54.9927L360.623 38.7052Z" fill="#176453"/>
<path d="M363.679 38.7052L361.141 38.7052L361.141 54.9927L363.679 54.9927L363.679 38.7052Z" fill="#176453"/>
<path d="M366.734 38.7052L364.195 38.7052L364.195 54.9927L366.734 54.9927L366.734 38.7052Z" fill="#176453"/>
<path d="M372.979 0.0140993L370.44 0.0140991L370.44 16.3019L372.979 16.3019L372.979 0.0140993Z" fill="#176453"/>
<path d="M379.089 0.0140993L376.551 0.0140991L376.551 16.3019L379.089 16.3019L379.089 0.0140993Z" fill="#176453"/>
<path d="M382.144 0.0140993L379.605 0.0140991L379.605 16.3019L382.144 16.3019L382.144 0.0140993Z" fill="#176453"/>
<path d="M388.257 0.0140993L385.719 0.0140991L385.719 16.3019L388.257 16.3019L388.257 0.0140993Z" fill="#176453"/>
<path d="M372.979 19.3606L370.44 19.3606L370.44 35.648L372.979 35.648L372.979 19.3606Z" fill="#176453"/>
<path d="M376.034 19.3606L373.495 19.3606L373.495 35.648L376.034 35.648L376.034 19.3606Z" fill="#176453"/>
<path d="M382.143 19.3606L379.604 19.3606L379.604 35.648L382.143 35.648L382.143 19.3606Z" fill="#176453"/>
<path d="M385.203 19.3606L382.664 19.3606L382.664 35.648L385.203 35.648L385.203 19.3606Z" fill="#176453"/>
<path d="M388.257 19.3606L385.719 19.3606L385.719 35.648L388.257 35.648L388.257 19.3606Z" fill="#176453"/>
<path d="M391.312 19.3606L388.773 19.3606L388.773 35.648L391.312 35.648L391.312 19.3606Z" fill="#176453"/>
<path d="M372.979 38.7052L370.44 38.7052L370.44 54.9927L372.979 54.9927L372.979 38.7052Z" fill="#176453"/>
<path d="M379.088 38.7052L376.55 38.7052L376.55 54.9927L379.088 54.9927L379.088 38.7052Z" fill="#176453"/>
<path d="M382.143 38.7052L379.604 38.7052L379.604 54.9927L382.143 54.9927L382.143 38.7052Z" fill="#176453"/>
<path d="M385.203 38.7052L382.664 38.7052L382.664 54.9927L385.203 54.9927L385.203 38.7052Z" fill="#176453"/>
<path d="M391.312 38.7052L388.773 38.7052L388.773 54.9927L391.312 54.9927L391.312 38.7052Z" fill="#176453"/>
<path d="M330.824 16.2878L333.362 16.2878L333.362 4.00543e-05L330.824 3.98324e-05L330.824 16.2878Z" fill="#176453"/>
<path d="M327.767 16.2878L330.306 16.2878L330.306 4.00543e-05L327.767 3.98324e-05L327.767 16.2878Z" fill="#176453"/>
<path d="M324.711 16.2878L327.25 16.2878L327.25 4.00543e-05L324.711 3.98324e-05L324.711 16.2878Z" fill="#176453"/>
<path d="M318.598 16.2878L321.137 16.2878L321.137 4.00543e-05L318.598 3.98324e-05L318.598 16.2878Z" fill="#176453"/>
<path d="M315.546 16.2878L318.085 16.2878L318.085 4.00543e-05L315.546 3.98324e-05L315.546 16.2878Z" fill="#176453"/>
<path d="M309.433 16.2878L311.972 16.2878L311.972 4.00543e-05L309.433 3.98324e-05L309.433 16.2878Z" fill="#176453"/>
<path d="M306.377 16.2878L308.916 16.2878L308.916 4.00543e-05L306.378 3.98324e-05L306.377 16.2878Z" fill="#176453"/>
<path d="M303.321 16.2878L305.859 16.2878L305.859 4.00543e-05L303.321 3.98324e-05L303.321 16.2878Z" fill="#176453"/>
<path d="M300.264 16.2878L302.803 16.2878L302.803 4.00543e-05L300.264 3.98324e-05L300.264 16.2878Z" fill="#176453"/>
<path d="M297.212 16.2878L299.751 16.2878L299.751 4.00543e-05L297.212 3.98324e-05L297.212 16.2878Z" fill="#176453"/>
<path d="M330.824 35.6439L333.362 35.6439L333.362 19.3565L330.824 19.3565L330.824 35.6439Z" fill="#176453"/>
<path d="M327.767 35.6439L330.306 35.6439L330.306 19.3565L327.767 19.3565L327.767 35.6439Z" fill="#176453"/>
<path d="M324.711 35.6439L327.25 35.6439L327.25 19.3565L324.711 19.3565L324.711 35.6439Z" fill="#176453"/>
<path d="M321.655 35.6439L324.193 35.6439L324.193 19.3565L321.655 19.3565L321.655 35.6439Z" fill="#176453"/>
<path d="M315.546 35.6439L318.085 35.6439L318.085 19.3565L315.546 19.3565L315.546 35.6439Z" fill="#176453"/>
<path d="M312.49 35.6439L315.028 35.6439L315.028 19.3565L312.49 19.3565L312.49 35.6439Z" fill="#176453"/>
<path d="M309.433 35.6439L311.972 35.6439L311.972 19.3565L309.433 19.3565L309.433 35.6439Z" fill="#176453"/>
<path d="M306.377 35.6439L308.916 35.6439L308.916 19.3565L306.378 19.3565L306.377 35.6439Z" fill="#176453"/>
<path d="M300.264 35.6439L302.803 35.6439L302.803 19.3565L300.264 19.3565L300.264 35.6439Z" fill="#176453"/>
<path d="M297.212 35.6439L299.751 35.6439L299.751 19.3565L297.212 19.3565L297.212 35.6439Z" fill="#176453"/>
<path d="M330.824 55L333.362 55L333.362 38.7125L330.824 38.7125L330.824 55Z" fill="#176453"/>
<path d="M327.768 55L330.307 55L330.307 38.7125L327.768 38.7125L327.768 55Z" fill="#176453"/>
<path d="M324.711 55L327.25 55L327.25 38.7125L324.711 38.7125L324.711 55Z" fill="#176453"/>
<path d="M321.655 55L324.193 55L324.193 38.7125L321.655 38.7125L321.655 55Z" fill="#176453"/>
<path d="M318.599 55L321.138 55L321.138 38.7125L318.599 38.7125L318.599 55Z" fill="#176453"/>
<path d="M315.546 55L318.085 55L318.085 38.7125L315.546 38.7125L315.546 55Z" fill="#176453"/>
<path d="M312.49 55L315.028 55L315.028 38.7125L312.49 38.7125L312.49 55Z" fill="#176453"/>
<path d="M309.434 55L311.973 55L311.973 38.7125L309.434 38.7125L309.434 55Z" fill="#176453"/>
<path d="M306.377 55L308.916 55L308.916 38.7125L306.378 38.7125L306.377 55Z" fill="#176453"/>
<path d="M303.321 55L305.859 55L305.859 38.7125L303.321 38.7125L303.321 55Z" fill="#176453"/>
<path d="M300.265 55L302.804 55L302.804 38.7125L300.265 38.7125L300.265 55Z" fill="#176453"/>
<path d="M294.023 16.2878L296.562 16.2878L296.562 4.00543e-05L294.023 3.98324e-05L294.023 16.2878Z" fill="#176453"/>
<path d="M287.914 16.2878L290.452 16.2878L290.452 4.00543e-05L287.914 3.98324e-05L287.914 16.2878Z" fill="#176453"/>
<path d="M284.858 16.2878L287.396 16.2878L287.396 4.00543e-05L284.858 3.98324e-05L284.858 16.2878Z" fill="#176453"/>
<path d="M278.745 16.2878L281.283 16.2878L281.283 4.00543e-05L278.745 3.98324e-05L278.745 16.2878Z" fill="#176453"/>
<path d="M266.523 16.2878L269.062 16.2878L269.062 4.00543e-05L266.523 3.98324e-05L266.523 16.2878Z" fill="#176453"/>
<path d="M294.023 35.6439L296.562 35.6439L296.562 19.3565L294.023 19.3565L294.023 35.6439Z" fill="#176453"/>
<path d="M290.966 35.6439L293.505 35.6439L293.505 19.3565L290.966 19.3565L290.966 35.6439Z" fill="#176453"/>
<path d="M284.858 35.6439L287.396 35.6439L287.396 19.3565L284.858 19.3565L284.858 35.6439Z" fill="#176453"/>
<path d="M281.801 35.6439L284.34 35.6439L284.34 19.3565L281.801 19.3565L281.801 35.6439Z" fill="#176453"/>
<path d="M278.745 35.6439L281.283 35.6439L281.283 19.3565L278.745 19.3565L278.745 35.6439Z" fill="#176453"/>
<path d="M275.689 35.6439L278.228 35.6439L278.228 19.3565L275.689 19.3565L275.689 35.6439Z" fill="#176453"/>
<path d="M269.58 35.644L272.118 35.644L272.118 19.3565L269.58 19.3565L269.58 35.644Z" fill="#176453"/>
<path d="M294.023 55L296.562 55L296.562 38.7125L294.023 38.7125L294.023 55Z" fill="#176453"/>
<path d="M287.914 55L290.452 55L290.452 38.7125L287.914 38.7125L287.914 55Z" fill="#176453"/>
<path d="M284.858 55L287.396 55L287.396 38.7125L284.858 38.7125L284.858 55Z" fill="#176453"/>
<path d="M281.801 55L284.34 55L284.34 38.7125L281.801 38.7125L281.801 55Z" fill="#176453"/>
<path d="M275.689 55L278.228 55L278.228 38.7125L275.689 38.7125L275.689 55Z" fill="#176453"/>
<path d="M272.636 55L275.175 55L275.175 38.7125L272.636 38.7125L272.636 55Z" fill="#176453"/>
<path d="M266.523 55L269.062 55L269.062 38.7125L266.523 38.7125L266.523 55Z" fill="#176453"/>
<path d="M260.278 16.2878L262.816 16.2878L262.816 4.00543e-05L260.278 3.98324e-05L260.278 16.2878Z" fill="#176453"/>
<path d="M263.335 35.644L265.873 35.644L265.873 19.3565L263.335 19.3565L263.335 35.644Z" fill="#176453"/>
<path d="M254.169 35.644L256.707 35.644L256.707 19.3565L254.169 19.3565L254.169 35.644Z" fill="#176453"/>
<path d="M245 35.644L247.538 35.644L247.538 19.3565L245 19.3565L245 35.644Z" fill="#176453"/>
<path d="M257.225 55L259.764 55L259.764 38.7125L257.225 38.7125L257.225 55Z" fill="#176453"/>
<path d="M248.056 55L250.595 55L250.595 38.7125L248.056 38.7125L248.056 55Z" fill="#176453"/>
<path d="M176.177 338.014L173.639 338.014L173.639 354.302L176.177 354.302L176.177 338.014Z" fill="#176453"/>
<path d="M179.236 338.014L176.697 338.014L176.697 354.302L179.236 354.302L179.236 338.014Z" fill="#176453"/>
<path d="M182.29 338.014L179.752 338.014L179.752 354.302L182.29 354.302L182.29 338.014Z" fill="#176453"/>
<path d="M188.401 338.014L185.862 338.014L185.862 354.302L188.401 354.302L188.401 338.014Z" fill="#176453"/>
<path d="M191.456 338.014L188.917 338.014L188.917 354.302L191.456 354.302L191.456 338.014Z" fill="#176453"/>
<path d="M197.569 338.014L195.03 338.014L195.03 354.302L197.569 354.302L197.569 338.014Z" fill="#176453"/>
<path d="M200.624 338.014L198.086 338.014L198.086 354.302L200.624 354.302L200.624 338.014Z" fill="#176453"/>
<path d="M203.679 338.014L201.141 338.014L201.141 354.302L203.679 354.302L203.679 338.014Z" fill="#176453"/>
<path d="M206.734 338.014L204.195 338.014L204.195 354.302L206.734 354.302L206.734 338.014Z" fill="#176453"/>
<path d="M209.789 338.014L207.251 338.014L207.251 354.302L209.789 354.302L209.789 338.014Z" fill="#176453"/>
<path d="M176.177 357.361L173.639 357.361L173.639 373.648L176.177 373.648L176.177 357.361Z" fill="#176453"/>
<path d="M179.236 357.361L176.697 357.361L176.697 373.648L179.236 373.648L179.236 357.361Z" fill="#176453"/>
<path d="M182.29 357.361L179.752 357.361L179.752 373.648L182.29 373.648L182.29 357.361Z" fill="#176453"/>
<path d="M185.346 357.361L182.808 357.361L182.808 373.648L185.346 373.648L185.346 357.361Z" fill="#176453"/>
<path d="M191.456 357.361L188.917 357.361L188.917 373.648L191.456 373.648L191.456 357.361Z" fill="#176453"/>
<path d="M194.514 357.361L191.976 357.361L191.976 373.648L194.514 373.648L194.514 357.361Z" fill="#176453"/>
<path d="M197.569 357.361L195.03 357.361L195.03 373.648L197.569 373.648L197.569 357.361Z" fill="#176453"/>
<path d="M200.623 357.361L198.085 357.361L198.085 373.648L200.623 373.648L200.623 357.361Z" fill="#176453"/>
<path d="M206.734 357.361L204.195 357.361L204.195 373.648L206.734 373.648L206.734 357.361Z" fill="#176453"/>
<path d="M209.789 357.361L207.25 357.361L207.25 373.648L209.789 373.648L209.789 357.361Z" fill="#176453"/>
<path d="M176.177 376.705L173.639 376.705L173.639 392.993L176.177 392.993L176.177 376.705Z" fill="#176453"/>
<path d="M179.236 376.705L176.697 376.705L176.697 392.993L179.236 392.993L179.236 376.705Z" fill="#176453"/>
<path d="M182.29 376.705L179.752 376.705L179.752 392.993L182.29 392.993L182.29 376.705Z" fill="#176453"/>
<path d="M185.346 376.705L182.808 376.705L182.808 392.993L185.346 392.993L185.346 376.705Z" fill="#176453"/>
<path d="M188.401 376.705L185.862 376.705L185.862 392.993L188.401 392.993L188.401 376.705Z" fill="#176453"/>
<path d="M191.456 376.705L188.917 376.705L188.917 392.993L191.456 392.993L191.456 376.705Z" fill="#176453"/>
<path d="M194.514 376.705L191.976 376.705L191.976 392.993L194.514 392.993L194.514 376.705Z" fill="#176453"/>
<path d="M197.569 376.705L195.03 376.705L195.03 392.993L197.569 392.993L197.569 376.705Z" fill="#176453"/>
<path d="M200.623 376.705L198.085 376.705L198.085 392.993L200.623 392.993L200.623 376.705Z" fill="#176453"/>
<path d="M203.679 376.705L201.141 376.705L201.141 392.993L203.679 392.993L203.679 376.705Z" fill="#176453"/>
<path d="M206.734 376.705L204.195 376.705L204.195 392.993L206.734 392.993L206.734 376.705Z" fill="#176453"/>
<path d="M212.979 338.014L210.44 338.014L210.44 354.302L212.979 354.302L212.979 338.014Z" fill="#176453"/>
<path d="M219.089 338.014L216.551 338.014L216.551 354.302L219.089 354.302L219.089 338.014Z" fill="#176453"/>
<path d="M222.144 338.014L219.605 338.014L219.605 354.302L222.144 354.302L222.144 338.014Z" fill="#176453"/>
<path d="M228.257 338.014L225.719 338.014L225.719 354.302L228.257 354.302L228.257 338.014Z" fill="#176453"/>
<path d="M240.48 338.014L237.941 338.014L237.941 354.302L240.48 354.302L240.48 338.014Z" fill="#176453"/>
<path d="M212.979 357.361L210.44 357.361L210.44 373.648L212.979 373.648L212.979 357.361Z" fill="#176453"/>
<path d="M216.034 357.361L213.495 357.361L213.495 373.648L216.034 373.648L216.034 357.361Z" fill="#176453"/>
<path d="M222.143 357.361L219.604 357.361L219.604 373.648L222.143 373.648L222.143 357.361Z" fill="#176453"/>
<path d="M225.203 357.361L222.664 357.361L222.664 373.648L225.203 373.648L225.203 357.361Z" fill="#176453"/>
<path d="M228.257 357.361L225.719 357.361L225.719 373.648L228.257 373.648L228.257 357.361Z" fill="#176453"/>
<path d="M231.312 357.361L228.773 357.361L228.773 373.648L231.312 373.648L231.312 357.361Z" fill="#176453"/>
<path d="M237.421 357.361L234.883 357.361L234.883 373.648L237.421 373.648L237.421 357.361Z" fill="#176453"/>
<path d="M212.979 376.705L210.44 376.705L210.44 392.993L212.979 392.993L212.979 376.705Z" fill="#176453"/>
<path d="M219.088 376.705L216.55 376.705L216.55 392.993L219.088 392.993L219.088 376.705Z" fill="#176453"/>
<path d="M222.143 376.705L219.604 376.705L219.604 392.993L222.143 392.993L222.143 376.705Z" fill="#176453"/>
<path d="M225.203 376.705L222.664 376.705L222.664 392.993L225.203 392.993L225.203 376.705Z" fill="#176453"/>
<path d="M231.312 376.705L228.773 376.705L228.773 392.993L231.312 392.993L231.312 376.705Z" fill="#176453"/>
<path d="M234.367 376.705L231.828 376.705L231.828 392.993L234.367 392.993L234.367 376.705Z" fill="#176453"/>
<path d="M240.48 376.705L237.941 376.705L237.941 392.993L240.48 392.993L240.48 376.705Z" fill="#176453"/>
<path d="M246.722 338.014L244.184 338.014L244.184 354.302L246.722 354.302L246.722 338.014Z" fill="#176453"/>
<path d="M243.666 357.361L241.128 357.361L241.128 373.648L243.666 373.648L243.666 357.361Z" fill="#176453"/>
<path d="M252.835 357.361L250.297 357.361L250.297 373.648L252.835 373.648L252.835 357.361Z" fill="#176453"/>
<path d="M261.999 357.361L259.461 357.361L259.461 373.648L261.999 373.648L261.999 357.361Z" fill="#176453"/>
<path d="M249.777 376.705L247.238 376.705L247.238 392.993L249.777 392.993L249.777 376.705Z" fill="#176453"/>
<path d="M258.945 376.705L256.406 376.705L256.406 392.993L258.945 392.993L258.945 376.705Z" fill="#176453"/>
<path d="M170.824 354.288L173.362 354.288L173.362 338L170.824 338L170.824 354.288Z" fill="#176453"/>
<path d="M167.767 354.288L170.306 354.288L170.306 338L167.767 338L167.767 354.288Z" fill="#176453"/>
<path d="M164.711 354.288L167.25 354.288L167.25 338L164.711 338L164.711 354.288Z" fill="#176453"/>
<path d="M158.598 354.288L161.137 354.288L161.137 338L158.598 338L158.598 354.288Z" fill="#176453"/>
<path d="M155.546 354.288L158.085 354.288L158.085 338L155.546 338L155.546 354.288Z" fill="#176453"/>
<path d="M149.433 354.288L151.972 354.288L151.972 338L149.433 338L149.433 354.288Z" fill="#176453"/>
<path d="M146.377 354.288L148.916 354.288L148.916 338L146.378 338L146.377 354.288Z" fill="#176453"/>
<path d="M143.321 354.288L145.859 354.288L145.859 338L143.321 338L143.321 354.288Z" fill="#176453"/>
<path d="M140.264 354.288L142.803 354.288L142.803 338L140.264 338L140.264 354.288Z" fill="#176453"/>
<path d="M137.212 354.288L139.751 354.288L139.751 338L137.212 338L137.212 354.288Z" fill="#176453"/>
<path d="M170.824 373.644L173.362 373.644L173.362 357.356L170.824 357.356L170.824 373.644Z" fill="#176453"/>
<path d="M167.767 373.644L170.306 373.644L170.306 357.356L167.767 357.356L167.767 373.644Z" fill="#176453"/>
<path d="M164.711 373.644L167.25 373.644L167.25 357.356L164.711 357.356L164.711 373.644Z" fill="#176453"/>
<path d="M161.655 373.644L164.193 373.644L164.193 357.356L161.655 357.356L161.655 373.644Z" fill="#176453"/>
<path d="M155.546 373.644L158.085 373.644L158.085 357.356L155.546 357.356L155.546 373.644Z" fill="#176453"/>
<path d="M152.49 373.644L155.028 373.644L155.028 357.356L152.49 357.356L152.49 373.644Z" fill="#176453"/>
<path d="M149.433 373.644L151.972 373.644L151.972 357.356L149.433 357.356L149.433 373.644Z" fill="#176453"/>
<path d="M146.377 373.644L148.916 373.644L148.916 357.356L146.378 357.356L146.377 373.644Z" fill="#176453"/>
<path d="M140.264 373.644L142.803 373.644L142.803 357.356L140.264 357.356L140.264 373.644Z" fill="#176453"/>
<path d="M137.212 373.644L139.751 373.644L139.751 357.356L137.212 357.356L137.212 373.644Z" fill="#176453"/>
<path d="M170.824 393L173.362 393L173.362 376.713L170.824 376.713L170.824 393Z" fill="#176453"/>
<path d="M167.768 393L170.307 393L170.307 376.713L167.768 376.713L167.768 393Z" fill="#176453"/>
<path d="M164.711 393L167.25 393L167.25 376.713L164.711 376.713L164.711 393Z" fill="#176453"/>
<path d="M161.655 393L164.193 393L164.193 376.713L161.655 376.713L161.655 393Z" fill="#176453"/>
<path d="M158.599 393L161.138 393L161.138 376.713L158.599 376.713L158.599 393Z" fill="#176453"/>
<path d="M155.546 393L158.085 393L158.085 376.713L155.546 376.713L155.546 393Z" fill="#176453"/>
<path d="M152.49 393L155.028 393L155.028 376.713L152.49 376.713L152.49 393Z" fill="#176453"/>
<path d="M149.434 393L151.973 393L151.973 376.713L149.434 376.713L149.434 393Z" fill="#176453"/>
<path d="M146.377 393L148.916 393L148.916 376.713L146.378 376.713L146.377 393Z" fill="#176453"/>
<path d="M143.321 393L145.859 393L145.859 376.713L143.321 376.713L143.321 393Z" fill="#176453"/>
<path d="M140.265 393L142.804 393L142.804 376.713L140.265 376.713L140.265 393Z" fill="#176453"/>
<path d="M134.023 354.288L136.562 354.288L136.562 338L134.023 338L134.023 354.288Z" fill="#176453"/>
<path d="M127.914 354.288L130.452 354.288L130.452 338L127.914 338L127.914 354.288Z" fill="#176453"/>
<path d="M124.858 354.288L127.396 354.288L127.396 338L124.858 338L124.858 354.288Z" fill="#176453"/>
<path d="M118.745 354.288L121.283 354.288L121.283 338L118.745 338L118.745 354.288Z" fill="#176453"/>
<path d="M106.523 354.288L109.062 354.288L109.062 338L106.523 338L106.523 354.288Z" fill="#176453"/>
<path d="M134.023 373.644L136.562 373.644L136.562 357.356L134.023 357.356L134.023 373.644Z" fill="#176453"/>
<path d="M130.966 373.644L133.505 373.644L133.505 357.356L130.966 357.356L130.966 373.644Z" fill="#176453"/>
<path d="M124.858 373.644L127.396 373.644L127.396 357.356L124.858 357.356L124.858 373.644Z" fill="#176453"/>
<path d="M121.801 373.644L124.34 373.644L124.34 357.356L121.801 357.356L121.801 373.644Z" fill="#176453"/>
<path d="M118.745 373.644L121.283 373.644L121.283 357.356L118.745 357.356L118.745 373.644Z" fill="#176453"/>
<path d="M115.689 373.644L118.228 373.644L118.228 357.356L115.689 357.356L115.689 373.644Z" fill="#176453"/>
<path d="M109.58 373.644L112.118 373.644L112.118 357.356L109.58 357.356L109.58 373.644Z" fill="#176453"/>
<path d="M134.023 393L136.562 393L136.562 376.713L134.023 376.713L134.023 393Z" fill="#176453"/>
<path d="M127.914 393L130.452 393L130.452 376.713L127.914 376.713L127.914 393Z" fill="#176453"/>
<path d="M124.858 393L127.396 393L127.396 376.713L124.858 376.713L124.858 393Z" fill="#176453"/>
<path d="M121.801 393L124.34 393L124.34 376.713L121.801 376.713L121.801 393Z" fill="#176453"/>
<path d="M115.689 393L118.228 393L118.228 376.713L115.689 376.713L115.689 393Z" fill="#176453"/>
<path d="M112.636 393L115.175 393L115.175 376.713L112.636 376.713L112.636 393Z" fill="#176453"/>
<path d="M106.523 393L109.062 393L109.062 376.713L106.523 376.713L106.523 393Z" fill="#176453"/>
<path d="M100.278 354.288L102.816 354.288L102.816 338L100.278 338L100.278 354.288Z" fill="#176453"/>
<path d="M103.335 373.644L105.873 373.644L105.873 357.356L103.335 357.356L103.335 373.644Z" fill="#176453"/>
<path d="M94.1685 373.644L96.707 373.644L96.707 357.356L94.1685 357.356L94.1685 373.644Z" fill="#176453"/>
<path d="M84.9996 373.644L87.5381 373.644L87.5381 357.356L84.9996 357.356L84.9996 373.644Z" fill="#176453"/>
<path d="M97.2252 393L99.7637 393L99.7637 376.713L97.2252 376.713L97.2252 393Z" fill="#176453"/>
<path d="M88.0562 393L90.5947 393L90.5947 376.713L88.0562 376.713L88.0562 393Z" fill="#176453"/>
<path d="M144.5 98V96.25H142.75V92.75H141V89.25H139.25V87.5H137.5V84H135.75V80.5H134V78.75H132.25V75.25H130.5V71.75H128.75V70H127V66.5H125.25V63H123.5V61.25H116.5V63H114.75V66.5H113V70H111.25V71.75H109.5V75.25H107.75V78.75H106V80.5H104.25V84H102.5V87.5H100.75V89.25H99V92.75H97.25V96.25H95.5V98H93.75V105H95.5V106.75H97.25V108.5H142.75V106.75H144.5V105H146.25V98H144.5ZM102.5 98V94.5H104.25V92.75H106V89.25H107.75V85.75H109.5V82.25H111.25V80.5H113V77H114.75V73.5H116.5V70H118.25V68.25H121.75V70H123.5V73.5H125.25V77H127V78.75H128.75V82.25H130.5V85.75H132.25V89.25H134V91H135.75V94.5H137.5V98H139.25V101.5H137.5V103.25H102.5V101.5H100.75V98H102.5ZM121.75 92.75V94.5H123.5V98H121.75V99.75H118.25V98H116.5V94.5H118.25V92.75H121.75ZM116.5 80.5H118.25V78.75H121.75V80.5H123.5V89.25H121.75V91H118.25V89.25H116.5V80.5Z" fill="black"/>
<path d="M346.5 102V100.25H344.75V96.75H343V93.25H341.25V91.5H339.5V88H337.75V84.5H336V82.75H334.25V79.25H332.5V75.75H330.75V74H329V70.5H327.25V67H325.5V65.25H318.5V67H316.75V70.5H315V74H313.25V75.75H311.5V79.25H309.75V82.75H308V84.5H306.25V88H304.5V91.5H302.75V93.25H301V96.75H299.25V100.25H297.5V102H295.75V109H297.5V110.75H299.25V112.5H344.75V110.75H346.5V109H348.25V102H346.5ZM304.5 102V98.5H306.25V96.75H308V93.25H309.75V89.75H311.5V86.25H313.25V84.5H315V81H316.75V77.5H318.5V74H320.25V72.25H323.75V74H325.5V77.5H327.25V81H329V82.75H330.75V86.25H332.5V89.75H334.25V93.25H336V95H337.75V98.5H339.5V102H341.25V105.5H339.5V107.25H304.5V105.5H302.75V102H304.5ZM323.75 96.75V98.5H325.5V102H323.75V103.75H320.25V102H318.5V98.5H320.25V96.75H323.75ZM318.5 84.5H320.25V82.75H323.75V84.5H325.5V93.25H323.75V95H320.25V93.25H318.5V84.5Z" fill="black"/>
<path d="M382.5 146V144.25H380.75V140.75H379V137.25H377.25V135.5H375.5V132H373.75V128.5H372V126.75H370.25V123.25H368.5V119.75H366.75V118H365V114.5H363.25V111H361.5V109.25H354.5V111H352.75V114.5H351V118H349.25V119.75H347.5V123.25H345.75V126.75H344V128.5H342.25V132H340.5V135.5H338.75V137.25H337V140.75H335.25V144.25H333.5V146H331.75V153H333.5V154.75H335.25V156.5H380.75V154.75H382.5V153H384.25V146H382.5ZM340.5 146V142.5H342.25V140.75H344V137.25H345.75V133.75H347.5V130.25H349.25V128.5H351V125H352.75V121.5H354.5V118H356.25V116.25H359.75V118H361.5V121.5H363.25V125H365V126.75H366.75V130.25H368.5V133.75H370.25V137.25H372V139H373.75V142.5H375.5V146H377.25V149.5H375.5V151.25H340.5V149.5H338.75V146H340.5ZM359.75 140.75V142.5H361.5V146H359.75V147.75H356.25V146H354.5V142.5H356.25V140.75H359.75ZM354.5 128.5H356.25V126.75H359.75V128.5H361.5V137.25H359.75V139H356.25V137.25H354.5V128.5Z" fill="black"/>
<path d="M418.5 190V188.25H416.75V184.75H415V181.25H413.25V179.5H411.5V176H409.75V172.5H408V170.75H406.25V167.25H404.5V163.75H402.75V162H401V158.5H399.25V155H397.5V153.25H390.5V155H388.75V158.5H387V162H385.25V163.75H383.5V167.25H381.75V170.75H380V172.5H378.25V176H376.5V179.5H374.75V181.25H373V184.75H371.25V188.25H369.5V190H367.75V197H369.5V198.75H371.25V200.5H416.75V198.75H418.5V197H420.25V190H418.5ZM376.5 190V186.5H378.25V184.75H380V181.25H381.75V177.75H383.5V174.25H385.25V172.5H387V169H388.75V165.5H390.5V162H392.25V160.25H395.75V162H397.5V165.5H399.25V169H401V170.75H402.75V174.25H404.5V177.75H406.25V181.25H408V183H409.75V186.5H411.5V190H413.25V193.5H411.5V195.25H376.5V193.5H374.75V190H376.5ZM395.75 184.75V186.5H397.5V190H395.75V191.75H392.25V190H390.5V186.5H392.25V184.75H395.75ZM390.5 172.5H392.25V170.75H395.75V172.5H397.5V181.25H395.75V183H392.25V181.25H390.5V172.5Z" fill="black"/>
<path d="M180.5 140V138.25H178.75V134.75H177V131.25H175.25V129.5H173.5V126H171.75V122.5H170V120.75H168.25V117.25H166.5V113.75H164.75V112H163V108.5H161.25V105H159.5V103.25H152.5V105H150.75V108.5H149V112H147.25V113.75H145.5V117.25H143.75V120.75H142V122.5H140.25V126H138.5V129.5H136.75V131.25H135V134.75H133.25V138.25H131.5V140H129.75V147H131.5V148.75H133.25V150.5H178.75V148.75H180.5V147H182.25V140H180.5ZM138.5 140V136.5H140.25V134.75H142V131.25H143.75V127.75H145.5V124.25H147.25V122.5H149V119H150.75V115.5H152.5V112H154.25V110.25H157.75V112H159.5V115.5H161.25V119H163V120.75H164.75V124.25H166.5V127.75H168.25V131.25H170V133H171.75V136.5H173.5V140H175.25V143.5H173.5V145.25H138.5V143.5H136.75V140H138.5ZM157.75 134.75V136.5H159.5V140H157.75V141.75H154.25V140H152.5V136.5H154.25V134.75H157.75ZM152.5 122.5H154.25V120.75H157.75V122.5H159.5V131.25H157.75V133H154.25V131.25H152.5V122.5Z" fill="black"/>
<path d="M216.5 182V180.25H214.75V176.75H213V173.25H211.25V171.5H209.5V168H207.75V164.5H206V162.75H204.25V159.25H202.5V155.75H200.75V154H199V150.5H197.25V147H195.5V145.25H188.5V147H186.75V150.5H185V154H183.25V155.75H181.5V159.25H179.75V162.75H178V164.5H176.25V168H174.5V171.5H172.75V173.25H171V176.75H169.25V180.25H167.5V182H165.75V189H167.5V190.75H169.25V192.5H214.75V190.75H216.5V189H218.25V182H216.5ZM174.5 182V178.5H176.25V176.75H178V173.25H179.75V169.75H181.5V166.25H183.25V164.5H185V161H186.75V157.5H188.5V154H190.25V152.25H193.75V154H195.5V157.5H197.25V161H199V162.75H200.75V166.25H202.5V169.75H204.25V173.25H206V175H207.75V178.5H209.5V182H211.25V185.5H209.5V187.25H174.5V185.5H172.75V182H174.5ZM193.75 176.75V178.5H195.5V182H193.75V183.75H190.25V182H188.5V178.5H190.25V176.75H193.75ZM188.5 164.5H190.25V162.75H193.75V164.5H195.5V173.25H193.75V175H190.25V173.25H188.5V164.5Z" fill="black"/>
<path d="M252.5 224V222.25H250.75V218.75H249V215.25H247.25V213.5H245.5V210H243.75V206.5H242V204.75H240.25V201.25H238.5V197.75H236.75V196H235V192.5H233.25V189H231.5V187.25H224.5V189H222.75V192.5H221V196H219.25V197.75H217.5V201.25H215.75V204.75H214V206.5H212.25V210H210.5V213.5H208.75V215.25H207V218.75H205.25V222.25H203.5V224H201.75V231H203.5V232.75H205.25V234.5H250.75V232.75H252.5V231H254.25V224H252.5ZM210.5 224V220.5H212.25V218.75H214V215.25H215.75V211.75H217.5V208.25H219.25V206.5H221V203H222.75V199.5H224.5V196H226.25V194.25H229.75V196H231.5V199.5H233.25V203H235V204.75H236.75V208.25H238.5V211.75H240.25V215.25H242V217H243.75V220.5H245.5V224H247.25V227.5H245.5V229.25H210.5V227.5H208.75V224H210.5ZM229.75 218.75V220.5H231.5V224H229.75V225.75H226.25V224H224.5V220.5H226.25V218.75H229.75ZM224.5 206.5H226.25V204.75H229.75V206.5H231.5V215.25H229.75V217H226.25V215.25H224.5V206.5Z" fill="black"/>
<path d="M288.5 266V264.25H286.75V260.75H285V257.25H283.25V255.5H281.5V252H279.75V248.5H278V246.75H276.25V243.25H274.5V239.75H272.75V238H271V234.5H269.25V231H267.5V229.25H260.5V231H258.75V234.5H257V238H255.25V239.75H253.5V243.25H251.75V246.75H250V248.5H248.25V252H246.5V255.5H244.75V257.25H243V260.75H241.25V264.25H239.5V266H237.75V273H239.5V274.75H241.25V276.5H286.75V274.75H288.5V273H290.25V266H288.5ZM246.5 266V262.5H248.25V260.75H250V257.25H251.75V253.75H253.5V250.25H255.25V248.5H257V245H258.75V241.5H260.5V238H262.25V236.25H265.75V238H267.5V241.5H269.25V245H271V246.75H272.75V250.25H274.5V253.75H276.25V257.25H278V259H279.75V262.5H281.5V266H283.25V269.5H281.5V271.25H246.5V269.5H244.75V266H246.5ZM265.75 260.75V262.5H267.5V266H265.75V267.75H262.25V266H260.5V262.5H262.25V260.75H265.75ZM260.5 248.5H262.25V246.75H265.75V248.5H267.5V257.25H265.75V259H262.25V257.25H260.5V248.5Z" fill="black"/>
<path d="M324.5 308V306.25H322.75V302.75H321V299.25H319.25V297.5H317.5V294H315.75V290.5H314V288.75H312.25V285.25H310.5V281.75H308.75V280H307V276.5H305.25V273H303.5V271.25H296.5V273H294.75V276.5H293V280H291.25V281.75H289.5V285.25H287.75V288.75H286V290.5H284.25V294H282.5V297.5H280.75V299.25H279V302.75H277.25V306.25H275.5V308H273.75V315H275.5V316.75H277.25V318.5H322.75V316.75H324.5V315H326.25V308H324.5ZM282.5 308V304.5H284.25V302.75H286V299.25H287.75V295.75H289.5V292.25H291.25V290.5H293V287H294.75V283.5H296.5V280H298.25V278.25H301.75V280H303.5V283.5H305.25V287H307V288.75H308.75V292.25H310.5V295.75H312.25V299.25H314V301H315.75V304.5H317.5V308H319.25V311.5H317.5V313.25H282.5V311.5H280.75V308H282.5ZM301.75 302.75V304.5H303.5V308H301.75V309.75H298.25V308H296.5V304.5H298.25V302.75H301.75ZM296.5 290.5H298.25V288.75H301.75V290.5H303.5V299.25H301.75V301H298.25V299.25H296.5V290.5Z" fill="black"/>
<path d="M360.5 350V348.25H358.75V344.75H357V341.25H355.25V339.5H353.5V336H351.75V332.5H350V330.75H348.25V327.25H346.5V323.75H344.75V322H343V318.5H341.25V315H339.5V313.25H332.5V315H330.75V318.5H329V322H327.25V323.75H325.5V327.25H323.75V330.75H322V332.5H320.25V336H318.5V339.5H316.75V341.25H315V344.75H313.25V348.25H311.5V350H309.75V357H311.5V358.75H313.25V360.5H358.75V358.75H360.5V357H362.25V350H360.5ZM318.5 350V346.5H320.25V344.75H322V341.25H323.75V337.75H325.5V334.25H327.25V332.5H329V329H330.75V325.5H332.5V322H334.25V320.25H337.75V322H339.5V325.5H341.25V329H343V330.75H344.75V334.25H346.5V337.75H348.25V341.25H350V343H351.75V346.5H353.5V350H355.25V353.5H353.5V355.25H318.5V353.5H316.75V350H318.5ZM337.75 344.75V346.5H339.5V350H337.75V351.75H334.25V350H332.5V346.5H334.25V344.75H337.75ZM332.5 332.5H334.25V330.75H337.75V332.5H339.5V341.25H337.75V343H334.25V341.25H332.5V332.5Z" fill="black"/>
<path d="M396.5 392V390.25H394.75V386.75H393V383.25H391.25V381.5H389.5V378H387.75V374.5H386V372.75H384.25V369.25H382.5V365.75H380.75V364H379V360.5H377.25V357H375.5V355.25H368.5V357H366.75V360.5H365V364H363.25V365.75H361.5V369.25H359.75V372.75H358V374.5H356.25V378H354.5V381.5H352.75V383.25H351V386.75H349.25V390.25H347.5V392H345.75V399H347.5V400.75H349.25V402.5H394.75V400.75H396.5V399H398.25V392H396.5ZM354.5 392V388.5H356.25V386.75H358V383.25H359.75V379.75H361.5V376.25H363.25V374.5H365V371H366.75V367.5H368.5V364H370.25V362.25H373.75V364H375.5V367.5H377.25V371H379V372.75H380.75V376.25H382.5V379.75H384.25V383.25H386V385H387.75V388.5H389.5V392H391.25V395.5H389.5V397.25H354.5V395.5H352.75V392H354.5ZM373.75 386.75V388.5H375.5V392H373.75V393.75H370.25V392H368.5V388.5H370.25V386.75H373.75ZM368.5 374.5H370.25V372.75H373.75V374.5H375.5V383.25H373.75V385H370.25V383.25H368.5V374.5Z" fill="black"/>
<path d="M34.2148 265.956L34.2148 268.684L31.4852 268.684L31.4852 265.956L34.2148 265.956Z" fill="#000403"/>
<path d="M34.2148 262.67L34.2148 265.398L31.4852 265.398L31.4852 262.67L34.2148 262.67Z" fill="#000403"/>
<path d="M34.2148 259.388L34.2148 262.115L31.4852 262.115L31.4852 259.388L34.2148 259.388Z" fill="#000403"/>
<path d="M34.2148 252.823L34.2148 255.551L31.4852 255.551L31.4852 252.823L34.2148 252.823Z" fill="#000403"/>
<path d="M34.2148 249.541L34.2148 252.268L31.4852 252.268L31.4852 249.541L34.2148 249.541Z" fill="#000403"/>
<path d="M34.2148 242.972L34.2148 245.7L31.4852 245.7L31.4852 242.972L34.2148 242.972Z" fill="#000403"/>
<path d="M34.2148 239.69L34.2148 242.418L31.4852 242.418L31.4852 239.69L34.2148 239.69Z" fill="#000403"/>
<path d="M34.2148 236.408L34.2148 239.135L31.4852 239.135L31.4852 236.408L34.2148 236.408Z" fill="#000403"/>
<path d="M34.2148 233.125L34.2148 235.853L31.4852 235.853L31.4852 233.125L34.2148 233.125Z" fill="#000403"/>
<path d="M34.2148 229.843L34.2148 232.571L31.4852 232.571L31.4852 229.843L34.2148 229.843Z" fill="#000403"/>
<path d="M30.9727 265.956L30.9727 268.684L28.2431 268.684L28.2431 265.956L30.9727 265.956Z" fill="#000403"/>
<path d="M30.9727 262.67L30.9727 265.398L28.2431 265.398L28.2431 262.67L30.9727 262.67Z" fill="#000403"/>
<path d="M30.9727 259.388L30.9727 262.115L28.2431 262.115L28.2431 259.388L30.9727 259.388Z" fill="#000403"/>
<path d="M30.9727 256.106L30.9727 258.833L28.2431 258.833L28.2431 256.106L30.9727 256.106Z" fill="#000403"/>
<path d="M30.9727 249.541L30.9727 252.268L28.2431 252.268L28.2431 249.541L30.9727 249.541Z" fill="#000403"/>
<path d="M30.9727 246.255L30.9727 248.982L28.2431 248.982L28.2431 246.255L30.9727 246.255Z" fill="#000403"/>
<path d="M30.9727 242.972L30.9727 245.7L28.2431 245.7L28.2431 242.972L30.9727 242.972Z" fill="#000403"/>
<path d="M30.9727 239.69L30.9727 242.418L28.2431 242.418L28.2431 239.69L30.9727 239.69Z" fill="#000403"/>
<path d="M30.9727 233.125L30.9727 235.853L28.2431 235.853L28.2431 233.125L30.9727 233.125Z" fill="#000403"/>
<path d="M30.9727 229.843L30.9727 232.571L28.2431 232.571L28.2431 229.843L30.9727 229.843Z" fill="#000403"/>
<path d="M27.7305 265.956L27.7305 268.684L25.0009 268.684L25.0009 265.956L27.7305 265.956Z" fill="#000403"/>
<path d="M27.7305 262.67L27.7305 265.398L25.0009 265.398L25.0009 262.67L27.7305 262.67Z" fill="#000403"/>
<path d="M27.7305 259.388L27.7305 262.115L25.0009 262.115L25.0009 259.388L27.7305 259.388Z" fill="#000403"/>
<path d="M27.7305 256.105L27.7305 258.833L25.0009 258.833L25.0009 256.105L27.7305 256.105Z" fill="#000403"/>
<path d="M27.7305 252.823L27.7305 255.551L25.0009 255.551L25.0009 252.823L27.7305 252.823Z" fill="#000403"/>
<path d="M27.7305 249.541L27.7305 252.268L25.0009 252.268L25.0009 249.541L27.7305 249.541Z" fill="#000403"/>
<path d="M27.7305 246.255L27.7305 248.982L25.0009 248.982L25.0009 246.255L27.7305 246.255Z" fill="#000403"/>
<path d="M27.7305 242.972L27.7305 245.7L25.0009 245.7L25.0009 242.972L27.7305 242.972Z" fill="#000403"/>
<path d="M27.7305 239.69L27.7305 242.418L25.0009 242.418L25.0009 239.69L27.7305 239.69Z" fill="#000403"/>
<path d="M27.7305 236.408L27.7305 239.135L25.0009 239.135L25.0009 236.408L27.7305 236.408Z" fill="#000403"/>
<path d="M27.7305 233.125L27.7305 235.853L25.0009 235.853L25.0009 233.125L27.7305 233.125Z" fill="#000403"/>
<path d="M34.2148 226.416L34.2148 229.143L31.4852 229.143L31.4852 226.416L34.2148 226.416Z" fill="#000403"/>
<path d="M34.2148 219.851L34.2148 222.578L31.4852 222.578L31.4852 219.851L34.2148 219.851Z" fill="#000403"/>
<path d="M34.2148 216.569L34.2148 219.296L31.4852 219.296L31.4852 216.569L34.2148 216.569Z" fill="#000403"/>
<path d="M34.2148 210L34.2148 212.727L31.4852 212.727L31.4852 210L34.2148 210Z" fill="#000403"/>
<path d="M30.9727 226.416L30.9727 229.143L28.2431 229.143L28.2431 226.416L30.9727 226.416Z" fill="#000403"/>
<path d="M30.9727 223.133L30.9727 225.861L28.2431 225.861L28.2431 223.133L30.9727 223.133Z" fill="#000403"/>
<path d="M30.9727 216.569L30.9727 219.296L28.2431 219.296L28.2431 216.569L30.9727 216.569Z" fill="#000403"/>
<path d="M30.9727 213.282L30.9727 216.01L28.2431 216.01L28.2431 213.282L30.9727 213.282Z" fill="#000403"/>
<path d="M30.9727 210L30.9727 212.727L28.2431 212.727L28.2431 210L30.9727 210Z" fill="#000403"/>
<path d="M27.7305 226.416L27.7305 229.143L25.0009 229.143L25.0009 226.416L27.7305 226.416Z" fill="#000403"/>
<path d="M27.7305 219.851L27.7305 222.578L25.0009 222.578L25.0009 219.851L27.7305 219.851Z" fill="#000403"/>
<path d="M27.7305 216.569L27.7305 219.296L25.0009 219.296L25.0009 216.569L27.7305 216.569Z" fill="#000403"/>
<path d="M27.7305 213.282L27.7305 216.01L25.0009 216.01L25.0009 213.282L27.7305 213.282Z" fill="#000403"/>
<path d="M31.4873 271.708L31.4873 268.981L34.2169 268.981L34.2169 271.708L31.4873 271.708Z" fill="#000403"/>
<path d="M31.4873 274.992L31.4873 272.265L34.2169 272.265L34.2169 274.992L31.4873 274.992Z" fill="#000403"/>
<path d="M31.4873 278.276L31.4873 275.549L34.2169 275.549L34.2169 278.276L31.4873 278.276Z" fill="#000403"/>
<path d="M31.4873 284.844L31.4873 282.116L34.2169 282.116L34.2169 284.844L31.4873 284.844Z" fill="#000403"/>
<path d="M31.4873 288.124L31.4873 285.396L34.2169 285.396L34.2169 288.124L31.4873 288.124Z" fill="#000403"/>
<path d="M31.4873 294.691L31.4873 291.964L34.2169 291.964L34.2169 294.691L31.4873 294.691Z" fill="#000403"/>
<path d="M31.4873 297.975L31.4873 295.247L34.2169 295.247L34.2169 297.975L31.4873 297.975Z" fill="#000403"/>
<path d="M31.4873 301.259L31.4873 298.531L34.2169 298.531L34.2169 301.259L31.4873 301.259Z" fill="#000403"/>
<path d="M31.4873 304.543L31.4873 301.815L34.2169 301.815L34.2169 304.543L31.4873 304.543Z" fill="#000403"/>
<path d="M31.4873 307.822L31.4873 305.095L34.2169 305.095L34.2169 307.822L31.4873 307.822Z" fill="#000403"/>
<path d="M28.2441 271.708L28.2441 268.981L30.9737 268.981L30.9737 271.708L28.2441 271.708Z" fill="#000403"/>
<path d="M28.2441 274.992L28.2441 272.265L30.9737 272.265L30.9737 274.992L28.2441 274.992Z" fill="#000403"/>
<path d="M28.2441 278.276L28.2441 275.549L30.9737 275.549L30.9737 278.276L28.2441 278.276Z" fill="#000403"/>
<path d="M28.2441 281.56L28.2441 278.833L30.9737 278.833L30.9737 281.56L28.2441 281.56Z" fill="#000403"/>
<path d="M28.2441 288.124L28.2441 285.396L30.9737 285.396L30.9737 288.124L28.2441 288.124Z" fill="#000403"/>
<path d="M28.2441 291.407L28.2441 288.68L30.9737 288.68L30.9737 291.407L28.2441 291.407Z" fill="#000403"/>
<path d="M28.2441 294.691L28.2441 291.964L30.9737 291.964L30.9737 294.691L28.2441 294.691Z" fill="#000403"/>
<path d="M28.2441 297.975L28.2441 295.247L30.9737 295.247L30.9737 297.975L28.2441 297.975Z" fill="#000403"/>
<path d="M28.2441 304.543L28.2441 301.815L30.9737 301.815L30.9737 304.543L28.2441 304.543Z" fill="#000403"/>
<path d="M28.2441 307.822L28.2441 305.095L30.9737 305.095L30.9737 307.822L28.2441 307.822Z" fill="#000403"/>
<path d="M25 271.708L25 268.981L27.7295 268.981L27.7295 271.708L25 271.708Z" fill="#000403"/>
<path d="M25 274.992L25 272.265L27.7295 272.265L27.7295 274.992L25 274.992Z" fill="#000403"/>
<path d="M25 278.276L25 275.549L27.7295 275.549L27.7295 278.276L25 278.276Z" fill="#000403"/>
<path d="M25 281.56L25 278.833L27.7295 278.833L27.7295 281.56L25 281.56Z" fill="#000403"/>
<path d="M25 284.844L25 282.116L27.7295 282.116L27.7295 284.844L25 284.844Z" fill="#000403"/>
<path d="M25 288.124L25 285.396L27.7295 285.396L27.7295 288.124L25 288.124Z" fill="#000403"/>
<path d="M25 291.407L25 288.68L27.7295 288.68L27.7295 291.407L25 291.407Z" fill="#000403"/>
<path d="M25 294.691L25 291.964L27.7295 291.964L27.7295 294.691L25 294.691Z" fill="#000403"/>
<path d="M25 297.975L25 295.247L27.7295 295.247L27.7295 297.975L25 297.975Z" fill="#000403"/>
<path d="M25 301.259L25 298.531L27.7295 298.531L27.7295 301.259L25 301.259Z" fill="#000403"/>
<path d="M25 304.543L25 301.815L27.7295 301.815L27.7295 304.543L25 304.543Z" fill="#000403"/>
<path d="M31.4873 311.249L31.4873 308.522L34.2169 308.522L34.2169 311.249L31.4873 311.249Z" fill="#000403"/>
<path d="M31.4873 317.813L31.4873 315.085L34.2169 315.085L34.2169 317.813L31.4873 317.813Z" fill="#000403"/>
<path d="M31.4873 321.097L31.4873 318.369L34.2169 318.369L34.2169 321.097L31.4873 321.097Z" fill="#000403"/>
<path d="M31.4873 327.664L31.4873 324.937L34.2169 324.937L34.2169 327.664L31.4873 327.664Z" fill="#000403"/>
<path d="M31.4873 340.796L31.4873 338.068L34.2169 338.068L34.2169 340.796L31.4873 340.796Z" fill="#000403"/>
<path d="M28.2441 311.249L28.2441 308.522L30.9737 308.522L30.9737 311.249L28.2441 311.249Z" fill="#000403"/>
<path d="M28.2441 314.533L28.2441 311.806L30.9737 311.806L30.9737 314.533L28.2441 314.533Z" fill="#000403"/>
<path d="M28.2441 321.097L28.2441 318.369L30.9737 318.369L30.9737 321.097L28.2441 321.097Z" fill="#000403"/>
<path d="M28.2441 324.381L28.2441 321.653L30.9737 321.653L30.9737 324.381L28.2441 324.381Z" fill="#000403"/>
<path d="M28.2441 327.664L28.2441 324.937L30.9737 324.937L30.9737 327.664L28.2441 327.664Z" fill="#000403"/>
<path d="M28.2441 330.948L28.2441 328.221L30.9737 328.221L30.9737 330.948L28.2441 330.948Z" fill="#000403"/>
<path d="M28.2441 337.512L28.2441 334.784L30.9737 334.784L30.9737 337.512L28.2441 337.512Z" fill="#000403"/>
<path d="M25 311.249L25 308.522L27.7295 308.522L27.7295 311.249L25 311.249Z" fill="#000403"/>
<path d="M25 317.813L25 315.085L27.7295 315.085L27.7295 317.813L25 317.813Z" fill="#000403"/>
<path d="M25 321.097L25 318.369L27.7295 318.369L27.7295 321.097L25 321.097Z" fill="#000403"/>
<path d="M25 324.381L25 321.653L27.7295 321.653L27.7295 324.381L25 324.381Z" fill="#000403"/>
<path d="M25 330.948L25 328.221L27.7295 328.221L27.7295 330.948L25 330.948Z" fill="#000403"/>
<path d="M25 334.228L25 331.501L27.7295 331.501L27.7295 334.228L25 334.228Z" fill="#000403"/>
<path d="M25 340.796L25 338.068L27.7295 338.068L27.7295 340.796L25 340.796Z" fill="#000403"/>
<path d="M31.4873 347.506L31.4873 344.779L34.2169 344.779L34.2169 347.506L31.4873 347.506Z" fill="#000403"/>
<path d="M28.2441 344.222L28.2441 341.495L30.9737 341.495L30.9737 344.222L28.2441 344.222Z" fill="#000403"/>
<path d="M28.2441 354.07L28.2441 351.342L30.9737 351.342L30.9737 354.07L28.2441 354.07Z" fill="#000403"/>
<path d="M28.2441 363.921L28.2441 361.194L30.9737 361.194L30.9737 363.921L28.2441 363.921Z" fill="#000403"/>
<path d="M25 350.786L25 348.059L27.7295 348.059L27.7295 350.786L25 350.786Z" fill="#000403"/>
<path d="M25 360.637L25 357.91L27.7295 357.91L27.7295 360.637L25 360.637Z" fill="#000403"/>
<path d="M103.215 209.956L103.215 212.684L100.485 212.684L100.485 209.956L103.215 209.956Z" fill="#000403"/>
<path d="M103.215 206.67L103.215 209.398L100.485 209.398L100.485 206.67L103.215 206.67Z" fill="#000403"/>
<path d="M103.215 203.388L103.215 206.115L100.485 206.115L100.485 203.388L103.215 203.388Z" fill="#000403"/>
<path d="M103.215 196.823L103.215 199.551L100.485 199.551L100.485 196.823L103.215 196.823Z" fill="#000403"/>
<path d="M103.215 193.541L103.215 196.268L100.485 196.268L100.485 193.541L103.215 193.541Z" fill="#000403"/>
<path d="M103.215 186.972L103.215 189.7L100.485 189.7L100.485 186.972L103.215 186.972Z" fill="#000403"/>
<path d="M103.215 183.69L103.215 186.418L100.485 186.418L100.485 183.69L103.215 183.69Z" fill="#000403"/>
<path d="M103.215 180.408L103.215 183.135L100.485 183.135L100.485 180.408L103.215 180.408Z" fill="#000403"/>
<path d="M103.215 177.125L103.215 179.853L100.485 179.853L100.485 177.125L103.215 177.125Z" fill="#000403"/>
<path d="M103.215 173.843L103.215 176.571L100.485 176.571L100.485 173.843L103.215 173.843Z" fill="#000403"/>
<path d="M99.9727 209.956L99.9727 212.684L97.2431 212.684L97.2431 209.956L99.9727 209.956Z" fill="#000403"/>
<path d="M99.9727 206.67L99.9727 209.398L97.2431 209.398L97.2431 206.67L99.9727 206.67Z" fill="#000403"/>
<path d="M99.9727 203.388L99.9727 206.115L97.2431 206.115L97.2431 203.388L99.9727 203.388Z" fill="#000403"/>
<path d="M99.9727 200.106L99.9727 202.833L97.2431 202.833L97.2431 200.106L99.9727 200.106Z" fill="#000403"/>
<path d="M99.9727 193.541L99.9727 196.268L97.2431 196.268L97.2431 193.541L99.9727 193.541Z" fill="#000403"/>
<path d="M99.9727 190.255L99.9727 192.982L97.2431 192.982L97.2431 190.255L99.9727 190.255Z" fill="#000403"/>
<path d="M99.9727 186.972L99.9727 189.7L97.2431 189.7L97.2431 186.972L99.9727 186.972Z" fill="#000403"/>
<path d="M99.9727 183.69L99.9727 186.418L97.2431 186.418L97.2431 183.69L99.9727 183.69Z" fill="#000403"/>
<path d="M99.9727 177.125L99.9727 179.853L97.2431 179.853L97.2431 177.125L99.9727 177.125Z" fill="#000403"/>
<path d="M99.9727 173.843L99.9727 176.571L97.2431 176.571L97.2431 173.843L99.9727 173.843Z" fill="#000403"/>
<path d="M96.7305 209.956L96.7305 212.684L94.0009 212.684L94.0009 209.956L96.7305 209.956Z" fill="#000403"/>
<path d="M96.7305 206.67L96.7305 209.398L94.0009 209.398L94.0009 206.67L96.7305 206.67Z" fill="#000403"/>
<path d="M96.7305 203.388L96.7305 206.115L94.0009 206.115L94.0009 203.388L96.7305 203.388Z" fill="#000403"/>
<path d="M96.7305 200.105L96.7305 202.833L94.0009 202.833L94.0009 200.105L96.7305 200.105Z" fill="#000403"/>
<path d="M96.7305 196.823L96.7305 199.551L94.0009 199.551L94.0009 196.823L96.7305 196.823Z" fill="#000403"/>
<path d="M96.7305 193.541L96.7305 196.268L94.0009 196.268L94.0009 193.541L96.7305 193.541Z" fill="#000403"/>
<path d="M96.7305 190.255L96.7305 192.982L94.0009 192.982L94.0009 190.255L96.7305 190.255Z" fill="#000403"/>
<path d="M96.7305 186.972L96.7305 189.7L94.0009 189.7L94.0009 186.972L96.7305 186.972Z" fill="#000403"/>
<path d="M96.7305 183.69L96.7305 186.418L94.0009 186.418L94.0009 183.69L96.7305 183.69Z" fill="#000403"/>
<path d="M96.7305 180.408L96.7305 183.135L94.0009 183.135L94.0009 180.408L96.7305 180.408Z" fill="#000403"/>
<path d="M96.7305 177.125L96.7305 179.853L94.0009 179.853L94.0009 177.125L96.7305 177.125Z" fill="#000403"/>
<path d="M103.215 170.416L103.215 173.143L100.485 173.143L100.485 170.416L103.215 170.416Z" fill="#000403"/>
<path d="M103.215 163.851L103.215 166.578L100.485 166.578L100.485 163.851L103.215 163.851Z" fill="#000403"/>
<path d="M103.215 160.569L103.215 163.296L100.485 163.296L100.485 160.569L103.215 160.569Z" fill="#000403"/>
<path d="M103.215 154L103.215 156.727L100.485 156.727L100.485 154L103.215 154Z" fill="#000403"/>
<path d="M99.9727 170.416L99.9727 173.143L97.2431 173.143L97.2431 170.416L99.9727 170.416Z" fill="#000403"/>
<path d="M99.9727 167.133L99.9727 169.861L97.2431 169.861L97.2431 167.133L99.9727 167.133Z" fill="#000403"/>
<path d="M99.9727 160.569L99.9727 163.296L97.2431 163.296L97.2431 160.569L99.9727 160.569Z" fill="#000403"/>
<path d="M99.9727 157.282L99.9727 160.01L97.2431 160.01L97.2431 157.282L99.9727 157.282Z" fill="#000403"/>
<path d="M99.9727 154L99.9727 156.727L97.2431 156.727L97.2431 154L99.9727 154Z" fill="#000403"/>
<path d="M96.7305 170.416L96.7305 173.143L94.0009 173.143L94.0009 170.416L96.7305 170.416Z" fill="#000403"/>
<path d="M96.7305 163.851L96.7305 166.578L94.0009 166.578L94.0009 163.851L96.7305 163.851Z" fill="#000403"/>
<path d="M96.7305 160.569L96.7305 163.296L94.0009 163.296L94.0009 160.569L96.7305 160.569Z" fill="#000403"/>
<path d="M96.7305 157.282L96.7305 160.01L94.0009 160.01L94.0009 157.282L96.7305 157.282Z" fill="#000403"/>
<path d="M100.487 215.708L100.487 212.981L103.217 212.981L103.217 215.708L100.487 215.708Z" fill="#000403"/>
<path d="M100.487 218.992L100.487 216.265L103.217 216.265L103.217 218.992L100.487 218.992Z" fill="#000403"/>
<path d="M100.487 222.276L100.487 219.549L103.217 219.549L103.217 222.276L100.487 222.276Z" fill="#000403"/>
<path d="M100.487 228.844L100.487 226.116L103.217 226.116L103.217 228.844L100.487 228.844Z" fill="#000403"/>
<path d="M100.487 232.124L100.487 229.396L103.217 229.396L103.217 232.124L100.487 232.124Z" fill="#000403"/>
<path d="M100.487 238.691L100.487 235.964L103.217 235.964L103.217 238.691L100.487 238.691Z" fill="#000403"/>
<path d="M100.487 241.975L100.487 239.247L103.217 239.247L103.217 241.975L100.487 241.975Z" fill="#000403"/>
<path d="M100.487 245.259L100.487 242.531L103.217 242.531L103.217 245.259L100.487 245.259Z" fill="#000403"/>
<path d="M100.487 248.543L100.487 245.815L103.217 245.815L103.217 248.543L100.487 248.543Z" fill="#000403"/>
<path d="M100.487 251.822L100.487 249.095L103.217 249.095L103.217 251.822L100.487 251.822Z" fill="#000403"/>
<path d="M97.2441 215.708L97.2441 212.981L99.9737 212.981L99.9737 215.708L97.2441 215.708Z" fill="#000403"/>
<path d="M97.2441 218.992L97.2441 216.265L99.9737 216.265L99.9737 218.992L97.2441 218.992Z" fill="#000403"/>
<path d="M97.2441 222.276L97.2441 219.549L99.9737 219.549L99.9737 222.276L97.2441 222.276Z" fill="#000403"/>
<path d="M97.2441 225.56L97.2441 222.833L99.9737 222.833L99.9737 225.56L97.2441 225.56Z" fill="#000403"/>
<path d="M97.2441 232.124L97.2441 229.396L99.9737 229.396L99.9737 232.124L97.2441 232.124Z" fill="#000403"/>
<path d="M97.2441 235.407L97.2441 232.68L99.9737 232.68L99.9737 235.407L97.2441 235.407Z" fill="#000403"/>
<path d="M97.2441 238.691L97.2441 235.964L99.9737 235.964L99.9737 238.691L97.2441 238.691Z" fill="#000403"/>
<path d="M97.2441 241.975L97.2441 239.247L99.9737 239.247L99.9737 241.975L97.2441 241.975Z" fill="#000403"/>
<path d="M97.2441 248.543L97.2441 245.815L99.9737 245.815L99.9737 248.543L97.2441 248.543Z" fill="#000403"/>
<path d="M97.2441 251.822L97.2441 249.095L99.9737 249.095L99.9737 251.822L97.2441 251.822Z" fill="#000403"/>
<path d="M94 215.708L94 212.981L96.7295 212.981L96.7295 215.708L94 215.708Z" fill="#000403"/>
<path d="M94 218.992L94 216.265L96.7295 216.265L96.7295 218.992L94 218.992Z" fill="#000403"/>
<path d="M94 222.276L94 219.549L96.7295 219.549L96.7295 222.276L94 222.276Z" fill="#000403"/>
<path d="M94 225.56L94 222.833L96.7295 222.833L96.7295 225.56L94 225.56Z" fill="#000403"/>
<path d="M94 228.844L94 226.116L96.7295 226.116L96.7295 228.844L94 228.844Z" fill="#000403"/>
<path d="M94 232.124L94 229.396L96.7295 229.396L96.7295 232.124L94 232.124Z" fill="#000403"/>
<path d="M94 235.407L94 232.68L96.7295 232.68L96.7295 235.407L94 235.407Z" fill="#000403"/>
<path d="M94 238.691L94 235.964L96.7295 235.964L96.7295 238.691L94 238.691Z" fill="#000403"/>
<path d="M94 241.975L94 239.247L96.7295 239.247L96.7295 241.975L94 241.975Z" fill="#000403"/>
<path d="M94 245.259L94 242.531L96.7295 242.531L96.7295 245.259L94 245.259Z" fill="#000403"/>
<path d="M94 248.543L94 245.815L96.7295 245.815L96.7295 248.543L94 248.543Z" fill="#000403"/>
<path d="M100.487 255.249L100.487 252.522L103.217 252.522L103.217 255.249L100.487 255.249Z" fill="#000403"/>
<path d="M100.487 261.813L100.487 259.085L103.217 259.085L103.217 261.813L100.487 261.813Z" fill="#000403"/>
<path d="M100.487 265.097L100.487 262.369L103.217 262.369L103.217 265.097L100.487 265.097Z" fill="#000403"/>
<path d="M100.487 271.664L100.487 268.937L103.217 268.937L103.217 271.664L100.487 271.664Z" fill="#000403"/>
<path d="M100.487 284.796L100.487 282.068L103.217 282.068L103.217 284.796L100.487 284.796Z" fill="#000403"/>
<path d="M97.2441 255.249L97.2441 252.522L99.9737 252.522L99.9737 255.249L97.2441 255.249Z" fill="#000403"/>
<path d="M97.2441 258.533L97.2441 255.806L99.9737 255.806L99.9737 258.533L97.2441 258.533Z" fill="#000403"/>
<path d="M97.2441 265.097L97.2441 262.369L99.9737 262.369L99.9737 265.097L97.2441 265.097Z" fill="#000403"/>
<path d="M97.2441 268.381L97.2441 265.653L99.9737 265.653L99.9737 268.381L97.2441 268.381Z" fill="#000403"/>
<path d="M97.2441 271.664L97.2441 268.937L99.9737 268.937L99.9737 271.664L97.2441 271.664Z" fill="#000403"/>
<path d="M97.2441 274.948L97.2441 272.221L99.9737 272.221L99.9737 274.948L97.2441 274.948Z" fill="#000403"/>
<path d="M97.2441 281.512L97.2441 278.784L99.9737 278.784L99.9737 281.512L97.2441 281.512Z" fill="#000403"/>
<path d="M94 255.249L94 252.522L96.7295 252.522L96.7295 255.249L94 255.249Z" fill="#000403"/>
<path d="M94 261.813L94 259.085L96.7295 259.085L96.7295 261.813L94 261.813Z" fill="#000403"/>
<path d="M94 265.097L94 262.369L96.7295 262.369L96.7295 265.097L94 265.097Z" fill="#000403"/>
<path d="M94 268.381L94 265.653L96.7295 265.653L96.7295 268.381L94 268.381Z" fill="#000403"/>
<path d="M94 274.948L94 272.221L96.7295 272.221L96.7295 274.948L94 274.948Z" fill="#000403"/>
<path d="M94 278.228L94 275.501L96.7295 275.501L96.7295 278.228L94 278.228Z" fill="#000403"/>
<path d="M94 284.796L94 282.068L96.7295 282.068L96.7295 284.796L94 284.796Z" fill="#000403"/>
<path d="M100.487 291.506L100.487 288.779L103.217 288.779L103.217 291.506L100.487 291.506Z" fill="#000403"/>
<path d="M97.2441 288.222L97.2441 285.495L99.9737 285.495L99.9737 288.222L97.2441 288.222Z" fill="#000403"/>
<path d="M97.2441 298.07L97.2441 295.342L99.9737 295.342L99.9737 298.07L97.2441 298.07Z" fill="#000403"/>
<path d="M97.2441 307.921L97.2441 305.194L99.9737 305.194L99.9737 307.921L97.2441 307.921Z" fill="#000403"/>
<path d="M94 294.786L94 292.059L96.7295 292.059L96.7295 294.786L94 294.786Z" fill="#000403"/>
<path d="M94 304.637L94 301.91L96.7295 301.91L96.7295 304.637L94 304.637Z" fill="#000403"/>
<path d="M47.2148 71.9564L47.2148 74.6839L44.4852 74.6839L44.4852 71.9564L47.2148 71.9564Z" fill="#000403"/>
<path d="M47.2148 68.6704L47.2148 71.3979L44.4852 71.3979L44.4852 68.6704L47.2148 68.6704Z" fill="#000403"/>
<path d="M47.2148 65.3879L47.2148 68.1154L44.4852 68.1154L44.4852 65.3879L47.2148 65.3879Z" fill="#000403"/>
<path d="M47.2148 58.8233L47.2148 61.5508L44.4852 61.5508L44.4852 58.8233L47.2148 58.8233Z" fill="#000403"/>
<path d="M47.2148 55.5407L47.2148 58.2682L44.4852 58.2682L44.4852 55.5407L47.2148 55.5407Z" fill="#000403"/>
<path d="M47.2148 48.9723L47.2148 51.6998L44.4852 51.6998L44.4852 48.9723L47.2148 48.9723Z" fill="#000403"/>
<path d="M47.2148 45.6901L47.2148 48.4176L44.4852 48.4176L44.4852 45.6901L47.2148 45.6901Z" fill="#000403"/>
<path d="M47.2148 42.4077L47.2148 45.1352L44.4852 45.1352L44.4852 42.4077L47.2148 42.4077Z" fill="#000403"/>
<path d="M47.2148 39.1252L47.2148 41.8527L44.4852 41.8527L44.4852 39.1252L47.2148 39.1252Z" fill="#000403"/>
<path d="M47.2148 35.843L47.2148 38.5705L44.4852 38.5705L44.4852 35.843L47.2148 35.843Z" fill="#000403"/>
<path d="M43.9727 71.9564L43.9727 74.6839L41.2431 74.6839L41.2431 71.9564L43.9727 71.9564Z" fill="#000403"/>
<path d="M43.9727 68.6704L43.9727 71.3979L41.2431 71.3979L41.2431 68.6704L43.9727 68.6704Z" fill="#000403"/>
<path d="M43.9727 65.3879L43.9727 68.1154L41.2431 68.1154L41.2431 65.3879L43.9727 65.3879Z" fill="#000403"/>
<path d="M43.9727 62.1055L43.9727 64.833L41.2431 64.833L41.2431 62.1055L43.9727 62.1055Z" fill="#000403"/>
<path d="M43.9727 55.5407L43.9727 58.2682L41.2431 58.2682L41.2431 55.5407L43.9727 55.5407Z" fill="#000403"/>
<path d="M43.9727 52.2545L43.9727 54.982L41.2431 54.982L41.2431 52.2545L43.9727 52.2545Z" fill="#000403"/>
<path d="M43.9727 48.9723L43.9727 51.6998L41.2431 51.6998L41.2431 48.9723L43.9727 48.9723Z" fill="#000403"/>
<path d="M43.9727 45.6901L43.9727 48.4176L41.2431 48.4176L41.2431 45.6901L43.9727 45.6901Z" fill="#000403"/>
<path d="M43.9727 39.1252L43.9727 41.8527L41.2431 41.8527L41.2431 39.1252L43.9727 39.1252Z" fill="#000403"/>
<path d="M43.9727 35.843L43.9727 38.5705L41.2431 38.5705L41.2431 35.843L43.9727 35.843Z" fill="#000403"/>
<path d="M40.7305 71.9564L40.7305 74.6839L38.0009 74.6839L38.0009 71.9564L40.7305 71.9564Z" fill="#000403"/>
<path d="M40.7305 68.6704L40.7305 71.3979L38.0009 71.3979L38.0009 68.6704L40.7305 68.6704Z" fill="#000403"/>
<path d="M40.7305 65.3879L40.7305 68.1154L38.0009 68.1154L38.0009 65.3879L40.7305 65.3879Z" fill="#000403"/>
<path d="M40.7305 62.1054L40.7305 64.8329L38.0009 64.8329L38.0009 62.1054L40.7305 62.1054Z" fill="#000403"/>
<path d="M40.7305 58.8233L40.7305 61.5508L38.0009 61.5508L38.0009 58.8233L40.7305 58.8233Z" fill="#000403"/>
<path d="M40.7305 55.5407L40.7305 58.2682L38.0009 58.2682L38.0009 55.5407L40.7305 55.5407Z" fill="#000403"/>
<path d="M40.7305 52.2545L40.7305 54.982L38.0009 54.982L38.0009 52.2545L40.7305 52.2545Z" fill="#000403"/>
<path d="M40.7305 48.9723L40.7305 51.6998L38.0009 51.6998L38.0009 48.9723L40.7305 48.9723Z" fill="#000403"/>
<path d="M40.7305 45.6901L40.7305 48.4176L38.0009 48.4176L38.0009 45.6901L40.7305 45.6901Z" fill="#000403"/>
<path d="M40.7305 42.4077L40.7305 45.1352L38.0009 45.1352L38.0009 42.4077L40.7305 42.4077Z" fill="#000403"/>
<path d="M40.7305 39.1252L40.7305 41.8527L38.0009 41.8527L38.0009 39.1252L40.7305 39.1252Z" fill="#000403"/>
<path d="M47.2148 32.4159L47.2148 35.1434L44.4852 35.1434L44.4852 32.4159L47.2148 32.4159Z" fill="#000403"/>
<path d="M47.2148 25.851L47.2148 28.5785L44.4852 28.5785L44.4852 25.851L47.2148 25.851Z" fill="#000403"/>
<path d="M47.2148 22.5688L47.2148 25.2963L44.4852 25.2963L44.4852 22.5688L47.2148 22.5688Z" fill="#000403"/>
<path d="M47.2148 16L47.2148 18.7275L44.4852 18.7275L44.4852 16L47.2148 16Z" fill="#000403"/>
<path d="M43.9727 32.4159L43.9727 35.1434L41.2431 35.1434L41.2431 32.4159L43.9727 32.4159Z" fill="#000403"/>
<path d="M43.9727 29.1332L43.9727 31.8607L41.2431 31.8607L41.2431 29.1332L43.9727 29.1332Z" fill="#000403"/>
<path d="M43.9727 22.5688L43.9727 25.2963L41.2431 25.2963L41.2431 22.5688L43.9727 22.5688Z" fill="#000403"/>
<path d="M43.9727 19.2822L43.9727 22.0096L41.2431 22.0096L41.2431 19.2822L43.9727 19.2822Z" fill="#000403"/>
<path d="M43.9727 16L43.9727 18.7275L41.2431 18.7275L41.2431 16L43.9727 16Z" fill="#000403"/>
<path d="M40.7305 32.4159L40.7305 35.1434L38.0009 35.1434L38.0009 32.4159L40.7305 32.4159Z" fill="#000403"/>
<path d="M40.7305 25.851L40.7305 28.5785L38.0009 28.5785L38.0009 25.851L40.7305 25.851Z" fill="#000403"/>
<path d="M40.7305 22.5688L40.7305 25.2963L38.0009 25.2963L38.0009 22.5688L40.7305 22.5688Z" fill="#000403"/>
<path d="M40.7305 19.2822L40.7305 22.0096L38.0009 22.0096L38.0009 19.2822L40.7305 19.2822Z" fill="#000403"/>
<path d="M44.4873 77.7085L44.4873 74.981L47.2169 74.981L47.2169 77.7085L44.4873 77.7085Z" fill="#000403"/>
<path d="M44.4873 80.9923L44.4873 78.2648L47.2169 78.2648L47.2169 80.9923L44.4873 80.9923Z" fill="#000403"/>
<path d="M44.4873 84.2762L44.4873 81.5488L47.2169 81.5488L47.2169 84.2762L44.4873 84.2762Z" fill="#000403"/>
<path d="M44.4873 90.8438L44.4873 88.1163L47.2169 88.1163L47.2169 90.8438L44.4873 90.8438Z" fill="#000403"/>
<path d="M44.4873 94.1237L44.4873 91.3962L47.2169 91.3962L47.2169 94.1237L44.4873 94.1237Z" fill="#000403"/>
<path d="M44.4873 100.691L44.4873 97.9637L47.2169 97.9637L47.2169 100.691L44.4873 100.691Z" fill="#000403"/>
<path d="M44.4873 103.975L44.4873 101.247L47.2169 101.247L47.2169 103.975L44.4873 103.975Z" fill="#000403"/>
<path d="M44.4873 107.259L44.4873 104.531L47.2169 104.531L47.2169 107.259L44.4873 107.259Z" fill="#000403"/>
<path d="M44.4873 110.543L44.4873 107.815L47.2169 107.815L47.2169 110.543L44.4873 110.543Z" fill="#000403"/>
<path d="M44.4873 113.822L44.4873 111.095L47.2169 111.095L47.2169 113.822L44.4873 113.822Z" fill="#000403"/>
<path d="M41.2441 77.7085L41.2441 74.981L43.9737 74.981L43.9737 77.7085L41.2441 77.7085Z" fill="#000403"/>
<path d="M41.2441 80.9923L41.2441 78.2648L43.9737 78.2648L43.9737 80.9923L41.2441 80.9923Z" fill="#000403"/>
<path d="M41.2441 84.2762L41.2441 81.5488L43.9737 81.5488L43.9737 84.2762L41.2441 84.2762Z" fill="#000403"/>
<path d="M41.2441 87.56L41.2441 84.8325L43.9737 84.8325L43.9737 87.56L41.2441 87.56Z" fill="#000403"/>
<path d="M41.2441 94.1237L41.2441 91.3962L43.9737 91.3962L43.9737 94.1237L41.2441 94.1237Z" fill="#000403"/>
<path d="M41.2441 97.4074L41.2441 94.68L43.9737 94.68L43.9737 97.4074L41.2441 97.4074Z" fill="#000403"/>
<path d="M41.2441 100.691L41.2441 97.9637L43.9737 97.9637L43.9737 100.691L41.2441 100.691Z" fill="#000403"/>
<path d="M41.2441 103.975L41.2441 101.247L43.9737 101.247L43.9737 103.975L41.2441 103.975Z" fill="#000403"/>
<path d="M41.2441 110.543L41.2441 107.815L43.9737 107.815L43.9737 110.543L41.2441 110.543Z" fill="#000403"/>
<path d="M41.2441 113.822L41.2441 111.095L43.9737 111.095L43.9737 113.822L41.2441 113.822Z" fill="#000403"/>
<path d="M38 77.7085L38 74.981L40.7295 74.981L40.7295 77.7085L38 77.7085Z" fill="#000403"/>
<path d="M38 80.9923L38 78.2648L40.7295 78.2648L40.7295 80.9923L38 80.9923Z" fill="#000403"/>
<path d="M38 84.2762L38 81.5488L40.7295 81.5488L40.7295 84.2762L38 84.2762Z" fill="#000403"/>
<path d="M38 87.56L38 84.8325L40.7295 84.8325L40.7295 87.56L38 87.56Z" fill="#000403"/>
<path d="M38 90.8438L38 88.1163L40.7295 88.1163L40.7295 90.8438L38 90.8438Z" fill="#000403"/>
<path d="M38 94.1237L38 91.3962L40.7295 91.3962L40.7295 94.1237L38 94.1237Z" fill="#000403"/>
<path d="M38 97.4074L38 94.68L40.7295 94.68L40.7295 97.4074L38 97.4074Z" fill="#000403"/>
<path d="M38 100.691L38 97.9637L40.7295 97.9637L40.7295 100.691L38 100.691Z" fill="#000403"/>
<path d="M38 103.975L38 101.247L40.7295 101.247L40.7295 103.975L38 103.975Z" fill="#000403"/>
<path d="M38 107.259L38 104.531L40.7295 104.531L40.7295 107.259L38 107.259Z" fill="#000403"/>
<path d="M38 110.543L38 107.815L40.7295 107.815L40.7295 110.543L38 110.543Z" fill="#000403"/>
<path d="M44.4873 117.249L44.4873 114.522L47.2169 114.522L47.2169 117.249L44.4873 117.249Z" fill="#000403"/>
<path d="M44.4873 123.813L44.4873 121.085L47.2169 121.085L47.2169 123.813L44.4873 123.813Z" fill="#000403"/>
<path d="M44.4873 127.097L44.4873 124.369L47.2169 124.369L47.2169 127.097L44.4873 127.097Z" fill="#000403"/>
<path d="M44.4873 133.664L44.4873 130.937L47.2169 130.937L47.2169 133.664L44.4873 133.664Z" fill="#000403"/>
<path d="M44.4873 146.796L44.4873 144.068L47.2169 144.068L47.2169 146.796L44.4873 146.796Z" fill="#000403"/>
<path d="M41.2441 117.249L41.2441 114.522L43.9737 114.522L43.9737 117.249L41.2441 117.249Z" fill="#000403"/>
<path d="M41.2441 120.533L41.2441 117.806L43.9737 117.806L43.9737 120.533L41.2441 120.533Z" fill="#000403"/>
<path d="M41.2441 127.097L41.2441 124.369L43.9737 124.369L43.9737 127.097L41.2441 127.097Z" fill="#000403"/>
<path d="M41.2441 130.381L41.2441 127.653L43.9737 127.653L43.9737 130.381L41.2441 130.381Z" fill="#000403"/>
<path d="M41.2441 133.664L41.2441 130.937L43.9737 130.937L43.9737 133.664L41.2441 133.664Z" fill="#000403"/>
<path d="M41.2441 136.948L41.2441 134.221L43.9737 134.221L43.9737 136.948L41.2441 136.948Z" fill="#000403"/>
<path d="M41.2441 143.512L41.2441 140.784L43.9737 140.784L43.9737 143.512L41.2441 143.512Z" fill="#000403"/>
<path d="M38 117.249L38 114.522L40.7295 114.522L40.7295 117.249L38 117.249Z" fill="#000403"/>
<path d="M38 123.813L38 121.085L40.7295 121.085L40.7295 123.813L38 123.813Z" fill="#000403"/>
<path d="M38 127.097L38 124.369L40.7295 124.369L40.7295 127.097L38 127.097Z" fill="#000403"/>
<path d="M38 130.381L38 127.653L40.7295 127.653L40.7295 130.381L38 130.381Z" fill="#000403"/>
<path d="M38 136.948L38 134.221L40.7295 134.221L40.7295 136.948L38 136.948Z" fill="#000403"/>
<path d="M38 140.228L38 137.501L40.7295 137.501L40.7295 140.228L38 140.228Z" fill="#000403"/>
<path d="M38 146.796L38 144.068L40.7295 144.068L40.7295 146.796L38 146.796Z" fill="#000403"/>
<path d="M44.4873 153.506L44.4873 150.779L47.2169 150.779L47.2169 153.506L44.4873 153.506Z" fill="#000403"/>
<path d="M41.2441 150.222L41.2441 147.495L43.9737 147.495L43.9737 150.222L41.2441 150.222Z" fill="#000403"/>
<path d="M41.2441 160.07L41.2441 157.342L43.9737 157.342L43.9737 160.07L41.2441 160.07Z" fill="#000403"/>
<path d="M41.2441 169.921L41.2441 167.194L43.9737 167.194L43.9737 169.921L41.2441 169.921Z" fill="#000403"/>
<path d="M38 156.786L38 154.059L40.7295 154.059L40.7295 156.786L38 156.786Z" fill="#000403"/>
<path d="M38 166.637L38 163.91L40.7295 163.91L40.7295 166.637L38 166.637Z" fill="#000403"/>
</svg>
