<svg width="390" height="384" viewBox="0 0 390 384" fill="none" xmlns="http://www.w3.org/2000/svg">
<rect width="390" height="358" fill="#33E6BF"/>
<path d="M399.986 298.177L399.986 295.639L383.699 295.639L383.699 298.177L399.986 298.177Z" fill="#176453"/>
<path d="M399.986 301.236L399.986 298.697L383.699 298.697L383.699 301.236L399.986 301.236Z" fill="#176453"/>
<path d="M399.986 304.291L399.986 301.752L383.699 301.752L383.699 304.291L399.986 304.291Z" fill="#176453"/>
<path d="M399.986 310.401L399.986 307.862L383.699 307.862L383.699 310.401L399.986 310.401Z" fill="#176453"/>
<path d="M399.986 313.456L399.986 310.917L383.699 310.917L383.699 313.456L399.986 313.456Z" fill="#176453"/>
<path d="M399.986 319.569L399.986 317.031L383.699 317.031L383.699 319.569L399.986 319.569Z" fill="#176453"/>
<path d="M399.986 322.624L399.986 320.085L383.699 320.085L383.699 322.624L399.986 322.624Z" fill="#176453"/>
<path d="M399.986 325.679L399.986 323.141L383.699 323.141L383.699 325.679L399.986 325.679Z" fill="#176453"/>
<path d="M399.986 328.734L399.986 326.195L383.699 326.195L383.699 328.734L399.986 328.734Z" fill="#176453"/>
<path d="M399.986 331.789L399.986 329.25L383.699 329.25L383.699 331.789L399.986 331.789Z" fill="#176453"/>
<path d="M380.64 298.177L380.64 295.639L364.352 295.639L364.352 298.177L380.64 298.177Z" fill="#176453"/>
<path d="M380.64 301.236L380.64 298.697L364.352 298.697L364.352 301.236L380.64 301.236Z" fill="#176453"/>
<path d="M380.64 304.291L380.64 301.752L364.352 301.752L364.352 304.291L380.64 304.291Z" fill="#176453"/>
<path d="M380.64 307.346L380.64 304.808L364.352 304.808L364.352 307.346L380.64 307.346Z" fill="#176453"/>
<path d="M380.64 313.456L380.64 310.917L364.352 310.917L364.352 313.456L380.64 313.456Z" fill="#176453"/>
<path d="M380.64 316.514L380.64 313.976L364.352 313.976L364.352 316.514L380.64 316.514Z" fill="#176453"/>
<path d="M380.64 319.569L380.64 317.031L364.352 317.031L364.352 319.569L380.64 319.569Z" fill="#176453"/>
<path d="M380.64 322.624L380.64 320.085L364.352 320.085L364.352 322.624L380.64 322.624Z" fill="#176453"/>
<path d="M380.64 328.734L380.64 326.195L364.352 326.195L364.352 328.734L380.64 328.734Z" fill="#176453"/>
<path d="M380.64 331.789L380.64 329.25L364.352 329.25L364.352 331.789L380.64 331.789Z" fill="#176453"/>
<path d="M361.295 298.177L361.295 295.639L345.007 295.639L345.007 298.177L361.295 298.177Z" fill="#176453"/>
<path d="M361.295 301.236L361.295 298.697L345.007 298.697L345.007 301.236L361.295 301.236Z" fill="#176453"/>
<path d="M361.295 304.291L361.295 301.752L345.007 301.752L345.007 304.291L361.295 304.291Z" fill="#176453"/>
<path d="M361.295 307.346L361.295 304.808L345.007 304.808L345.007 307.346L361.295 307.346Z" fill="#176453"/>
<path d="M361.295 310.401L361.295 307.862L345.007 307.862L345.007 310.401L361.295 310.401Z" fill="#176453"/>
<path d="M361.295 313.456L361.295 310.917L345.007 310.917L345.007 313.456L361.295 313.456Z" fill="#176453"/>
<path d="M361.295 316.514L361.295 313.976L345.007 313.976L345.007 316.514L361.295 316.514Z" fill="#176453"/>
<path d="M361.295 319.569L361.295 317.031L345.007 317.031L345.007 319.569L361.295 319.569Z" fill="#176453"/>
<path d="M361.295 322.624L361.295 320.085L345.007 320.085L345.007 322.624L361.295 322.624Z" fill="#176453"/>
<path d="M361.295 325.679L361.295 323.141L345.007 323.141L345.007 325.679L361.295 325.679Z" fill="#176453"/>
<path d="M361.295 328.734L361.295 326.195L345.007 326.195L345.007 328.734L361.295 328.734Z" fill="#176453"/>
<path d="M399.986 334.978L399.986 332.44L383.699 332.44L383.699 334.978L399.986 334.978Z" fill="#176453"/>
<path d="M399.986 341.089L399.986 338.55L383.699 338.55L383.699 341.089L399.986 341.089Z" fill="#176453"/>
<path d="M399.986 344.143L399.986 341.605L383.699 341.605L383.699 344.143L399.986 344.143Z" fill="#176453"/>
<path d="M399.986 350.257L399.986 347.718L383.699 347.718L383.699 350.257L399.986 350.257Z" fill="#176453"/>
<path d="M399.986 362.48L399.986 359.941L383.699 359.941L383.699 362.48L399.986 362.48Z" fill="#176453"/>
<path d="M380.64 334.978L380.64 332.44L364.352 332.44L364.352 334.978L380.64 334.978Z" fill="#176453"/>
<path d="M380.64 338.034L380.64 335.495L364.352 335.495L364.352 338.034L380.64 338.034Z" fill="#176453"/>
<path d="M380.64 344.143L380.64 341.605L364.352 341.605L364.352 344.143L380.64 344.143Z" fill="#176453"/>
<path d="M380.64 347.202L380.64 344.664L364.352 344.664L364.352 347.202L380.64 347.202Z" fill="#176453"/>
<path d="M380.64 350.257L380.64 347.718L364.352 347.718L364.352 350.257L380.64 350.257Z" fill="#176453"/>
<path d="M380.64 353.312L380.64 350.773L364.352 350.773L364.352 353.312L380.64 353.312Z" fill="#176453"/>
<path d="M380.64 359.422L380.64 356.883L364.352 356.883L364.352 359.422L380.64 359.422Z" fill="#176453"/>
<path d="M361.295 334.978L361.295 332.44L345.007 332.44L345.007 334.978L361.295 334.978Z" fill="#176453"/>
<path d="M361.295 341.089L361.295 338.55L345.007 338.55L345.007 341.089L361.295 341.089Z" fill="#176453"/>
<path d="M361.295 344.143L361.295 341.605L345.007 341.605L345.007 344.143L361.295 344.143Z" fill="#176453"/>
<path d="M361.295 347.202L361.295 344.664L345.007 344.664L345.007 347.202L361.295 347.202Z" fill="#176453"/>
<path d="M361.295 353.312L361.295 350.773L345.007 350.773L345.007 353.312L361.295 353.312Z" fill="#176453"/>
<path d="M361.295 356.367L361.295 353.828L345.007 353.828L345.007 356.367L361.295 356.367Z" fill="#176453"/>
<path d="M361.295 362.48L361.295 359.941L345.007 359.941L345.007 362.48L361.295 362.48Z" fill="#176453"/>
<path d="M399.986 368.722L399.986 366.183L383.699 366.183L383.699 368.722L399.986 368.722Z" fill="#176453"/>
<path d="M380.64 365.667L380.64 363.128L364.352 363.128L364.352 365.667L380.64 365.667Z" fill="#176453"/>
<path d="M380.64 374.835L380.64 372.297L364.352 372.297L364.352 374.835L380.64 374.835Z" fill="#176453"/>
<path d="M380.64 384L380.64 381.461L364.352 381.461L364.352 384L380.64 384Z" fill="#176453"/>
<path d="M361.295 371.776L361.295 369.238L345.007 369.238L345.007 371.776L361.295 371.776Z" fill="#176453"/>
<path d="M361.295 380.945L361.295 378.406L345.007 378.406L345.007 380.945L361.295 380.945Z" fill="#176453"/>
<path d="M383.712 292.824L383.712 295.362L400 295.362L400 292.824L383.712 292.824Z" fill="#176453"/>
<path d="M383.712 289.768L383.712 292.306L400 292.306L400 289.768L383.712 289.768Z" fill="#176453"/>
<path d="M383.712 286.711L383.712 289.25L400 289.25L400 286.711L383.712 286.711Z" fill="#176453"/>
<path d="M383.712 280.599L383.712 283.137L400 283.137L400 280.599L383.712 280.599Z" fill="#176453"/>
<path d="M383.712 277.546L383.712 280.084L400 280.084L400 277.546L383.712 277.546Z" fill="#176453"/>
<path d="M383.712 271.434L383.712 273.972L400 273.972L400 271.434L383.712 271.434Z" fill="#176453"/>
<path d="M383.712 268.377L383.712 270.916L400 270.916L400 268.377L383.712 268.377Z" fill="#176453"/>
<path d="M383.712 265.321L383.712 267.859L400 267.859L400 265.321L383.712 265.321Z" fill="#176453"/>
<path d="M383.712 262.265L383.712 264.803L400 264.803L400 262.265L383.712 262.265Z" fill="#176453"/>
<path d="M383.712 259.212L383.712 261.75L400 261.75L400 259.212L383.712 259.212Z" fill="#176453"/>
<path d="M364.356 292.824L364.356 295.362L380.644 295.362L380.644 292.824L364.356 292.824Z" fill="#176453"/>
<path d="M364.356 289.768L364.356 292.306L380.644 292.306L380.644 289.768L364.356 289.768Z" fill="#176453"/>
<path d="M364.356 286.711L364.356 289.25L380.644 289.25L380.644 286.711L364.356 286.711Z" fill="#176453"/>
<path d="M364.356 283.655L364.356 286.193L380.644 286.193L380.644 283.655L364.356 283.655Z" fill="#176453"/>
<path d="M364.356 277.546L364.356 280.084L380.644 280.084L380.644 277.546L364.356 277.546Z" fill="#176453"/>
<path d="M364.356 274.49L364.356 277.028L380.644 277.028L380.644 274.49L364.356 274.49Z" fill="#176453"/>
<path d="M364.356 271.434L364.356 273.972L380.644 273.972L380.644 271.434L364.356 271.434Z" fill="#176453"/>
<path d="M364.356 268.377L364.356 270.916L380.644 270.916L380.644 268.377L364.356 268.377Z" fill="#176453"/>
<path d="M364.356 262.265L364.356 264.803L380.644 264.803L380.644 262.265L364.356 262.265Z" fill="#176453"/>
<path d="M364.356 259.212L364.356 261.75L380.644 261.75L380.644 259.212L364.356 259.212Z" fill="#176453"/>
<path d="M345 292.824L345 295.363L361.287 295.363L361.287 292.824L345 292.824Z" fill="#176453"/>
<path d="M345 289.768L345 292.306L361.287 292.306L361.287 289.768L345 289.768Z" fill="#176453"/>
<path d="M345 286.711L345 289.25L361.287 289.25L361.287 286.711L345 286.711Z" fill="#176453"/>
<path d="M345 283.655L345 286.194L361.287 286.194L361.287 283.655L345 283.655Z" fill="#176453"/>
<path d="M345 280.599L345 283.137L361.287 283.137L361.287 280.599L345 280.599Z" fill="#176453"/>
<path d="M345 277.546L345 280.085L361.287 280.085L361.287 277.546L345 277.546Z" fill="#176453"/>
<path d="M345 274.49L345 277.028L361.287 277.028L361.287 274.49L345 274.49Z" fill="#176453"/>
<path d="M345 271.434L345 273.972L361.287 273.972L361.287 271.434L345 271.434Z" fill="#176453"/>
<path d="M345 268.377L345 270.916L361.287 270.916L361.287 268.377L345 268.377Z" fill="#176453"/>
<path d="M345 265.321L345 267.86L361.287 267.86L361.287 265.321L345 265.321Z" fill="#176453"/>
<path d="M345 262.265L345 264.803L361.287 264.803L361.287 262.265L345 262.265Z" fill="#176453"/>
<path d="M383.712 256.023L383.712 258.561L400 258.561L400 256.023L383.712 256.023Z" fill="#176453"/>
<path d="M383.712 249.914L383.712 252.452L400 252.452L400 249.914L383.712 249.914Z" fill="#176453"/>
<path d="M383.712 246.857L383.712 249.396L400 249.396L400 246.857L383.712 246.857Z" fill="#176453"/>
<path d="M383.712 240.745L383.712 243.283L400 243.283L400 240.745L383.712 240.745Z" fill="#176453"/>
<path d="M383.712 228.523L383.712 231.062L400 231.062L400 228.523L383.712 228.523Z" fill="#176453"/>
<path d="M364.356 256.023L364.356 258.561L380.644 258.561L380.644 256.023L364.356 256.023Z" fill="#176453"/>
<path d="M364.356 252.966L364.356 255.505L380.644 255.505L380.644 252.966L364.356 252.966Z" fill="#176453"/>
<path d="M364.356 246.857L364.356 249.396L380.644 249.396L380.644 246.857L364.356 246.857Z" fill="#176453"/>
<path d="M364.356 243.801L364.356 246.339L380.644 246.339L380.644 243.801L364.356 243.801Z" fill="#176453"/>
<path d="M364.356 240.745L364.356 243.283L380.644 243.283L380.644 240.745L364.356 240.745Z" fill="#176453"/>
<path d="M364.356 237.689L364.356 240.227L380.644 240.227L380.644 237.689L364.356 237.689Z" fill="#176453"/>
<path d="M364.356 231.58L364.356 234.118L380.644 234.118L380.644 231.58L364.356 231.58Z" fill="#176453"/>
<path d="M345 256.023L345 258.562L361.287 258.562L361.287 256.023L345 256.023Z" fill="#176453"/>
<path d="M345 249.914L345 252.453L361.287 252.453L361.287 249.914L345 249.914Z" fill="#176453"/>
<path d="M345 246.857L345 249.396L361.287 249.396L361.287 246.857L345 246.857Z" fill="#176453"/>
<path d="M345 243.801L345 246.34L361.287 246.34L361.287 243.801L345 243.801Z" fill="#176453"/>
<path d="M345 237.689L345 240.227L361.287 240.227L361.287 237.689L345 237.689Z" fill="#176453"/>
<path d="M345 234.636L345 237.174L361.287 237.174L361.287 234.636L345 234.636Z" fill="#176453"/>
<path d="M345 228.523L345 231.062L361.287 231.062L361.287 228.523L345 228.523Z" fill="#176453"/>
<path d="M383.712 222.277L383.712 224.816L400 224.816L400 222.277L383.712 222.277Z" fill="#176453"/>
<path d="M364.356 225.334L364.356 227.873L380.644 227.873L380.644 225.334L364.356 225.334Z" fill="#176453"/>
<path d="M364.356 216.169L364.356 218.707L380.644 218.707L380.644 216.169L364.356 216.169Z" fill="#176453"/>
<path d="M364.356 207L364.356 209.538L380.644 209.538L380.644 207L364.356 207Z" fill="#176453"/>
<path d="M345 219.225L345 221.764L361.287 221.764L361.287 219.225L345 219.225Z" fill="#176453"/>
<path d="M345 210.056L345 212.595L361.287 212.595L361.287 210.056L345 210.056Z" fill="#176453"/>
<rect x="20.6867" y="99.713" width="353.091" height="42.1834" stroke="black" stroke-width="3.12469" stroke-linejoin="bevel"/>
<path d="M82.4953 126.542V115.862H84.021V125.016H90.1239V126.542H82.4953ZM92.8629 126.542V125.016H94.3887V117.387H92.8629V115.862H97.4401V117.387H95.9144V125.016H97.4401V126.542H92.8629ZM101.705 118.15V124.253H102.468V125.016H104.756V124.253H103.993V123.49H103.231V121.965H104.756V122.727H105.519V123.49H106.282V118.15H105.519V117.387H102.468V118.15H101.705ZM100.942 125.016H100.179V117.387H100.942V116.625H101.705V115.862H106.282V116.625H107.045V117.387H107.808V124.253H107.045V125.016H107.808V126.542H106.282V125.779H104.756V126.542H101.705V125.779H100.942V125.016ZM109.784 125.016H109.021V115.862H110.547V124.253H111.31V125.016H114.361V124.253H115.124V115.862H116.65V125.016H115.887V125.779H115.124V126.542H110.547V125.779H109.784V125.016ZM119.389 126.542V125.016H120.914V117.387H119.389V115.862H123.966V117.387H122.44V125.016H123.966V126.542H119.389ZM128.231 117.387V125.016H132.045V124.253H132.808V118.15H132.045V117.387H128.231ZM126.705 126.542V115.862H132.808V116.625H133.571V117.387H134.333V125.016H133.571V125.779H132.808V126.542H126.705ZM137.072 126.542V125.016H138.598V117.387H137.072V115.862H141.65V117.387H140.124V125.016H141.65V126.542H137.072ZM147.44 117.387H144.389V115.862H152.017V117.387H148.966V126.542H147.44V117.387ZM157.808 126.542H156.282V122.727H155.519V121.965H154.756V121.202H153.993V120.439H153.231V115.862H154.756V119.676H155.519V120.439H156.282V121.202H157.808V120.439H158.571V119.676H159.333V115.862H160.859V120.439H160.096V121.202H159.333V121.965H158.571V122.727H157.808V126.542ZM172.44 126.542H170.914V115.862H172.44V117.387H173.203V118.15H173.966V118.913H175.492V118.15H176.254V117.387H177.017V115.862H178.543V126.542H177.017V119.676H176.254V120.439H175.492V121.965H173.966V120.439H173.203V119.676H172.44V126.542ZM181.282 121.965H185.859V119.676H185.096V118.913H184.333V118.15H182.808V118.913H182.045V119.676H181.282V121.965ZM181.282 126.542H179.756V118.913H180.519V118.15H181.282V117.387H182.045V116.625H182.808V115.862H184.333V116.625H185.096V117.387H185.859V118.15H186.622V118.913H187.385V126.542H185.859V123.49H181.282V126.542ZM190.124 120.439V126.542H188.598V115.862H190.124V118.15H190.887V118.913H191.65V119.676H192.413V120.439H193.175V121.202H193.938V121.965H194.701V115.862H196.227V126.542H194.701V124.253H193.938V123.49H193.175V122.727H192.413V121.965H191.65V121.202H190.887V120.439H190.124ZM198.966 121.965H203.543V119.676H202.78V118.913H202.017V118.15H200.492V118.913H199.729V119.676H198.966V121.965ZM198.966 126.542H197.44V118.913H198.203V118.15H198.966V117.387H199.729V116.625H200.492V115.862H202.017V116.625H202.78V117.387H203.543V118.15H204.306V118.913H205.069V126.542H203.543V123.49H198.966V126.542ZM213.148 117.387H213.911V118.913H212.385V118.15H211.622V117.387H208.571V118.15H207.808V124.253H208.571V125.016H211.622V124.253H212.385V121.965H210.096V120.439H213.911V125.016H213.148V125.779H212.385V126.542H207.808V125.779H207.045V125.016H206.282V117.387H207.045V116.625H207.808V115.862H212.385V116.625H213.148V117.387ZM222.753 115.862V117.387H216.65V120.439H221.227V121.965H216.65V125.016H222.753V126.542H215.124V115.862H222.753ZM225.492 117.387V120.439H229.306V119.676H230.069V118.15H229.306V117.387H225.492ZM226.254 121.965H225.492V126.542H223.966V115.862H230.069V116.625H230.832V117.387H231.594V120.439H230.832V121.202H230.069V121.965H228.543V122.727H229.306V123.49H230.069V124.253H230.832V125.016H231.594V126.542H230.069V125.779H229.306V125.016H228.543V124.253H227.78V123.49H227.017V122.727H226.254V121.965ZM243.938 125.016H246.99V124.253H247.753V123.49H249.278V125.016H248.515V125.779H247.753V126.542H243.175V125.779H242.413V125.016H241.65V117.387H242.413V116.625H243.175V115.862H247.753V116.625H248.515V117.387H249.278V118.913H247.753V118.15H246.99V117.387H243.938V118.15H243.175V124.253H243.938V125.016ZM255.832 117.387H252.78V118.15H252.017V124.253H252.78V125.016H255.832V124.253H256.594V118.15H255.832V117.387ZM252.017 116.625V115.862H256.594V116.625H257.357V117.387H258.12V125.016H257.357V125.779H256.594V126.542H252.017V125.779H251.254V125.016H250.492V117.387H251.254V116.625H252.017ZM260.859 120.439V126.542H259.333V115.862H260.859V118.15H261.622V118.913H262.385V119.676H263.148V120.439H263.911V121.202H264.674V121.965H265.436V115.862H266.962V126.542H265.436V124.253H264.674V123.49H263.911V122.727H263.148V121.965H262.385V121.202H261.622V120.439H260.859ZM271.227 117.387H268.175V115.862H275.804V117.387H272.753V126.542H271.227V117.387ZM278.543 117.387V120.439H282.357V119.676H283.12V118.15H282.357V117.387H278.543ZM279.306 121.965H278.543V126.542H277.017V115.862H283.12V116.625H283.883V117.387H284.646V120.439H283.883V121.202H283.12V121.965H281.594V122.727H282.357V123.49H283.12V124.253H283.883V125.016H284.646V126.542H283.12V125.779H282.357V125.016H281.594V124.253H280.832V123.49H280.069V122.727H279.306V121.965ZM287.385 121.965H291.962V119.676H291.199V118.913H290.436V118.15H288.911V118.913H288.148V119.676H287.385V121.965ZM287.385 126.542H285.859V118.913H286.622V118.15H287.385V117.387H288.148V116.625H288.911V115.862H290.436V116.625H291.199V117.387H291.962V118.15H292.725V118.913H293.488V126.542H291.962V123.49H287.385V126.542ZM296.99 125.016H300.041V124.253H300.804V123.49H302.33V125.016H301.567V125.779H300.804V126.542H296.227V125.779H295.464V125.016H294.701V117.387H295.464V116.625H296.227V115.862H300.804V116.625H301.567V117.387H302.33V118.913H300.804V118.15H300.041V117.387H296.99V118.15H296.227V124.253H296.99V125.016ZM306.594 117.387H303.543V115.862H311.172V117.387H308.12V126.542H306.594V117.387Z" fill="black"/>
<rect x="169.892" y="177.83" width="54.6822" height="30.4658" stroke="#0439C7" stroke-width="3.12469" stroke-linejoin="bevel"/>
<rect x="141.769" y="209.077" width="110.927" height="30.4658" stroke="#0439C7" stroke-width="3.12469" stroke-linejoin="bevel"/>
<rect x="103.491" y="240.324" width="187.482" height="30.4658" stroke="#0439C7" stroke-width="3.12469" stroke-linejoin="bevel"/>
<path d="M17.5552 49.7114H16.7923V40.557H18.318V48.9485H19.0809V49.7114H22.1324V48.9485H22.8952V40.557H24.421V49.7114H23.6581V50.4743H22.8952V51.2371H18.318V50.4743H17.5552V49.7114ZM26.3971 49.7114H25.6342V48.1857H27.1599V48.9485H27.9228V49.7114H30.9743V48.1857H29.4485V47.4228H27.9228V46.6599H26.3971V45.8971H25.6342V44.3714H26.3971V43.6085H27.1599V42.8456H31.7371V43.6085H32.5V44.3714H33.2629V45.8971H31.7371V45.1342H30.9743V44.3714H27.9228V45.8971H30.2114V46.6599H31.7371V47.4228H32.5V48.1857H33.2629V49.7114H32.5V50.4743H31.7371V51.2371H27.1599V50.4743H26.3971V49.7114ZM36.0019 45.1342V45.8971H40.579V45.1342H39.8162V44.3714H36.7647V45.1342H36.0019ZM42.1048 48.9485V49.7114H41.3419V50.4743H40.579V51.2371H36.0019V50.4743H35.239V49.7114H34.4761V44.3714H35.239V43.6085H36.0019V42.8456H40.579V43.6085H41.3419V44.3714H42.1048V46.6599H41.3419V47.4228H36.0019V48.9485H36.7647V49.7114H39.8162V48.9485H42.1048ZM44.8438 46.6599V51.2371H43.318V42.8456H44.8438V44.3714H45.6066V43.6085H46.3695V42.8456H49.421V43.6085H50.1838V44.3714H50.9467V45.8971H49.421V45.1342H48.6581V44.3714H47.1324V45.1342H46.3695V45.8971H45.6066V46.6599H44.8438ZM67.1048 48.9485V48.1857H68.6305V49.7114H67.8676V50.4743H67.1048V51.2371H62.5276V50.4743H61.7647V49.7114H61.0019V44.3714H61.7647V43.6085H62.5276V42.8456H67.1048V43.6085H67.8676V44.3714H68.6305V45.8971H67.1048V45.1342H66.3419V44.3714H63.2905V45.1342H62.5276V48.9485H63.2905V49.7114H66.3419V48.9485H67.1048ZM72.1324 49.7114H75.1838V48.9485H75.9467V47.4228H75.1838V46.6599H72.1324V47.4228H71.3695V48.9485H72.1324V49.7114ZM71.3695 51.2371V50.4743H70.6066V49.7114H69.8438V46.6599H70.6066V45.8971H71.3695V45.1342H75.1838V45.8971H75.9467V44.3714H75.1838V43.6085H71.3695V42.0828H75.9467V42.8456H76.7095V43.6085H77.4724V51.2371H75.9467V50.4743H75.1838V51.2371H71.3695ZM80.2114 45.1342V51.2371H78.6857V42.8456H80.2114V43.6085H80.9743V42.8456H84.7886V43.6085H85.5515V44.3714H86.3143V51.2371H84.7886V45.1342H84.0257V44.3714H80.9743V45.1342H80.2114ZM102.472 48.9485V48.1857H103.998V49.7114H103.235V50.4743H102.472V51.2371H97.8952V50.4743H97.1324V49.7114H96.3695V44.3714H97.1324V43.6085H97.8952V42.8456H102.472V43.6085H103.235V44.3714H103.998V45.8971H102.472V45.1342H101.71V44.3714H98.6581V45.1342H97.8952V48.9485H98.6581V49.7114H101.71V48.9485H102.472ZM109.789 40.557V51.2371H108.263V40.557H109.789ZM116.342 49.7114H119.393V48.9485H120.156V47.4228H119.393V46.6599H116.342V47.4228H115.579V48.9485H116.342V49.7114ZM115.579 51.2371V50.4743H114.816V49.7114H114.053V46.6599H114.816V45.8971H115.579V45.1342H119.393V45.8971H120.156V44.3714H119.393V43.6085H115.579V42.0828H120.156V42.8456H120.919V43.6085H121.682V51.2371H120.156V50.4743H119.393V51.2371H115.579ZM127.472 41.3199V42.8456H125.947V41.3199H127.472ZM128.235 49.7114H128.998V51.2371H127.472V50.4743H126.71V49.7114H125.947V45.8971H124.421V44.3714H127.472V48.9485H128.235V49.7114ZM133.263 45.1342V51.2371H131.737V42.8456H133.263V43.6085H134.026V42.8456H137.84V43.6085H138.603V44.3714H139.366V51.2371H137.84V45.1342H137.077V44.3714H136.314V51.2371H134.789V44.3714H134.026V45.1342H133.263ZM30.2114 65.4743H30.9743V66.2371H29.4485V65.4743H28.6857V64.7114H27.9228V63.9485H27.1599V56.3199H27.9228V55.557H28.6857V54.7942H29.4485V54.0313H30.9743V54.7942H30.2114V55.557H29.4485V56.3199H28.6857V63.9485H29.4485V64.7114H30.2114V65.4743ZM36.0019 61.6599V66.2371H34.4761V57.8456H36.0019V59.3714H36.7647V58.6085H37.5276V57.8456H40.579V58.6085H41.3419V59.3714H42.1048V60.8971H40.579V60.1342H39.8162V59.3714H38.2905V60.1342H37.5276V60.8971H36.7647V61.6599H36.0019ZM44.8438 60.1342V60.8971H49.421V60.1342H48.6581V59.3714H45.6066V60.1342H44.8438ZM50.9467 63.9485V64.7114H50.1838V65.4743H49.421V66.2371H44.8438V65.4743H44.0809V64.7114H43.318V59.3714H44.0809V58.6085H44.8438V57.8456H49.421V58.6085H50.1838V59.3714H50.9467V61.6599H50.1838V62.4228H44.8438V63.9485H45.6066V64.7114H48.6581V63.9485H50.9467ZM52.1599 57.8456H53.6857V63.9485H54.4485V64.7114H55.2114V60.8971H56.7371V64.7114H57.5V63.9485H58.2629V57.8456H59.7886V64.7114H59.0257V65.4743H58.2629V66.2371H56.7371V65.4743H55.2114V66.2371H53.6857V65.4743H52.9228V64.7114H52.1599V57.8456ZM63.2905 64.7114H66.3419V63.9485H67.1048V62.4228H66.3419V61.6599H63.2905V62.4228H62.5276V63.9485H63.2905V64.7114ZM62.5276 66.2371V65.4743H61.7647V64.7114H61.0019V61.6599H61.7647V60.8971H62.5276V60.1342H66.3419V60.8971H67.1048V59.3714H66.3419V58.6085H62.5276V57.0828H67.1048V57.8456H67.8676V58.6085H68.6305V66.2371H67.1048V65.4743H66.3419V66.2371H62.5276ZM71.3695 61.6599V66.2371H69.8438V57.8456H71.3695V59.3714H72.1324V58.6085H72.8952V57.8456H75.9467V58.6085H76.7096V59.3714H77.4724V60.8971H75.9467V60.1342H75.1838V59.3714H73.6581V60.1342H72.8952V60.8971H72.1324V61.6599H71.3695ZM84.7886 59.3714V55.557H86.3143V66.2371H84.7886V64.7114H84.0257V65.4743H83.2629V66.2371H80.9743V65.4743H80.2114V64.7114H79.4485V63.9485H78.6857V60.1342H79.4485V59.3714H80.2114V58.6085H80.9743V57.8456H83.2629V58.6085H84.0257V59.3714H84.7886ZM80.9743 63.9485H81.7371V64.7114H82.5V63.9485H83.2629V63.1857H84.0257V60.8971H83.2629V60.1342H82.5V59.3714H81.7371V60.1342H80.9743V60.8971H80.2114V63.1857H80.9743V63.9485ZM90.579 57.0828H87.5276V55.557H95.1562V57.0828H92.1048V66.2371H90.579V57.0828ZM98.6581 64.7114H101.71V63.9485H102.472V60.1342H101.71V59.3714H98.6581V60.1342H97.8952V63.9485H98.6581V64.7114ZM97.8952 66.2371V65.4743H97.1324V64.7114H96.3695V59.3714H97.1324V58.6085H97.8952V57.8456H102.472V58.6085H103.235V59.3714H103.998V64.7114H103.235V65.4743H102.472V66.2371H97.8952ZM106.737 64.7114V66.2371H105.211V55.557H106.737V62.4228H107.5V61.6599H108.263V60.8971H109.026V60.1342H109.789V59.3714H110.551V58.6085H111.314V57.8456H112.84V59.3714H112.077V60.1342H111.314V60.8971H110.551V61.6599H109.789V62.4228H110.551V63.1857H111.314V63.9485H112.077V64.7114H112.84V66.2371H111.314V65.4743H110.551V64.7114H109.789V63.9485H109.026V63.1857H108.263V63.9485H107.5V64.7114H106.737ZM115.579 60.1342V60.8971H120.156V60.1342H119.393V59.3714H116.342V60.1342H115.579ZM121.682 63.9485V64.7114H120.919V65.4743H120.156V66.2371H115.579V65.4743H114.816V64.7114H114.053V59.3714H114.816V58.6085H115.579V57.8456H120.156V58.6085H120.919V59.3714H121.682V61.6599H120.919V62.4228H115.579V63.9485H116.342V64.7114H119.393V63.9485H121.682ZM124.421 60.1342V66.2371H122.895V57.8456H124.421V58.6085H125.184V57.8456H128.998V58.6085H129.761V59.3714H130.524V66.2371H128.998V60.1342H128.235V59.3714H125.184V60.1342H124.421ZM135.551 65.4743V66.2371H134.026V65.4743H134.789V64.7114H135.551V63.9485H136.314V56.3199H135.551V55.557H134.789V54.7942H134.026V54.0313H135.551V54.7942H136.314V55.557H137.077V56.3199H137.84V63.9485H137.077V64.7114H136.314V65.4743H135.551Z" fill="black"/>
<path d="M304.502 42.0828V45.1342H308.316V44.3714H309.079V42.8456H308.316V42.0828H304.502ZM305.265 46.6599H304.502V51.2371H302.976V40.557H309.079V41.3199H309.842V42.0828H310.605V45.1342H309.842V45.8971H309.079V46.6599H307.554V47.4228H308.316V48.1857H309.079V48.9485H309.842V49.7114H310.605V51.2371H309.079V50.4743H308.316V49.7114H307.554V48.9485H306.791V48.1857H306.028V47.4228H305.265V46.6599ZM319.447 40.557V42.0828H313.344V45.1342H317.921V46.6599H313.344V49.7114H319.447V51.2371H311.818V40.557H319.447ZM320.66 40.557H322.186V48.9485H323.712V45.1342H325.237V48.9485H326.763V40.557H328.289V49.7114H327.526V50.4743H326.763V51.2371H325.237V50.4743H323.712V51.2371H322.186V50.4743H321.423V49.7114H320.66V40.557ZM331.028 46.6599H335.605V44.3714H334.842V43.6085H334.079V42.8456H332.554V43.6085H331.791V44.3714H331.028V46.6599ZM331.028 51.2371H329.502V43.6085H330.265V42.8456H331.028V42.0828H331.791V41.3199H332.554V40.557H334.079V41.3199H334.842V42.0828H335.605V42.8456H336.368V43.6085H337.131V51.2371H335.605V48.1857H331.028V51.2371ZM339.87 42.0828V45.1342H343.684V44.3714H344.447V42.8456H343.684V42.0828H339.87ZM340.633 46.6599H339.87V51.2371H338.344V40.557H344.447V41.3199H345.21V42.0828H345.973V45.1342H345.21V45.8971H344.447V46.6599H342.921V47.4228H343.684V48.1857H344.447V48.9485H345.21V49.7114H345.973V51.2371H344.447V50.4743H343.684V49.7114H342.921V48.9485H342.158V48.1857H341.395V47.4228H340.633V46.6599ZM348.712 42.0828V49.7114H352.526V48.9485H353.289V42.8456H352.526V42.0828H348.712ZM347.186 51.2371V40.557H353.289V41.3199H354.052V42.0828H354.815V49.7114H354.052V50.4743H353.289V51.2371H347.186ZM362.894 42.0828H363.656V43.6085H362.131V42.8456H361.368V42.0828H358.316V42.8456H357.554V44.3714H358.316V45.1342H362.131V45.8971H362.894V46.6599H363.656V49.7114H362.894V50.4743H362.131V51.2371H357.554V50.4743H356.791V49.7114H356.028V48.1857H357.554V48.9485H358.316V49.7114H361.368V48.9485H362.131V47.4228H361.368V46.6599H357.554V45.8971H356.791V45.1342H356.028V42.0828H356.791V41.3199H357.554V40.557H362.131V41.3199H362.894V42.0828ZM300.237 59.3714V55.557H301.763V66.2371H300.237V64.7114H299.474V65.4743H298.712V66.2371H296.423V65.4743H295.66V64.7114H294.897V63.9485H294.134V60.1342H294.897V59.3714H295.66V58.6085H296.423V57.8456H298.712V58.6085H299.474V59.3714H300.237ZM296.423 63.9485H297.186V64.7114H297.949V63.9485H298.712V63.1857H299.474V60.8971H298.712V60.1342H297.949V59.3714H297.186V60.1342H296.423V60.8971H295.66V63.1857H296.423V63.9485ZM304.502 60.1342V60.8971H309.079V60.1342H308.316V59.3714H305.265V60.1342H304.502ZM310.605 63.9485V64.7114H309.842V65.4743H309.079V66.2371H304.502V65.4743H303.739V64.7114H302.976V59.3714H303.739V58.6085H304.502V57.8456H309.079V58.6085H309.842V59.3714H310.605V61.6599H309.842V62.4228H304.502V63.9485H305.265V64.7114H308.316V63.9485H310.605ZM317.921 59.3714H317.158V58.6085H314.87V59.3714H314.107V61.6599H314.87V62.4228H317.158V61.6599H317.921V59.3714ZM313.344 63.1857V66.2371H311.818V57.0828H313.344V57.8456H314.107V57.0828H317.921V57.8456H318.684V58.6085H319.447V62.4228H318.684V63.1857H317.921V63.9485H314.107V63.1857H313.344ZM322.949 64.7114H326V63.9485H326.763V60.1342H326V59.3714H322.949V60.1342H322.186V63.9485H322.949V64.7114ZM322.186 66.2371V65.4743H321.423V64.7114H320.66V59.3714H321.423V58.6085H322.186V57.8456H326.763V58.6085H327.526V59.3714H328.289V64.7114H327.526V65.4743H326.763V66.2371H322.186ZM330.265 64.7114H329.502V63.1857H331.028V63.9485H331.791V64.7114H334.842V63.1857H333.316V62.4228H331.791V61.6599H330.265V60.8971H329.502V59.3714H330.265V58.6085H331.028V57.8456H335.605V58.6085H336.368V59.3714H337.131V60.8971H335.605V60.1342H334.842V59.3714H331.791V60.8971H334.079V61.6599H335.605V62.4228H336.368V63.1857H337.131V64.7114H336.368V65.4743H335.605V66.2371H331.028V65.4743H330.265V64.7114ZM342.921 56.3199V57.8456H341.395V56.3199H342.921ZM343.684 64.7114H344.447V66.2371H342.921V65.4743H342.158V64.7114H341.395V60.8971H339.87V59.3714H342.921V63.9485H343.684V64.7114ZM352.526 64.7114H353.289V66.2371H351.763V65.4743H351V64.7114H350.237V59.3714H348.712V57.8456H350.237V55.557H351.763V57.8456H353.289V59.3714H351.763V63.9485H352.526V64.7114ZM360.605 65.4743H361.368V66.2371H359.842V65.4743H359.079V64.7114H358.316V63.9485H357.554V56.3199H358.316V55.557H359.079V54.7942H359.842V54.0313H361.368V54.7942H360.605V55.557H359.842V56.3199H359.079V63.9485H359.842V64.7114H360.605V65.4743ZM368.684 65.4743V66.2371H367.158V65.4743H367.921V64.7114H368.684V63.9485H369.447V56.3199H368.684V55.557H367.921V54.7942H367.158V54.0313H368.684V54.7942H369.447V55.557H370.21V56.3199H370.973V63.9485H370.21V64.7114H369.447V65.4743H368.684Z" fill="black"/>
<path d="M181.012 310.026V313.077H184.826V312.314H185.589V310.788H184.826V310.026H181.012ZM181.012 314.603V319.18H179.486V308.5H185.589V309.263H186.352V310.026H187.115V313.077H186.352V313.84H185.589V314.603H181.012ZM189.854 310.026V313.077H193.668V312.314H194.431V310.788H193.668V310.026H189.854ZM190.617 314.603H189.854V319.18H188.328V308.5H194.431V309.263H195.194V310.026H195.957V313.077H195.194V313.84H194.431V314.603H192.905V315.366H193.668V316.129H194.431V316.891H195.194V317.654H195.957V319.18H194.431V318.417H193.668V317.654H192.905V316.891H192.142V316.129H191.38V315.366H190.617V314.603ZM198.696 319.18V317.654H200.222V310.026H198.696V308.5H203.273V310.026H201.747V317.654H203.273V319.18H198.696ZM208.301 317.654H211.352V316.891H212.115V316.129H213.641V317.654H212.878V318.417H212.115V319.18H207.538V318.417H206.775V317.654H206.012V310.026H206.775V309.263H207.538V308.5H212.115V309.263H212.878V310.026H213.641V311.551H212.115V310.788H211.352V310.026H208.301V310.788H207.538V316.891H208.301V317.654ZM222.483 308.5V310.026H216.38V313.077H220.957V314.603H216.38V317.654H222.483V319.18H214.854V308.5H222.483Z" fill="black"/>
<line x1="198.795" y1="161.426" x2="198.795" y2="299.694" stroke="black" stroke-width="3.12469" stroke-dasharray="6.25 6.25"/>
<path d="M277.693 60.6543H249.571" stroke="black" stroke-width="2.34352"/>
<path d="M172.234 60.6543L183.952 67.4195L183.952 53.8891L172.234 60.6543ZM182.78 61.8261L209.731 61.8261L209.731 59.4825L182.78 59.4825L182.78 61.8261Z" fill="black"/>
<path d="M248.79 91.1201L255.555 79.4025L242.025 79.4025L248.79 91.1201ZM247.618 61.4355L247.618 80.5743L249.962 80.5743L249.962 61.4355L247.618 61.4355Z" fill="black"/>
<path d="M208.95 61.4355L208.95 91.1202" stroke="black" stroke-width="2.34352"/>
<path d="M25.8916 209.891L25.8916 208L23.9996 208L23.9996 209.891L25.8916 209.891Z" fill="#176453"/>
<path d="M25.8916 212.164L25.8916 210.273L23.9996 210.273L23.9996 212.164L25.8916 212.164Z" fill="#176453"/>
<path d="M25.8916 214.44L25.8916 212.549L23.9996 212.549L23.9996 214.44L25.8916 214.44Z" fill="#176453"/>
<path d="M25.8916 216.716L25.8916 214.826L23.9996 214.826L23.9996 216.716L25.8916 216.716Z" fill="#176453"/>
<path d="M28.1377 209.891L28.1377 208L26.2457 208L26.2457 209.891L28.1377 209.891Z" fill="#176453"/>
<path d="M28.1377 214.44L28.1377 212.549L26.2457 212.549L26.2457 214.44L28.1377 214.44Z" fill="#176453"/>
<path d="M28.1377 216.716L28.1377 214.826L26.2457 214.826L26.2457 216.716L28.1377 216.716Z" fill="#176453"/>
<path d="M30.3857 209.891L30.3857 208L28.4937 208L28.4937 209.891L30.3857 209.891Z" fill="#176453"/>
<path d="M30.3857 212.164L30.3857 210.273L28.4937 210.273L28.4937 212.164L30.3857 212.164Z" fill="#176453"/>
<path d="M30.3857 214.44L30.3857 212.549L28.4937 212.549L28.4937 214.44L30.3857 214.44Z" fill="#176453"/>
<path d="M25.8916 219.091L25.8916 217.201L23.9996 217.201L23.9996 219.091L25.8916 219.091Z" fill="#176453"/>
<path d="M25.8916 223.641L25.8916 221.75L23.9996 221.75L23.9996 223.641L25.8916 223.641Z" fill="#176453"/>
<path d="M25.8916 225.917L25.8916 224.026L23.9996 224.026L23.9996 225.917L25.8916 225.917Z" fill="#176453"/>
<path d="M25.8916 230.47L25.8916 228.579L23.9996 228.579L23.9996 230.47L25.8916 230.47Z" fill="#176453"/>
<path d="M25.8916 239.571L25.8916 237.681L23.9996 237.681L23.9996 239.571L25.8916 239.571Z" fill="#176453"/>
<path d="M28.1377 219.091L28.1377 217.201L26.2457 217.201L26.2457 219.091L28.1377 219.091Z" fill="#176453"/>
<path d="M28.1377 221.365L28.1377 219.474L26.2457 219.474L26.2457 221.365L28.1377 221.365Z" fill="#176453"/>
<path d="M28.1377 225.917L28.1377 224.026L26.2457 224.026L26.2457 225.917L28.1377 225.917Z" fill="#176453"/>
<path d="M28.1377 228.193L28.1377 226.303L26.2457 226.303L26.2457 228.193L28.1377 228.193Z" fill="#176453"/>
<path d="M28.1377 230.47L28.1377 228.579L26.2457 228.579L26.2457 230.47L28.1377 230.47Z" fill="#176453"/>
<path d="M28.1377 232.743L28.1377 230.853L26.2457 230.853L26.2457 232.743L28.1377 232.743Z" fill="#176453"/>
<path d="M28.1377 237.295L28.1377 235.405L26.2457 235.405L26.2457 237.295L28.1377 237.295Z" fill="#176453"/>
<path d="M30.3857 219.091L30.3857 217.201L28.4937 217.201L28.4937 219.091L30.3857 219.091Z" fill="#176453"/>
<path d="M30.3857 221.365L30.3857 219.474L28.4937 219.474L28.4937 221.365L30.3857 221.365Z" fill="#176453"/>
<path d="M30.3857 223.641L30.3857 221.75L28.4937 221.75L28.4937 223.641L30.3857 223.641Z" fill="#176453"/>
<path d="M30.3857 225.917L30.3857 224.026L28.4937 224.026L28.4937 225.917L30.3857 225.917Z" fill="#176453"/>
<path d="M30.3857 228.193L30.3857 226.303L28.4937 226.303L28.4937 228.193L30.3857 228.193Z" fill="#176453"/>
<path d="M32.6553 228.193L32.6553 226.303L30.7633 226.303L30.7633 228.193L32.6553 228.193Z" fill="#176453"/>
<path d="M30.3857 232.743L30.3857 230.853L28.4937 230.853L28.4937 232.743L30.3857 232.743Z" fill="#176453"/>
<path d="M30.3857 235.019L30.3857 233.128L28.4937 233.128L28.4937 235.019L30.3857 235.019Z" fill="#176453"/>
<path d="M30.3857 239.571L30.3857 237.681L28.4937 237.681L28.4937 239.571L30.3857 239.571Z" fill="#176453"/>
<path d="M25.8916 244.22L25.8916 242.33L23.9996 242.33L23.9996 244.22L25.8916 244.22Z" fill="#176453"/>
<path d="M28.1377 241.944L28.1377 240.053L26.2457 240.053L26.2457 241.944L28.1377 241.944Z" fill="#176453"/>
<path d="M28.1377 248.772L28.1377 246.882L26.2457 246.882L26.2457 248.772L28.1377 248.772Z" fill="#176453"/>
<path d="M28.1377 255.598L28.1377 253.708L26.2457 253.708L26.2457 255.598L28.1377 255.598Z" fill="#176453"/>
<path d="M30.3857 246.496L30.3857 244.605L28.4937 244.605L28.4937 246.496L30.3857 246.496Z" fill="#176453"/>
<path d="M30.3857 253.322L30.3857 251.431L28.4937 251.431L28.4937 253.322L30.3857 253.322Z" fill="#176453"/>
<path d="M30.3857 257.968L30.3857 256.077L28.4937 256.077L28.4937 257.968L30.3857 257.968Z" fill="#176453"/>
<path d="M32.6553 209.891L32.6553 208L30.7633 208L30.7633 209.891L32.6553 209.891Z" fill="#176453"/>
<path d="M32.6553 212.164L32.6553 210.273L30.7633 210.273L30.7633 212.164L32.6553 212.164Z" fill="#176453"/>
<path d="M32.6553 214.44L32.6553 212.549L30.7633 212.549L30.7633 214.44L32.6553 214.44Z" fill="#176453"/>
<path d="M32.6553 216.716L32.6553 214.826L30.7633 214.826L30.7633 216.716L32.6553 216.716Z" fill="#176453"/>
<path d="M34.9043 209.891L34.9043 208L33.0123 208L33.0123 209.891L34.9043 209.891Z" fill="#176453"/>
<path d="M34.9043 214.44L34.9043 212.549L33.0123 212.549L33.0123 214.44L34.9043 214.44Z" fill="#176453"/>
<path d="M34.9043 216.716L34.9043 214.826L33.0123 214.826L33.0123 216.716L34.9043 216.716Z" fill="#176453"/>
<path d="M37.1523 209.891L37.1523 208L35.2604 208L35.2604 209.891L37.1523 209.891Z" fill="#176453"/>
<path d="M37.1523 212.164L37.1523 210.273L35.2604 210.273L35.2604 212.164L37.1523 212.164Z" fill="#176453"/>
<path d="M37.1523 214.44L37.1523 212.55L35.2604 212.55L35.2604 214.44L37.1523 214.44Z" fill="#176453"/>
<path d="M32.6553 219.091L32.6553 217.201L30.7633 217.201L30.7633 219.091L32.6553 219.091Z" fill="#176453"/>
<path d="M32.6553 223.641L32.6553 221.75L30.7633 221.75L30.7633 223.641L32.6553 223.641Z" fill="#176453"/>
<path d="M32.6553 225.917L32.6553 224.026L30.7633 224.026L30.7633 225.917L32.6553 225.917Z" fill="#176453"/>
<path d="M32.6553 230.47L32.6553 228.579L30.7633 228.579L30.7633 230.47L32.6553 230.47Z" fill="#176453"/>
<path d="M32.6553 239.571L32.6553 237.681L30.7633 237.681L30.7633 239.571L32.6553 239.571Z" fill="#176453"/>
<path d="M34.9043 219.091L34.9043 217.201L33.0123 217.201L33.0123 219.091L34.9043 219.091Z" fill="#176453"/>
<path d="M34.9043 221.365L34.9043 219.474L33.0123 219.474L33.0123 221.365L34.9043 221.365Z" fill="#176453"/>
<path d="M34.9043 225.917L34.9043 224.026L33.0123 224.026L33.0123 225.917L34.9043 225.917Z" fill="#176453"/>
<path d="M34.9043 228.193L34.9043 226.303L33.0123 226.303L33.0123 228.193L34.9043 228.193Z" fill="#176453"/>
<path d="M34.9043 230.47L34.9043 228.579L33.0123 228.579L33.0123 230.47L34.9043 230.47Z" fill="#176453"/>
<path d="M34.9043 232.743L34.9043 230.853L33.0123 230.853L33.0123 232.743L34.9043 232.743Z" fill="#176453"/>
<path d="M34.9043 237.295L34.9043 235.405L33.0123 235.405L33.0123 237.295L34.9043 237.295Z" fill="#176453"/>
<path d="M37.1523 219.092L37.1523 217.201L35.2604 217.201L35.2604 219.092L37.1523 219.092Z" fill="#176453"/>
<path d="M37.1523 223.641L37.1523 221.75L35.2604 221.75L35.2604 223.641L37.1523 223.641Z" fill="#176453"/>
<path d="M37.1523 225.917L37.1523 224.026L35.2604 224.026L35.2604 225.917L37.1523 225.917Z" fill="#176453"/>
<path d="M37.1523 228.193L37.1523 226.303L35.2604 226.303L35.2604 228.193L37.1523 228.193Z" fill="#176453"/>
<path d="M37.1523 230.47L37.1523 228.579L35.2604 228.579L35.2604 230.47L37.1523 230.47Z" fill="#176453"/>
<path d="M37.1523 232.743L37.1523 230.853L35.2604 230.853L35.2604 232.743L37.1523 232.743Z" fill="#176453"/>
<path d="M37.1523 235.019L37.1523 233.128L35.2604 233.128L35.2604 235.019L37.1523 235.019Z" fill="#176453"/>
<path d="M37.1523 239.571L37.1523 237.681L35.2604 237.681L35.2604 239.571L37.1523 239.571Z" fill="#176453"/>
<path d="M32.6553 244.22L32.6553 242.33L30.7633 242.33L30.7633 244.22L32.6553 244.22Z" fill="#176453"/>
<path d="M32.6553 261.516L32.6553 259.625L30.7633 259.625L30.7633 261.516L32.6553 261.516Z" fill="#176453"/>
<path d="M34.9043 241.944L34.9043 240.053L33.0123 240.053L33.0123 241.944L34.9043 241.944Z" fill="#176453"/>
<path d="M34.9043 248.772L34.9043 246.882L33.0123 246.882L33.0123 248.772L34.9043 248.772Z" fill="#176453"/>
<path d="M34.9043 255.598L34.9043 253.708L33.0123 253.708L33.0123 255.598L34.9043 255.598Z" fill="#176453"/>
<path d="M37.1523 246.496L37.1523 244.605L35.2604 244.605L35.2604 246.496L37.1523 246.496Z" fill="#176453"/>
<path d="M37.1523 253.322L37.1523 251.431L35.2604 251.431L35.2604 253.322L37.1523 253.322Z" fill="#176453"/>
<path d="M64.8916 291.891L64.8916 290L62.9996 290L62.9996 291.891L64.8916 291.891Z" fill="#176453"/>
<path d="M64.8916 294.164L64.8916 292.273L62.9996 292.273L62.9996 294.164L64.8916 294.164Z" fill="#176453"/>
<path d="M64.8916 296.44L64.8916 294.549L62.9996 294.549L62.9996 296.44L64.8916 296.44Z" fill="#176453"/>
<path d="M64.8916 298.716L64.8916 296.826L62.9996 296.826L62.9996 298.716L64.8916 298.716Z" fill="#176453"/>
<path d="M67.1377 291.891L67.1377 290L65.2457 290L65.2457 291.891L67.1377 291.891Z" fill="#176453"/>
<path d="M67.1377 296.44L67.1377 294.549L65.2457 294.549L65.2457 296.44L67.1377 296.44Z" fill="#176453"/>
<path d="M67.1377 298.716L67.1377 296.826L65.2457 296.826L65.2457 298.716L67.1377 298.716Z" fill="#176453"/>
<path d="M69.3857 291.891L69.3857 290L67.4937 290L67.4937 291.891L69.3857 291.891Z" fill="#176453"/>
<path d="M69.3857 294.164L69.3857 292.273L67.4937 292.273L67.4937 294.164L69.3857 294.164Z" fill="#176453"/>
<path d="M69.3857 296.44L69.3857 294.549L67.4937 294.549L67.4937 296.44L69.3857 296.44Z" fill="#176453"/>
<path d="M64.8916 301.091L64.8916 299.201L62.9996 299.201L62.9996 301.091L64.8916 301.091Z" fill="#176453"/>
<path d="M64.8916 305.641L64.8916 303.75L62.9996 303.75L62.9996 305.641L64.8916 305.641Z" fill="#176453"/>
<path d="M64.8916 307.917L64.8916 306.026L62.9996 306.026L62.9996 307.917L64.8916 307.917Z" fill="#176453"/>
<path d="M64.8916 312.47L64.8916 310.579L62.9996 310.579L62.9996 312.47L64.8916 312.47Z" fill="#176453"/>
<path d="M64.8916 321.571L64.8916 319.681L62.9996 319.681L62.9996 321.571L64.8916 321.571Z" fill="#176453"/>
<path d="M67.1377 301.091L67.1377 299.201L65.2457 299.201L65.2457 301.091L67.1377 301.091Z" fill="#176453"/>
<path d="M67.1377 303.365L67.1377 301.474L65.2457 301.474L65.2457 303.365L67.1377 303.365Z" fill="#176453"/>
<path d="M67.1377 307.917L67.1377 306.026L65.2457 306.026L65.2457 307.917L67.1377 307.917Z" fill="#176453"/>
<path d="M67.1377 310.193L67.1377 308.303L65.2457 308.303L65.2457 310.193L67.1377 310.193Z" fill="#176453"/>
<path d="M67.1377 312.47L67.1377 310.579L65.2457 310.579L65.2457 312.47L67.1377 312.47Z" fill="#176453"/>
<path d="M67.1377 314.743L67.1377 312.853L65.2457 312.853L65.2457 314.743L67.1377 314.743Z" fill="#176453"/>
<path d="M67.1377 319.295L67.1377 317.405L65.2457 317.405L65.2457 319.295L67.1377 319.295Z" fill="#176453"/>
<path d="M69.3857 301.091L69.3857 299.201L67.4937 299.201L67.4937 301.091L69.3857 301.091Z" fill="#176453"/>
<path d="M69.3857 303.365L69.3857 301.474L67.4937 301.474L67.4937 303.365L69.3857 303.365Z" fill="#176453"/>
<path d="M69.3857 305.641L69.3857 303.75L67.4937 303.75L67.4937 305.641L69.3857 305.641Z" fill="#176453"/>
<path d="M69.3857 307.917L69.3857 306.026L67.4937 306.026L67.4937 307.917L69.3857 307.917Z" fill="#176453"/>
<path d="M69.3857 310.193L69.3857 308.303L67.4937 308.303L67.4937 310.193L69.3857 310.193Z" fill="#176453"/>
<path d="M71.6553 310.193L71.6553 308.303L69.7633 308.303L69.7633 310.193L71.6553 310.193Z" fill="#176453"/>
<path d="M69.3857 314.743L69.3857 312.853L67.4937 312.853L67.4937 314.743L69.3857 314.743Z" fill="#176453"/>
<path d="M69.3857 317.019L69.3857 315.128L67.4937 315.128L67.4937 317.019L69.3857 317.019Z" fill="#176453"/>
<path d="M69.3857 321.571L69.3857 319.681L67.4937 319.681L67.4937 321.571L69.3857 321.571Z" fill="#176453"/>
<path d="M64.8916 326.22L64.8916 324.33L62.9996 324.33L62.9996 326.22L64.8916 326.22Z" fill="#176453"/>
<path d="M67.1377 323.944L67.1377 322.053L65.2457 322.053L65.2457 323.944L67.1377 323.944Z" fill="#176453"/>
<path d="M67.1377 330.772L67.1377 328.882L65.2457 328.882L65.2457 330.772L67.1377 330.772Z" fill="#176453"/>
<path d="M67.1377 337.598L67.1377 335.708L65.2457 335.708L65.2457 337.598L67.1377 337.598Z" fill="#176453"/>
<path d="M69.3857 328.496L69.3857 326.605L67.4937 326.605L67.4937 328.496L69.3857 328.496Z" fill="#176453"/>
<path d="M69.3857 335.322L69.3857 333.431L67.4937 333.431L67.4937 335.322L69.3857 335.322Z" fill="#176453"/>
<path d="M69.3857 339.968L69.3857 338.077L67.4937 338.077L67.4937 339.968L69.3857 339.968Z" fill="#176453"/>
<path d="M71.6553 291.891L71.6553 290L69.7633 290L69.7633 291.891L71.6553 291.891Z" fill="#176453"/>
<path d="M71.6553 294.164L71.6553 292.273L69.7633 292.273L69.7633 294.164L71.6553 294.164Z" fill="#176453"/>
<path d="M71.6553 296.44L71.6553 294.549L69.7633 294.549L69.7633 296.44L71.6553 296.44Z" fill="#176453"/>
<path d="M71.6553 298.716L71.6553 296.826L69.7633 296.826L69.7633 298.716L71.6553 298.716Z" fill="#176453"/>
<path d="M73.9043 291.891L73.9043 290L72.0123 290L72.0123 291.891L73.9043 291.891Z" fill="#176453"/>
<path d="M73.9043 296.44L73.9043 294.549L72.0123 294.549L72.0123 296.44L73.9043 296.44Z" fill="#176453"/>
<path d="M73.9043 298.716L73.9043 296.826L72.0123 296.826L72.0123 298.716L73.9043 298.716Z" fill="#176453"/>
<path d="M76.1523 291.891L76.1523 290L74.2604 290L74.2604 291.891L76.1523 291.891Z" fill="#176453"/>
<path d="M76.1523 294.164L76.1523 292.273L74.2604 292.273L74.2604 294.164L76.1523 294.164Z" fill="#176453"/>
<path d="M76.1523 296.44L76.1523 294.55L74.2604 294.55L74.2604 296.44L76.1523 296.44Z" fill="#176453"/>
<path d="M71.6553 301.091L71.6553 299.201L69.7633 299.201L69.7633 301.091L71.6553 301.091Z" fill="#176453"/>
<path d="M71.6553 305.641L71.6553 303.75L69.7633 303.75L69.7633 305.641L71.6553 305.641Z" fill="#176453"/>
<path d="M71.6553 307.917L71.6553 306.026L69.7633 306.026L69.7633 307.917L71.6553 307.917Z" fill="#176453"/>
<path d="M71.6553 312.47L71.6553 310.579L69.7633 310.579L69.7633 312.47L71.6553 312.47Z" fill="#176453"/>
<path d="M71.6553 321.571L71.6553 319.681L69.7633 319.681L69.7633 321.571L71.6553 321.571Z" fill="#176453"/>
<path d="M73.9043 301.091L73.9043 299.201L72.0123 299.201L72.0123 301.091L73.9043 301.091Z" fill="#176453"/>
<path d="M73.9043 303.365L73.9043 301.474L72.0123 301.474L72.0123 303.365L73.9043 303.365Z" fill="#176453"/>
<path d="M73.9043 307.917L73.9043 306.026L72.0123 306.026L72.0123 307.917L73.9043 307.917Z" fill="#176453"/>
<path d="M73.9043 310.193L73.9043 308.303L72.0123 308.303L72.0123 310.193L73.9043 310.193Z" fill="#176453"/>
<path d="M73.9043 312.47L73.9043 310.579L72.0123 310.579L72.0123 312.47L73.9043 312.47Z" fill="#176453"/>
<path d="M73.9043 314.743L73.9043 312.853L72.0123 312.853L72.0123 314.743L73.9043 314.743Z" fill="#176453"/>
<path d="M73.9043 319.295L73.9043 317.405L72.0123 317.405L72.0123 319.295L73.9043 319.295Z" fill="#176453"/>
<path d="M76.1523 301.092L76.1523 299.201L74.2604 299.201L74.2604 301.092L76.1523 301.092Z" fill="#176453"/>
<path d="M76.1523 305.641L76.1523 303.75L74.2604 303.75L74.2604 305.641L76.1523 305.641Z" fill="#176453"/>
<path d="M76.1523 307.917L76.1523 306.026L74.2604 306.026L74.2604 307.917L76.1523 307.917Z" fill="#176453"/>
<path d="M76.1523 310.193L76.1523 308.303L74.2604 308.303L74.2604 310.193L76.1523 310.193Z" fill="#176453"/>
<path d="M76.1523 312.47L76.1523 310.579L74.2604 310.579L74.2604 312.47L76.1523 312.47Z" fill="#176453"/>
<path d="M76.1523 314.743L76.1523 312.853L74.2604 312.853L74.2604 314.743L76.1523 314.743Z" fill="#176453"/>
<path d="M76.1523 317.019L76.1523 315.128L74.2604 315.128L74.2604 317.019L76.1523 317.019Z" fill="#176453"/>
<path d="M76.1523 321.571L76.1523 319.681L74.2604 319.681L74.2604 321.571L76.1523 321.571Z" fill="#176453"/>
<path d="M71.6553 326.22L71.6553 324.33L69.7633 324.33L69.7633 326.22L71.6553 326.22Z" fill="#176453"/>
<path d="M71.6553 343.516L71.6553 341.625L69.7633 341.625L69.7633 343.516L71.6553 343.516Z" fill="#176453"/>
<path d="M73.9043 323.944L73.9043 322.053L72.0123 322.053L72.0123 323.944L73.9043 323.944Z" fill="#176453"/>
<path d="M73.9043 330.772L73.9043 328.882L72.0123 328.882L72.0123 330.772L73.9043 330.772Z" fill="#176453"/>
<path d="M73.9043 337.598L73.9043 335.708L72.0123 335.708L72.0123 337.598L73.9043 337.598Z" fill="#176453"/>
<path d="M76.1523 328.496L76.1523 326.605L74.2604 326.605L74.2604 328.496L76.1523 328.496Z" fill="#176453"/>
<path d="M76.1523 335.322L76.1523 333.431L74.2604 333.431L74.2604 335.322L76.1523 335.322Z" fill="#176453"/>
</svg>
