<svg width="390" height="375" viewBox="0 0 390 375" fill="none" xmlns="http://www.w3.org/2000/svg">
<rect width="390" height="375" fill="#33E6BF"/>
<path d="M258.215 68.9564L258.215 71.6839L255.485 71.6839L255.485 68.9564L258.215 68.9564Z" fill="#000403"/>
<path d="M258.215 65.6704L258.215 68.3979L255.485 68.3979L255.485 65.6704L258.215 65.6704Z" fill="#000403"/>
<path d="M258.215 62.3879L258.215 65.1154L255.485 65.1154L255.485 62.3879L258.215 62.3879Z" fill="#000403"/>
<path d="M258.215 55.8233L258.215 58.5508L255.485 58.5508L255.485 55.8233L258.215 55.8233Z" fill="#000403"/>
<path d="M258.215 52.5407L258.215 55.2682L255.485 55.2682L255.485 52.5407L258.215 52.5407Z" fill="#000403"/>
<path d="M258.215 45.9723L258.215 48.6998L255.485 48.6998L255.485 45.9723L258.215 45.9723Z" fill="#000403"/>
<path d="M258.215 42.6901L258.215 45.4176L255.485 45.4176L255.485 42.6901L258.215 42.6901Z" fill="#000403"/>
<path d="M258.215 39.4077L258.215 42.1352L255.485 42.1352L255.485 39.4077L258.215 39.4077Z" fill="#000403"/>
<path d="M258.215 36.1252L258.215 38.8527L255.485 38.8527L255.485 36.1252L258.215 36.1252Z" fill="#000403"/>
<path d="M258.215 32.8431L258.215 35.5705L255.485 35.5705L255.485 32.8431L258.215 32.8431Z" fill="#000403"/>
<path d="M254.973 68.9564L254.973 71.6839L252.243 71.6839L252.243 68.9564L254.973 68.9564Z" fill="#000403"/>
<path d="M254.973 65.6704L254.973 68.3979L252.243 68.3979L252.243 65.6704L254.973 65.6704Z" fill="#000403"/>
<path d="M254.973 62.3879L254.973 65.1154L252.243 65.1154L252.243 62.3879L254.973 62.3879Z" fill="#000403"/>
<path d="M254.973 59.1055L254.973 61.833L252.243 61.833L252.243 59.1055L254.973 59.1055Z" fill="#000403"/>
<path d="M254.973 52.5407L254.973 55.2682L252.243 55.2682L252.243 52.5407L254.973 52.5407Z" fill="#000403"/>
<path d="M254.973 49.2545L254.973 51.982L252.243 51.982L252.243 49.2545L254.973 49.2545Z" fill="#000403"/>
<path d="M254.973 45.9723L254.973 48.6998L252.243 48.6998L252.243 45.9723L254.973 45.9723Z" fill="#000403"/>
<path d="M254.973 42.6901L254.973 45.4176L252.243 45.4176L252.243 42.6901L254.973 42.6901Z" fill="#000403"/>
<path d="M254.973 36.1252L254.973 38.8527L252.243 38.8527L252.243 36.1252L254.973 36.1252Z" fill="#000403"/>
<path d="M254.973 32.8431L254.973 35.5705L252.243 35.5705L252.243 32.8431L254.973 32.8431Z" fill="#000403"/>
<path d="M251.73 68.9564L251.73 71.6839L249.001 71.6839L249.001 68.9564L251.73 68.9564Z" fill="#000403"/>
<path d="M251.73 65.6704L251.73 68.3979L249.001 68.3979L249.001 65.6704L251.73 65.6704Z" fill="#000403"/>
<path d="M251.73 62.3879L251.73 65.1154L249.001 65.1154L249.001 62.3879L251.73 62.3879Z" fill="#000403"/>
<path d="M251.73 59.1054L251.73 61.8329L249.001 61.8329L249.001 59.1054L251.73 59.1054Z" fill="#000403"/>
<path d="M251.73 55.8233L251.73 58.5508L249.001 58.5508L249.001 55.8233L251.73 55.8233Z" fill="#000403"/>
<path d="M251.73 52.5407L251.73 55.2682L249.001 55.2682L249.001 52.5407L251.73 52.5407Z" fill="#000403"/>
<path d="M251.73 49.2545L251.73 51.982L249.001 51.982L249.001 49.2545L251.73 49.2545Z" fill="#000403"/>
<path d="M251.73 45.9723L251.73 48.6998L249.001 48.6998L249.001 45.9723L251.73 45.9723Z" fill="#000403"/>
<path d="M251.73 42.6901L251.73 45.4176L249.001 45.4176L249.001 42.6901L251.73 42.6901Z" fill="#000403"/>
<path d="M251.73 39.4077L251.73 42.1352L249.001 42.1352L249.001 39.4077L251.73 39.4077Z" fill="#000403"/>
<path d="M251.73 36.1252L251.73 38.8527L249.001 38.8527L249.001 36.1252L251.73 36.1252Z" fill="#000403"/>
<path d="M258.215 29.4159L258.215 32.1434L255.485 32.1434L255.485 29.4159L258.215 29.4159Z" fill="#000403"/>
<path d="M258.215 22.851L258.215 25.5785L255.485 25.5785L255.485 22.851L258.215 22.851Z" fill="#000403"/>
<path d="M258.215 19.5688L258.215 22.2963L255.485 22.2963L255.485 19.5688L258.215 19.5688Z" fill="#000403"/>
<path d="M258.215 13L258.215 15.7274L255.485 15.7274L255.485 13L258.215 13Z" fill="#000403"/>
<path d="M254.973 29.4159L254.973 32.1434L252.243 32.1434L252.243 29.4159L254.973 29.4159Z" fill="#000403"/>
<path d="M254.973 26.1332L254.973 28.8607L252.243 28.8607L252.243 26.1332L254.973 26.1332Z" fill="#000403"/>
<path d="M254.973 19.5688L254.973 22.2963L252.243 22.2963L252.243 19.5688L254.973 19.5688Z" fill="#000403"/>
<path d="M254.973 16.2822L254.973 19.0096L252.243 19.0096L252.243 16.2822L254.973 16.2822Z" fill="#000403"/>
<path d="M254.973 13L254.973 15.7274L252.243 15.7274L252.243 13L254.973 13Z" fill="#000403"/>
<path d="M251.73 29.4159L251.73 32.1434L249.001 32.1434L249.001 29.4159L251.73 29.4159Z" fill="#000403"/>
<path d="M251.73 22.851L251.73 25.5785L249.001 25.5785L249.001 22.851L251.73 22.851Z" fill="#000403"/>
<path d="M251.73 19.5688L251.73 22.2963L249.001 22.2963L249.001 19.5688L251.73 19.5688Z" fill="#000403"/>
<path d="M251.73 16.2822L251.73 19.0096L249.001 19.0096L249.001 16.2822L251.73 16.2822Z" fill="#000403"/>
<path d="M255.487 74.7085L255.487 71.981L258.217 71.981L258.217 74.7085L255.487 74.7085Z" fill="#000403"/>
<path d="M255.487 77.9923L255.487 75.2648L258.217 75.2648L258.217 77.9923L255.487 77.9923Z" fill="#000403"/>
<path d="M255.487 81.2762L255.487 78.5488L258.217 78.5488L258.217 81.2762L255.487 81.2762Z" fill="#000403"/>
<path d="M255.487 87.8438L255.487 85.1163L258.217 85.1163L258.217 87.8438L255.487 87.8438Z" fill="#000403"/>
<path d="M255.487 91.1237L255.487 88.3962L258.217 88.3962L258.217 91.1237L255.487 91.1237Z" fill="#000403"/>
<path d="M255.487 97.6912L255.487 94.9637L258.217 94.9637L258.217 97.6912L255.487 97.6912Z" fill="#000403"/>
<path d="M255.487 100.975L255.487 98.2475L258.217 98.2475L258.217 100.975L255.487 100.975Z" fill="#000403"/>
<path d="M255.487 104.259L255.487 101.531L258.217 101.531L258.217 104.259L255.487 104.259Z" fill="#000403"/>
<path d="M255.487 107.543L255.487 104.815L258.217 104.815L258.217 107.543L255.487 107.543Z" fill="#000403"/>
<path d="M255.487 110.822L255.487 108.095L258.217 108.095L258.217 110.822L255.487 110.822Z" fill="#000403"/>
<path d="M252.244 74.7085L252.244 71.981L254.974 71.981L254.974 74.7085L252.244 74.7085Z" fill="#000403"/>
<path d="M252.244 77.9923L252.244 75.2648L254.974 75.2648L254.974 77.9923L252.244 77.9923Z" fill="#000403"/>
<path d="M252.244 81.2762L252.244 78.5488L254.974 78.5488L254.974 81.2762L252.244 81.2762Z" fill="#000403"/>
<path d="M252.244 84.56L252.244 81.8325L254.974 81.8325L254.974 84.56L252.244 84.56Z" fill="#000403"/>
<path d="M252.244 91.1237L252.244 88.3962L254.974 88.3962L254.974 91.1237L252.244 91.1237Z" fill="#000403"/>
<path d="M252.244 94.4074L252.244 91.68L254.974 91.68L254.974 94.4074L252.244 94.4074Z" fill="#000403"/>
<path d="M252.244 97.6912L252.244 94.9637L254.974 94.9637L254.974 97.6912L252.244 97.6912Z" fill="#000403"/>
<path d="M252.244 100.975L252.244 98.2475L254.974 98.2475L254.974 100.975L252.244 100.975Z" fill="#000403"/>
<path d="M252.244 107.543L252.244 104.815L254.974 104.815L254.974 107.543L252.244 107.543Z" fill="#000403"/>
<path d="M252.244 110.822L252.244 108.095L254.974 108.095L254.974 110.822L252.244 110.822Z" fill="#000403"/>
<path d="M249 74.7085L249 71.981L251.73 71.981L251.73 74.7085L249 74.7085Z" fill="#000403"/>
<path d="M249 77.9923L249 75.2648L251.73 75.2648L251.73 77.9923L249 77.9923Z" fill="#000403"/>
<path d="M249 81.2762L249 78.5488L251.73 78.5488L251.73 81.2762L249 81.2762Z" fill="#000403"/>
<path d="M249 84.56L249 81.8325L251.73 81.8325L251.73 84.56L249 84.56Z" fill="#000403"/>
<path d="M249 87.8438L249 85.1163L251.73 85.1163L251.73 87.8438L249 87.8438Z" fill="#000403"/>
<path d="M249 91.1237L249 88.3962L251.73 88.3962L251.73 91.1237L249 91.1237Z" fill="#000403"/>
<path d="M249 94.4074L249 91.68L251.73 91.68L251.73 94.4074L249 94.4074Z" fill="#000403"/>
<path d="M249 97.6912L249 94.9637L251.73 94.9637L251.73 97.6912L249 97.6912Z" fill="#000403"/>
<path d="M249 100.975L249 98.2475L251.73 98.2475L251.73 100.975L249 100.975Z" fill="#000403"/>
<path d="M249 104.259L249 101.531L251.73 101.531L251.73 104.259L249 104.259Z" fill="#000403"/>
<path d="M249 107.543L249 104.815L251.73 104.815L251.73 107.543L249 107.543Z" fill="#000403"/>
<path d="M255.487 114.249L255.487 111.522L258.217 111.522L258.217 114.249L255.487 114.249Z" fill="#000403"/>
<path d="M255.487 120.813L255.487 118.085L258.217 118.085L258.217 120.813L255.487 120.813Z" fill="#000403"/>
<path d="M255.487 124.097L255.487 121.369L258.217 121.369L258.217 124.097L255.487 124.097Z" fill="#000403"/>
<path d="M255.487 130.664L255.487 127.937L258.217 127.937L258.217 130.664L255.487 130.664Z" fill="#000403"/>
<path d="M255.487 143.796L255.487 141.068L258.217 141.068L258.217 143.796L255.487 143.796Z" fill="#000403"/>
<path d="M252.244 114.249L252.244 111.522L254.974 111.522L254.974 114.249L252.244 114.249Z" fill="#000403"/>
<path d="M252.244 117.533L252.244 114.806L254.974 114.806L254.974 117.533L252.244 117.533Z" fill="#000403"/>
<path d="M252.244 124.097L252.244 121.369L254.974 121.369L254.974 124.097L252.244 124.097Z" fill="#000403"/>
<path d="M252.244 127.381L252.244 124.653L254.974 124.653L254.974 127.381L252.244 127.381Z" fill="#000403"/>
<path d="M252.244 130.664L252.244 127.937L254.974 127.937L254.974 130.664L252.244 130.664Z" fill="#000403"/>
<path d="M252.244 133.948L252.244 131.221L254.974 131.221L254.974 133.948L252.244 133.948Z" fill="#000403"/>
<path d="M252.244 140.512L252.244 137.784L254.974 137.784L254.974 140.512L252.244 140.512Z" fill="#000403"/>
<path d="M249 114.249L249 111.522L251.73 111.522L251.73 114.249L249 114.249Z" fill="#000403"/>
<path d="M249 120.813L249 118.085L251.73 118.085L251.73 120.813L249 120.813Z" fill="#000403"/>
<path d="M249 124.097L249 121.369L251.73 121.369L251.73 124.097L249 124.097Z" fill="#000403"/>
<path d="M249 127.381L249 124.653L251.73 124.653L251.73 127.381L249 127.381Z" fill="#000403"/>
<path d="M249 133.948L249 131.221L251.73 131.221L251.73 133.948L249 133.948Z" fill="#000403"/>
<path d="M249 137.228L249 134.501L251.73 134.501L251.73 137.228L249 137.228Z" fill="#000403"/>
<path d="M249 143.796L249 141.068L251.73 141.068L251.73 143.796L249 143.796Z" fill="#000403"/>
<path d="M255.487 150.506L255.487 147.779L258.217 147.779L258.217 150.506L255.487 150.506Z" fill="#000403"/>
<path d="M252.244 147.222L252.244 144.495L254.974 144.495L254.974 147.222L252.244 147.222Z" fill="#000403"/>
<path d="M252.244 157.07L252.244 154.342L254.974 154.342L254.974 157.07L252.244 157.07Z" fill="#000403"/>
<path d="M252.244 166.921L252.244 164.194L254.974 164.194L254.974 166.921L252.244 166.921Z" fill="#000403"/>
<path d="M249 153.786L249 151.059L251.73 151.059L251.73 153.786L249 153.786Z" fill="#000403"/>
<path d="M249 163.637L249 160.91L251.73 160.91L251.73 163.637L249 163.637Z" fill="#000403"/>
<path d="M40.875 55.25V52.875H43.2813V45.75H45.6875V52.875H48.0938V55.25H45.6875V57.625H43.2813V55.25H40.875ZM50.5 50.5H48.0938V52.875H50.5V50.5ZM40.875 50.5H38.4688V52.875H40.875V50.5ZM60.125 41V43.375H62.5313V41H64.9375V38.625H62.5313V31.5H60.125V38.625H57.7188V41H60.125ZM67.3438 36.25H64.9375V38.625H67.3438V36.25ZM57.7188 36.25H55.3125V38.625H57.7188V36.25ZM38.4688 79H57.7188V76.625H38.4688V79ZM36.0625 81.375H38.4688V79H36.0625V81.375ZM33.6563 83.75H36.0625V81.375H33.6563V83.75ZM31.25 86.125H33.6563V83.75H31.25V86.125ZM57.7188 76.625H62.5313V74.25H57.7188V76.625ZM62.5313 74.25H67.3438V71.875H62.5313V74.25ZM67.3438 71.875H72.1563V69.5H67.3438V71.875ZM72.1563 69.5H76.9688V67.125H72.1563V69.5ZM76.9688 62.375V60H72.1563V62.375H67.3438V64.75H62.5313V67.125H55.3125V69.5H52.9063V71.875H38.4688V69.5H52.9063V67.125V64.75H31.25V67.125H28.8438V69.5H26.4375V71.875H24.0313V74.25H21.625V79V81.375H24.0313V83.75H26.4375V86.125H28.8438V83.75H31.25V81.375H33.6563V79H36.0625V76.625H38.4688V74.25H57.7188V71.875H62.5313V69.5H67.3438V67.125H72.1563V64.75H76.9688V67.125H79.375V62.375H76.9688ZM40.875 43.375H48.0938V41H50.5V33.875H48.0938V31.5H40.875V33.875H45.6875V36.25H43.2813V38.625H40.875V33.875H38.4688V41H40.875V43.375ZM57.7188 57.625H64.9375V55.25H67.3438V48.125H64.9375V45.75H57.7188V48.125H62.5313V50.5H60.125V52.875H57.7188V48.125H55.3125V55.25H57.7188V57.625Z" fill="black"/>
<path d="M40.875 124.813V122.469H43.2813V115.438H45.6875V122.469H48.0938V124.813H45.6875V127.156H43.2813V124.813H40.875ZM50.5 120.125H48.0938V122.469H50.5V120.125ZM40.875 120.125H38.4688V122.469H40.875V120.125ZM60.125 110.75V113.094H62.5313V110.75H64.9375V108.406H62.5313V101.375H60.125V108.406H57.7188V110.75H60.125ZM67.3438 106.063H64.9375V108.406H67.3438V106.063ZM57.7188 106.063H55.3125V108.406H57.7188V106.063ZM38.4688 148.25H57.7188V145.906H38.4688V148.25ZM36.0625 150.594H38.4688V148.25H36.0625V150.594ZM33.6563 152.938H36.0625V150.594H33.6563V152.938ZM31.25 155.281H33.6563V152.938H31.25V155.281ZM57.7188 145.906H62.5313V143.563H57.7188V145.906ZM62.5313 143.563H67.3438V141.219H62.5313V143.563ZM67.3438 141.219H72.1563V138.875H67.3438V141.219ZM72.1563 138.875H76.9688V136.531H72.1563V138.875ZM76.9688 131.844V129.5H72.1563V131.844H67.3438V134.188H62.5313V136.531H55.3125V138.875H52.9063V141.219H38.4688V138.875H52.9063V136.531V134.188H31.25V136.531H28.8438V138.875H26.4375V141.219H24.0313V143.563H21.625V148.25V150.594H24.0313V152.938H26.4375V155.281H28.8438V152.938H31.25V150.594H33.6563V148.25H36.0625V145.906H38.4688V143.563H57.7188V141.219H62.5313V138.875H67.3438V136.531H72.1563V134.188H76.9688V136.531H79.375V131.844H76.9688ZM40.875 113.094H48.0938V110.75H50.5V103.719H48.0938V101.375H40.875V103.719H45.6875V106.063H43.2813V108.406H40.875V103.719H38.4688V110.75H40.875V113.094ZM57.7188 127.156H64.9375V124.813H67.3438V117.781H64.9375V115.438H57.7188V117.781H62.5313V120.125H60.125V122.469H57.7188V117.781H55.3125V124.813H57.7188V127.156Z" fill="black"/>
<path d="M40.875 194.25V191.875H43.2813V184.75H45.6875V191.875H48.0938V194.25H45.6875V196.625H43.2813V194.25H40.875ZM50.5 189.5H48.0938V191.875H50.5V189.5ZM40.875 189.5H38.4688V191.875H40.875V189.5ZM60.125 180V182.375H62.5313V180H64.9375V177.625H62.5313V170.5H60.125V177.625H57.7188V180H60.125ZM67.3438 175.25H64.9375V177.625H67.3438V175.25ZM57.7188 175.25H55.3125V177.625H57.7188V175.25ZM38.4688 218H57.7188V215.625H38.4688V218ZM36.0625 220.375H38.4688V218H36.0625V220.375ZM33.6563 222.75H36.0625V220.375H33.6563V222.75ZM31.25 225.125H33.6563V222.75H31.25V225.125ZM57.7188 215.625H62.5313V213.25H57.7188V215.625ZM62.5313 213.25H67.3438V210.875H62.5313V213.25ZM67.3438 210.875H72.1563V208.5H67.3438V210.875ZM72.1563 208.5H76.9688V206.125H72.1563V208.5ZM76.9688 201.375V199H72.1563V201.375H67.3438V203.75H62.5313V206.125H55.3125V208.5H52.9063V210.875H38.4688V208.5H52.9063V206.125V203.75H31.25V206.125H28.8438V208.5H26.4375V210.875H24.0313V213.25H21.625V218V220.375H24.0313V222.75H26.4375V225.125H28.8438V222.75H31.25V220.375H33.6563V218H36.0625V215.625H38.4688V213.25H57.7188V210.875H62.5313V208.5H67.3438V206.125H72.1563V203.75H76.9688V206.125H79.375V201.375H76.9688ZM40.875 182.375H48.0938V180H50.5V172.875H48.0938V170.5H40.875V172.875H45.6875V175.25H43.2813V177.625H40.875V172.875H38.4688V180H40.875V182.375ZM57.7188 196.625H64.9375V194.25H67.3438V187.125H64.9375V184.75H57.7188V187.125H62.5313V189.5H60.125V191.875H57.7188V187.125H55.3125V194.25H57.7188V196.625Z" fill="black"/>
<path d="M40.875 264.25V261.875H43.2813V254.75H45.6875V261.875H48.0938V264.25H45.6875V266.625H43.2813V264.25H40.875ZM50.5 259.5H48.0938V261.875H50.5V259.5ZM40.875 259.5H38.4688V261.875H40.875V259.5ZM60.125 250V252.375H62.5313V250H64.9375V247.625H62.5313V240.5H60.125V247.625H57.7188V250H60.125ZM67.3438 245.25H64.9375V247.625H67.3438V245.25ZM57.7188 245.25H55.3125V247.625H57.7188V245.25ZM38.4688 288H57.7188V285.625H38.4688V288ZM36.0625 290.375H38.4688V288H36.0625V290.375ZM33.6563 292.75H36.0625V290.375H33.6563V292.75ZM31.25 295.125H33.6563V292.75H31.25V295.125ZM57.7188 285.625H62.5313V283.25H57.7188V285.625ZM62.5313 283.25H67.3438V280.875H62.5313V283.25ZM67.3438 280.875H72.1563V278.5H67.3438V280.875ZM72.1563 278.5H76.9688V276.125H72.1563V278.5ZM76.9688 271.375V269H72.1563V271.375H67.3438V273.75H62.5313V276.125H55.3125V278.5H52.9063V280.875H38.4688V278.5H52.9063V276.125V273.75H31.25V276.125H28.8438V278.5H26.4375V280.875H24.0313V283.25H21.625V288V290.375H24.0313V292.75H26.4375V295.125H28.8438V292.75H31.25V290.375H33.6563V288H36.0625V285.625H38.4688V283.25H57.7188V280.875H62.5313V278.5H67.3438V276.125H72.1563V273.75H76.9688V276.125H79.375V271.375H76.9688ZM40.875 252.375H48.0938V250H50.5V242.875H48.0938V240.5H40.875V242.875H45.6875V245.25H43.2813V247.625H40.875V242.875H38.4688V250H40.875V252.375ZM57.7188 266.625H64.9375V264.25H67.3438V257.125H64.9375V254.75H57.7188V257.125H62.5313V259.5H60.125V261.875H57.7188V257.125H55.3125V264.25H57.7188V266.625Z" fill="black"/>
<path d="M313.022 182.043V176.239H297.544V158.826H291.739V182.043H295.609H297.544H307.217V207.196V213H313.022H318.826V207.196H313.022V182.043Z" fill="black"/>
<path d="M324.63 201.391H318.826V207.196H324.63V201.391Z" fill="black"/>
<path d="M330.435 195.587H324.631V201.391H330.435V195.587Z" fill="black"/>
<path d="M336.239 189.783H330.435V195.587H336.239V189.783Z" fill="black"/>
<path d="M342.044 183.978H336.239V189.782H342.044V183.978Z" fill="black"/>
<path d="M347.848 178.174H342.044V183.978H347.848V178.174Z" fill="black"/>
<path d="M342.044 153.022H336.239V158.826H342.044V153.022Z" fill="black"/>
<path d="M347.848 164.63H336.24V158.826H330.435V164.63H324.631V170.435H330.435H336.24H347.848V178.174H353.653V170.435V164.63H347.848Z" fill="black"/>
<path d="M347.848 147.217H342.044V153.022H347.848V147.217Z" fill="black"/>
<path d="M303.348 141.413H297.544V158.826H303.348V141.413Z" fill="black"/>
<path d="M353.652 141.413H347.848V147.217H353.652V141.413Z" fill="black"/>
<path d="M359.457 135.609H353.652V141.413H359.457V135.609Z" fill="black"/>
<path d="M359.456 124H309.152H303.348V141.413H309.152V129.804H359.456V135.609H365.261V129.804V124H359.456Z" fill="black"/>
<path d="M374.022 289.043V283.239H358.544V265.826H352.739V289.043H356.609H358.544H368.217V314.196V320H374.022H379.826V314.196H374.022V289.043Z" fill="black"/>
<path d="M385.63 308.391H379.826V314.196H385.63V308.391Z" fill="black"/>
<path d="M391.435 302.587H385.631V308.391H391.435V302.587Z" fill="black"/>
<path d="M408.848 271.63H397.24V265.826H391.435V271.63H385.631V277.435H391.435H397.24H408.848V285.174H414.653V277.435V271.63H408.848Z" fill="black"/>
<path d="M364.348 248.413H358.544V265.826H364.348V248.413Z" fill="black"/>
<path d="M420.456 231H370.152H364.348V248.413H370.152V236.804H420.456V242.609H426.261V236.804V231H420.456Z" fill="black"/>
<path d="M223.172 173.601H217.921H212.673H207.423H202.175H196.928H191.677H186.43H181.179H175.932H172.246H170.681H166.998H161.748H156.5H151.25H146.002H140.752H135.504H130.253H125.006H119.758H114.508V178.852H119.758V184.099V189.347H125.006V194.597H130.253V199.845H135.504H140.752H146.002H151.25H156.5V194.597H161.748V189.347H166.998V184.099V178.852H170.681H172.246H175.932V184.099V189.347H181.179V194.597H186.43V199.845H191.677H196.928H202.175H207.423H212.673V194.597H217.921V189.347H223.172V184.099V178.852H228.419V173.601H223.172Z" fill="black"/>
<path d="M130.253 178.852H125.006V184.099H130.253V178.852Z" fill="white"/>
<path d="M151.25 189.346H146.002V194.594H151.25V189.346Z" fill="white"/>
<path d="M146 184.099H140.752V189.347H146V184.099Z" fill="white"/>
<path d="M135.5 184.099H130.253V189.347H135.5V184.099Z" fill="white"/>
<path d="M140.751 189.346H135.504V194.594H140.751V189.346Z" fill="white"/>
<path d="M156.498 184.099H151.25V189.347H156.498V184.099Z" fill="white"/>
<path d="M161.748 178.852H156.5V184.099H161.748V178.852Z" fill="white"/>
<path d="M217.921 178.852H212.674V184.099H217.921V178.852Z" fill="white"/>
<path d="M196.925 189.346H191.678V194.594H196.925V189.346Z" fill="white"/>
<path d="M202.175 184.099H196.928V189.347H202.175V184.099Z" fill="white"/>
<path d="M212.671 184.099H207.424V189.347H212.671V184.099Z" fill="white"/>
<path d="M207.422 189.346H202.175V194.594H207.422V189.346Z" fill="white"/>
<path d="M191.677 184.099H186.43V189.347H191.677V184.099Z" fill="white"/>
<path d="M186.426 178.852H181.179V184.099H186.426V178.852Z" fill="white"/>
<path d="M248.699 221.653H243.448H238.201H232.95H227.703H222.455H217.205H211.957H206.706H201.459H197.773H196.208H192.526H187.275H182.028H176.777H171.529H166.279H161.031H155.781H150.533H145.286H140.035V226.903H145.286V232.151V237.398H150.533V242.649H155.781V247.897H161.031H166.279H171.529H176.777H182.028V242.649H187.275V237.398H192.526V232.151V226.903H196.208H197.773H201.459V232.151V237.398H206.706V242.649H211.957V247.897H217.205H222.455H227.703H232.95H238.201V242.649H243.448V237.398H248.699V232.151V226.903H253.946V221.653H248.699Z" fill="black"/>
<path d="M155.781 226.903H150.533V232.151H155.781V226.903Z" fill="white"/>
<path d="M176.777 237.398H171.529V242.646H176.777V237.398Z" fill="white"/>
<path d="M171.527 232.151H166.279V237.399H171.527V232.151Z" fill="white"/>
<path d="M161.028 232.151H155.78V237.399H161.028V232.151Z" fill="white"/>
<path d="M166.279 237.398H161.031V242.646H166.279V237.398Z" fill="white"/>
<path d="M182.025 232.151H176.777V237.399H182.025V232.151Z" fill="white"/>
<path d="M187.275 226.903H182.027V232.151H187.275V226.903Z" fill="white"/>
<path d="M243.449 226.903H238.201V232.151H243.449V226.903Z" fill="white"/>
<path d="M222.453 237.398H217.205V242.646H222.453V237.398Z" fill="white"/>
<path d="M227.703 232.151H222.455V237.399H227.703V232.151Z" fill="white"/>
<path d="M238.198 232.151H232.95V237.399H238.198V232.151Z" fill="white"/>
<path d="M232.95 237.398H227.702V242.646H232.95V237.398Z" fill="white"/>
<path d="M217.205 232.151H211.957V237.399H217.205V232.151Z" fill="white"/>
<path d="M211.954 226.903H206.706V232.151H211.954V226.903Z" fill="white"/>
<path d="M274.226 269.705H268.976H263.728H258.478H253.23H247.982H242.732H237.484H232.234H226.986H223.3H221.736H218.053H212.802H207.555H202.304H197.057H191.806H186.559H181.308H176.061H170.813H165.562V274.955H170.813V280.203V285.45H176.061V290.701H181.308V295.948H186.559H191.806H197.057H202.304H207.555V290.701H212.802V285.45H218.053V280.203V274.955H221.736H223.3H226.986V280.203V285.45H232.234V290.701H237.484V295.948H242.732H247.982H253.23H258.478H263.728V290.701H268.976V285.45H274.226V280.203V274.955H279.474V269.705H274.226Z" fill="black"/>
<path d="M181.308 274.955H176.061V280.203H181.308V274.955Z" fill="white"/>
<path d="M202.304 285.45H197.057V290.698H202.304V285.45Z" fill="white"/>
<path d="M197.054 280.203H191.807V285.45H197.054V280.203Z" fill="white"/>
<path d="M186.555 280.203H181.308V285.45H186.555V280.203Z" fill="white"/>
<path d="M191.806 285.45H186.559V290.698H191.806V285.45Z" fill="white"/>
<path d="M207.552 280.203H202.305V285.45H207.552V280.203Z" fill="white"/>
<path d="M212.802 274.955H207.555V280.203H212.802V274.955Z" fill="white"/>
<path d="M268.976 274.955H263.729V280.203H268.976V274.955Z" fill="white"/>
<path d="M247.98 285.45H242.732V290.698H247.98V285.45Z" fill="white"/>
<path d="M253.23 280.203H247.982V285.45H253.23V280.203Z" fill="white"/>
<path d="M263.725 280.203H258.478V285.45H263.725V280.203Z" fill="white"/>
<path d="M258.477 285.45H253.229V290.698H258.477V285.45Z" fill="white"/>
<path d="M242.732 280.203H237.484V285.45H242.732V280.203Z" fill="white"/>
<path d="M237.481 274.955H232.233V280.203H237.481V274.955Z" fill="white"/>
<path d="M299.754 317.756H294.503H289.255H284.005H278.757H273.51H268.259H263.012H257.761H252.514H248.828H247.263H243.58H238.33H233.082H227.832H222.584H217.334H212.086H206.835H201.588H196.34H191.09V323.007H196.34V328.254V333.502H201.588V338.753H206.835V344H212.086H217.334H222.584H227.832H233.082V338.753H238.33V333.502H243.58V328.254V323.007H247.263H248.828H252.514V328.254V333.502H257.761V338.753H263.012V344H268.259H273.51H278.757H284.005H289.255V338.753H294.503V333.502H299.754V328.254V323.007H305.001V317.756H299.754Z" fill="black"/>
<path d="M206.835 323.007H201.588V328.254H206.835V323.007Z" fill="white"/>
<path d="M227.832 333.502H222.584V338.749H227.832V333.502Z" fill="white"/>
<path d="M222.582 328.255H217.334V333.502H222.582V328.255Z" fill="white"/>
<path d="M212.083 328.255H206.835V333.502H212.083V328.255Z" fill="white"/>
<path d="M217.333 333.502H212.086V338.749H217.333V333.502Z" fill="white"/>
<path d="M233.08 328.255H227.832V333.502H233.08V328.255Z" fill="white"/>
<path d="M238.33 323.007H233.082V328.254H238.33V323.007Z" fill="white"/>
<path d="M294.503 323.007H289.256V328.254H294.503V323.007Z" fill="white"/>
<path d="M273.507 333.502H268.26V338.749H273.507V333.502Z" fill="white"/>
<path d="M278.757 328.255H273.51V333.502H278.757V328.255Z" fill="white"/>
<path d="M289.253 328.255H284.006V333.502H289.253V328.255Z" fill="white"/>
<path d="M284.004 333.502H278.757V338.749H284.004V333.502Z" fill="white"/>
<path d="M268.259 328.255H263.012V333.502H268.259V328.255Z" fill="white"/>
<path d="M263.008 323.007H257.761V328.254H263.008V323.007Z" fill="white"/>
<path d="M122.215 51.4157L122.215 54.1432L119.485 54.1432L119.485 51.4157L122.215 51.4157Z" fill="#000403"/>
<path d="M122.215 48.1296L122.215 50.8571L119.485 50.8571L119.485 48.1296L122.215 48.1296Z" fill="#000403"/>
<path d="M122.215 44.8471L122.215 47.5746L119.485 47.5746L119.485 44.8471L122.215 44.8471Z" fill="#000403"/>
<path d="M122.215 38.2826L122.215 41.0101L119.485 41.0101L119.485 38.2826L122.215 38.2826Z" fill="#000403"/>
<path d="M122.215 35L122.215 37.7275L119.485 37.7275L119.485 35L122.215 35Z" fill="#000403"/>
<path d="M118.973 51.4157L118.973 54.1432L116.243 54.1432L116.243 51.4157L118.973 51.4157Z" fill="#000403"/>
<path d="M118.973 48.1296L118.973 50.8571L116.243 50.8571L116.243 48.1296L118.973 48.1296Z" fill="#000403"/>
<path d="M118.973 44.8471L118.973 47.5746L116.243 47.5746L116.243 44.8471L118.973 44.8471Z" fill="#000403"/>
<path d="M118.973 41.5648L118.973 44.2923L116.243 44.2923L116.243 41.5648L118.973 41.5648Z" fill="#000403"/>
<path d="M118.973 35L118.973 37.7275L116.243 37.7275L116.243 35L118.973 35Z" fill="#000403"/>
<path d="M115.73 51.4157L115.73 54.1432L113.001 54.1432L113.001 51.4157L115.73 51.4157Z" fill="#000403"/>
<path d="M115.73 48.1296L115.73 50.8571L113.001 50.8571L113.001 48.1296L115.73 48.1296Z" fill="#000403"/>
<path d="M115.73 44.8471L115.73 47.5746L113.001 47.5746L113.001 44.8471L115.73 44.8471Z" fill="#000403"/>
<path d="M115.73 41.5647L115.73 44.2922L113.001 44.2922L113.001 41.5647L115.73 41.5647Z" fill="#000403"/>
<path d="M115.73 38.2826L115.73 41.0101L113.001 41.0101L113.001 38.2826L115.73 38.2826Z" fill="#000403"/>
<path d="M115.73 35L115.73 37.7275L113.001 37.7275L113.001 35L115.73 35Z" fill="#000403"/>
<path d="M119.487 57.1678L119.487 54.4403L122.217 54.4403L122.217 57.1678L119.487 57.1678Z" fill="#000403"/>
<path d="M119.487 60.4516L119.487 57.7241L122.217 57.7241L122.217 60.4516L119.487 60.4516Z" fill="#000403"/>
<path d="M119.487 63.7355L119.487 61.008L122.217 61.008L122.217 63.7355L119.487 63.7355Z" fill="#000403"/>
<path d="M119.487 70.303L119.487 67.5756L122.217 67.5756L122.217 70.303L119.487 70.303Z" fill="#000403"/>
<path d="M119.487 73.5829L119.487 70.8555L122.217 70.8555L122.217 73.5829L119.487 73.5829Z" fill="#000403"/>
<path d="M119.487 80.1505L119.487 77.423L122.217 77.423L122.217 80.1505L119.487 80.1505Z" fill="#000403"/>
<path d="M119.487 83.4343L119.487 80.7068L122.217 80.7068L122.217 83.4343L119.487 83.4343Z" fill="#000403"/>
<path d="M119.487 86.7181L119.487 83.9906L122.217 83.9906L122.217 86.7181L119.487 86.7181Z" fill="#000403"/>
<path d="M119.487 90.0019L119.487 87.2744L122.217 87.2744L122.217 90.0019L119.487 90.0019Z" fill="#000403"/>
<path d="M119.487 93.2818L119.487 90.5543L122.217 90.5543L122.217 93.2818L119.487 93.2818Z" fill="#000403"/>
<path d="M116.244 57.1678L116.244 54.4403L118.974 54.4403L118.974 57.1678L116.244 57.1678Z" fill="#000403"/>
<path d="M116.244 60.4516L116.244 57.7241L118.974 57.7241L118.974 60.4516L116.244 60.4516Z" fill="#000403"/>
<path d="M116.244 63.7355L116.244 61.008L118.974 61.008L118.974 63.7355L116.244 63.7355Z" fill="#000403"/>
<path d="M116.244 67.0193L116.244 64.2918L118.974 64.2918L118.974 67.0193L116.244 67.0193Z" fill="#000403"/>
<path d="M116.244 73.5829L116.244 70.8555L118.974 70.8555L118.974 73.5829L116.244 73.5829Z" fill="#000403"/>
<path d="M116.244 76.8667L116.244 74.1392L118.974 74.1392L118.974 76.8667L116.244 76.8667Z" fill="#000403"/>
<path d="M116.244 80.1505L116.244 77.423L118.974 77.423L118.974 80.1505L116.244 80.1505Z" fill="#000403"/>
<path d="M116.244 83.4343L116.244 80.7068L118.974 80.7068L118.974 83.4343L116.244 83.4343Z" fill="#000403"/>
<path d="M116.244 90.0019L116.244 87.2744L118.974 87.2744L118.974 90.0019L116.244 90.0019Z" fill="#000403"/>
<path d="M116.244 93.2818L116.244 90.5543L118.974 90.5543L118.974 93.2818L116.244 93.2818Z" fill="#000403"/>
<path d="M113 57.1678L113 54.4403L115.73 54.4403L115.73 57.1678L113 57.1678Z" fill="#000403"/>
<path d="M113 60.4516L113 57.7241L115.73 57.7241L115.73 60.4516L113 60.4516Z" fill="#000403"/>
<path d="M113 63.7355L113 61.008L115.73 61.008L115.73 63.7355L113 63.7355Z" fill="#000403"/>
<path d="M113 67.0193L113 64.2918L115.73 64.2918L115.73 67.0193L113 67.0193Z" fill="#000403"/>
<path d="M113 70.303L113 67.5756L115.73 67.5756L115.73 70.303L113 70.303Z" fill="#000403"/>
<path d="M113 73.5829L113 70.8555L115.73 70.8555L115.73 73.5829L113 73.5829Z" fill="#000403"/>
<path d="M113 76.8667L113 74.1392L115.73 74.1392L115.73 76.8667L113 76.8667Z" fill="#000403"/>
<path d="M113 80.1505L113 77.423L115.73 77.423L115.73 80.1505L113 80.1505Z" fill="#000403"/>
<path d="M113 83.4343L113 80.7068L115.73 80.7068L115.73 83.4343L113 83.4343Z" fill="#000403"/>
<path d="M113 86.718L113 83.9905L115.73 83.9905L115.73 86.718L113 86.718Z" fill="#000403"/>
<path d="M113 90.0019L113 87.2744L115.73 87.2744L115.73 90.0019L113 90.0019Z" fill="#000403"/>
<path d="M119.487 96.7085L119.487 93.981L122.217 93.981L122.217 96.7085L119.487 96.7085Z" fill="#000403"/>
<path d="M119.487 103.272L119.487 100.545L122.217 100.545L122.217 103.272L119.487 103.272Z" fill="#000403"/>
<path d="M119.487 106.556L119.487 103.828L122.217 103.828L122.217 106.556L119.487 106.556Z" fill="#000403"/>
<path d="M119.487 113.124L119.487 110.396L122.217 110.396L122.217 113.124L119.487 113.124Z" fill="#000403"/>
<path d="M119.487 126.255L119.487 123.527L122.217 123.527L122.217 126.255L119.487 126.255Z" fill="#000403"/>
<path d="M116.244 96.7085L116.244 93.981L118.974 93.981L118.974 96.7085L116.244 96.7085Z" fill="#000403"/>
<path d="M116.244 99.9923L116.244 97.2648L118.974 97.2648L118.974 99.9923L116.244 99.9923Z" fill="#000403"/>
<path d="M116.244 106.556L116.244 103.828L118.974 103.828L118.974 106.556L116.244 106.556Z" fill="#000403"/>
<path d="M116.244 109.84L116.244 107.112L118.974 107.112L118.974 109.84L116.244 109.84Z" fill="#000403"/>
<path d="M116.244 113.124L116.244 110.396L118.974 110.396L118.974 113.124L116.244 113.124Z" fill="#000403"/>
<path d="M116.244 116.407L116.244 113.68L118.974 113.68L118.974 116.407L116.244 116.407Z" fill="#000403"/>
<path d="M116.244 122.971L116.244 120.244L118.974 120.244L118.974 122.971L116.244 122.971Z" fill="#000403"/>
<path d="M113 96.7085L113 93.981L115.73 93.981L115.73 96.7085L113 96.7085Z" fill="#000403"/>
<path d="M113 103.272L113 100.545L115.73 100.545L115.73 103.272L113 103.272Z" fill="#000403"/>
<path d="M113 106.556L113 103.828L115.73 103.828L115.73 106.556L113 106.556Z" fill="#000403"/>
<path d="M113 109.84L113 107.112L115.73 107.112L115.73 109.84L113 109.84Z" fill="#000403"/>
<path d="M113 116.407L113 113.68L115.73 113.68L115.73 116.407L113 116.407Z" fill="#000403"/>
<path d="M113 119.687L113 116.96L115.73 116.96L115.73 119.687L113 119.687Z" fill="#000403"/>
<path d="M113 126.255L113 123.527L115.73 123.527L115.73 126.255L113 126.255Z" fill="#000403"/>
<path d="M119.487 132.966L119.487 130.238L122.217 130.238L122.217 132.966L119.487 132.966Z" fill="#000403"/>
<path d="M116.244 129.682L116.244 126.954L118.974 126.954L118.974 129.682L116.244 129.682Z" fill="#000403"/>
<path d="M116.244 139.529L116.244 136.802L118.974 136.802L118.974 139.529L116.244 139.529Z" fill="#000403"/>
<path d="M116.244 149.38L116.244 146.653L118.974 146.653L118.974 149.38L116.244 149.38Z" fill="#000403"/>
<path d="M113 136.245L113 133.518L115.73 133.518L115.73 136.245L113 136.245Z" fill="#000403"/>
<path d="M113 146.097L113 143.369L115.73 143.369L115.73 146.097L113 146.097Z" fill="#000403"/>
<path d="M376.215 75.4157L376.215 78.1432L373.485 78.1432L373.485 75.4157L376.215 75.4157Z" fill="#000403"/>
<path d="M376.215 72.1296L376.215 74.8571L373.485 74.8571L373.485 72.1296L376.215 72.1296Z" fill="#000403"/>
<path d="M376.215 68.8471L376.215 71.5746L373.485 71.5746L373.485 68.8471L376.215 68.8471Z" fill="#000403"/>
<path d="M376.215 62.2826L376.215 65.0101L373.485 65.0101L373.485 62.2826L376.215 62.2826Z" fill="#000403"/>
<path d="M376.215 59L376.215 61.7275L373.485 61.7275L373.485 59L376.215 59Z" fill="#000403"/>
<path d="M372.973 75.4157L372.973 78.1432L370.243 78.1432L370.243 75.4157L372.973 75.4157Z" fill="#000403"/>
<path d="M372.973 72.1296L372.973 74.8571L370.243 74.8571L370.243 72.1296L372.973 72.1296Z" fill="#000403"/>
<path d="M372.973 68.8471L372.973 71.5746L370.243 71.5746L370.243 68.8471L372.973 68.8471Z" fill="#000403"/>
<path d="M372.973 65.5648L372.973 68.2923L370.243 68.2923L370.243 65.5648L372.973 65.5648Z" fill="#000403"/>
<path d="M372.973 59L372.973 61.7275L370.243 61.7275L370.243 59L372.973 59Z" fill="#000403"/>
<path d="M369.73 75.4157L369.73 78.1432L367.001 78.1432L367.001 75.4157L369.73 75.4157Z" fill="#000403"/>
<path d="M369.73 72.1296L369.73 74.8571L367.001 74.8571L367.001 72.1296L369.73 72.1296Z" fill="#000403"/>
<path d="M369.73 68.8471L369.73 71.5746L367.001 71.5746L367.001 68.8471L369.73 68.8471Z" fill="#000403"/>
<path d="M369.73 65.5647L369.73 68.2922L367.001 68.2922L367.001 65.5647L369.73 65.5647Z" fill="#000403"/>
<path d="M369.73 62.2826L369.73 65.0101L367.001 65.0101L367.001 62.2826L369.73 62.2826Z" fill="#000403"/>
<path d="M369.73 59L369.73 61.7275L367.001 61.7275L367.001 59L369.73 59Z" fill="#000403"/>
<path d="M373.487 81.1678L373.487 78.4403L376.217 78.4403L376.217 81.1678L373.487 81.1678Z" fill="#000403"/>
<path d="M373.487 84.4516L373.487 81.7241L376.217 81.7241L376.217 84.4516L373.487 84.4516Z" fill="#000403"/>
<path d="M373.487 87.7355L373.487 85.008L376.217 85.008L376.217 87.7355L373.487 87.7355Z" fill="#000403"/>
<path d="M373.487 94.303L373.487 91.5756L376.217 91.5756L376.217 94.303L373.487 94.303Z" fill="#000403"/>
<path d="M373.487 97.5829L373.487 94.8555L376.217 94.8555L376.217 97.5829L373.487 97.5829Z" fill="#000403"/>
<path d="M373.487 104.15L373.487 101.423L376.217 101.423L376.217 104.15L373.487 104.15Z" fill="#000403"/>
<path d="M373.487 107.434L373.487 104.707L376.217 104.707L376.217 107.434L373.487 107.434Z" fill="#000403"/>
<path d="M373.487 110.718L373.487 107.991L376.217 107.991L376.217 110.718L373.487 110.718Z" fill="#000403"/>
<path d="M373.487 114.002L373.487 111.274L376.217 111.274L376.217 114.002L373.487 114.002Z" fill="#000403"/>
<path d="M373.487 117.282L373.487 114.554L376.217 114.554L376.217 117.282L373.487 117.282Z" fill="#000403"/>
<path d="M370.244 81.1678L370.244 78.4403L372.974 78.4403L372.974 81.1678L370.244 81.1678Z" fill="#000403"/>
<path d="M370.244 84.4516L370.244 81.7241L372.974 81.7241L372.974 84.4516L370.244 84.4516Z" fill="#000403"/>
<path d="M370.244 87.7355L370.244 85.008L372.974 85.008L372.974 87.7355L370.244 87.7355Z" fill="#000403"/>
<path d="M370.244 91.0193L370.244 88.2918L372.974 88.2918L372.974 91.0193L370.244 91.0193Z" fill="#000403"/>
<path d="M370.244 97.5829L370.244 94.8555L372.974 94.8555L372.974 97.5829L370.244 97.5829Z" fill="#000403"/>
<path d="M370.244 100.867L370.244 98.1392L372.974 98.1392L372.974 100.867L370.244 100.867Z" fill="#000403"/>
<path d="M370.244 104.15L370.244 101.423L372.974 101.423L372.974 104.15L370.244 104.15Z" fill="#000403"/>
<path d="M370.244 107.434L370.244 104.707L372.974 104.707L372.974 107.434L370.244 107.434Z" fill="#000403"/>
<path d="M370.244 114.002L370.244 111.274L372.974 111.274L372.974 114.002L370.244 114.002Z" fill="#000403"/>
<path d="M370.244 117.282L370.244 114.554L372.974 114.554L372.974 117.282L370.244 117.282Z" fill="#000403"/>
<path d="M367 81.1678L367 78.4403L369.73 78.4403L369.73 81.1678L367 81.1678Z" fill="#000403"/>
<path d="M367 84.4516L367 81.7241L369.73 81.7241L369.73 84.4516L367 84.4516Z" fill="#000403"/>
<path d="M367 87.7355L367 85.008L369.73 85.008L369.73 87.7355L367 87.7355Z" fill="#000403"/>
<path d="M367 91.0193L367 88.2918L369.73 88.2918L369.73 91.0193L367 91.0193Z" fill="#000403"/>
<path d="M367 94.303L367 91.5756L369.73 91.5756L369.73 94.303L367 94.303Z" fill="#000403"/>
<path d="M367 97.5829L367 94.8555L369.73 94.8555L369.73 97.5829L367 97.5829Z" fill="#000403"/>
<path d="M367 100.867L367 98.1392L369.73 98.1392L369.73 100.867L367 100.867Z" fill="#000403"/>
<path d="M367 104.15L367 101.423L369.73 101.423L369.73 104.15L367 104.15Z" fill="#000403"/>
<path d="M367 107.434L367 104.707L369.73 104.707L369.73 107.434L367 107.434Z" fill="#000403"/>
<path d="M367 110.718L367 107.991L369.73 107.991L369.73 110.718L367 110.718Z" fill="#000403"/>
<path d="M367 114.002L367 111.274L369.73 111.274L369.73 114.002L367 114.002Z" fill="#000403"/>
<path d="M373.487 120.708L373.487 117.981L376.217 117.981L376.217 120.708L373.487 120.708Z" fill="#000403"/>
<path d="M373.487 127.272L373.487 124.545L376.217 124.545L376.217 127.272L373.487 127.272Z" fill="#000403"/>
<path d="M373.487 130.556L373.487 127.828L376.217 127.828L376.217 130.556L373.487 130.556Z" fill="#000403"/>
<path d="M373.487 137.124L373.487 134.396L376.217 134.396L376.217 137.124L373.487 137.124Z" fill="#000403"/>
<path d="M373.487 150.255L373.487 147.527L376.217 147.527L376.217 150.255L373.487 150.255Z" fill="#000403"/>
<path d="M370.244 120.708L370.244 117.981L372.974 117.981L372.974 120.708L370.244 120.708Z" fill="#000403"/>
<path d="M370.244 123.992L370.244 121.265L372.974 121.265L372.974 123.992L370.244 123.992Z" fill="#000403"/>
<path d="M370.244 130.556L370.244 127.828L372.974 127.828L372.974 130.556L370.244 130.556Z" fill="#000403"/>
<path d="M370.244 133.84L370.244 131.112L372.974 131.112L372.974 133.84L370.244 133.84Z" fill="#000403"/>
<path d="M370.244 137.124L370.244 134.396L372.974 134.396L372.974 137.124L370.244 137.124Z" fill="#000403"/>
<path d="M370.244 140.407L370.244 137.68L372.974 137.68L372.974 140.407L370.244 140.407Z" fill="#000403"/>
<path d="M370.244 146.971L370.244 144.244L372.974 144.244L372.974 146.971L370.244 146.971Z" fill="#000403"/>
<path d="M367 120.708L367 117.981L369.73 117.981L369.73 120.708L367 120.708Z" fill="#000403"/>
<path d="M367 127.272L367 124.545L369.73 124.545L369.73 127.272L367 127.272Z" fill="#000403"/>
<path d="M367 130.556L367 127.828L369.73 127.828L369.73 130.556L367 130.556Z" fill="#000403"/>
<path d="M367 133.84L367 131.112L369.73 131.112L369.73 133.84L367 133.84Z" fill="#000403"/>
<path d="M367 140.407L367 137.68L369.73 137.68L369.73 140.407L367 140.407Z" fill="#000403"/>
<path d="M367 143.687L367 140.96L369.73 140.96L369.73 143.687L367 143.687Z" fill="#000403"/>
<path d="M367 150.255L367 147.527L369.73 147.527L369.73 150.255L367 150.255Z" fill="#000403"/>
<path d="M373.487 156.966L373.487 154.238L376.217 154.238L376.217 156.966L373.487 156.966Z" fill="#000403"/>
<path d="M370.244 153.682L370.244 150.954L372.974 150.954L372.974 153.682L370.244 153.682Z" fill="#000403"/>
<path d="M370.244 163.529L370.244 160.802L372.974 160.802L372.974 163.529L370.244 163.529Z" fill="#000403"/>
<path d="M370.244 173.38L370.244 170.653L372.974 170.653L372.974 173.38L370.244 173.38Z" fill="#000403"/>
<path d="M367 160.245L367 157.518L369.73 157.518L369.73 160.245L367 160.245Z" fill="#000403"/>
<path d="M367 170.097L367 167.369L369.73 167.369L369.73 170.097L367 170.097Z" fill="#000403"/>
<path d="M136.215 262.416L136.215 265.143L133.485 265.143L133.485 262.416L136.215 262.416Z" fill="#000403"/>
<path d="M136.215 259.13L136.215 261.857L133.485 261.857L133.485 259.13L136.215 259.13Z" fill="#000403"/>
<path d="M136.215 255.847L136.215 258.575L133.485 258.575L133.485 255.847L136.215 255.847Z" fill="#000403"/>
<path d="M136.215 249.283L136.215 252.01L133.485 252.01L133.485 249.283L136.215 249.283Z" fill="#000403"/>
<path d="M136.215 246L136.215 248.727L133.485 248.727L133.485 246L136.215 246Z" fill="#000403"/>
<path d="M132.973 262.416L132.973 265.143L130.243 265.143L130.243 262.416L132.973 262.416Z" fill="#000403"/>
<path d="M132.973 259.13L132.973 261.857L130.243 261.857L130.243 259.13L132.973 259.13Z" fill="#000403"/>
<path d="M132.973 255.847L132.973 258.575L130.243 258.575L130.243 255.847L132.973 255.847Z" fill="#000403"/>
<path d="M132.973 252.565L132.973 255.292L130.243 255.292L130.243 252.565L132.973 252.565Z" fill="#000403"/>
<path d="M132.973 246L132.973 248.727L130.243 248.727L130.243 246L132.973 246Z" fill="#000403"/>
<path d="M129.73 262.416L129.73 265.143L127.001 265.143L127.001 262.416L129.73 262.416Z" fill="#000403"/>
<path d="M129.73 259.13L129.73 261.857L127.001 261.857L127.001 259.13L129.73 259.13Z" fill="#000403"/>
<path d="M129.73 255.847L129.73 258.575L127.001 258.575L127.001 255.847L129.73 255.847Z" fill="#000403"/>
<path d="M129.73 252.565L129.73 255.292L127.001 255.292L127.001 252.565L129.73 252.565Z" fill="#000403"/>
<path d="M129.73 249.283L129.73 252.01L127.001 252.01L127.001 249.283L129.73 249.283Z" fill="#000403"/>
<path d="M129.73 246L129.73 248.727L127.001 248.727L127.001 246L129.73 246Z" fill="#000403"/>
<path d="M133.487 268.168L133.487 265.44L136.217 265.44L136.217 268.168L133.487 268.168Z" fill="#000403"/>
<path d="M133.487 271.452L133.487 268.724L136.217 268.724L136.217 271.452L133.487 271.452Z" fill="#000403"/>
<path d="M133.487 274.736L133.487 272.008L136.217 272.008L136.217 274.736L133.487 274.736Z" fill="#000403"/>
<path d="M133.487 281.303L133.487 278.576L136.217 278.576L136.217 281.303L133.487 281.303Z" fill="#000403"/>
<path d="M133.487 284.583L133.487 281.855L136.217 281.855L136.217 284.583L133.487 284.583Z" fill="#000403"/>
<path d="M133.487 291.15L133.487 288.423L136.217 288.423L136.217 291.15L133.487 291.15Z" fill="#000403"/>
<path d="M133.487 294.434L133.487 291.707L136.217 291.707L136.217 294.434L133.487 294.434Z" fill="#000403"/>
<path d="M133.487 297.718L133.487 294.991L136.217 294.991L136.217 297.718L133.487 297.718Z" fill="#000403"/>
<path d="M133.487 301.002L133.487 298.274L136.217 298.274L136.217 301.002L133.487 301.002Z" fill="#000403"/>
<path d="M133.487 304.282L133.487 301.554L136.217 301.554L136.217 304.282L133.487 304.282Z" fill="#000403"/>
<path d="M130.244 268.168L130.244 265.44L132.974 265.44L132.974 268.168L130.244 268.168Z" fill="#000403"/>
<path d="M130.244 271.452L130.244 268.724L132.974 268.724L132.974 271.452L130.244 271.452Z" fill="#000403"/>
<path d="M130.244 274.736L130.244 272.008L132.974 272.008L132.974 274.736L130.244 274.736Z" fill="#000403"/>
<path d="M130.244 278.019L130.244 275.292L132.974 275.292L132.974 278.019L130.244 278.019Z" fill="#000403"/>
<path d="M130.244 284.583L130.244 281.855L132.974 281.855L132.974 284.583L130.244 284.583Z" fill="#000403"/>
<path d="M130.244 287.867L130.244 285.139L132.974 285.139L132.974 287.867L130.244 287.867Z" fill="#000403"/>
<path d="M130.244 291.15L130.244 288.423L132.974 288.423L132.974 291.15L130.244 291.15Z" fill="#000403"/>
<path d="M130.244 294.434L130.244 291.707L132.974 291.707L132.974 294.434L130.244 294.434Z" fill="#000403"/>
<path d="M130.244 301.002L130.244 298.274L132.974 298.274L132.974 301.002L130.244 301.002Z" fill="#000403"/>
<path d="M130.244 304.282L130.244 301.554L132.974 301.554L132.974 304.282L130.244 304.282Z" fill="#000403"/>
<path d="M127 268.168L127 265.44L129.73 265.44L129.73 268.168L127 268.168Z" fill="#000403"/>
<path d="M127 271.452L127 268.724L129.73 268.724L129.73 271.452L127 271.452Z" fill="#000403"/>
<path d="M127 274.736L127 272.008L129.73 272.008L129.73 274.736L127 274.736Z" fill="#000403"/>
<path d="M127 278.019L127 275.292L129.73 275.292L129.73 278.019L127 278.019Z" fill="#000403"/>
<path d="M127 281.303L127 278.576L129.73 278.576L129.73 281.303L127 281.303Z" fill="#000403"/>
<path d="M127 284.583L127 281.855L129.73 281.855L129.73 284.583L127 284.583Z" fill="#000403"/>
<path d="M127 287.867L127 285.139L129.73 285.139L129.73 287.867L127 287.867Z" fill="#000403"/>
<path d="M127 291.15L127 288.423L129.73 288.423L129.73 291.15L127 291.15Z" fill="#000403"/>
<path d="M127 294.434L127 291.707L129.73 291.707L129.73 294.434L127 294.434Z" fill="#000403"/>
<path d="M127 297.718L127 294.991L129.73 294.991L129.73 297.718L127 297.718Z" fill="#000403"/>
<path d="M127 301.002L127 298.274L129.73 298.274L129.73 301.002L127 301.002Z" fill="#000403"/>
<path d="M133.487 307.708L133.487 304.981L136.217 304.981L136.217 307.708L133.487 307.708Z" fill="#000403"/>
<path d="M133.487 314.272L133.487 311.545L136.217 311.545L136.217 314.272L133.487 314.272Z" fill="#000403"/>
<path d="M133.487 317.556L133.487 314.828L136.217 314.828L136.217 317.556L133.487 317.556Z" fill="#000403"/>
<path d="M133.487 324.124L133.487 321.396L136.217 321.396L136.217 324.124L133.487 324.124Z" fill="#000403"/>
<path d="M133.487 337.255L133.487 334.527L136.217 334.527L136.217 337.255L133.487 337.255Z" fill="#000403"/>
<path d="M130.244 307.708L130.244 304.981L132.974 304.981L132.974 307.708L130.244 307.708Z" fill="#000403"/>
<path d="M130.244 310.992L130.244 308.265L132.974 308.265L132.974 310.992L130.244 310.992Z" fill="#000403"/>
<path d="M130.244 317.556L130.244 314.828L132.974 314.828L132.974 317.556L130.244 317.556Z" fill="#000403"/>
<path d="M130.244 320.84L130.244 318.112L132.974 318.112L132.974 320.84L130.244 320.84Z" fill="#000403"/>
<path d="M130.244 324.124L130.244 321.396L132.974 321.396L132.974 324.124L130.244 324.124Z" fill="#000403"/>
<path d="M130.244 327.407L130.244 324.68L132.974 324.68L132.974 327.407L130.244 327.407Z" fill="#000403"/>
<path d="M130.244 333.971L130.244 331.244L132.974 331.244L132.974 333.971L130.244 333.971Z" fill="#000403"/>
<path d="M127 307.708L127 304.981L129.73 304.981L129.73 307.708L127 307.708Z" fill="#000403"/>
<path d="M127 314.272L127 311.545L129.73 311.545L129.73 314.272L127 314.272Z" fill="#000403"/>
<path d="M127 317.556L127 314.828L129.73 314.828L129.73 317.556L127 317.556Z" fill="#000403"/>
<path d="M127 320.84L127 318.112L129.73 318.112L129.73 320.84L127 320.84Z" fill="#000403"/>
<path d="M127 327.407L127 324.68L129.73 324.68L129.73 327.407L127 327.407Z" fill="#000403"/>
<path d="M127 330.687L127 327.96L129.73 327.96L129.73 330.687L127 330.687Z" fill="#000403"/>
<path d="M127 337.255L127 334.527L129.73 334.527L129.73 337.255L127 337.255Z" fill="#000403"/>
<path d="M133.487 343.966L133.487 341.238L136.217 341.238L136.217 343.966L133.487 343.966Z" fill="#000403"/>
<path d="M130.244 340.682L130.244 337.954L132.974 337.954L132.974 340.682L130.244 340.682Z" fill="#000403"/>
<path d="M130.244 350.529L130.244 347.802L132.974 347.802L132.974 350.529L130.244 350.529Z" fill="#000403"/>
<path d="M130.244 360.38L130.244 357.653L132.974 357.653L132.974 360.38L130.244 360.38Z" fill="#000403"/>
<path d="M127 347.245L127 344.518L129.73 344.518L129.73 347.245L127 347.245Z" fill="#000403"/>
<path d="M127 357.097L127 354.369L129.73 354.369L129.73 357.097L127 357.097Z" fill="#000403"/>
</svg>
